<svg width="24" height="24" viewBox="0 0 24 24" fill="none" xmlns="http://www.w3.org/2000/svg">
<path d="M16 3.385V2M19.63 4.364L20.608 3.384M20.618 8H22M22 12C22 16.714 22 19.071 20.535 20.535C19.072 22 16.714 22 12 22C7.286 22 4.929 22 3.464 20.535C2 19.072 2 16.714 2 12C2 7.286 2 4.929 3.464 3.464C4.93 2 7.286 2 12 2" stroke="#242A36" stroke-width="1.5" stroke-linecap="round" stroke-linejoin="round"/>
<path d="M11.8518 8.00684H15.0738C15.4528 8.00684 15.7598 8.32184 15.7598 8.70984V12.0348M2.75977 13.9578C5.03277 14.2238 10.7368 13.5138 14.8908 8.88984" stroke="#242A36" stroke-width="1.5" stroke-linecap="round" stroke-linejoin="round"/>
</svg>
