<svg width="24" height="24" viewBox="0 0 24 24" fill="none" xmlns="http://www.w3.org/2000/svg">
<path d="M11.5379 8.32191C11.573 8.22769 11.6361 8.14645 11.7186 8.08908C11.8012 8.03172 11.8994 8.00098 11.9999 8.00098C12.1005 8.00098 12.1986 8.03172 12.2812 8.08908C12.3638 8.14645 12.4268 8.22769 12.4619 8.32191L13.1739 10.2439C13.2739 10.5139 13.4859 10.7269 13.7559 10.8259L15.6779 11.5379C15.7721 11.573 15.8534 11.6361 15.9107 11.7186C15.9681 11.8012 15.9989 11.8994 15.9989 11.9999C15.9989 12.1005 15.9681 12.1986 15.9107 12.2812C15.8534 12.3638 15.7721 12.4268 15.6779 12.4619L13.7559 13.1739C13.6232 13.2241 13.5026 13.3019 13.4023 13.4023C13.3019 13.5026 13.2241 13.6232 13.1739 13.7559L12.4619 15.6779C12.4268 15.7721 12.3638 15.8534 12.2812 15.9107C12.1986 15.9681 12.1005 15.9989 11.9999 15.9989C11.8994 15.9989 11.8012 15.9681 11.7186 15.9107C11.6361 15.8534 11.573 15.7721 11.5379 15.6779L10.8259 13.7559C10.7758 13.6232 10.6979 13.5026 10.5976 13.4023C10.4972 13.3019 10.3767 13.2241 10.2439 13.1739L8.32191 12.4619C8.22769 12.4268 8.14645 12.3638 8.08908 12.2812C8.03172 12.1986 8.00098 12.1005 8.00098 11.9999C8.00098 11.8994 8.03172 11.8012 8.08908 11.7186C8.14645 11.6361 8.22769 11.573 8.32191 11.5379L10.2439 10.8259C10.5139 10.7259 10.7269 10.5139 10.8259 10.2439L11.5379 8.32191Z" stroke="#242A36" stroke-width="1.5"/>
<path d="M12 22C17.5228 22 22 17.5228 22 12C22 6.47715 17.5228 2 12 2C6.47715 2 2 6.47715 2 12C2 17.5228 6.47715 22 12 22Z" stroke="#242A36" stroke-width="1.5"/>
<path d="M8 8C8.673 4.468 10.21 2 12 2C13.79 2 15.327 4.468 16 8M8 16C8.673 19.532 10.21 22 12 22C13.79 22 15.327 19.532 16 16M2 12H4.5M22 12H19.5" stroke="#242A36" stroke-width="1.5" stroke-linecap="round" stroke-linejoin="round"/>
</svg>
