<svg width="24" height="24" viewBox="0 0 24 24" fill="none" xmlns="http://www.w3.org/2000/svg">
<path d="M5.50586 16.992L8.03086 10.029C8.49086 9.06199 9.19286 8.26299 9.99786 10.18C10.7409 11.95 11.8479 15.19 12.5029 16.995M6.65286 14.002H11.3219" stroke="#242A36" stroke-width="1.5" stroke-linecap="round" stroke-linejoin="round"/>
<path d="M3.464 5.318C2 6.636 2 8.758 2 13C2 17.242 2 19.364 3.464 20.682C4.93 22 7.286 22 12 22C16.714 22 19.071 22 20.535 20.682C21.999 19.364 22 17.242 22 13C22 8.758 22 6.636 20.535 5.318C19.072 4 16.714 4 12 4C7.286 4 4.929 4 3.464 5.318Z" stroke="#242A36" stroke-width="1.5" stroke-linecap="round" stroke-linejoin="round"/>
<path d="M18.4839 9.9873V12.9823M18.4839 12.9823V16.9253M18.4839 12.9823H16.4659C16.2259 12.9823 15.9879 13.0263 15.7639 13.1133C14.0709 13.7703 14.0709 16.2133 15.7639 16.8703C15.9889 16.9563 16.2259 17.0013 16.4659 17.0013H18.4839" stroke="#242A36" stroke-width="1.5" stroke-linecap="round" stroke-linejoin="round"/>
</svg>
