<svg width="24" height="24" viewBox="0 0 24 24" fill="none" xmlns="http://www.w3.org/2000/svg">
<path d="M5.17671 9.03223C8.90271 12.6692 3.12471 17.3692 5.65671 20.5632C7.05871 22.3312 16.7297 22.6222 18.3617 20.5632C20.8917 17.3712 15.1287 12.6762 18.8417 9.03323" stroke="#242A36" stroke-width="1.5" stroke-linecap="round" stroke-linejoin="round"/>
<path d="M6.35493 13C4.08993 12.79 2.24293 11.328 2.00993 9.23804C1.97934 8.94059 2.02333 8.64022 2.13793 8.36404C2.85293 6.57104 4.85193 3.53004 7.91593 2.04704C8.01762 1.99895 8.13276 1.98731 8.24201 2.01408C8.35127 2.04084 8.44799 2.10439 8.51593 2.19404C9.27593 3.16704 10.5849 4.68404 11.9999 4.68404C13.4149 4.68404 14.7239 3.16704 15.4839 2.19404C15.5519 2.10439 15.6486 2.04084 15.7578 2.01408C15.8671 1.98731 15.9822 1.99895 16.0839 2.04704C19.1479 3.53004 21.1469 6.57104 21.8619 8.36404C21.9719 8.64304 22.0229 8.94104 21.9899 9.23804C21.7569 11.328 19.9299 12.788 17.6639 12.998" stroke="#242A36" stroke-width="1.5" stroke-linecap="round" stroke-linejoin="round"/>
</svg>
