<svg width="24" height="24" viewBox="0 0 24 24" fill="none" xmlns="http://www.w3.org/2000/svg">
<path d="M8.39586 2.55153C9.86986 1.63753 11.1579 2.00553 11.9309 2.59253C12.2479 2.83253 12.4069 2.95253 12.4999 2.95253C12.5929 2.95253 12.7519 2.83253 13.0689 2.59253C13.8419 2.00553 15.1289 1.63753 16.6039 2.55153C18.5399 3.75153 18.9779 7.70753 14.5139 11.0455C13.6629 11.6815 13.2379 11.9995 12.4999 11.9995C11.7619 11.9995 11.3369 11.6815 10.4869 11.0455C6.02186 7.70753 6.45986 3.75053 8.39586 2.55153Z" stroke="#242A36" stroke-width="1.5" stroke-linecap="round"/>
<path d="M4 14H6.395C6.689 14 6.979 14.066 7.242 14.194L9.284 15.182C9.547 15.309 9.837 15.375 10.132 15.375H11.174C12.182 15.375 13 16.166 13 17.142C13 17.182 12.973 17.216 12.934 17.227L10.393 17.93C9.93705 18.056 9.45087 18.0119 9.025 17.806L6.842 16.75" stroke="#242A36" stroke-width="1.5" stroke-linecap="round" stroke-linejoin="round"/>
<path d="M13 16.4993L17.593 15.0883C17.9929 14.9656 18.4213 14.9724 18.817 15.1076C19.2128 15.2428 19.5558 15.4996 19.797 15.8413C20.166 16.3513 20.016 17.0833 19.478 17.3933L11.963 21.7303C11.728 21.8663 11.4678 21.953 11.1982 21.9851C10.9287 22.0173 10.6554 21.9942 10.395 21.9173L4 20.0193" stroke="#242A36" stroke-width="1.5" stroke-linecap="round" stroke-linejoin="round"/>
</svg>
