<svg width="24" height="24" viewBox="0 0 24 24" fill="none" xmlns="http://www.w3.org/2000/svg">
<path d="M2.01795 20.3051C3.14695 21.9201 8.05895 23.1871 10.38 20.1651C12.89 21.3651 17.029 20.9931 20.4 19.1131C20.868 18.8531 21.311 18.5231 21.583 18.0591C22.196 17.0141 22.21 15.5641 21.092 13.4251C19.227 8.77111 15.874 4.68511 14.52 3.04211C14.242 2.78911 12.469 2.42911 11.387 2.08211C10.909 1.93511 10.02 1.83711 8.95695 3.23911C8.45195 3.90311 6.16095 5.53611 9.06695 6.63311C9.51795 6.74811 9.84895 6.95911 11.904 6.58411C12.171 6.53811 12.839 6.58411 13.31 7.41011L14.294 8.81711C14.386 8.94746 14.4441 9.09868 14.463 9.25711C14.635 10.7561 14.629 12.6321 15.465 13.5831C14.175 12.6491 10.801 11.5411 8.25895 14.6951M2.00195 12.9401C3.14629 11.9202 4.60519 11.3225 6.13621 11.2464C7.66724 11.1704 9.17818 11.6206 10.418 12.5221" stroke="#242A36" stroke-width="1.5" stroke-linecap="round" stroke-linejoin="round"/>
</svg>
