<svg width="24" height="24" viewBox="0 0 24 24" fill="none" xmlns="http://www.w3.org/2000/svg">
<path d="M16 5.5H8C5.172 5.5 3.757 5.5 2.879 6.379C2 7.257 2 8.672 2 11.5V15C2 17.828 2 19.243 2.879 20.121C3.757 21 5.172 21 8 21H16C18.828 21 20.243 21 21.121 20.121C22 19.243 22 17.828 22 15V11.5C22 8.672 22 7.257 21.121 6.379C20.243 5.5 18.828 5.5 16 5.5Z" stroke="#242A36" stroke-width="1.5"/>
<path d="M17 8.5V12.5M19 10.5H15M9 10.5H5M9 5.5V4.75C9 4.048 9 3.697 8.831 3.444C8.75821 3.33522 8.66478 3.24179 8.556 3.169C8.303 3 7.952 3 7.25 3C6.548 3 6.197 3 5.944 3.169C5.83522 3.24179 5.74179 3.33522 5.669 3.444C5.5 3.697 5.5 4.048 5.5 4.75V5.5M18.5 5.5V4.75C18.5 4.048 18.5 3.697 18.331 3.444C18.2582 3.33522 18.1648 3.24179 18.056 3.169C17.803 3 17.452 3 16.75 3C16.048 3 15.697 3 15.444 3.169C15.3349 3.24168 15.2411 3.33512 15.168 3.444C15 3.697 15 4.048 15 4.75V5.5" stroke="#242A36" stroke-width="1.5" stroke-linecap="round" stroke-linejoin="round"/>
</svg>
