<svg width="24" height="24" viewBox="0 0 24 24" fill="none" xmlns="http://www.w3.org/2000/svg">
<path d="M3.5 10.9999C3.10218 10.9999 2.72064 10.8418 2.43934 10.5605C2.15804 10.2792 2 9.89768 2 9.49985C2 9.10203 2.15804 8.7205 2.43934 8.43919C2.72064 8.15789 3.10218 7.99985 3.5 7.99985H4.252C4.69616 6.28273 5.69814 4.7618 7.10056 3.67598C8.50298 2.59016 10.2264 2.00098 12 2.00098C13.7736 2.00098 15.497 2.59016 16.8994 3.67598C18.3019 4.7618 19.3038 6.28273 19.748 7.99985H20C20.3978 7.99985 20.7794 8.15789 21.0607 8.43919C21.342 8.7205 21.5 9.10203 21.5 9.49985C21.5 9.89768 21.342 10.2792 21.0607 10.5605C20.7794 10.8418 20.3978 10.9999 20 10.9999H19.938C19.694 12.933 18.7529 14.7106 17.2914 15.9992C15.8299 17.2878 13.9484 17.9988 12 17.9988C10.0516 17.9988 8.17007 17.2878 6.70857 15.9992C5.24708 14.7106 4.30603 12.933 4.062 10.9999H3.5Z" stroke="#242A36" stroke-width="1.5" stroke-linejoin="round"/>
<path d="M4.5 8H6C7.5913 8 9.11742 7.36786 10.2426 6.24264C11.3679 5.11742 12 3.5913 12 2C12 3.5913 12.6321 5.11742 13.7574 6.24264C14.8826 7.36786 16.4087 8 18 8H19.5" stroke="#242A36" stroke-width="1.5" stroke-linecap="round" stroke-linejoin="round"/>
<path d="M12 15C12.2652 15 12.5196 14.8946 12.7071 14.7071C12.8946 14.5196 13 14.2652 13 14H11C11 14.2652 11.1054 14.5196 11.2929 14.7071C11.4804 14.8946 11.7348 15 12 15Z" stroke="#242A36" stroke-width="1.5" stroke-linejoin="round"/>
<path d="M18 22C18 20.208 17.214 18.6 15.969 17.5M6 22C6 20.208 6.786 18.6 8.031 17.5" stroke="#242A36" stroke-width="1.5" stroke-linecap="round"/>
<path d="M9 10V10.01M15 10V10.01" stroke="#242A36" stroke-width="2" stroke-linecap="round"/>
</svg>
