<svg width="24" height="24" viewBox="0 0 24 24" fill="none" xmlns="http://www.w3.org/2000/svg">
<path d="M22 12C22 6.477 17.523 2 12 2C6.477 2 2 6.477 2 12C2 17.523 6.477 22 12 22" stroke="#242A36" stroke-width="1.5" stroke-linecap="round"/>
<path d="M20 5.699C19.065 5.766 17.868 6.129 17.038 7.203C15.538 9.143 14.039 9.306 13.039 8.659C11.539 7.689 12.8 6.116 11.04 5.262C9.893 4.705 9.733 3.19 10.372 2M2 11C2.763 11.662 3.83 12.268 5.089 12.268C7.689 12.268 8.209 12.765 8.209 14.752C8.209 16.739 8.209 16.739 8.729 18.229C9.067 19.199 9.185 20.167 8.511 21" stroke="#242A36" stroke-width="1.5" stroke-linejoin="round"/>
<path d="M19.899 19.929L22 22M21.108 17.046C21.1075 17.5779 21.0022 18.1044 20.7982 18.5956C20.5942 19.0867 20.2954 19.5329 19.919 19.9086C19.5425 20.2843 19.0957 20.5822 18.6042 20.7852C18.1126 20.9883 17.5859 21.0925 17.054 21.092C16.5221 21.0925 15.9954 20.9883 15.5038 20.7852C15.0123 20.5822 14.5655 20.2843 14.189 19.9086C13.8126 19.5329 13.5138 19.0867 13.3098 18.5956C13.1058 18.1044 13.0005 17.5779 13 17.046C13.0005 16.5141 13.1058 15.9876 13.3098 15.4964C13.5138 15.0053 13.8126 14.5591 14.189 14.1834C14.5655 13.8077 15.0123 13.5098 15.5038 13.3068C15.9954 13.1037 16.5221 12.9995 17.054 13C17.5859 12.9995 18.1126 13.1037 18.6042 13.3068C19.0957 13.5098 19.5425 13.8077 19.919 14.1834C20.2954 14.5591 20.5942 15.0053 20.7982 15.4964C21.0022 15.9876 21.1075 16.5141 21.108 17.046Z" stroke="#242A36" stroke-width="1.5" stroke-linecap="round"/>
</svg>
