<svg width="24" height="24" viewBox="0 0 24 24" fill="none" xmlns="http://www.w3.org/2000/svg">
<path d="M4 3H20M5.5 3V5.03C5.50006 5.64265 5.64084 6.24709 5.91149 6.79671C6.18214 7.34633 6.57542 7.82644 7.061 8.2L12 12M12 12L16.939 8.2C17.4246 7.82644 17.8179 7.34633 18.0885 6.79671C18.3592 6.24709 18.4999 5.64265 18.5 5.03V3M12 12L7.061 15.8C6.57542 16.1736 6.18214 16.6537 5.91149 17.2033C5.64084 17.7529 5.50006 18.3574 5.5 18.97V21M12 12L16.939 15.8C17.4246 16.1736 17.8179 16.6537 18.0885 17.2033C18.3592 17.7529 18.4999 18.3574 18.5 18.97V21M4 21H20" stroke="#242A36" stroke-width="1.5" stroke-linecap="round" stroke-linejoin="round"/>
</svg>
