<svg width="24" height="24" viewBox="0 0 24 24" fill="none" xmlns="http://www.w3.org/2000/svg">
<path d="M9.5 2V4M14.5 2V4M9.5 20V22M14.5 20V22M22 14.5H20M4 9.5H2M4 14.5H2M22 9.5H20M12.694 8.5L10.603 11.037C10.379 11.309 10.539 11.7 10.905 11.773L13.095 12.207C13.485 12.284 13.633 12.717 13.361 12.981L10.767 15.5" stroke="#242A36" stroke-width="1.5" stroke-linecap="round" stroke-linejoin="round"/>
<path d="M4 12C4 8.229 4 6.343 5.172 5.172C6.344 4.001 8.229 4 12 4C15.771 4 17.657 4 18.828 5.172C19.999 6.344 20 8.229 20 12C20 15.771 20 17.657 18.828 18.828C17.656 19.999 15.771 20 12 20C8.229 20 6.343 20 5.172 18.828C4.001 17.656 4 15.771 4 12Z" stroke="#242A36" stroke-width="1.5" stroke-linejoin="round"/>
</svg>
