<svg width="24" height="24" viewBox="0 0 24 24" fill="none" xmlns="http://www.w3.org/2000/svg">
<path d="M14 21H16M14 21C13.6022 21 13.2206 20.842 12.9393 20.5607C12.658 20.2794 12.5 19.8978 12.5 19.5V17H12M14 21H10M12 17H11.5V19.5C11.5 19.8978 11.342 20.2794 11.0607 20.5607C10.7794 20.842 10.3978 21 10 21M12 17V21M10 21H8M16 3H8C5.172 3 3.757 3 2.879 3.879C2 4.757 2 6.172 2 9V11C2 13.828 2 15.243 2.879 16.121C3.757 17 5.172 17 8 17H16C18.828 17 20.243 17 21.121 16.121C22 15.243 22 13.828 22 11V9C22 6.172 22 4.757 21.121 3.879C20.243 3 18.828 3 16 3Z" stroke="#242A36" stroke-width="1.5" stroke-linecap="round" stroke-linejoin="round"/>
<path d="M16 8L13.5 10.5C13.227 10.773 13.091 10.909 12.944 10.982C12.806 11.0504 12.654 11.086 12.5 11.086C12.346 11.086 12.194 11.0504 12.056 10.982C11.909 10.909 11.773 10.772 11.5 10.5C11.227 10.227 11.091 10.091 10.944 10.018C10.806 9.94961 10.654 9.91403 10.5 9.91403C10.346 9.91403 10.194 9.94961 10.056 10.018C9.909 10.091 9.773 10.228 9.5 10.5L7 13M14 7H15.714C16.32 7 16.624 7 16.812 7.188C17 7.377 17 7.68 17 8.286V10" stroke="#242A36" stroke-width="1.5" stroke-linecap="round" stroke-linejoin="round"/>
</svg>
