<svg width="24" height="24" viewBox="0 0 24 24" fill="none" xmlns="http://www.w3.org/2000/svg">
<path d="M16 22V21.5C16 20.395 16.932 19.5 17.922 19.01C18.885 18.535 19.694 17.75 19.797 16.83L20 15L22 14L19.5 10.25C19.5005 8.19143 18.7314 6.20703 17.3438 4.68649C15.9561 3.16595 14.05 2.21914 12 2.032M6.5 16.996V22M6.5 16.996C5.46309 16.2641 4.60783 15.3042 4 14.19M6.5 16.996C7.25 17.526 8.094 17.933 9 18.189M5.5 10V12M8.5 10V12M5.5 2V4M8.5 2V4M4 5.5H2M4 8.5H2M12 5.5H10M12 8.5H10M8 4H6C5.057 4 4.586 4 4.293 4.293C4 4.586 4 5.057 4 6V8C4 8.943 4 9.414 4.293 9.707C4.586 10 5.057 10 6 10H8C8.943 10 9.414 10 9.707 9.707C10 9.414 10 8.943 10 8V6C10 5.057 10 4.586 9.707 4.293C9.414 4 8.943 4 8 4Z" stroke="#242A36" stroke-width="1.5" stroke-linecap="round" stroke-linejoin="round"/>
</svg>
