<svg width="24" height="24" viewBox="0 0 24 24" fill="none" xmlns="http://www.w3.org/2000/svg">
<path d="M18.4702 2.02499C18.4762 1.99199 18.5242 1.99199 18.5302 2.02499C18.7039 2.87342 19.123 3.65213 19.7355 4.26441C20.3479 4.87669 21.1268 5.29556 21.9752 5.46899C22.0082 5.47599 22.0082 5.52399 21.9752 5.53099C21.1269 5.70461 20.3483 6.12356 19.7361 6.73582C19.1238 7.34809 18.7049 8.1267 18.5312 8.97499C18.5242 9.00799 18.4762 9.00799 18.4692 8.97499C18.2956 8.1267 17.8767 7.34809 17.2644 6.73582C16.6521 6.12356 15.8735 5.70461 15.0252 5.53099C14.9922 5.52399 14.9922 5.47599 15.0252 5.46899C15.8735 5.29538 16.6521 4.87643 17.2644 4.26417C17.8767 3.6519 18.2966 2.87329 18.4702 2.02499Z" stroke="#242A36" stroke-width="1.5" stroke-linecap="round" stroke-linejoin="round"/>
<path d="M11.9901 11H12.0001M7.99512 11H8.00512" stroke="#242A36" stroke-width="2" stroke-linecap="round" stroke-linejoin="round"/>
<path d="M13.0001 3.005C12.6701 3.00167 12.3367 3 12.0001 3C10.5201 3 9.09505 3.03 7.75605 3.088C5.31605 3.193 4.09605 3.245 3.13005 4.218C2.16505 5.19 2.12305 6.377 2.04005 8.75C1.9873 10.2495 1.9873 11.7505 2.04005 13.25C2.12305 15.623 2.16505 16.81 3.13005 17.782C4.09505 18.755 5.31605 18.807 7.75605 18.912L8.00005 18.922V21.27C8.00011 21.4096 8.04019 21.5462 8.11552 21.6637C8.19086 21.7812 8.2983 21.8746 8.42512 21.9329C8.55193 21.9912 8.6928 22.012 8.83103 21.9927C8.96927 21.9734 9.09907 21.9148 9.20505 21.824L11.3851 19.955C11.9321 19.485 12.2061 19.251 12.5321 19.127C12.8581 19.003 13.2281 18.996 13.9691 18.982C14.7497 18.9667 15.5081 18.9433 16.2441 18.912C18.6841 18.807 19.9041 18.755 20.8701 17.782C21.8351 16.81 21.8771 15.623 21.9601 13.25C22.0043 12.0005 22.012 10.75 21.9831 9.5" stroke="#242A36" stroke-width="1.5" stroke-linecap="round" stroke-linejoin="round"/>
</svg>
