<svg width="20" height="20" viewBox="0 0 20 20" fill="#242A36" xmlns="http://www.w3.org/2000/svg">
<path d="M6.90856 3.462L6.50556 2.556C6.24256 1.964 6.11056 1.668 5.91356 1.441C5.6671 1.15671 5.34545 0.94771 4.98556 0.838C4.69856 0.75 4.37456 0.75 3.72556 0.75C2.77756 0.75 2.30356 0.75 1.90556 0.932C1.41458 1.17054 1.03454 1.58927 0.844557 2.101C0.701557 2.514 0.742557 2.939 0.824557 3.79C1.69789 12.84 6.65989 17.8017 15.7106 18.675C16.5606 18.757 16.9856 18.798 17.3996 18.655C17.9107 18.465 18.329 18.0854 18.5676 17.595C18.7496 17.196 18.7496 16.722 18.7496 15.774C18.7496 15.125 18.7496 14.801 18.6616 14.514C18.5518 14.1541 18.3428 13.8325 18.0586 13.586C17.8326 13.389 17.5356 13.258 16.9436 12.994L16.0376 12.592C15.3956 12.307 15.0756 12.164 14.7496 12.133C14.4374 12.103 14.1226 12.1469 13.8306 12.261C13.5256 12.38 13.2566 12.604 12.7166 13.054C12.1796 13.501 11.9116 13.724 11.5836 13.844C11.2687 13.9529 10.933 13.9874 10.6026 13.945C10.2566 13.895 9.99256 13.753 9.46256 13.47C7.81756 12.59 6.90956 11.683 6.02956 10.037C5.74656 9.507 5.60556 9.243 5.55456 8.897C5.51196 8.56699 5.54618 8.2316 5.65456 7.917C5.77456 7.588 5.99856 7.32 6.44556 6.783C6.89556 6.243 7.12056 5.974 7.23856 5.669C7.35256 5.377 7.39656 5.062 7.36656 4.75C7.33656 4.424 7.19356 4.104 6.90756 3.462H6.90856Z" stroke="#242A36" stroke-width="1.5" stroke-linecap="round"/>
</svg>
