<svg width="24" height="24" viewBox="0 0 24 24" fill="none" xmlns="http://www.w3.org/2000/svg">
<path d="M4.85 6.09496L10.1 3.25496C10.6837 2.93987 11.3367 2.7749 12 2.7749C12.6633 2.7749 13.3163 2.93987 13.9 3.25496L19.15 6.09496C19.7835 6.4369 20.313 6.94348 20.6826 7.56124C21.0522 8.17901 21.2482 8.88507 21.25 9.60496V17.225C21.25 18.2858 20.8286 19.3032 20.0784 20.0534C19.3283 20.8035 18.3109 21.225 17.25 21.225H6.75C5.68913 21.225 4.67172 20.8035 3.92157 20.0534C3.17143 19.3032 2.75 18.2858 2.75 17.225V9.60496C2.75179 8.88507 2.94783 8.17901 3.31743 7.56124C3.68703 6.94348 4.21651 6.4369 4.85 6.09496Z" stroke="#242A36" stroke-width="1.5"/>
<path d="M2.91016 8.495L10.0002 12.595C10.6082 12.9461 11.298 13.1309 12.0002 13.1309C12.7023 13.1309 13.3921 12.9461 14.0002 12.595L21.1402 8.595" stroke="#242A36" stroke-width="1.5" stroke-linecap="round" stroke-linejoin="round"/>
</svg>
