<svg width="15" height="15" viewBox="0 0 15 15" fill="none" xmlns="http://www.w3.org/2000/svg">
<path fill-rule="evenodd" clip-rule="evenodd" d="M7.5 15C11.6421 15 15 11.6421 15 7.5C15 3.35786 11.6421 0 7.5 0C3.35786 0 0 3.35786 0 7.5C0 11.6421 3.35786 15 7.5 15ZM11.4053 6.15533C11.6982 5.86244 11.6982 5.38756 11.4053 5.09467C11.1124 4.80178 10.6376 4.80178 10.3447 5.09467L6.375 9.06434L4.65533 7.34467C4.36244 7.05178 3.88756 7.05178 3.59467 7.34467C3.30178 7.63756 3.30178 8.11244 3.59467 8.40533L5.84467 10.6553C6.13756 10.9482 6.61244 10.9482 6.90533 10.6553L11.4053 6.15533Z" fill="#242A36"/>
</svg>
