<svg version="1.1" id="Layer_1" xmlns:x="ns_extend;" xmlns:i="ns_ai;" xmlns:graph="ns_graphs;" xmlns="http://www.w3.org/2000/svg" xmlns:xlink="http://www.w3.org/1999/xlink" x="0px" y="0px" viewBox="0 0 449.1 82" style="enable-background:new 0 0 449.1 82;" xml:space="preserve">
 <style type="text/css">
  .st0{fill-rule:evenodd;clip-rule:evenodd;fill:#242A36;fill-opacity:0.9;}
 </style>
 <metadata>
  <sfw xmlns="ns_sfw;">
   <slices>
   </slices>
   <sliceSourceBounds bottomLeftOrigin="true" height="82" width="449.1" x="-329.7" y="0.2">
   </sliceSourceBounds>
  </sfw>
 </metadata>
 <g>
  <path class="st0" d="M0,7.5C0,3.4,3.4,0,7.5,0h86.1c4.2,0,7.5,3.4,7.5,7.5v67c0,4.2-3.4,7.5-7.5,7.5H7.5C3.4,82,0,78.6,0,74.5V7.5z
		 M6.4,10.2v61.3c0,2.3,1.5,3.8,3.8,3.8H91c2.1,0,3.8-1.7,3.8-3.8V10.2c0-2.1-1.7-3.8-3.8-3.8H10.2C8.1,6.4,6.4,8.1,6.4,10.2z
		 M9.4,38.4c0-2.1,1.7-3.8,3.8-3.8h17.7c2.3,0,3.8,1.9,3.8,3.8v34.2H9.4V38.7V38.4z M38,26.3c0-2.3,1.5-3.8,3.8-3.8h17.7
		c1.9,0,3.8,1.5,3.8,3.8V73H37.6V26L38,26.3z M66.2,13.5c0-1.9,1.9-3.8,3.8-3.8h17.7c2.3,0,3.8,1.9,3.8,3.8V73H66.2V13.2L66.2,13.5z
		 M150.8,52.3c0,3.8-1.5,7.5-4.5,9.8c-3,2.3-7.5,3.8-12.8,3.8c-4.6,0-9.1-1-13.2-3v-9l7.9,3c2,0.5,4,0.8,6,0.8
		c2.3,0,3.8-0.4,4.9-1.1s1.9-2.3,1.9-3.8c0-0.8,0-1.5-0.8-2.3c-0.6-0.9-1.4-1.7-2.3-2.3l-6.4-3c-3-1.5-5.3-2.6-6.4-3.8
		c-1.6-1.2-2.8-2.8-3.8-4.5c-0.8-1.5-1.1-3.4-1.1-5.6c0-3.8,1.5-7.1,4.1-9.4c3.4-2.5,7.5-3.8,11.7-3.8c4.8,0.4,9.5,1.6,13.9,3.4
		l-3,7.5l-6.4-1.9c-1.6-0.4-3.2-0.7-4.9-0.8c-1.9,0-3,0.4-4.1,1.5c-1.1,0.8-1.5,1.9-1.5,3.4c0,0.8,0,1.5,0.8,2.3
		c2.6,2,5.4,3.7,8.3,5.3c4.1,1.9,7.5,3.8,8.7,6c1.9,1.9,2.6,4.5,2.6,7.5L150.8,52.3z M186.2,65.1h-27.1V18.4h27.1v7.9h-16.9v10.2
		h15.8v8.7h-15.8v11.3h16.9v8.3V65.1z">
  </path>
  <path class="st0" d="M211.8,39.9h5.3c3.8,0,6-0.4,7.5-1.9c1.9-1.1,2.6-3.4,2.6-5.6c0-2.6-0.8-4.5-2.6-5.6c-1.5-1.1-4.1-1.9-7.5-1.9
		h-5.3V39.9z M211.8,46.3v18.4h-7.5V18.4h13.2c6,0,10.5,1.1,13.2,3.8c3,1.9,4.5,5.3,4.5,9.8c0,5.6-3,9.8-9,12.4l13.2,20.3h-8.7
		l-11.3-18.8h-7.5V46.3z M267.1,64.7l-1.5-4.9h-0.4c-1.9,2.3-3.8,3.8-5.3,4.5c-1.5,0.8-3.8,1.1-6.8,1.1c-2.9,0.1-5.8-1-7.9-3
		c-1.9-1.9-3-4.5-3-7.5c0-3.8,1.5-6.4,3.8-8.3c3-1.9,7.1-3,12.8-3h6v-2.3c0-2.3-0.4-3.8-1.5-4.9s-2.6-1.5-4.9-1.5
		c-1.9,0-3.8,0-5.3,0.8l-4.9,1.9L246,32c1.9-0.9,3.9-1.5,6-1.9c2.2-0.5,4.5-0.8,6.8-0.8c4.5,0,7.5,1.1,10.2,3c2.3,1.9,3.4,4.9,3.4,9
		v23.7h-5.3V64.7z M255.8,59.4c2.6,0,4.9-0.8,6.4-2.3c1.9-1.5,2.6-3.8,2.6-6v-3h-4.5c-3.8,0-6.4,0.8-7.5,1.9
		c-1.9,1.1-2.6,2.6-2.6,4.5s0.4,3,1.1,3.8C252.4,59.1,253.9,59.4,255.8,59.4z M313.3,64.7h-7.5V43.3c0-2.6-0.4-4.9-1.5-6
		c-1.1-1.5-3-1.9-5.3-1.9c-3.4,0-5.6,0.8-7.1,2.6c-1.5,1.9-2.3,4.9-2.3,9.4v17.3h-7.5v-35h6l1.1,4.5c1.2-1.7,2.9-3,4.9-3.8
		c2-1,4.2-1.5,6.4-1.5c8.7,0,12.8,4.5,12.8,12.8v22.6V64.7z M330.6,45.9l4.1-4.5l10.9-11.3h8.7l-14.3,15l15,19.9h-8.7l-11.3-15
		l-4.1,3v12h-7.5V16.2h7.5v23.7l-0.8,6.8h0.4V45.9z M367.9,64.7h-7.5v-35h7.5V64.7z M360,20.3c0-1.1,0-2.3,1.1-3
		c0.8-0.8,1.9-1.1,3-1.1c1.5,0,2.3,0.4,3,1.1c0.8,0.8,1.1,1.9,1.1,3c0,1.5,0,2.3-1.1,3c-0.8,0.8-1.5,1.1-3,1.1c-1.1,0-2.3,0-3-1.1
		C360.3,22.5,359.9,21.4,360,20.3z M409.2,64.7h-7.5V43.3c0-2.6-0.4-4.9-1.5-6c-1.1-1.5-3-1.9-5.3-1.9c-3.4,0-5.6,0.8-7.1,2.6
		c-1.5,1.9-2.3,4.9-2.3,9.4v17.3H378v-35h6l1.1,4.5c1.2-1.7,2.9-3,4.9-3.8c1.9-0.8,3.8-1.5,6.4-1.5c8.7,0,12.8,4.5,12.8,12.8v22.6
		V64.7z M449.1,29.7v3.8l-6,1.5c1.2,1.8,1.9,3.9,1.9,6c0,3.8-1.1,6.4-3.8,8.7c-2.6,1.9-6,3-10.5,3h-3c-1.5,0.8-2.3,1.9-2.3,3
		s0,1.5,1.1,1.9l3.8,0.8h6.4c3.8,0,7.1,0.8,9,2.3c1.9,1.9,3,4.1,3,7.5c0,3.8-1.5,6.8-4.9,9c-4.4,2.3-9.3,3.4-14.3,3
		c-4.9,0-8.7-0.8-11.3-2.6c-3.7-2.2-5-7.1-2.7-10.8c0.3-0.6,0.8-1.1,1.2-1.6c1.6-1.5,3.5-2.6,5.6-3c-1.1-0.5-2-1.2-2.6-2.3
		c-0.5-0.8-0.7-1.7-0.8-2.6c0-1.5,0-2.6,1.1-3.8l3.4-2.3c-1.9-0.8-3.4-2.1-4.5-3.8c-1.3-1.9-1.9-4.1-1.9-6.4
		c-0.1-3.3,1.3-6.5,3.8-8.7c2.3-2.3,6-3.4,10.2-3.4c1.9,0,3.8,0.3,5.6,0.8C436.7,29.7,449.1,29.7,449.1,29.7z M421.3,70
		c0,1.9,0.8,3,2.3,3.8c1.5,0.8,3.8,1.5,6,1.5c3.2,0.2,6.5-0.5,9.4-1.9c1.9-1.1,3-2.6,3-4.5c0-1.4-0.7-2.7-1.9-3.4
		c-1.1-0.8-3-0.8-6-0.8h-5.6c-2.3,0-3.8,0-5.3,1.5C422,67,421.3,68.5,421.3,70z M424.7,41c0,2.3,0.4,3.8,1.5,5.3
		c1.1,1.1,3,1.5,4.9,1.5c4.5,0,6.8-2.3,6.8-6.8c0-2.3-0.8-3.8-1.9-5.3c-0.8-1.1-2.6-1.9-4.9-1.9c-1.9,0-3.8,0.8-4.9,1.9
		S424.7,38.7,424.7,41z">
  </path>
 </g>
</svg>