<svg width="170" height="33" viewBox="0 0 170 33" fill="none" xmlns="http://www.w3.org/2000/svg">
<rect width="170" height="33" fill="#FFC721"/>
<path d="M50.0707 14.1445C50.0276 13.7414 49.846 13.4274 49.5259 13.2028C49.2089 12.9781 48.7965 12.8658 48.2887 12.8658C47.9317 12.8658 47.6255 12.9196 47.37 13.0273C47.1146 13.1351 46.9192 13.2812 46.7837 13.4659C46.6483 13.6506 46.5791 13.8614 46.576 14.0984C46.576 14.2953 46.6206 14.4661 46.7099 14.6108C46.8022 14.7554 46.9268 14.8786 47.0838 14.9801C47.2408 15.0786 47.4147 15.1617 47.6055 15.2294C47.7963 15.2971 47.9886 15.354 48.1825 15.4002L49.0689 15.6218C49.4259 15.7049 49.7691 15.8172 50.0984 15.9588C50.4308 16.1004 50.7277 16.2789 50.9893 16.4943C51.254 16.7098 51.4633 16.9698 51.6172 17.2745C51.7711 17.5792 51.848 17.9362 51.848 18.3455C51.848 18.8995 51.7064 19.3873 51.4233 19.8089C51.1401 20.2275 50.7308 20.5553 50.1953 20.7923C49.6629 21.0262 49.0181 21.1431 48.261 21.1431C47.5254 21.1431 46.8868 21.0292 46.3452 20.8015C45.8066 20.5737 45.3849 20.2414 45.0803 19.8043C44.7786 19.3673 44.6155 18.8349 44.5909 18.207H46.2759C46.3005 18.5363 46.4021 18.8103 46.5806 19.0288C46.7591 19.2473 46.9915 19.4104 47.2777 19.5181C47.567 19.6258 47.8901 19.6797 48.2472 19.6797C48.6196 19.6797 48.9458 19.6243 49.2259 19.5135C49.509 19.3996 49.7306 19.2427 49.8906 19.0426C50.0507 18.8395 50.1322 18.6025 50.1353 18.3317C50.1322 18.0855 50.0599 17.8823 49.9183 17.7223C49.7767 17.5592 49.5782 17.4238 49.3228 17.3161C49.0704 17.2053 48.775 17.1068 48.4364 17.0206L47.3608 16.7436C46.5821 16.5436 45.9666 16.2404 45.5142 15.8342C45.0649 15.4248 44.8402 14.8816 44.8402 14.2045C44.8402 13.6475 44.991 13.1597 45.2926 12.7411C45.5973 12.3226 46.0112 11.9979 46.5344 11.767C47.0576 11.5331 47.6501 11.4162 48.3118 11.4162C48.9827 11.4162 49.5705 11.5331 50.0753 11.767C50.5831 11.9979 50.9817 12.3195 51.2709 12.7319C51.5602 13.1412 51.7095 13.6121 51.7187 14.1445H50.0707ZM53.1149 21V11.5455H54.8276V15.8896H54.943L58.6316 11.5455H60.7229L57.0666 15.788L60.7552 21H58.6962L55.8756 16.9467L54.8276 18.1839V21H53.1149ZM63.5167 19.4858V13.0966H64.9662V19.4858H63.5167ZM61.0468 17.016V15.5664H67.4361V17.016H61.0468ZM69.2892 21V11.5455H75.4384V12.9812H71.002V15.5479H75.1199V16.9837H71.002V19.5643H75.4753V21H69.2892ZM84.6953 11.5455V21H83.1718L78.7169 14.56H78.6384V21H76.9257V11.5455H78.4584L82.9087 17.9901H82.9918V11.5455H84.6953ZM95.526 13.9091L93.0008 21H91.1542L88.629 13.9091H90.411L92.0406 19.1765H92.1144L93.7487 13.9091H95.526ZM99.3204 21.1385C98.6095 21.1385 97.9955 20.9908 97.4785 20.6953C96.9645 20.3968 96.569 19.9751 96.292 19.4304C96.015 18.8826 95.8766 18.2378 95.8766 17.4961C95.8766 16.7667 96.015 16.1265 96.292 15.5756C96.5721 15.0217 96.963 14.5908 97.4646 14.283C97.9663 13.9722 98.5556 13.8168 99.2327 13.8168C99.6698 13.8168 100.082 13.8875 100.47 14.0291C100.861 14.1676 101.206 14.383 101.504 14.6754C101.806 14.9678 102.043 15.3402 102.215 15.7926C102.387 16.242 102.473 16.7775 102.473 17.3991V17.9116H96.6614V16.7852H100.872C100.869 16.4651 100.799 16.1804 100.664 15.9311C100.528 15.6787 100.339 15.4802 100.096 15.3356C99.856 15.1909 99.5759 15.1186 99.2558 15.1186C98.9142 15.1186 98.6141 15.2017 98.3556 15.3679C98.0971 15.531 97.8955 15.7464 97.7508 16.0142C97.6093 16.2789 97.5369 16.5697 97.5339 16.8867V17.87C97.5339 18.2824 97.6093 18.6364 97.7601 18.9318C97.9109 19.2242 98.1217 19.4489 98.3925 19.6058C98.6634 19.7597 98.9804 19.8366 99.3435 19.8366C99.5867 19.8366 99.8067 19.8028 100.004 19.7351C100.201 19.6643 100.371 19.5612 100.516 19.4258C100.661 19.2904 100.77 19.1226 100.844 18.9226L102.404 19.098C102.306 19.5104 102.118 19.8705 101.841 20.1783C101.567 20.483 101.216 20.7199 100.788 20.8892C100.361 21.0554 99.8713 21.1385 99.3204 21.1385ZM103.627 21V13.9091H105.248V15.0909H105.322C105.451 14.6816 105.672 14.3661 105.986 14.1445C106.303 13.9199 106.665 13.8075 107.071 13.8075C107.164 13.8075 107.267 13.8121 107.38 13.8214C107.497 13.8275 107.594 13.8383 107.671 13.8537V15.391C107.601 15.3664 107.488 15.3448 107.334 15.3263C107.184 15.3048 107.037 15.294 106.896 15.294C106.591 15.294 106.317 15.3602 106.074 15.4925C105.834 15.6218 105.645 15.8018 105.506 16.0327C105.368 16.2635 105.298 16.5297 105.298 16.8313V21H103.627ZM108.429 21V19.9382L112.086 15.354V15.294H108.549V13.9091H114.131V15.0494L110.65 19.555V19.6151H114.251V21H108.429ZM115.561 21V13.9091H117.233V21H115.561ZM116.402 12.9027C116.137 12.9027 115.909 12.815 115.718 12.6396C115.528 12.4611 115.432 12.2472 115.432 11.9979C115.432 11.7455 115.528 11.5316 115.718 11.3562C115.909 11.1777 116.137 11.0884 116.402 11.0884C116.669 11.0884 116.897 11.1777 117.085 11.3562C117.276 11.5316 117.371 11.7455 117.371 11.9979C117.371 12.2472 117.276 12.4611 117.085 12.6396C116.897 12.815 116.669 12.9027 116.402 12.9027ZM120.732 21.1431C120.282 21.1431 119.877 21.0631 119.517 20.9031C119.16 20.7399 118.877 20.4999 118.668 20.1829C118.462 19.8659 118.359 19.475 118.359 19.0103C118.359 18.6102 118.433 18.2794 118.58 18.0178C118.728 17.7562 118.93 17.5469 119.185 17.3899C119.44 17.233 119.728 17.1145 120.048 17.0344C120.371 16.9513 120.705 16.8913 121.05 16.8544C121.466 16.8113 121.803 16.7728 122.061 16.739C122.32 16.7021 122.507 16.6467 122.624 16.5728C122.744 16.4959 122.804 16.3774 122.804 16.2173V16.1896C122.804 15.8419 122.701 15.5726 122.495 15.3817C122.289 15.1909 121.992 15.0955 121.604 15.0955C121.195 15.0955 120.87 15.1848 120.63 15.3633C120.393 15.5418 120.233 15.7526 120.15 15.9957L118.589 15.7741C118.713 15.3433 118.916 14.9832 119.199 14.6939C119.482 14.4015 119.828 14.183 120.238 14.0384C120.647 13.8906 121.099 13.8168 121.595 13.8168C121.936 13.8168 122.277 13.8568 122.615 13.9368C122.954 14.0168 123.263 14.1491 123.543 14.3338C123.823 14.5154 124.048 14.7631 124.217 15.0771C124.389 15.391 124.475 15.7834 124.475 16.2543V21H122.869V20.0259H122.814C122.712 20.2229 122.569 20.4076 122.384 20.5799C122.203 20.7492 121.973 20.8861 121.696 20.9908C121.422 21.0923 121.101 21.1431 120.732 21.1431ZM121.165 19.9151C121.501 19.9151 121.792 19.849 122.038 19.7166C122.284 19.5812 122.473 19.4027 122.606 19.1811C122.741 18.9595 122.809 18.7179 122.809 18.4563V17.6207C122.757 17.6638 122.667 17.7038 122.541 17.7408C122.418 17.7777 122.28 17.81 122.126 17.8377C121.972 17.8654 121.819 17.89 121.669 17.9116C121.518 17.9331 121.387 17.9516 121.276 17.967C121.027 18.0008 120.804 18.0562 120.607 18.1332C120.41 18.2101 120.254 18.3178 120.141 18.4563C120.027 18.5917 119.97 18.7672 119.97 18.9826C119.97 19.2904 120.082 19.5227 120.307 19.6797C120.531 19.8366 120.818 19.9151 121.165 19.9151Z" fill="#242A36"/>
</svg>
