<svg width="24" height="24" viewBox="0 0 24 24" fill="none" xmlns="http://www.w3.org/2000/svg">
<path d="M4 22V9.456C4 6.211 4 4.588 4.886 3.489C5.06494 3.26709 5.26709 3.06494 5.489 2.886C6.59 2 8.211 2 11.456 2C12.161 2 12.514 2 12.837 2.114C12.9037 2.138 12.9693 2.16533 13.034 2.196C13.344 2.344 13.593 2.593 14.092 3.092L18.828 7.828C19.407 8.406 19.695 8.696 19.848 9.063C20 9.431 20 9.839 20 10.657V14C20 17.771 20 19.657 18.828 20.828C17.898 21.76 16.514 21.951 14.092 21.99M13 2.5V3C13 5.828 13 7.243 13.879 8.121C14.757 9 16.172 9 19 9H19.5M7.5 5.5H7M10 7.5H9.5M7.5 9.5H7M10 11.523H9.5M7.5 13.5H7" stroke="#242A36" stroke-width="1.5" stroke-linecap="round" stroke-linejoin="round"/>
<path d="M11 22V19C11 18.4696 10.7893 17.9609 10.4142 17.5858C10.0391 17.2107 9.53043 17 9 17C8.46957 17 7.96086 17.2107 7.58579 17.5858C7.21071 17.9609 7 18.4696 7 19V22H11Z" stroke="#242A36" stroke-width="1.5" stroke-linecap="round" stroke-linejoin="round"/>
</svg>
