<svg width="365" height="183" viewBox="0 0 365 183" fill="none" xmlns="http://www.w3.org/2000/svg">
<g clip-path="url(#clip0_2383_9522)">
<path d="M0 10C0 4.47715 4.47715 0 10 0L355 0C360.523 0 365 4.47715 365 10V173C365 178.523 360.523 183 355 183H10C4.47716 183 0 178.523 0 173L0 10Z" fill="white"/>
<path d="M36.2731 31.1974C37.5823 31.1974 38.8417 31.417 40.0515 31.8562C41.2695 32.2953 42.355 32.9955 43.3079 33.9567C44.2691 34.9179 45.0272 36.1939 45.5824 37.7848C46.1458 39.3674 46.4317 41.3105 46.44 43.614C46.44 45.7766 46.1956 47.7073 45.7067 49.4059C45.2261 51.0962 44.5342 52.5339 43.631 53.7188C42.7279 54.9036 41.6383 55.8068 40.3622 56.4283C39.0862 57.0414 37.661 57.348 36.0866 57.348C34.388 57.348 32.8883 57.0207 31.5874 56.3661C30.2865 55.7032 29.2383 54.8042 28.4428 53.669C27.6557 52.5256 27.1792 51.2412 27.0135 49.8161H32.3207C32.5278 50.7441 32.9628 51.465 33.6257 51.9787C34.2886 52.4841 35.1089 52.7369 36.0866 52.7369C37.7438 52.7369 39.0033 52.016 39.8651 50.5742C40.7268 49.1242 41.1618 47.1397 41.1701 44.6207H40.9961C40.6149 45.3665 40.1012 46.0086 39.4549 46.5472C38.8086 47.0775 38.067 47.4877 37.2301 47.7777C36.4015 48.0677 35.5191 48.2127 34.5827 48.2127C33.083 48.2127 31.7448 47.8606 30.5682 47.1563C29.3916 46.4519 28.4635 45.4825 27.7841 44.2479C27.1046 43.0133 26.7649 41.6046 26.7649 40.022C26.7566 38.3151 27.1502 36.7946 27.9457 35.4606C28.7411 34.1265 29.8514 33.0825 31.2766 32.3285C32.7101 31.5662 34.3756 31.1892 36.2731 31.1974ZM36.3104 35.4233C35.4735 35.4233 34.7277 35.6222 34.0732 36.0199C33.4268 36.4176 32.9131 36.9521 32.532 37.6232C32.1591 38.2944 31.9768 39.0443 31.9851 39.8729C31.9851 40.7098 32.1674 41.4638 32.532 42.1349C32.9048 42.7978 33.4103 43.3281 34.0483 43.7259C34.6946 44.1153 35.4321 44.31 36.2607 44.31C36.8821 44.31 37.458 44.194 37.9883 43.962C38.5186 43.73 38.9785 43.411 39.3679 43.005C39.7656 42.5907 40.0764 42.1142 40.3001 41.5756C40.5238 41.0371 40.6357 40.4653 40.6357 39.8604C40.6274 39.0567 40.4368 38.3192 40.0639 37.6481C39.6911 36.9769 39.1773 36.4383 38.5227 36.0323C37.8681 35.6263 37.1307 35.4233 36.3104 35.4233ZM48.7834 52.5256V48.2873L59.4102 31.5455H63.0643V37.4119H60.9016L54.2024 48.0139V48.2127H69.3036V52.5256H48.7834ZM61.0011 57V51.233L61.1005 49.3562V31.5455H66.1467V57H61.0011ZM85.8223 52.2273V50.8849C85.8223 49.8658 86.0377 48.9295 86.4686 48.076C86.9077 47.2143 87.5416 46.5265 88.3702 46.0128C89.2071 45.4908 90.2263 45.2298 91.4277 45.2298C92.6458 45.2298 93.6691 45.4866 94.4977 46.0004C95.3346 46.5141 95.9643 47.2018 96.3869 48.0636C96.8178 48.917 97.0332 49.8575 97.0332 50.8849V52.2273C97.0332 53.2465 96.8178 54.1869 96.3869 55.0487C95.956 55.9021 95.3222 56.5857 94.4853 57.0994C93.6484 57.6215 92.6292 57.8825 91.4277 57.8825C90.2097 57.8825 89.1864 57.6215 88.3578 57.0994C87.5292 56.5857 86.8995 55.9021 86.4686 55.0487C86.0377 54.1869 85.8223 53.2465 85.8223 52.2273ZM89.4391 50.8849V52.2273C89.4391 52.8156 89.58 53.3707 89.8617 53.8928C90.1517 54.4148 90.6737 54.6758 91.4277 54.6758C92.1818 54.6758 92.6955 54.4189 92.9689 53.9052C93.2507 53.3915 93.3915 52.8322 93.3915 52.2273V50.8849C93.3915 50.2801 93.2589 49.7166 92.9938 49.1946C92.7286 48.6726 92.2066 48.4116 91.4277 48.4116C90.682 48.4116 90.1641 48.6726 89.8741 49.1946C89.5841 49.7166 89.4391 50.2801 89.4391 50.8849ZM72.7594 37.6605V36.3182C72.7594 35.2907 72.979 34.3503 73.4182 33.4968C73.8573 32.6351 74.4912 31.9473 75.3198 31.4336C76.1567 30.9199 77.1676 30.663 78.3525 30.663C79.5788 30.663 80.6062 30.9199 81.4348 31.4336C82.2634 31.9473 82.8932 32.6351 83.324 33.4968C83.7549 34.3503 83.9704 35.2907 83.9704 36.3182V37.6605C83.9704 38.688 83.7508 39.6284 83.3116 40.4819C82.8807 41.3353 82.2469 42.0189 81.41 42.5327C80.5814 43.0381 79.5622 43.2908 78.3525 43.2908C77.1427 43.2908 76.1194 43.034 75.2825 42.5202C74.4539 41.9982 73.8242 41.3146 73.3933 40.4695C72.9707 39.616 72.7594 38.6797 72.7594 37.6605ZM76.4011 36.3182V37.6605C76.4011 38.2654 76.542 38.8247 76.8237 39.3384C77.1137 39.8522 77.6233 40.109 78.3525 40.109C79.1148 40.109 79.6326 39.8522 79.9061 39.3384C80.1878 38.8247 80.3287 38.2654 80.3287 37.6605V36.3182C80.3287 35.7133 80.1961 35.1499 79.9309 34.6278C79.6658 34.1058 79.1396 33.8448 78.3525 33.8448C77.615 33.8448 77.1054 34.11 76.8237 34.6403C76.542 35.1706 76.4011 35.7299 76.4011 36.3182ZM74.4 57L91.9 31.5455H95.1564L77.6564 57H74.4Z" fill="#242A36"/>
<path d="M260 37C260 34.7909 261.791 33 264 33H336C338.209 33 340 34.7909 340 37V52C340 54.2091 338.209 56 336 56H264C261.791 56 260 54.2091 260 52V37Z" fill="#D4F4DD"/>
<path d="M275.597 39.5455H276.742V45.8054C276.742 46.4517 276.59 47.0288 276.285 47.5366C275.984 48.0413 275.557 48.4399 275.007 48.7322C274.456 49.0215 273.809 49.1662 273.068 49.1662C272.326 49.1662 271.68 49.0215 271.129 48.7322C270.578 48.4399 270.15 48.0413 269.845 47.5366C269.544 47.0288 269.393 46.4517 269.393 45.8054V39.5455H270.538V45.7131C270.538 46.1747 270.639 46.5856 270.842 46.9457C271.046 47.3027 271.335 47.5843 271.71 47.7905C272.089 47.9936 272.541 48.0952 273.068 48.0952C273.594 48.0952 274.046 47.9936 274.425 47.7905C274.803 47.5843 275.093 47.3027 275.293 46.9457C275.496 46.5856 275.597 46.1747 275.597 45.7131V39.5455ZM272.569 38.5852L273.695 36.4432H274.97L273.529 38.5852H272.569ZM283.644 43.4972L282.665 43.7741C282.603 43.611 282.513 43.4525 282.393 43.2987C282.276 43.1417 282.116 43.0124 281.912 42.9109C281.709 42.8093 281.449 42.7585 281.132 42.7585C280.698 42.7585 280.337 42.8585 280.047 43.0586C279.761 43.2556 279.618 43.5064 279.618 43.8111C279.618 44.0819 279.717 44.2958 279.914 44.4528C280.11 44.6097 280.418 44.7405 280.837 44.8452L281.889 45.1037C282.523 45.2576 282.996 45.493 283.307 45.81C283.617 46.1239 283.773 46.5286 283.773 47.0241C283.773 47.4304 283.656 47.7936 283.422 48.1136C283.191 48.4337 282.868 48.6861 282.453 48.8707C282.037 49.0554 281.554 49.1477 281.003 49.1477C280.28 49.1477 279.681 48.9908 279.207 48.6768C278.733 48.3629 278.433 47.9044 278.307 47.3011L279.341 47.0426C279.44 47.4242 279.626 47.7105 279.9 47.9013C280.177 48.0921 280.538 48.1875 280.985 48.1875C281.492 48.1875 281.896 48.0798 282.194 47.8643C282.496 47.6458 282.646 47.3842 282.646 47.0795C282.646 46.8333 282.56 46.6271 282.388 46.4609C282.216 46.2917 281.951 46.1655 281.594 46.0824L280.412 45.8054C279.763 45.6515 279.286 45.413 278.981 45.0898C278.679 44.7636 278.529 44.3558 278.529 43.8665C278.529 43.4664 278.641 43.1125 278.866 42.8047C279.093 42.4969 279.403 42.2553 279.793 42.0799C280.187 41.9045 280.634 41.8168 281.132 41.8168C281.834 41.8168 282.385 41.9706 282.785 42.2784C283.188 42.5862 283.474 42.9924 283.644 43.4972ZM285.153 51.6591V41.9091H286.205V43.0355H286.335C286.415 42.9124 286.526 42.7554 286.667 42.5646C286.812 42.3707 287.018 42.1984 287.286 42.0476C287.557 41.8937 287.923 41.8168 288.384 41.8168C288.982 41.8168 289.508 41.966 289.963 42.2646C290.419 42.5631 290.774 42.9863 291.03 43.5341C291.285 44.0819 291.413 44.7282 291.413 45.473C291.413 46.224 291.285 46.8749 291.03 47.4258C290.774 47.9736 290.42 48.3983 289.968 48.6999C289.515 48.9985 288.994 49.1477 288.403 49.1477C287.947 49.1477 287.583 49.0723 287.309 48.9215C287.035 48.7676 286.824 48.5938 286.676 48.3999C286.529 48.2029 286.415 48.0398 286.335 47.9105H286.242V51.6591H285.153ZM286.224 45.4545C286.224 45.9901 286.302 46.4625 286.459 46.8718C286.616 47.2781 286.846 47.5966 287.147 47.8274C287.449 48.0552 287.818 48.169 288.255 48.169C288.711 48.169 289.091 48.049 289.395 47.8089C289.703 47.5658 289.934 47.2396 290.088 46.8303C290.245 46.4179 290.323 45.9593 290.323 45.4545C290.323 44.956 290.246 44.5066 290.093 44.1065C289.942 43.7034 289.712 43.3848 289.405 43.1509C289.1 42.9139 288.717 42.7955 288.255 42.7955C287.812 42.7955 287.44 42.9078 287.138 43.1325C286.836 43.354 286.609 43.6649 286.455 44.065C286.301 44.462 286.224 44.9252 286.224 45.4545ZM295.788 49.1477C295.105 49.1477 294.515 48.9969 294.02 48.6953C293.527 48.3906 293.147 47.9659 292.879 47.4212C292.615 46.8733 292.482 46.2363 292.482 45.5099C292.482 44.7836 292.615 44.1435 292.879 43.5895C293.147 43.0324 293.52 42.5985 293.997 42.2876C294.477 41.9737 295.037 41.8168 295.677 41.8168C296.046 41.8168 296.411 41.8783 296.771 42.0014C297.131 42.1245 297.459 42.3246 297.754 42.6016C298.05 42.8755 298.285 43.2386 298.461 43.6911C298.636 44.1435 298.724 44.7005 298.724 45.3622V45.8239H293.258V44.8821H297.616C297.616 44.482 297.536 44.125 297.376 43.8111C297.219 43.4972 296.994 43.2494 296.702 43.0678C296.413 42.8862 296.071 42.7955 295.677 42.7955C295.243 42.7955 294.868 42.9032 294.551 43.1186C294.237 43.331 293.995 43.608 293.826 43.9496C293.657 44.2912 293.572 44.6574 293.572 45.0483V45.6761C293.572 46.2116 293.664 46.6656 293.849 47.038C294.037 47.4073 294.297 47.6889 294.629 47.8828C294.961 48.0736 295.348 48.169 295.788 48.169C296.074 48.169 296.333 48.129 296.563 48.049C296.797 47.9659 296.999 47.8428 297.168 47.6797C297.337 47.5135 297.468 47.3073 297.561 47.0611L298.613 47.3565C298.502 47.7135 298.316 48.0275 298.054 48.2983C297.793 48.5661 297.47 48.7753 297.085 48.9261C296.7 49.0739 296.268 49.1477 295.788 49.1477ZM305.144 43.4972L304.165 43.7741C304.104 43.611 304.013 43.4525 303.893 43.2987C303.776 43.1417 303.616 43.0124 303.413 42.9109C303.21 42.8093 302.95 42.7585 302.633 42.7585C302.199 42.7585 301.837 42.8585 301.548 43.0586C301.261 43.2556 301.118 43.5064 301.118 43.8111C301.118 44.0819 301.217 44.2958 301.414 44.4528C301.611 44.6097 301.919 44.7405 302.337 44.8452L303.39 45.1037C304.024 45.2576 304.496 45.493 304.807 45.81C305.118 46.1239 305.273 46.5286 305.273 47.0241C305.273 47.4304 305.156 47.7936 304.922 48.1136C304.691 48.4337 304.368 48.6861 303.953 48.8707C303.537 49.0554 303.054 49.1477 302.503 49.1477C301.78 49.1477 301.181 48.9908 300.707 48.6768C300.234 48.3629 299.933 47.9044 299.807 47.3011L300.841 47.0426C300.94 47.4242 301.126 47.7105 301.4 47.9013C301.677 48.0921 302.039 48.1875 302.485 48.1875C302.993 48.1875 303.396 48.0798 303.694 47.8643C303.996 47.6458 304.147 47.3842 304.147 47.0795C304.147 46.8333 304.061 46.6271 303.888 46.4609C303.716 46.2917 303.451 46.1655 303.094 46.0824L301.912 45.8054C301.263 45.6515 300.786 45.413 300.481 45.0898C300.18 44.7636 300.029 44.3558 300.029 43.8665C300.029 43.4664 300.141 43.1125 300.366 42.8047C300.594 42.4969 300.903 42.2553 301.294 42.0799C301.688 41.9045 302.134 41.8168 302.633 41.8168C303.334 41.8168 303.885 41.9706 304.285 42.2784C304.688 42.5862 304.975 42.9924 305.144 43.4972ZM301.672 39.0653L302.633 40.358L303.593 39.0653H304.627V39.1392L303.131 41.0597H302.134L300.638 39.1392V39.0653H301.672ZM307.743 44.7344V49H306.653V41.9091H307.706V43.017H307.798C307.964 42.657 308.217 42.3677 308.555 42.1491C308.894 41.9276 309.331 41.8168 309.866 41.8168C310.346 41.8168 310.766 41.9152 311.127 42.1122C311.487 42.3061 311.767 42.6016 311.967 42.9986C312.167 43.3925 312.267 43.8911 312.267 44.4943V49H311.177V44.5682C311.177 44.0111 311.033 43.5772 310.743 43.2663C310.454 42.9524 310.057 42.7955 309.552 42.7955C309.205 42.7955 308.894 42.8709 308.62 43.0217C308.349 43.1725 308.135 43.3925 307.978 43.6818C307.821 43.9711 307.743 44.322 307.743 44.7344ZM316.878 49.1477C316.238 49.1477 315.677 48.9954 315.193 48.6907C314.713 48.386 314.338 47.9598 314.067 47.4119C313.799 46.8641 313.665 46.224 313.665 45.4915C313.665 44.7528 313.799 44.1081 314.067 43.5572C314.338 43.0063 314.713 42.5785 315.193 42.2738C315.677 41.9691 316.238 41.8168 316.878 41.8168C317.519 41.8168 318.079 41.9691 318.559 42.2738C319.042 42.5785 319.417 43.0063 319.685 43.5572C319.956 44.1081 320.091 44.7528 320.091 45.4915C320.091 46.224 319.956 46.8641 319.685 47.4119C319.417 47.9598 319.042 48.386 318.559 48.6907C318.079 48.9954 317.519 49.1477 316.878 49.1477ZM316.878 48.169C317.365 48.169 317.765 48.0444 318.079 47.7951C318.393 47.5458 318.625 47.218 318.776 46.8118C318.927 46.4055 319.002 45.9654 319.002 45.4915C319.002 45.0175 318.927 44.5759 318.776 44.1665C318.625 43.7572 318.393 43.4264 318.079 43.174C317.765 42.9216 317.365 42.7955 316.878 42.7955C316.392 42.7955 315.992 42.9216 315.678 43.174C315.364 43.4264 315.132 43.7572 314.981 44.1665C314.83 44.5759 314.755 45.0175 314.755 45.4915C314.755 45.9654 314.83 46.4055 314.981 46.8118C315.132 47.218 315.364 47.5458 315.678 47.7951C315.992 48.0444 316.392 48.169 316.878 48.169ZM326.517 43.4972L325.539 43.7741C325.477 43.611 325.386 43.4525 325.266 43.2987C325.149 43.1417 324.989 43.0124 324.786 42.9109C324.583 42.8093 324.323 42.7585 324.006 42.7585C323.572 42.7585 323.21 42.8585 322.921 43.0586C322.635 43.2556 322.492 43.5064 322.492 43.8111C322.492 44.0819 322.59 44.2958 322.787 44.4528C322.984 44.6097 323.292 44.7405 323.71 44.8452L324.763 45.1037C325.397 45.2576 325.869 45.493 326.18 45.81C326.491 46.1239 326.646 46.5286 326.646 47.0241C326.646 47.4304 326.53 47.7936 326.296 48.1136C326.065 48.4337 325.742 48.6861 325.326 48.8707C324.911 49.0554 324.428 49.1477 323.877 49.1477C323.153 49.1477 322.555 48.9908 322.081 48.6768C321.607 48.3629 321.307 47.9044 321.181 47.3011L322.215 47.0426C322.313 47.4242 322.499 47.7105 322.773 47.9013C323.05 48.0921 323.412 48.1875 323.858 48.1875C324.366 48.1875 324.769 48.0798 325.068 47.8643C325.369 47.6458 325.52 47.3842 325.52 47.0795C325.52 46.8333 325.434 46.6271 325.262 46.4609C325.089 46.2917 324.825 46.1655 324.468 46.0824L323.286 45.8054C322.636 45.6515 322.159 45.413 321.855 45.0898C321.553 44.7636 321.402 44.3558 321.402 43.8665C321.402 43.4664 321.515 43.1125 321.739 42.8047C321.967 42.4969 322.276 42.2553 322.667 42.0799C323.061 41.9045 323.507 41.8168 324.006 41.8168C324.708 41.8168 325.258 41.9706 325.659 42.2784C326.062 42.5862 326.348 42.9924 326.517 43.4972ZM331.11 41.9091V42.8324H327.436V41.9091H331.11ZM328.507 40.2102H329.596V46.9688C329.596 47.2765 329.641 47.5073 329.73 47.6612C329.822 47.812 329.939 47.9136 330.081 47.9659C330.225 48.0152 330.378 48.0398 330.538 48.0398C330.658 48.0398 330.756 48.0336 330.833 48.0213C330.91 48.0059 330.972 47.9936 331.018 47.9844L331.24 48.9631C331.166 48.9908 331.063 49.0185 330.93 49.0462C330.798 49.0769 330.63 49.0923 330.427 49.0923C330.119 49.0923 329.818 49.0262 329.522 48.8938C329.23 48.7615 328.987 48.5599 328.793 48.2891C328.602 48.0182 328.507 47.6766 328.507 47.2642V40.2102ZM330.381 41.032V38.6406H331.498L331.175 41.032H330.381Z" fill="#0D894F"/>
<path d="M31.3153 78.9091C31.2599 78.4413 31.0353 78.0781 30.6413 77.8196C30.2474 77.5611 29.7642 77.4318 29.1918 77.4318C28.7732 77.4318 28.407 77.4995 28.093 77.6349C27.7822 77.7704 27.5391 77.9566 27.3636 78.1935C27.1913 78.4305 27.1051 78.6998 27.1051 79.0014C27.1051 79.2538 27.1651 79.4708 27.2852 79.6523C27.4083 79.8308 27.5652 79.9801 27.756 80.1001C27.9469 80.2171 28.1469 80.314 28.3562 80.391C28.5655 80.4648 28.7578 80.5249 28.9332 80.571L29.8935 80.8295C30.1397 80.8942 30.4136 80.9834 30.7152 81.0973C31.0199 81.2112 31.3107 81.3666 31.5877 81.5636C31.8678 81.7575 32.0986 82.0067 32.2802 82.3114C32.4618 82.6161 32.5526 82.9901 32.5526 83.4332C32.5526 83.9441 32.4187 84.4058 32.1509 84.8182C31.8862 85.2306 31.4985 85.5584 30.9876 85.8015C30.4798 86.0446 29.8627 86.1662 29.1364 86.1662C28.4593 86.1662 27.873 86.0569 27.3775 85.8384C26.8851 85.6199 26.4973 85.3152 26.2141 84.9244C25.9341 84.5335 25.7756 84.0795 25.7386 83.5625H26.9205C26.9512 83.9195 27.0713 84.215 27.2805 84.4489C27.4929 84.6797 27.7607 84.852 28.0838 84.9659C28.41 85.0767 28.7609 85.1321 29.1364 85.1321C29.5734 85.1321 29.9658 85.0613 30.3136 84.9197C30.6613 84.7751 30.9368 84.575 31.1399 84.3196C31.343 84.0611 31.4446 83.7595 31.4446 83.4148C31.4446 83.1009 31.3569 82.8454 31.1815 82.6484C31.006 82.4515 30.7752 82.2914 30.489 82.1683C30.2028 82.0452 29.8935 81.9375 29.5611 81.8452L28.3977 81.5128C27.6591 81.3004 27.0743 80.9973 26.6435 80.6033C26.2126 80.2094 25.9972 79.6939 25.9972 79.0568C25.9972 78.5275 26.1403 78.0658 26.4265 77.6719C26.7158 77.2749 27.1036 76.9671 27.5898 76.7486C28.0792 76.527 28.6255 76.4162 29.2287 76.4162C29.8381 76.4162 30.3797 76.5254 30.8537 76.744C31.3277 76.9594 31.7031 77.2549 31.9801 77.6303C32.2602 78.0058 32.4079 78.4321 32.4233 78.9091H31.3153ZM37.1679 86.1477C36.5031 86.1477 35.9307 85.9908 35.4506 85.6768C34.9704 85.3629 34.6011 84.9305 34.3426 84.3796C34.0841 83.8287 33.9548 83.1993 33.9548 82.4915C33.9548 81.7713 34.0872 81.1358 34.3518 80.5849C34.6196 80.0309 34.992 79.5985 35.469 79.2876C35.9491 78.9737 36.5093 78.8168 37.1494 78.8168C37.648 78.8168 38.0973 78.9091 38.4974 79.0938C38.8975 79.2784 39.2253 79.5369 39.4807 79.8693C39.7362 80.2017 39.8947 80.5895 39.9562 81.0327H38.8667C38.7836 80.7095 38.599 80.4233 38.3128 80.174C38.0296 79.9216 37.648 79.7955 37.1679 79.7955C36.7432 79.7955 36.3708 79.9063 36.0507 80.1278C35.7337 80.3464 35.4859 80.6557 35.3074 81.0558C35.132 81.4528 35.0443 81.919 35.0443 82.4545C35.0443 83.0024 35.1305 83.4794 35.3028 83.8857C35.4783 84.2919 35.7245 84.6074 36.0415 84.832C36.3615 85.0567 36.737 85.169 37.1679 85.169C37.451 85.169 37.708 85.1198 37.9388 85.0213C38.1697 84.9228 38.3651 84.7813 38.5251 84.5966C38.6852 84.4119 38.799 84.1903 38.8667 83.9318H39.9562C39.8947 84.3504 39.7423 84.7274 39.4992 85.0629C39.2591 85.3952 38.9406 85.6599 38.5436 85.8569C38.1497 86.0508 37.6911 86.1477 37.1679 86.1477ZM42.6384 81.7344V86H41.5489V76.5455H42.6384V80.017H42.7307C42.8969 79.6508 43.1462 79.36 43.4786 79.1445C43.8141 78.926 44.2603 78.8168 44.8174 78.8168C45.3006 78.8168 45.7238 78.9137 46.0869 79.1076C46.4501 79.2984 46.7317 79.5923 46.9317 79.9893C47.1349 80.3833 47.2364 80.8849 47.2364 81.4943V86H46.1469V81.5682C46.1469 81.005 46.0007 80.5695 45.7084 80.2617C45.4191 79.9509 45.0174 79.7955 44.5035 79.7955C44.1465 79.7955 43.8264 79.8709 43.5432 80.0217C43.2632 80.1725 43.0416 80.3925 42.8785 80.6818C42.7184 80.9711 42.6384 81.322 42.6384 81.7344ZM54.774 78.9091L52.1518 86H51.0439L48.4217 78.9091H49.6035L51.5609 84.5597H51.6348L53.5922 78.9091H54.774ZM58.0828 86.1662C57.6335 86.1662 57.2257 86.0816 56.8595 85.9123C56.4932 85.7399 56.2024 85.4922 55.987 85.169C55.7715 84.8428 55.6638 84.4489 55.6638 83.9872C55.6638 83.581 55.7438 83.2517 55.9039 82.9993C56.0639 82.7438 56.2778 82.5438 56.5455 82.3991C56.8133 82.2545 57.1088 82.1468 57.4319 82.076C57.7581 82.0021 58.0859 81.9437 58.4152 81.9006C58.8461 81.8452 59.1954 81.8036 59.4632 81.7759C59.734 81.7451 59.931 81.6944 60.0541 81.6236C60.1803 81.5528 60.2433 81.4297 60.2433 81.2543V81.2173C60.2433 80.7618 60.1187 80.4079 59.8694 80.1555C59.6232 79.9032 59.2493 79.777 58.7476 79.777C58.2275 79.777 57.8197 79.8909 57.5242 80.1186C57.2288 80.3464 57.021 80.5895 56.901 80.848L55.8669 80.4787C56.0516 80.0478 56.2978 79.7124 56.6056 79.4723C56.9164 79.2292 57.2549 79.0599 57.6212 78.9645C57.9905 78.866 58.3537 78.8168 58.7107 78.8168C58.9384 78.8168 59.2 78.8445 59.4955 78.8999C59.794 78.9522 60.0818 79.0614 60.3588 79.2276C60.6388 79.3938 60.8712 79.6447 61.0558 79.9801C61.2405 80.3156 61.3328 80.7649 61.3328 81.3281V86H60.2433V85.0398H60.1879C60.1141 85.1937 59.991 85.3583 59.8186 85.5337C59.6463 85.7092 59.417 85.8584 59.1308 85.9815C58.8446 86.1046 58.4952 86.1662 58.0828 86.1662ZM58.249 85.1875C58.6799 85.1875 59.0431 85.1029 59.3385 84.9336C59.637 84.7643 59.8617 84.5458 60.0125 84.2781C60.1664 84.0103 60.2433 83.7287 60.2433 83.4332V82.4361C60.1972 82.4915 60.0956 82.5423 59.9387 82.5884C59.7848 82.6315 59.6063 82.67 59.4031 82.7038C59.2031 82.7346 59.0077 82.7623 58.8169 82.7869C58.6291 82.8085 58.4768 82.8269 58.3598 82.8423C58.0767 82.8793 57.812 82.9393 57.5658 83.0224C57.3227 83.1024 57.1257 83.224 56.9749 83.3871C56.8272 83.5471 56.7533 83.7656 56.7533 84.0426C56.7533 84.4212 56.8933 84.7074 57.1734 84.9013C57.4565 85.0921 57.8151 85.1875 58.249 85.1875ZM58.286 77.9489L59.4124 75.8068H60.6865L59.2462 77.9489H58.286ZM64.4109 76.5455V86H63.3214V76.5455H64.4109ZM69.3794 86.1477C68.6961 86.1477 68.1067 85.9969 67.6112 85.6953C67.1188 85.3906 66.7387 84.9659 66.471 84.4212C66.2063 83.8733 66.074 83.2363 66.074 82.5099C66.074 81.7836 66.2063 81.1435 66.471 80.5895C66.7387 80.0324 67.1111 79.5985 67.5882 79.2876C68.0683 78.9737 68.6284 78.8168 69.2686 78.8168C69.6379 78.8168 70.0026 78.8783 70.3627 79.0014C70.7228 79.1245 71.0505 79.3246 71.346 79.6016C71.6414 79.8755 71.8769 80.2386 72.0523 80.6911C72.2277 81.1435 72.3154 81.7005 72.3154 82.3622V82.8239H66.8495V81.8821H71.2075C71.2075 81.482 71.1275 81.125 70.9674 80.8111C70.8105 80.4972 70.5858 80.2494 70.2934 80.0678C70.0041 79.8862 69.6625 79.7955 69.2686 79.7955C68.8346 79.7955 68.4591 79.9032 68.1421 80.1186C67.8282 80.331 67.5866 80.608 67.4174 80.9496C67.2481 81.2912 67.1634 81.6574 67.1634 82.0483V82.6761C67.1634 83.2116 67.2558 83.6656 67.4404 84.038C67.6282 84.4073 67.8882 84.6889 68.2206 84.8828C68.553 85.0736 68.9393 85.169 69.3794 85.169C69.6656 85.169 69.9241 85.129 70.1549 85.049C70.3888 84.9659 70.5904 84.8428 70.7597 84.6797C70.929 84.5135 71.0598 84.3073 71.1521 84.0611L72.2046 84.3565C72.0938 84.7135 71.9076 85.0275 71.646 85.2983C71.3844 85.5661 71.0613 85.7753 70.6766 85.9261C70.2919 86.0739 69.8595 86.1477 69.3794 86.1477ZM75.0622 81.7344V86H73.9728V78.9091H75.0253V80.017H75.1176C75.2838 79.657 75.5362 79.3677 75.8747 79.1491C76.2133 78.9276 76.6503 78.8168 77.1858 78.8168C77.6659 78.8168 78.086 78.9152 78.4461 79.1122C78.8062 79.3061 79.0863 79.6016 79.2863 79.9986C79.4864 80.3925 79.5864 80.8911 79.5864 81.4943V86H78.4969V81.5682C78.4969 81.0111 78.3522 80.5772 78.063 80.2663C77.7737 79.9524 77.3766 79.7955 76.8719 79.7955C76.5241 79.7955 76.2133 79.8709 75.9394 80.0217C75.6685 80.1725 75.4546 80.3925 75.2977 80.6818C75.1407 80.9711 75.0622 81.322 75.0622 81.7344ZM82.025 88.6591C81.8404 88.6591 81.6757 88.6437 81.5311 88.6129C81.3864 88.5852 81.2864 88.5575 81.231 88.5298L81.508 87.5696C81.7727 87.6373 82.0066 87.6619 82.2097 87.6435C82.4128 87.625 82.5929 87.5342 82.7498 87.3711C82.9099 87.2111 83.0561 86.951 83.1884 86.5909L83.3915 86.0369L80.7694 78.9091H81.9512L83.9086 84.5597H83.9824L85.9398 78.9091H87.1216L84.1117 87.0341C83.9763 87.4003 83.8085 87.7035 83.6085 87.9435C83.4084 88.1867 83.1761 88.3667 82.9114 88.4837C82.6498 88.6006 82.3544 88.6591 82.025 88.6591ZM83.4469 77.9489L84.5733 75.8068H85.8475L84.4071 77.9489H83.4469ZM91.1864 86.1477C90.5217 86.1477 89.9492 85.9908 89.4691 85.6768C88.989 85.3629 88.6197 84.9305 88.3612 84.3796C88.1026 83.8287 87.9734 83.1993 87.9734 82.4915C87.9734 81.7713 88.1057 81.1358 88.3704 80.5849C88.6381 80.0309 89.0105 79.5985 89.4876 79.2876C89.9677 78.9737 90.5278 78.8168 91.168 78.8168C91.6666 78.8168 92.1159 78.9091 92.516 79.0938C92.9161 79.2784 93.2439 79.5369 93.4993 79.8693C93.7547 80.2017 93.9132 80.5895 93.9748 81.0327H92.8853C92.8022 80.7095 92.6176 80.4233 92.3313 80.174C92.0482 79.9216 91.6666 79.7955 91.1864 79.7955C90.7617 79.7955 90.3893 79.9063 90.0693 80.1278C89.7523 80.3464 89.5045 80.6557 89.326 81.0558C89.1506 81.4528 89.0629 81.919 89.0629 82.4545C89.0629 83.0024 89.149 83.4794 89.3214 83.8857C89.4968 84.2919 89.743 84.6074 90.06 84.832C90.3801 85.0567 90.7556 85.169 91.1864 85.169C91.4696 85.169 91.7266 85.1198 91.9574 85.0213C92.1882 84.9228 92.3836 84.7813 92.5437 84.5966C92.7037 84.4119 92.8176 84.1903 92.8853 83.9318H93.9748C93.9132 84.3504 93.7609 84.7274 93.5178 85.0629C93.2777 85.3952 92.9592 85.6599 92.5622 85.8569C92.1682 86.0508 91.7096 86.1477 91.1864 86.1477ZM96.657 81.7344V86H95.5675V76.5455H96.657V80.017H96.7493C96.9155 79.6508 97.1648 79.36 97.4972 79.1445C97.8326 78.926 98.2789 78.8168 98.8359 78.8168C99.3191 78.8168 99.7423 78.9137 100.105 79.1076C100.469 79.2984 100.75 79.5923 100.95 79.9893C101.153 80.3833 101.255 80.8849 101.255 81.4943V86H100.165V81.5682C100.165 81.005 100.019 80.5695 99.7269 80.2617C99.4376 79.9509 99.036 79.7955 98.522 79.7955C98.165 79.7955 97.8449 79.8709 97.5618 80.0217C97.2817 80.1725 97.0601 80.3925 96.897 80.6818C96.737 80.9711 96.657 81.322 96.657 81.7344ZM106.904 88.6591V78.9091H107.957V80.0355H108.086C108.166 79.9124 108.277 79.7554 108.419 79.5646C108.563 79.3707 108.769 79.1984 109.037 79.0476C109.308 78.8937 109.674 78.8168 110.136 78.8168C110.733 78.8168 111.259 78.966 111.715 79.2646C112.17 79.5631 112.526 79.9863 112.781 80.5341C113.037 81.0819 113.164 81.7282 113.164 82.473C113.164 83.224 113.037 83.8749 112.781 84.4258C112.526 84.9736 112.172 85.3983 111.719 85.6999C111.267 85.9985 110.745 86.1477 110.154 86.1477C109.699 86.1477 109.334 86.0723 109.06 85.9215C108.786 85.7676 108.576 85.5938 108.428 85.3999C108.28 85.2029 108.166 85.0398 108.086 84.9105H107.994V88.6591H106.904ZM107.975 82.4545C107.975 82.9901 108.054 83.4625 108.211 83.8718C108.368 84.2781 108.597 84.5966 108.899 84.8274C109.2 85.0552 109.57 85.169 110.007 85.169C110.462 85.169 110.842 85.049 111.147 84.809C111.455 84.5658 111.686 84.2396 111.839 83.8303C111.996 83.4179 112.075 82.9593 112.075 82.4545C112.075 81.956 111.998 81.5066 111.844 81.1065C111.693 80.7034 111.464 80.3848 111.156 80.1509C110.851 79.9139 110.468 79.7955 110.007 79.7955C109.563 79.7955 109.191 79.9078 108.889 80.1325C108.588 80.354 108.36 80.6649 108.206 81.065C108.052 81.462 107.975 81.9252 107.975 82.4545ZM114.826 86V78.9091H115.879V79.9801H115.953C116.082 79.6293 116.316 79.3446 116.654 79.1261C116.993 78.9076 117.375 78.7983 117.799 78.7983C117.879 78.7983 117.979 78.7998 118.099 78.8029C118.219 78.806 118.31 78.8106 118.372 78.8168V79.9247C118.335 79.9155 118.25 79.9016 118.118 79.8832C117.989 79.8616 117.852 79.8509 117.707 79.8509C117.362 79.8509 117.054 79.9232 116.784 80.0678C116.516 80.2094 116.304 80.4064 116.147 80.6587C115.993 80.908 115.916 81.1927 115.916 81.5128V86H114.826ZM122.328 86.1477C121.688 86.1477 121.126 85.9954 120.643 85.6907C120.163 85.386 119.787 84.9598 119.517 84.4119C119.249 83.8641 119.115 83.224 119.115 82.4915C119.115 81.7528 119.249 81.1081 119.517 80.5572C119.787 80.0063 120.163 79.5785 120.643 79.2738C121.126 78.9691 121.688 78.8168 122.328 78.8168C122.968 78.8168 123.528 78.9691 124.008 79.2738C124.492 79.5785 124.867 80.0063 125.135 80.5572C125.406 81.1081 125.541 81.7528 125.541 82.4915C125.541 83.224 125.406 83.8641 125.135 84.4119C124.867 84.9598 124.492 85.386 124.008 85.6907C123.528 85.9954 122.968 86.1477 122.328 86.1477ZM122.328 85.169C122.814 85.169 123.214 85.0444 123.528 84.7951C123.842 84.5458 124.075 84.218 124.225 83.8118C124.376 83.4055 124.452 82.9654 124.452 82.4915C124.452 82.0175 124.376 81.5759 124.225 81.1665C124.075 80.7572 123.842 80.4264 123.528 80.174C123.214 79.9216 122.814 79.7955 122.328 79.7955C121.842 79.7955 121.442 79.9216 121.128 80.174C120.814 80.4264 120.581 80.7572 120.431 81.1665C120.28 81.5759 120.204 82.0175 120.204 82.4915C120.204 82.9654 120.28 83.4055 120.431 83.8118C120.581 84.218 120.814 84.5458 121.128 84.7951C121.442 85.0444 121.842 85.169 122.328 85.169ZM129.882 86.1477C129.291 86.1477 128.769 85.9985 128.317 85.6999C127.864 85.3983 127.51 84.9736 127.255 84.4258C127 83.8749 126.872 83.224 126.872 82.473C126.872 81.7282 127 81.0819 127.255 80.5341C127.51 79.9863 127.866 79.5631 128.321 79.2646C128.777 78.966 129.303 78.8168 129.9 78.8168C130.362 78.8168 130.727 78.8937 130.994 79.0476C131.265 79.1984 131.471 79.3707 131.613 79.5646C131.758 79.7554 131.87 79.9124 131.95 80.0355H132.042V76.5455H133.132V86H132.079V84.9105H131.95C131.87 85.0398 131.756 85.2029 131.608 85.3999C131.461 85.5938 131.25 85.7676 130.976 85.9215C130.702 86.0723 130.337 86.1477 129.882 86.1477ZM130.029 85.169C130.467 85.169 130.836 85.0552 131.137 84.8274C131.439 84.5966 131.668 84.2781 131.825 83.8718C131.982 83.4625 132.061 82.9901 132.061 82.4545C132.061 81.9252 131.984 81.462 131.83 81.065C131.676 80.6649 131.448 80.354 131.147 80.1325C130.845 79.9078 130.473 79.7955 130.029 79.7955C129.568 79.7955 129.183 79.9139 128.875 80.1509C128.571 80.3848 128.341 80.7034 128.188 81.1065C128.037 81.5066 127.961 81.956 127.961 82.4545C127.961 82.9593 128.038 83.4179 128.192 83.8303C128.349 84.2396 128.58 84.5658 128.885 84.809C129.192 85.049 129.574 85.169 130.029 85.169ZM139.747 83.1009V78.9091H140.837V86H139.747V84.7997H139.673C139.507 85.1598 139.249 85.466 138.898 85.7184C138.547 85.9677 138.104 86.0923 137.568 86.0923C137.125 86.0923 136.731 85.9954 136.386 85.8015C136.042 85.6045 135.771 85.3091 135.574 84.9151C135.377 84.5181 135.278 84.018 135.278 83.4148V78.9091H136.368V83.3409C136.368 83.858 136.513 84.2704 136.802 84.5781C137.094 84.8859 137.467 85.0398 137.919 85.0398C138.19 85.0398 138.465 84.9705 138.745 84.832C139.029 84.6935 139.266 84.4812 139.456 84.195C139.65 83.9087 139.747 83.544 139.747 83.1009ZM143.848 83.4148L143.829 82.0668H144.051L147.153 78.9091H148.501L145.196 82.2514H145.103L143.848 83.4148ZM142.832 86V76.5455H143.922V86H142.832ZM147.338 86L144.568 82.4915L145.343 81.7344L148.723 86H147.338ZM152.987 78.9091V79.8324H149.313V78.9091H152.987ZM150.384 77.2102H151.473V83.9688C151.473 84.2765 151.518 84.5073 151.607 84.6612C151.699 84.812 151.816 84.9136 151.958 84.9659C152.102 85.0152 152.255 85.0398 152.415 85.0398C152.535 85.0398 152.633 85.0336 152.71 85.0213C152.787 85.0059 152.849 84.9936 152.895 84.9844L153.116 85.9631C153.043 85.9908 152.94 86.0185 152.807 86.0462C152.675 86.0769 152.507 86.0923 152.304 86.0923C151.996 86.0923 151.695 86.0262 151.399 85.8938C151.107 85.7615 150.864 85.5599 150.67 85.2891C150.479 85.0182 150.384 84.6766 150.384 84.2642V77.2102ZM157.431 86.1477C156.79 86.1477 156.229 85.9954 155.746 85.6907C155.265 85.386 154.89 84.9598 154.619 84.4119C154.351 83.8641 154.218 83.224 154.218 82.4915C154.218 81.7528 154.351 81.1081 154.619 80.5572C154.89 80.0063 155.265 79.5785 155.746 79.2738C156.229 78.9691 156.79 78.8168 157.431 78.8168C158.071 78.8168 158.631 78.9691 159.111 79.2738C159.594 79.5785 159.97 80.0063 160.237 80.5572C160.508 81.1081 160.644 81.7528 160.644 82.4915C160.644 83.224 160.508 83.8641 160.237 84.4119C159.97 84.9598 159.594 85.386 159.111 85.6907C158.631 85.9954 158.071 86.1477 157.431 86.1477ZM157.431 85.169C157.917 85.169 158.317 85.0444 158.631 84.7951C158.945 84.5458 159.177 84.218 159.328 83.8118C159.479 83.4055 159.554 82.9654 159.554 82.4915C159.554 82.0175 159.479 81.5759 159.328 81.1665C159.177 80.7572 158.945 80.4264 158.631 80.174C158.317 79.9216 157.917 79.7955 157.431 79.7955C156.944 79.7955 156.544 79.9216 156.23 80.174C155.916 80.4264 155.684 80.7572 155.533 81.1665C155.382 81.5759 155.307 82.0175 155.307 82.4915C155.307 82.9654 155.382 83.4055 155.533 83.8118C155.684 84.218 155.916 84.5458 156.23 84.7951C156.544 85.0444 156.944 85.169 157.431 85.169ZM167.851 78.9091L165.229 86H164.121L161.499 78.9091H162.681L164.638 84.5597H164.712L166.669 78.9091H167.851ZM172.945 88.6591V78.9091H173.998V80.0355H174.127C174.207 79.9124 174.318 79.7554 174.46 79.5646C174.604 79.3707 174.81 79.1984 175.078 79.0476C175.349 78.8937 175.715 78.8168 176.177 78.8168C176.774 78.8168 177.3 78.966 177.756 79.2646C178.211 79.5631 178.567 79.9863 178.822 80.5341C179.078 81.0819 179.205 81.7282 179.205 82.473C179.205 83.224 179.078 83.8749 178.822 84.4258C178.567 84.9736 178.213 85.3983 177.76 85.6999C177.308 85.9985 176.786 86.1477 176.195 86.1477C175.74 86.1477 175.375 86.0723 175.101 85.9215C174.827 85.7676 174.617 85.5938 174.469 85.3999C174.321 85.2029 174.207 85.0398 174.127 84.9105H174.035V88.6591H172.945ZM174.016 82.4545C174.016 82.9901 174.095 83.4625 174.252 83.8718C174.409 84.2781 174.638 84.5966 174.94 84.8274C175.241 85.0552 175.611 85.169 176.048 85.169C176.503 85.169 176.883 85.049 177.188 84.809C177.496 84.5658 177.727 84.2396 177.88 83.8303C178.037 83.4179 178.116 82.9593 178.116 82.4545C178.116 81.956 178.039 81.5066 177.885 81.1065C177.734 80.7034 177.505 80.3848 177.197 80.1509C176.893 79.9139 176.509 79.7955 176.048 79.7955C175.605 79.7955 175.232 79.9078 174.931 80.1325C174.629 80.354 174.401 80.6649 174.247 81.065C174.093 81.462 174.016 81.9252 174.016 82.4545ZM183.748 86.1477C183.108 86.1477 182.546 85.9954 182.063 85.6907C181.583 85.386 181.207 84.9598 180.937 84.4119C180.669 83.8641 180.535 83.224 180.535 82.4915C180.535 81.7528 180.669 81.1081 180.937 80.5572C181.207 80.0063 181.583 79.5785 182.063 79.2738C182.546 78.9691 183.108 78.8168 183.748 78.8168C184.388 78.8168 184.948 78.9691 185.428 79.2738C185.912 79.5785 186.287 80.0063 186.555 80.5572C186.826 81.1081 186.961 81.7528 186.961 82.4915C186.961 83.224 186.826 83.8641 186.555 84.4119C186.287 84.9598 185.912 85.386 185.428 85.6907C184.948 85.9954 184.388 86.1477 183.748 86.1477ZM183.748 85.169C184.234 85.169 184.634 85.0444 184.948 84.7951C185.262 84.5458 185.495 84.218 185.645 83.8118C185.796 83.4055 185.872 82.9654 185.872 82.4915C185.872 82.0175 185.796 81.5759 185.645 81.1665C185.495 80.7572 185.262 80.4264 184.948 80.174C184.634 79.9216 184.234 79.7955 183.748 79.7955C183.262 79.7955 182.862 79.9216 182.548 80.174C182.234 80.4264 182.001 80.7572 181.851 81.1665C181.7 81.5759 181.624 82.0175 181.624 82.4915C181.624 82.9654 181.7 83.4055 181.851 83.8118C182.001 84.218 182.234 84.5458 182.548 84.7951C182.862 85.0444 183.262 85.169 183.748 85.169ZM195.161 86.1477C194.521 86.1477 193.959 85.9954 193.476 85.6907C192.996 85.386 192.62 84.9598 192.35 84.4119C192.082 83.8641 191.948 83.224 191.948 82.4915C191.948 81.7528 192.082 81.1081 192.35 80.5572C192.62 80.0063 192.996 79.5785 193.476 79.2738C193.959 78.9691 194.521 78.8168 195.161 78.8168C195.801 78.8168 196.361 78.9691 196.841 79.2738C197.325 79.5785 197.7 80.0063 197.968 80.5572C198.239 81.1081 198.374 81.7528 198.374 82.4915C198.374 83.224 198.239 83.8641 197.968 84.4119C197.7 84.9598 197.325 85.386 196.841 85.6907C196.361 85.9954 195.801 86.1477 195.161 86.1477ZM195.161 85.169C195.647 85.169 196.047 85.0444 196.361 84.7951C196.675 84.5458 196.908 84.218 197.058 83.8118C197.209 83.4055 197.285 82.9654 197.285 82.4915C197.285 82.0175 197.209 81.5759 197.058 81.1665C196.908 80.7572 196.675 80.4264 196.361 80.174C196.047 79.9216 195.647 79.7955 195.161 79.7955C194.675 79.7955 194.275 79.9216 193.961 80.174C193.647 80.4264 193.414 80.7572 193.264 81.1665C193.113 81.5759 193.037 82.0175 193.037 82.4915C193.037 82.9654 193.113 83.4055 193.264 83.8118C193.414 84.218 193.647 84.5458 193.961 84.7951C194.275 85.0444 194.675 85.169 195.161 85.169ZM200.037 88.6591V78.9091H201.09V80.0355H201.219C201.299 79.9124 201.41 79.7554 201.551 79.5646C201.696 79.3707 201.902 79.1984 202.17 79.0476C202.441 78.8937 202.807 78.8168 203.269 78.8168C203.866 78.8168 204.392 78.966 204.848 79.2646C205.303 79.5631 205.659 79.9863 205.914 80.5341C206.169 81.0819 206.297 81.7282 206.297 82.473C206.297 83.224 206.169 83.8749 205.914 84.4258C205.659 84.9736 205.305 85.3983 204.852 85.6999C204.4 85.9985 203.878 86.1477 203.287 86.1477C202.832 86.1477 202.467 86.0723 202.193 85.9215C201.919 85.7676 201.708 85.5938 201.561 85.3999C201.413 85.2029 201.299 85.0398 201.219 84.9105H201.127V88.6591H200.037ZM201.108 82.4545C201.108 82.9901 201.187 83.4625 201.344 83.8718C201.501 84.2781 201.73 84.5966 202.032 84.8274C202.333 85.0552 202.702 85.169 203.139 85.169C203.595 85.169 203.975 85.049 204.28 84.809C204.588 84.5658 204.818 84.2396 204.972 83.8303C205.129 83.4179 205.208 82.9593 205.208 82.4545C205.208 81.956 205.131 81.5066 204.977 81.1065C204.826 80.7034 204.597 80.3848 204.289 80.1509C203.984 79.9139 203.601 79.7955 203.139 79.7955C202.696 79.7955 202.324 79.9078 202.022 80.1325C201.721 80.354 201.493 80.6649 201.339 81.065C201.185 81.462 201.108 81.9252 201.108 82.4545ZM207.959 86V78.9091H209.012V79.9801H209.086C209.215 79.6293 209.449 79.3446 209.787 79.1261C210.126 78.9076 210.507 78.7983 210.932 78.7983C211.012 78.7983 211.112 78.7998 211.232 78.8029C211.352 78.806 211.443 78.8106 211.505 78.8168V79.9247C211.468 79.9155 211.383 79.9016 211.251 79.8832C211.121 79.8616 210.984 79.8509 210.84 79.8509C210.495 79.8509 210.187 79.9232 209.916 80.0678C209.649 80.2094 209.436 80.4064 209.279 80.6587C209.126 80.908 209.049 81.1927 209.049 81.5128V86H207.959ZM214.883 86.1662C214.433 86.1662 214.026 86.0816 213.659 85.9123C213.293 85.7399 213.002 85.4922 212.787 85.169C212.571 84.8428 212.464 84.4489 212.464 83.9872C212.464 83.581 212.544 83.2517 212.704 82.9993C212.864 82.7438 213.078 82.5438 213.345 82.3991C213.613 82.2545 213.909 82.1468 214.232 82.076C214.558 82.0021 214.886 81.9437 215.215 81.9006C215.646 81.8452 215.995 81.8036 216.263 81.7759C216.534 81.7451 216.731 81.6944 216.854 81.6236C216.98 81.5528 217.043 81.4297 217.043 81.2543V81.2173C217.043 80.7618 216.919 80.4079 216.669 80.1555C216.423 79.9032 216.049 79.777 215.547 79.777C215.027 79.777 214.62 79.8909 214.324 80.1186C214.029 80.3464 213.821 80.5895 213.701 80.848L212.667 80.4787C212.851 80.0478 213.098 79.7124 213.405 79.4723C213.716 79.2292 214.055 79.0599 214.421 78.9645C214.79 78.866 215.153 78.8168 215.51 78.8168C215.738 78.8168 216 78.8445 216.295 78.8999C216.594 78.9522 216.882 79.0614 217.159 79.2276C217.439 79.3938 217.671 79.6447 217.856 79.9801C218.04 80.3156 218.133 80.7649 218.133 81.3281V86H217.043V85.0398H216.988C216.914 85.1937 216.791 85.3583 216.618 85.5337C216.446 85.7092 216.217 85.8584 215.931 85.9815C215.644 86.1046 215.295 86.1662 214.883 86.1662ZM215.049 85.1875C215.48 85.1875 215.843 85.1029 216.138 84.9336C216.437 84.7643 216.662 84.5458 216.812 84.2781C216.966 84.0103 217.043 83.7287 217.043 83.4332V82.4361C216.997 82.4915 216.895 82.5423 216.738 82.5884C216.585 82.6315 216.406 82.67 216.203 82.7038C216.003 82.7346 215.807 82.7623 215.617 82.7869C215.429 82.8085 215.277 82.8269 215.16 82.8423C214.877 82.8793 214.612 82.9393 214.366 83.0224C214.122 83.1024 213.926 83.224 213.775 83.3871C213.627 83.5471 213.553 83.7656 213.553 84.0426C213.553 84.4212 213.693 84.7074 213.973 84.9013C214.256 85.0921 214.615 85.1875 215.049 85.1875ZM225.666 78.9091L223.043 86H221.935L219.313 78.9091H220.495L222.453 84.5597H222.526L224.484 78.9091H225.666ZM229.823 86.1477C229.139 86.1477 228.55 85.9969 228.055 85.6953C227.562 85.3906 227.182 84.9659 226.914 84.4212C226.65 83.8733 226.517 83.2363 226.517 82.5099C226.517 81.7836 226.65 81.1435 226.914 80.5895C227.182 80.0324 227.555 79.5985 228.032 79.2876C228.512 78.9737 229.072 78.8168 229.712 78.8168C230.081 78.8168 230.446 78.8783 230.806 79.0014C231.166 79.1245 231.494 79.3246 231.789 79.6016C232.085 79.8755 232.32 80.2386 232.496 80.6911C232.671 81.1435 232.759 81.7005 232.759 82.3622V82.8239H227.293V81.8821H231.651C231.651 81.482 231.571 81.125 231.411 80.8111C231.254 80.4972 231.029 80.2494 230.737 80.0678C230.447 79.8862 230.106 79.7955 229.712 79.7955C229.278 79.7955 228.903 79.9032 228.586 80.1186C228.272 80.331 228.03 80.608 227.861 80.9496C227.691 81.2912 227.607 81.6574 227.607 82.0483V82.6761C227.607 83.2116 227.699 83.6656 227.884 84.038C228.072 84.4073 228.332 84.6889 228.664 84.8828C228.996 85.0736 229.383 85.169 229.823 85.169C230.109 85.169 230.367 85.129 230.598 85.049C230.832 84.9659 231.034 84.8428 231.203 84.6797C231.372 84.5135 231.503 84.3073 231.595 84.0611L232.648 84.3565C232.537 84.7135 232.351 85.0275 232.089 85.2983C231.828 85.5661 231.505 85.7753 231.12 85.9261C230.735 86.0739 230.303 86.1477 229.823 86.1477Z" fill="#717580"/>
<path d="M33 147C33 145.343 34.3431 144 36 144H67.5714C69.2283 144 70.5714 145.343 70.5714 147V168H33V147Z" fill="#FE5E7B"/>
<path d="M76.5713 138C76.5713 136.343 77.9144 135 79.5713 135H111.143C112.8 135 114.143 136.343 114.143 138V168H76.5713V138Z" fill="#FE7089"/>
<path d="M120.143 129C120.143 127.343 121.486 126 123.143 126H154.714C156.371 126 157.714 127.343 157.714 129V168H120.143V129Z" fill="#FD92A4"/>
<path d="M163.714 120C163.714 118.343 165.058 117 166.714 117H198.286C199.943 117 201.286 118.343 201.286 120V168H163.714V120Z" fill="#FDD8DF"/>
<path d="M207.286 114C207.286 112.343 208.629 111 210.286 111H241.857C243.514 111 244.857 112.343 244.857 114V168H207.286V114Z" fill="#D4F4DD"/>
<path d="M250.857 126C250.857 124.343 252.2 123 253.857 123H285.428C287.085 123 288.428 124.343 288.428 126V168H250.857V126Z" fill="#D4F4DD"/>
<path d="M294.429 111C294.429 109.343 295.772 108 297.429 108H329C330.657 108 332 109.343 332 111V168H294.429V111Z" fill="#D4F4DD"/>
</g>
<path d="M10 0.5L355 0.5C360.247 0.500017 364.5 4.75331 364.5 10V173C364.5 178.247 360.247 182.5 355 182.5H10C4.7533 182.5 0.500008 178.247 0.5 173L0.5 10C0.500001 4.7533 4.7533 0.5 10 0.5Z" stroke="#E4E4E4"/>
<defs>
<clipPath id="clip0_2383_9522">
<path d="M0 10C0 4.47715 4.47715 0 10 0L355 0C360.523 0 365 4.47715 365 10V173C365 178.523 360.523 183 355 183H10C4.47716 183 0 178.523 0 173L0 10Z" fill="white"/>
</clipPath>
</defs>
</svg>
