<svg width="24" height="24" viewBox="0 0 24 24" fill="none" xmlns="http://www.w3.org/2000/svg">
<path fill-rule="evenodd" clip-rule="evenodd" d="M15.0549 7.885L17.1579 5.781C17.0019 5.41407 16.9592 5.00889 17.0352 4.61749C17.1112 4.22609 17.3024 3.86633 17.5843 3.58441C17.8662 3.30248 18.226 3.11125 18.6174 3.03527C19.0088 2.95929 19.414 3.00203 19.7809 3.158L21.8779 1.062C21.7355 1.02115 21.5881 1.00029 21.4399 1H13.9899C13.4386 1.00015 12.9098 1.2192 12.5199 1.609L8.09591 6.034L10.1439 8.082C10.9055 7.54076 11.8166 7.24997 12.7509 7.25C13.5929 7.25 14.3799 7.482 15.0549 7.885ZM7.03391 7.095L1.60891 12.52C1.21962 12.91 1.00098 13.4385 1.00098 13.9895C1.00098 14.5405 1.21962 15.069 1.60891 15.459L4.54491 18.395L8.88491 14.055C8.46928 13.358 8.24986 12.5615 8.24991 11.75C8.24991 10.778 8.55791 9.878 9.08191 9.143L7.03391 7.095ZM5.60491 19.455L8.54091 22.391C8.93093 22.7806 9.45965 22.9994 10.0109 22.9994C10.5622 22.9994 11.0909 22.7806 11.4809 22.391L16.9059 16.966L15.3579 15.418C14.5961 15.9594 13.6846 16.2502 12.7499 16.25C11.6499 16.25 10.6419 15.855 9.85991 15.2L5.60491 19.455ZM17.9659 15.905L22.3909 11.48C22.7809 11.09 22.9999 10.562 22.9999 10.01V2.56C22.9992 2.40733 22.9786 2.262 22.9379 2.124L20.8419 4.22C20.9979 4.58693 21.0406 4.99211 20.9646 5.38351C20.8887 5.77491 20.6974 6.13467 20.4155 6.41659C20.1336 6.69852 19.7738 6.88975 19.3824 6.96573C18.991 7.04171 18.5858 6.99897 18.2189 6.843L15.1869 9.874L14.6619 9.439C14.1613 9.02533 13.5399 8.78529 12.8912 8.75494C12.2425 8.7246 11.6014 8.90558 11.0644 9.2707C10.5273 9.63582 10.1232 10.1654 9.9128 10.7798C9.7024 11.3942 9.69707 12.0603 9.89759 12.678C10.0981 13.2957 10.4937 13.8316 11.0248 14.2053C11.556 14.579 12.194 14.7702 12.8432 14.7503C13.4923 14.7303 14.1174 14.5003 14.6246 14.0947C15.1318 13.6891 15.4937 13.1298 15.6559 12.501H12.9999V11H17.2499V11.75C17.2499 12.6843 16.9592 13.5954 16.4179 14.357L17.9659 15.905Z" fill="#242A36"/>
</svg>
