<svg width="27" height="27" viewBox="0 0 27 27" fill="none" xmlns="http://www.w3.org/2000/svg">
<path d="M13.5 5.0625C13.5 4.31658 13.2037 3.60121 12.6762 3.07376C12.1488 2.54632 11.4334 2.25 10.6875 2.25C9.94155 2.25 9.22617 2.54632 8.69873 3.07376C8.17128 3.60121 7.87497 4.31658 7.87497 5.0625C7.27663 5.06245 6.68904 5.22146 6.17239 5.52325C5.65574 5.82504 5.22861 6.25875 4.93475 6.77996C4.6409 7.30116 4.49088 7.89111 4.50008 8.48937C4.50928 9.08764 4.67735 9.6727 4.98709 10.1846C4.21707 10.3334 3.52288 10.7456 3.02369 11.3505C2.5245 11.9554 2.25146 12.7152 2.25146 13.4994C2.25146 14.2837 2.5245 15.0435 3.02369 15.6484C3.52288 16.2532 4.21707 16.6655 4.98709 16.8143C4.67707 17.3262 4.50876 17.9114 4.49941 18.5098C4.49007 19.1082 4.64003 19.6984 4.93392 20.2198C5.22781 20.7411 5.65506 21.175 6.17187 21.4768C6.68868 21.7787 7.27646 21.9377 7.87497 21.9375C7.87497 22.6834 8.17128 23.3988 8.69873 23.9262C9.22617 24.4537 9.94155 24.75 10.6875 24.75C11.4334 24.75 12.1488 24.4537 12.6762 23.9262C13.2037 23.3988 13.5 22.6834 13.5 21.9375M13.5 21.9375C13.5 22.6834 13.7963 23.3988 14.3237 23.9262C14.8512 24.4537 15.5665 24.75 16.3125 24.75C17.0584 24.75 17.7738 24.4537 18.3012 23.9262C18.8287 23.3988 19.125 22.6834 19.125 21.9375C19.7235 21.9377 20.3113 21.7787 20.8281 21.4768C21.3449 21.175 21.7721 20.7411 22.066 20.2198C22.3599 19.6984 22.5099 19.1082 22.5005 18.5098C22.4912 17.9114 22.3229 17.3262 22.0128 16.8143C22.7829 16.6655 23.4771 16.2532 23.9762 15.6484C24.4754 15.0435 24.7485 14.2837 24.7485 13.4994C24.7485 12.7152 24.4754 11.9554 23.9762 11.3505C23.4771 10.7456 22.7829 10.3334 22.0128 10.1846C22.3226 9.6727 22.4907 9.08764 22.4999 8.48937C22.509 7.89111 22.359 7.30116 22.0652 6.77996C21.7713 6.25875 21.3442 5.82504 20.8275 5.52325C20.3109 5.22146 19.7233 5.06245 19.125 5.0625C19.125 4.31658 18.8287 3.60121 18.3012 3.07376C17.7738 2.54632 17.0584 2.25 16.3125 2.25C15.5665 2.25 14.8512 2.54632 14.3237 3.07376C13.7963 3.60121 13.5 4.31658 13.5 5.0625" stroke="#1059B9" stroke-width="1.6875" stroke-linecap="round" stroke-linejoin="round"/>
<path d="M11.7979 7.875V10.1025M7.875 11.8125H10.1835M16.9009 11.8125H19.2094M16.9009 15.1582H19.2094M7.875 15.1594H10.1835M11.7979 16.8975V19.125M15.201 16.8975V19.125M15.1897 7.875V10.1025M11.3085 16.839H15.7759C16.0742 16.839 16.3604 16.7205 16.5714 16.5095C16.7823 16.2985 16.9009 16.0124 16.9009 15.714V11.2275C16.9009 10.9291 16.7823 10.643 16.5714 10.432C16.3604 10.221 16.0742 10.1025 15.7759 10.1025H11.3085C11.0101 10.1025 10.724 10.221 10.513 10.432C10.302 10.643 10.1835 10.9291 10.1835 11.2275V15.714C10.1835 16.0124 10.302 16.2985 10.513 16.5095C10.724 16.7205 11.0101 16.839 11.3085 16.839Z" stroke="#1059B9" stroke-width="1.6875" stroke-linecap="round"/>
</svg>
