<svg width="24" height="24" viewBox="0 0 24 24" fill="none" xmlns="http://www.w3.org/2000/svg">
<path d="M12 22C17.5228 22 22 17.5228 22 12C22 6.47715 17.5228 2 12 2C6.47715 2 2 6.47715 2 12C2 17.5228 6.47715 22 12 22Z" stroke="#242A36" stroke-width="1.5"/>
<path d="M12 12H17C16.9998 13.1567 16.5985 14.2776 15.8645 15.1717C15.1305 16.0658 14.1092 16.6776 12.9746 16.9031C11.84 17.1286 10.6624 16.9537 9.64229 16.4082C8.6222 15.8628 7.8228 14.9805 7.3803 13.9117C6.93779 12.8429 6.87956 11.6538 7.21552 10.5469C7.55148 9.43998 8.26085 8.4838 9.22275 7.84128C10.1847 7.19875 11.3396 6.90963 12.4908 7.02318C13.642 7.13672 14.7182 7.6459 15.536 8.46396" stroke="#242A36" stroke-width="1.5" stroke-linecap="round" stroke-linejoin="round"/>
</svg>
