<svg width="24" height="24" viewBox="0 0 24 24" fill="none" xmlns="http://www.w3.org/2000/svg">
<path d="M2.01709 13.5001C4.21709 13.5001 6.00009 15.2831 6.00009 17.4831M18.0001 17.4831V17.3911C18 16.8802 18.1005 16.3742 18.2959 15.9022C18.4913 15.4301 18.7779 15.0011 19.1391 14.6398C19.5003 14.2785 19.9292 13.9919 20.4012 13.7963C20.8732 13.6008 21.3792 13.5001 21.8901 13.5001M6.00009 3.51611C6.00009 5.71611 4.21709 7.49811 2.01709 7.49811M18.0001 3.51611C18.0001 5.69611 19.7691 7.46711 21.9421 7.49811" stroke="#242A36" stroke-width="1.5" stroke-linecap="round" stroke-linejoin="round"/>
<path d="M5 20.5H19M16 3.5H8C5.172 3.5 3.757 3.5 2.879 4.379C2 5.257 2 6.672 2 9.5V11.5C2 14.328 2 15.743 2.879 16.621C3.757 17.5 5.172 17.5 8 17.5H16C18.828 17.5 20.243 17.5 21.121 16.621C22 15.743 22 14.328 22 11.5V9.5C22 6.672 22 5.257 21.121 4.379C20.243 3.5 18.828 3.5 16 3.5Z" stroke="#242A36" stroke-width="1.5" stroke-linecap="round" stroke-linejoin="round"/>
<path d="M15 10.5C15 11.2956 14.6839 12.0587 14.1213 12.6213C13.5587 13.1839 12.7956 13.5 12 13.5C11.2044 13.5 10.4413 13.1839 9.87868 12.6213C9.31607 12.0587 9 11.2956 9 10.5C9 9.70435 9.31607 8.94129 9.87868 8.37868C10.4413 7.81607 11.2044 7.5 12 7.5C12.7956 7.5 13.5587 7.81607 14.1213 8.37868C14.6839 8.94129 15 9.70435 15 10.5Z" stroke="#242A36" stroke-width="1.5" stroke-linecap="round" stroke-linejoin="round"/>
</svg>
