<svg width="24" height="24" viewBox="0 0 24 24" fill="none" xmlns="http://www.w3.org/2000/svg">
<path d="M17 13.8051C17 13.4591 17 13.2861 17.052 13.1321C17.203 12.6841 17.602 12.5111 18.002 12.3291C18.45 12.1241 18.674 12.0221 18.897 12.0041C19.149 11.9841 19.402 12.0381 19.618 12.1591C19.904 12.3191 20.104 12.6251 20.308 12.8731C21.251 14.0191 21.723 14.5921 21.895 15.2231C22.035 15.7331 22.035 16.2671 21.895 16.7761C21.644 17.6981 20.849 18.4701 20.26 19.1861C19.959 19.5511 19.808 19.7341 19.618 19.8411C19.3983 19.9629 19.1474 20.0169 18.897 19.9961C18.674 19.9781 18.45 19.8761 18.001 19.6711C17.601 19.4891 17.203 19.3161 17.052 18.8681C17 18.7141 17 18.5411 17 18.1961V13.8051Z" stroke="#242A36" stroke-width="1.5"/>
<path d="M9.5 21C10.88 22.333 13.12 22.333 14.5 21" stroke="#242A36" stroke-width="1.5" stroke-linecap="round" stroke-linejoin="round"/>
<path d="M6.99977 13.8049C6.99977 13.3689 6.98777 12.9779 6.63577 12.6719C6.50777 12.5609 6.33777 12.4839 5.99877 12.3289C5.54977 12.1249 5.32577 12.0219 5.10277 12.0039C4.43577 11.9499 4.07677 12.4059 3.69277 12.8739C2.74877 14.0189 2.27677 14.5919 2.10377 15.2239C1.96476 15.7319 1.96476 16.2679 2.10377 16.7759C2.35577 17.6979 3.15177 18.4699 3.73977 19.1859C4.11077 19.6359 4.46577 20.0469 5.10277 19.9959C5.32577 19.9779 5.54977 19.8759 5.99877 19.6709C6.33877 19.5159 6.50777 19.4389 6.63577 19.3279C6.98777 19.0219 6.99977 18.6309 6.99977 18.1949V13.8049Z" stroke="#242A36" stroke-width="1.5"/>
<path d="M2 16V12C2 6.477 6.477 2 12 2C17.523 2 22 6.477 22 12V16" stroke="#242A36" stroke-width="1.5" stroke-linecap="round" stroke-linejoin="round"/>
</svg>
