<svg width="24" height="24" viewBox="0 0 24 24" fill="none" xmlns="http://www.w3.org/2000/svg">
<path d="M4 15V19M12 9V19M22 22H2M20 13V19" stroke="#242A36" stroke-width="1.5" stroke-linecap="round" stroke-linejoin="round"/>
<path d="M5.60001 8.79983C5.44242 8.58972 5.24499 8.4127 5.019 8.27888C4.793 8.14507 4.54285 8.05708 4.28285 8.01993C4.02285 7.98279 3.75807 7.99722 3.50365 8.0624C3.24922 8.12759 3.01012 8.24224 2.80001 8.39983C2.58989 8.55742 2.41287 8.75485 2.27906 8.98084C2.14524 9.20684 2.05725 9.45698 2.02011 9.71699C1.94509 10.2421 2.08175 10.7755 2.40001 11.1998C2.71827 11.6242 3.19206 11.9047 3.71717 11.9797C4.24227 12.0547 4.77566 11.9181 5.20001 11.5998C5.62435 11.2816 5.90489 10.8078 5.97991 10.2827C6.05492 9.75757 5.91827 9.22418 5.60001 8.79983ZM5.60001 8.79983L10.4 5.19983M10.4 5.19983C10.6045 5.47285 10.8754 5.68904 11.1869 5.82786C11.4985 5.96667 11.8404 6.0235 12.1801 5.99293C12.5198 5.96237 12.8461 5.84543 13.1278 5.65323C13.4096 5.46103 13.6376 5.19996 13.79 4.89483M10.4 5.19983C10.1866 4.91482 10.0531 4.578 10.0134 4.22416C9.97363 3.87031 10.0291 3.51227 10.174 3.18703C10.3189 2.86178 10.548 2.58111 10.8377 2.37403C11.1273 2.16694 11.467 2.04093 11.8217 2.00902C12.1763 1.97712 12.533 2.04047 12.855 2.19253C13.1769 2.34459 13.4525 2.57985 13.6531 2.87401C13.8538 3.16816 13.9722 3.51055 13.9963 3.86581C14.0204 4.22106 13.9491 4.5763 13.79 4.89483M13.79 4.89483L18.21 7.10483M18.21 7.10483C18.0925 7.33977 18.0224 7.59555 18.0037 7.85758C17.985 8.11961 18.0181 8.38275 18.1011 8.63198C18.2688 9.13533 18.6295 9.55146 19.104 9.78883C19.5785 10.0262 20.1278 10.0654 20.6312 9.89771C21.1345 9.73005 21.5506 9.3693 21.788 8.89483C22.0205 8.42107 22.0563 7.87461 21.8876 7.37456C21.719 6.8745 21.3595 6.46138 20.8876 6.22521C20.4156 5.98904 19.8695 5.94897 19.3681 6.11374C18.8668 6.2785 18.4508 6.63474 18.211 7.10483H18.21Z" stroke="#242A36" stroke-width="1.5"/>
</svg>
