<svg width="24" height="24" viewBox="0 0 24 24" fill="none" xmlns="http://www.w3.org/2000/svg">
<path d="M10.461 6.50098V8.47998M7 10.001H9.037M14.963 10.001H17M14.963 12.975H17M7 12.975H9.037M10.461 14.52V16.5M13.464 14.52V16.5M13.454 6.50098V8.47998M10.029 14.469H13.971C14.1018 14.4685 14.2312 14.4422 14.3518 14.3916C14.4725 14.3411 14.582 14.2673 14.6741 14.1744C14.7662 14.0816 14.8391 13.9715 14.8887 13.8504C14.9383 13.7294 14.9635 13.5998 14.963 13.469V9.47998C14.963 8.92798 14.519 8.47998 13.971 8.47998H10.029C9.8982 8.4805 9.76879 8.50678 9.64815 8.55732C9.52751 8.60786 9.41801 8.68167 9.32589 8.77452C9.23377 8.86738 9.16085 8.97748 9.11128 9.09852C9.06172 9.21956 9.03647 9.34918 9.037 9.47998V13.469C9.037 14.021 9.481 14.469 10.029 14.469Z" stroke="#242A36" stroke-width="1.5" stroke-linecap="round"/>
<path d="M21 11.183V8.28C21 6.64 21 5.82 20.596 5.285C20.192 4.75 19.278 4.491 17.451 3.971C16.349 3.6545 15.2702 3.26258 14.222 2.798C13.023 2.266 12.424 2 12 2C11.576 2 10.977 2.266 9.778 2.798C8.898 3.188 7.798 3.616 6.549 3.971C4.722 4.491 3.809 4.751 3.404 5.285C3 5.82 3 6.64 3 8.28V11.183C3 16.808 8.063 20.183 10.594 21.519C11.201 21.839 11.504 22 12 22C12.496 22 12.799 21.84 13.406 21.52C15.937 20.182 21 16.808 21 11.183Z" stroke="#242A36" stroke-width="1.5" stroke-linecap="round"/>
</svg>
