<svg width="24" height="24" viewBox="0 0 24 24" fill="none" xmlns="http://www.w3.org/2000/svg">
<path d="M5.00023 20.5H19.0002M16.8722 17.5H7.12823C6.10023 17.5 5.58623 17.5 5.19623 17.223C4.80623 16.947 4.63623 16.462 4.29623 15.491L2.05223 9.077C1.99318 8.90352 1.98448 8.71687 2.02713 8.53865C2.06978 8.36044 2.16204 8.19795 2.29323 8.07C2.45778 7.90895 2.67241 7.80896 2.90157 7.78659C3.13072 7.76422 3.36064 7.82081 3.55323 7.947L4.78423 8.757C6.02823 9.575 6.65023 9.983 7.27923 9.835C7.90823 9.686 8.28123 9.042 9.02823 7.755L11.2422 3.935C11.3197 3.80275 11.4305 3.69305 11.5634 3.61675C11.6964 3.54045 11.8469 3.50021 12.0002 3.5C12.3142 3.5 12.6032 3.666 12.7592 3.934L14.9732 7.754C15.7202 9.042 16.0932 9.686 16.7222 9.834C17.3512 9.984 17.9722 9.574 19.2162 8.757L20.4492 7.947C20.6417 7.82107 20.8714 7.76462 21.1004 7.78699C21.3293 7.80935 21.5438 7.90919 21.7082 8.07C21.9752 8.334 22.0682 8.723 21.9482 9.077L19.7032 15.491C19.3632 16.461 19.1932 16.947 18.8032 17.223C18.4132 17.5 17.9002 17.5 16.8722 17.5Z" stroke="#242A36" stroke-width="1.5" stroke-linecap="round" stroke-linejoin="round"/>
</svg>
