<svg width="24" height="24" viewBox="0 0 24 24" fill="none" xmlns="http://www.w3.org/2000/svg">
<path d="M11.5 22C7.493 22 5.49 22 4.245 20.535C3 19.072 3 16.714 3 12C3 7.286 3 4.929 4.245 3.464C5.49 1.999 7.493 2 11.5 2C15.507 2 17.51 2 18.755 3.464C19.757 4.644 19.953 6.401 19.991 9.5M8 8H15M8 13H11" stroke="#242A36" stroke-width="1.5" stroke-linecap="round" stroke-linejoin="round"/>
<path d="M19.6101 18.105C20.1867 17.6859 20.6157 17.0951 20.8358 16.4173C21.0559 15.7394 21.0558 15.0092 20.8354 14.3314C20.615 13.6536 20.1857 13.063 19.609 12.6442C19.0323 12.2254 18.3379 11.9999 17.6251 12H17.3741C16.6615 12.0001 15.9672 12.2257 15.3907 12.6446C14.8141 13.0635 14.385 13.6541 14.1648 14.3319C13.9445 15.0096 13.9444 15.7397 14.1646 16.4175C14.3847 17.0953 14.8137 17.686 15.3901 18.105M15.3901 18.105C15.9663 18.5251 16.6611 18.751 17.3741 18.75H17.6241C18.3372 18.751 19.032 18.5251 19.6081 18.105L20.1911 19.94C20.4131 20.64 20.5251 20.99 20.4941 21.208C20.4311 21.662 20.0611 21.998 19.6241 22C19.4141 22 19.1001 21.836 18.4711 21.506C18.2011 21.364 18.0671 21.294 17.9291 21.252C17.6486 21.1681 17.3497 21.1681 17.0691 21.252C16.9311 21.294 16.7961 21.364 16.5271 21.506C15.8981 21.836 15.5841 22.001 15.3741 22C14.9371 21.998 14.5671 21.662 14.5041 21.208C14.4741 20.99 14.5841 20.64 14.8071 19.94L15.3901 18.105Z" stroke="#242A36" stroke-width="1.5"/>
</svg>
