<svg width="24" height="24" viewBox="0 0 24 24" fill="none" xmlns="http://www.w3.org/2000/svg">
<path d="M20 14.005V10.661C20 9.843 20 9.434 19.848 9.066C19.696 8.698 19.407 8.409 18.828 7.831L14.092 3.092C13.593 2.593 13.344 2.344 13.034 2.196C12.9698 2.16518 12.9041 2.13781 12.837 2.114C12.514 2 12.161 2 11.456 2C8.211 2 6.588 2 5.489 2.886C5.26703 3.06525 5.06488 3.26774 4.886 3.49C4 4.59 4 6.213 4 9.46V14.005C4 17.778 4 19.665 5.172 20.837C6.115 21.78 7.52 21.964 10 22M13 2.5V3C13 5.83 13 7.245 13.879 8.124C14.757 9.003 16.172 9.003 19 9.003H19.5" stroke="#242A36" stroke-width="1.5" stroke-linecap="round" stroke-linejoin="round"/>
<path d="M15.509 14.822C15.5507 14.7266 15.6194 14.6454 15.7066 14.5884C15.7938 14.5313 15.8958 14.501 16 14.501C16.1041 14.501 16.2061 14.5313 16.2933 14.5884C16.3805 14.6454 16.4492 14.7266 16.491 14.822L17.333 16.799L19.509 16.969C19.6131 16.9755 19.713 17.013 19.7956 17.0768C19.8782 17.1406 19.9398 17.2277 19.9724 17.3269C20.0051 17.426 20.0072 17.5327 19.9786 17.6331C19.95 17.7334 19.8919 17.8229 19.812 17.89L18.157 19.276L18.663 21.352C18.774 21.805 18.274 22.164 17.87 21.922L16 20.807L14.13 21.922C13.726 22.164 13.226 21.805 13.336 21.352L13.843 19.276L12.188 17.89C12.1083 17.8229 12.0506 17.7334 12.0222 17.6332C11.9938 17.533 11.9961 17.4266 12.0286 17.3276C12.0612 17.2287 12.1227 17.1418 12.205 17.078C12.2874 17.0143 12.387 16.9767 12.491 16.97L14.667 16.799L15.509 14.822Z" stroke="#242A36" stroke-width="1.5" stroke-linecap="round" stroke-linejoin="round"/>
</svg>
