<svg width="24" height="24" viewBox="0 0 24 24" fill="none" xmlns="http://www.w3.org/2000/svg">
<path d="M10.014 2C6.236 2 4.347 2 3.174 3.172C2.001 4.344 2 6.229 2 10C2 13.771 2 15.657 3.174 16.828C4.348 17.999 6.236 18 10.014 18H14.021C17.799 18 19.688 18 20.861 16.828C21.671 16.02 21.922 14.872 22 13" stroke="#242A36" stroke-width="1.5" stroke-linecap="round"/>
<path d="M12 18V22" stroke="#242A36" stroke-width="1.5"/>
<path d="M8 22H16" stroke="#242A36" stroke-width="1.5" stroke-linecap="round"/>
<path d="M11 15H13M15.5 10V12M18.5 10V12M15.5 2V4M18.5 2V4M14 5.5H12M14 8.5H12M22 5.5H20M22 8.5H20M18 4H16C15.057 4 14.586 4 14.293 4.293C14 4.586 14 5.057 14 6V8C14 8.943 14 9.414 14.293 9.707C14.586 10 15.057 10 16 10H18C18.943 10 19.414 10 19.707 9.707C20 9.414 20 8.943 20 8V6C20 5.057 20 4.586 19.707 4.293C19.414 4 18.943 4 18 4Z" stroke="#242A36" stroke-width="1.5" stroke-linecap="round" stroke-linejoin="round"/>
</svg>
