<svg width="24" height="24" viewBox="0 0 24 24" fill="none" xmlns="http://www.w3.org/2000/svg">
<path d="M7.50013 4.5C6.96813 4.49985 6.44566 4.64117 5.98627 4.90948C5.52688 5.17778 5.1471 5.56343 4.88587 6.02687C4.62463 6.49032 4.49133 7.0149 4.49964 7.54684C4.50795 8.07877 4.65756 8.59894 4.93313 9.054C4.24867 9.18625 3.63161 9.55267 3.18788 10.0903C2.74416 10.628 2.50146 11.3034 2.50146 12.0005C2.50146 12.6976 2.74416 13.373 3.18788 13.9107C3.63161 14.4483 4.24867 14.8147 4.93313 14.947M7.50013 4.5C7.50013 3.83696 7.76353 3.20107 8.23237 2.73223C8.70121 2.26339 9.33709 2 10.0001 2C10.6632 2 11.2991 2.26339 11.7679 2.73223C12.2367 3.20107 12.5001 3.83696 12.5001 4.5V6M7.50013 4.5C7.50013 5.318 7.89313 6.044 8.50013 6.5M4.93313 14.947C4.65781 15.402 4.50841 15.9221 4.50023 16.4539C4.49206 16.9857 4.62541 17.5101 4.88661 17.9734C5.14782 18.4367 5.52749 18.8222 5.98673 19.0904C6.44598 19.3587 6.96828 19.5 7.50013 19.5C7.50013 20.163 7.76353 20.7989 8.23237 21.2678C8.70121 21.7366 9.33709 22 10.0001 22C10.6632 22 11.2991 21.7366 11.7679 21.2678C12.2367 20.7989 12.5001 20.163 12.5001 19.5V18M4.93313 14.947C5.29219 14.3532 5.84595 13.9013 6.50013 13.67M15.0001 15V17M18.0001 15V17M15.0001 7V9M18.0001 7V9M13.5001 10.5H11.5001M13.5001 13.5H11.5001M21.5001 10.5H19.5001M21.5001 13.5H19.5001M17.5001 9H15.5001C14.5571 9 14.0861 9 13.7931 9.293C13.5001 9.586 13.5001 10.057 13.5001 11V13C13.5001 13.943 13.5001 14.414 13.7931 14.707C14.0861 15 14.5571 15 15.5001 15H17.5001C18.4431 15 18.9141 15 19.2071 14.707C19.5001 14.414 19.5001 13.943 19.5001 13V11C19.5001 10.057 19.5001 9.586 19.2071 9.293C18.9141 9 18.4431 9 17.5001 9Z" stroke="#242A36" stroke-width="1.5" stroke-linecap="round" stroke-linejoin="round"/>
</svg>
