<svg width="24" height="24" viewBox="0 0 24 24" fill="none" xmlns="http://www.w3.org/2000/svg">
<path d="M6.00011 16H7.00011M3.00011 3.5V8.5M12.0001 3.5V8.5M15.0001 3.5V8.5M22.0001 16L20.0001 14H10.5321C10.081 13.0908 9.33588 12.3609 8.41763 11.9286C7.49939 11.4963 6.46198 11.3871 5.47386 11.6188C4.48575 11.8504 3.60495 12.4093 2.9745 13.2046C2.34406 14 2.00098 14.9851 2.00098 16C2.00098 17.0149 2.34406 18 2.9745 18.7954C3.60495 19.5907 4.48575 20.1496 5.47386 20.3812C6.46198 20.6129 7.49939 20.5037 8.41763 20.0714C9.33588 19.6391 10.081 18.9092 10.5321 18H16.5001L17.7501 16.707L19.0001 18H20.0001L22.0001 16ZM6.00011 7V5C6.00011 4.60218 6.15814 4.22064 6.43945 3.93934C6.72075 3.65804 7.10228 3.5 7.50011 3.5C7.89793 3.5 8.27946 3.65804 8.56077 3.93934C8.84207 4.22064 9.00011 4.60218 9.00011 5V7C9.00011 7.39782 8.84207 7.77936 8.56077 8.06066C8.27946 8.34196 7.89793 8.5 7.50011 8.5C7.10228 8.5 6.72075 8.34196 6.43945 8.06066C6.15814 7.77936 6.00011 7.39782 6.00011 7ZM18.0001 7V5C18.0001 4.60218 18.1581 4.22064 18.4394 3.93934C18.7208 3.65804 19.1023 3.5 19.5001 3.5C19.8979 3.5 20.2795 3.65804 20.5608 3.93934C20.8421 4.22064 21.0001 4.60218 21.0001 5V7C21.0001 7.39782 20.8421 7.77936 20.5608 8.06066C20.2795 8.34196 19.8979 8.5 19.5001 8.5C19.1023 8.5 18.7208 8.34196 18.4394 8.06066C18.1581 7.77936 18.0001 7.39782 18.0001 7Z" stroke="#242A36" stroke-width="1.5" stroke-linecap="round" stroke-linejoin="round"/>
</svg>
