<svg width="24" height="24" viewBox="0 0 24 24" fill="none" xmlns="http://www.w3.org/2000/svg">
<path d="M7 8L9.942 9.74C11.657 10.754 12.342 10.754 14.058 9.74L17 8" stroke="#242A36" stroke-width="1.5" stroke-linecap="round" stroke-linejoin="round"/>
<path d="M21.9838 12.9761C22.0048 11.9901 22.0048 11.0101 21.9838 10.0241C21.9188 6.95908 21.8858 5.42608 20.7548 4.29108C19.6238 3.15508 18.0498 3.11608 14.9008 3.03708C12.9671 2.98829 11.0325 2.98829 9.09881 3.03708C5.94981 3.11608 4.37581 3.15508 3.24481 4.29108C2.11381 5.42608 2.08081 6.95908 2.01481 10.0241C1.99376 11.008 1.99376 11.9922 2.01481 12.9761C2.08081 16.0411 2.11381 17.5741 3.24481 18.7091C4.37581 19.8451 5.94981 19.8841 9.09881 19.9631C10.4038 19.9961 11.6998 20.0071 12.9998 19.9961" stroke="#242A36" stroke-width="1.5" stroke-linecap="round" stroke-linejoin="round"/>
<path d="M18.5 14L18.758 14.697C19.096 15.611 19.265 16.068 19.598 16.401C19.932 16.735 20.389 16.904 21.303 17.242L22 17.5L21.303 17.758C20.389 18.096 19.932 18.265 19.599 18.598C19.265 18.932 19.096 19.389 18.758 20.303L18.5 21L18.242 20.303C17.904 19.389 17.735 18.932 17.402 18.599C17.068 18.265 16.611 18.096 15.697 17.758L15 17.5L15.697 17.242C16.611 16.904 17.068 16.735 17.401 16.402C17.735 16.068 17.904 15.611 18.242 14.697L18.5 14Z" stroke="#242A36" stroke-width="1.5" stroke-linejoin="round"/>
</svg>
