<svg width="36" height="36" viewBox="0 0 36 36" fill="none" xmlns="http://www.w3.org/2000/svg">
<path d="M17.9505 22.337L9.09897 19.0291L7.63828 10.7451C6.99265 7.08356 9.49173 3.58503 13.2228 2.92714C15.5374 2.51902 17.7818 3.302 19.3066 4.82858" stroke="#242A36" stroke-width="2.52354" stroke-linecap="round" stroke-linejoin="round"/>
<path d="M15.6619 30.1378C16.4488 30.9588 17.4264 31.5724 18.5077 31.9242C19.5891 32.276 20.7406 32.355 21.8599 32.1541C25.5877 31.4968 28.0901 27.9977 27.4444 24.3362L25.9838 16.0522L16.9577 12.6845" stroke="#242A36" stroke-width="2.52354" stroke-linecap="round" stroke-linejoin="round"/>
<path d="M13.7574 20.7702L12.0542 11.111L18.6337 5.6801C21.5416 3.27967 25.8634 3.63657 28.2878 6.47708C29.0295 7.34258 29.5348 8.38511 29.7548 9.50351C29.9747 10.6219 29.9018 11.7782 29.5431 12.8601" stroke="#242A36" stroke-width="2.52354" stroke-linecap="round" stroke-linejoin="round"/>
<path d="M5.53617 22.2196C5.17719 23.3014 5.10398 24.4576 5.32364 25.5761C5.5433 26.6945 6.04837 27.7372 6.78984 28.6028C9.21425 31.4433 13.5377 31.8 16.4459 29.4012L23.0253 23.9703L21.5496 14.6708" stroke="#242A36" stroke-width="2.52354" stroke-linecap="round" stroke-linejoin="round"/>
<path d="M27.6282 25.3797C28.7498 25.1369 29.7929 24.6174 30.6624 23.8686C31.532 23.1197 32.2005 22.1652 32.607 21.0921C33.9137 17.5937 32.0921 13.7346 28.5388 12.4752L20.497 9.62239L12.9201 15.6648" stroke="#242A36" stroke-width="2.52354" stroke-linecap="round" stroke-linejoin="round"/>
<path d="M7.45425 9.7012C6.33231 9.9438 5.28889 10.4632 4.41901 11.2122C3.54913 11.9611 2.88044 12.9157 2.47382 13.9892C1.16742 17.4892 2.98873 21.3466 6.54201 22.6061L14.5838 25.4588L22.144 19.4279" stroke="#242A36" stroke-width="2.52354" stroke-linecap="round" stroke-linejoin="round"/>
</svg>
