<svg width="38" height="39" viewBox="0 0 38 39" fill="none" xmlns="http://www.w3.org/2000/svg">
<path fill-rule="evenodd" clip-rule="evenodd" d="M0.10052 24.3842C0.10052 24.3842 3.25004 31.9398 3.46528 32.2953C3.98572 33.1532 4.8395 33.7576 5.81991 33.9624C10.9405 35.0646 22.6679 37.5901 27.5799 38.6493C29.4832 39.0565 31.3708 37.9064 31.8805 36.0306L37.6909 14.6174C38.0133 13.4161 37.6895 12.1386 36.8378 11.237C35.3309 9.64202 32.3486 6.47983 31.4608 5.47156C30.7366 4.64954 29.7607 4.09003 28.6805 3.87136C25.0212 3.13539 14.2804 0.984601 9.73728 0.0697157C7.91971 -0.295031 6.1498 0.802532 5.67684 2.56518L0.0434179 23.56C-0.0294699 23.8317 -0.0101905 24.1216 0.10214 24.3782L0.10052 24.3842ZM34.9715 15.0331L34.9683 15.0451L29.4495 35.3718C29.2923 35.9574 28.6979 36.3156 28.1043 36.1886L6.34428 31.5018C6.0376 31.4389 5.77259 31.2448 5.61034 30.9813C5.4481 30.7177 5.39908 30.394 5.48007 30.0921L10.8964 9.90618C11.0536 9.32064 11.6359 8.9592 12.2295 9.08614L34.0953 13.6202C34.4019 13.6831 34.6686 13.8711 34.8352 14.1423C34.9975 14.4059 35.0465 14.7296 34.9655 15.0314L34.9715 15.0331ZM24.2704 26.0227L26.4927 17.7407C26.229 17.204 25.6172 17.0722 24.8193 16.5734C24.7637 16.5391 24.7224 16.4762 24.7144 16.4094C24.7065 16.3425 24.732 16.2717 24.7828 16.2271C26.2308 14.9785 28.9388 16.7275 31.0341 16.6362C31.0933 16.6326 31.158 16.6565 31.195 16.7117C31.2319 16.7669 31.2339 16.8321 31.2056 16.8893C30.7933 17.6781 30.0203 17.9302 29.0361 17.8602L25.3804 31.4845C25.2589 31.9372 24.8755 32.2809 24.4076 32.3365C23.9791 32.3898 23.5293 32.4503 23.5293 32.4503C22.4701 32.6838 21.4119 32.0698 21.0809 31.0362L17.0576 18.3928L14.4223 28.2142C14.6799 28.7492 15.2977 28.8826 16.0957 29.3815C16.1512 29.4158 16.1925 29.4786 16.2005 29.5455C16.2084 29.6123 16.183 29.6831 16.1322 29.7277C14.6781 30.9748 11.9761 29.2273 9.88086 29.3187C9.82005 29.3283 9.75689 29.2984 9.71994 29.2432C9.68136 29.194 9.68107 29.1227 9.70934 29.0656C10.1216 28.2768 10.8946 28.0247 11.8788 28.0947L15.3305 15.231L13.5544 14.5667C13.5544 14.5667 14.078 13.1218 15.8619 13.4193C16.7417 13.5648 19.0072 14.0691 19.8258 14.2499C20.0085 14.2925 20.1609 14.424 20.2291 14.604L24.2797 26.0123L24.2704 26.0227ZM11.4248 5.88705C11.6888 6.22967 12.0713 6.4682 12.4943 6.55581C15.6138 7.2052 28.9319 9.97635 32.2358 10.6622C32.34 10.6837 32.444 10.634 32.4941 10.5439C32.5441 10.4538 32.5294 10.3398 32.4595 10.2628C31.2581 8.97627 30.076 7.71431 29.5704 7.13861C29.2075 6.73062 28.7196 6.45087 28.1803 6.33851C28.1803 6.33851 13.0499 3.15874 9.8943 2.66793C9.49663 2.60652 9.37486 2.72268 9.34821 2.77377C9.24367 2.94632 9.27282 3.10298 9.39134 3.2642C9.88072 3.90026 10.8671 5.16796 11.4248 5.88705Z" fill="#F8F8F8"/>
</svg>
