<svg width="38" height="38" viewBox="0 0 38 38" fill="none" xmlns="http://www.w3.org/2000/svg">
<g clip-path="url(#clip0_729_4093)">
<path d="M31.176 9.69041L28.1625 10.3309L26.2159 1.17287L18.1837 11.5417L16.4472 3.3721L14.9403 3.6924L16.6581 11.774L5.85601 5.40836L7.82135 14.6546L4.0547 15.4552L6.93708 29.0157L10.7039 28.2151L12.5093 36.7091L19.7872 26.4939L21.506 34.5805L23.0129 34.2603L21.3366 26.3739L32.0904 32.5132L30.2919 24.0517L34.0587 23.251L31.176 9.69041ZM25.4 4.74184L26.656 10.6512L19.6721 12.1356L25.4 4.74184ZM8.0909 8.51314L15.6785 12.9845L9.32822 14.3343L8.0909 8.51314ZM8.12358 27.1889L5.88174 16.6418L16.1166 14.4663L9.83661 24.1363L10.3834 26.7085L8.12358 27.1889ZM13.2876 32.9619L12.2106 27.8948L11.4764 24.4402L17.4086 15.3054L19.3522 24.4492L13.2876 32.9619ZM29.869 29.4712L20.9073 24.3548L18.9156 14.9848L28.0508 20.9172L29.869 29.4712ZM32.2317 22.0645L29.9715 22.5449L29.4247 19.9727L19.7547 13.693L29.9898 11.5175L32.2317 22.0645Z" fill="white"/>
</g>
<defs>
<clipPath id="clip0_729_4093">
<rect width="32" height="32" fill="white" transform="translate(0 6.65332) rotate(-12)"/>
</clipPath>
</defs>
</svg>
