<svg width="24" height="24" viewBox="0 0 24 24" fill="none" xmlns="http://www.w3.org/2000/svg">
<path d="M2 7.0002H4.865C5.592 7.0002 6.289 6.6402 6.803 6.0002C7.536 5.0862 8.622 4.7662 9.607 5.1752L11 5.7542M2 15.9672H3.62C4.78 15.9672 5.36 15.9672 5.908 16.1212L5.988 16.1452C6.533 16.3102 7.015 16.6212 7.98 17.2432C9.868 18.4602 10.812 19.0682 11.84 18.9942L11.986 18.9802C13.01 18.8582 13.812 18.0822 15.416 16.5302L17 15.0002" stroke="#242A36" stroke-width="1.5" stroke-linecap="round"/>
<path d="M22 7.23423H19.483C18.417 7.23423 17.665 6.65423 16.9 5.88323C16.4267 5.39302 15.7887 5.09524 15.109 5.04723C14.366 5.00223 13.505 4.93723 12.784 5.13623C11.981 5.35623 11.451 5.96123 10.89 6.59223L9.44299 8.22223C8.85299 8.88623 8.85299 9.96523 9.44299 10.6302C9.95299 11.2042 10.752 11.2932 11.352 10.8422C11.784 10.5182 12.274 9.99523 12.783 9.83023C13.356 9.64523 13.711 10.0622 14.035 10.5002L16.355 13.6342C17.217 14.7982 17.647 15.3792 18.235 15.6902C18.825 16.0002 19.497 16.0002 20.842 16.0002H22" stroke="#242A36" stroke-width="1.5" stroke-linecap="round"/>
</svg>
