<svg width="36" height="36" viewBox="0 0 36 36" fill="none" xmlns="http://www.w3.org/2000/svg">
<path d="M17.9505 22.3367L9.09897 19.0288L7.63828 10.7448C6.99265 7.08326 9.49173 3.58473 13.2228 2.92683C15.5374 2.51871 17.7818 3.3017 19.3066 4.82827" stroke="#242A36" stroke-width="2.52354" stroke-linecap="round" stroke-linejoin="round"/>
<path d="M15.6619 30.1377C16.4488 30.9586 17.4264 31.5722 18.5077 31.924C19.5891 32.2758 20.7406 32.3548 21.8599 32.1539C25.5877 31.4966 28.0901 27.9975 27.4444 24.336L25.9838 16.052L16.9577 12.6843" stroke="#242A36" stroke-width="2.52354" stroke-linecap="round" stroke-linejoin="round"/>
<path d="M13.7574 20.77L12.0542 11.1108L18.6337 5.67992C21.5416 3.27949 25.8634 3.63639 28.2878 6.4769C29.0295 7.34239 29.5348 8.38493 29.7548 9.50332C29.9747 10.6217 29.9018 11.778 29.5431 12.8599" stroke="#242A36" stroke-width="2.52354" stroke-linecap="round" stroke-linejoin="round"/>
<path d="M5.53617 22.2197C5.17719 23.3016 5.10398 24.4578 5.32364 25.5762C5.5433 26.6947 6.04837 27.7373 6.78984 28.603C9.21425 31.4435 13.5377 31.8001 16.4459 29.4014L23.0253 23.9705L21.5496 14.671" stroke="#242A36" stroke-width="2.52354" stroke-linecap="round" stroke-linejoin="round"/>
<path d="M27.6282 25.3796C28.7498 25.1367 29.7929 24.6172 30.6624 23.8684C31.532 23.1195 32.2005 22.165 32.607 21.0919C33.9137 17.5935 32.0921 13.7344 28.5388 12.475L20.497 9.6222L12.9201 15.6646" stroke="#242A36" stroke-width="2.52354" stroke-linecap="round" stroke-linejoin="round"/>
<path d="M7.45425 9.70114C6.33231 9.94374 5.28889 10.4632 4.41901 11.2121C3.54913 11.961 2.88044 12.9157 2.47382 13.9891C1.16742 17.4892 2.98873 21.3466 6.54201 22.606L14.5838 25.4588L22.144 19.4279" stroke="#242A36" stroke-width="2.52354" stroke-linecap="round" stroke-linejoin="round"/>
</svg>
