<svg width="30" height="36" viewBox="0 0 30 36" fill="none" xmlns="http://www.w3.org/2000/svg">
<path d="M30.0036 14.2104L26.9901 13.5698L28.9367 4.41178L17.3815 10.6172L19.118 2.44756L17.6112 2.12727L15.8934 10.2089L8.61431 -3.29462e-05L6.64896 9.2462L2.88231 8.44557L-6.80661e-05 22.0061L3.76671 22.8067L1.96126 31.3007L12.7648 24.9289L11.0459 33.0155L12.5528 33.3358L14.2291 25.4495L21.5561 35.4319L23.3547 26.9704L27.1215 27.7711L30.0036 14.2104ZM26.7397 7.34032L25.4836 13.2496L18.4997 11.7651L26.7397 7.34032ZM9.39315 3.74534L14.5061 10.9163L8.15583 9.5665L9.39315 3.74534ZM1.82691 20.8197L4.06875 10.2727L14.3036 12.4482L4.63344 18.7278L4.08669 21.3001L1.82691 20.8197ZM4.19641 28.1941L5.27345 23.127L6.00787 19.6725L15.1426 13.7402L13.199 22.8841L4.19641 28.1941ZM20.7641 31.7494L14.6581 23.4303L16.6498 14.0603L22.5823 23.1955L20.7641 31.7494ZM25.935 25.9441L23.6748 25.4637L24.2216 22.8914L17.9418 13.2215L28.1768 15.397L25.935 25.9441Z" fill="white"/>
</svg>
