<svg width="218" height="149" viewBox="0 0 218 149" fill="none" xmlns="http://www.w3.org/2000/svg">
<path d="M10 0.5L208 0.5C213.247 0.5 217.5 4.7533 217.5 10V139C217.5 144.247 213.247 148.5 208 148.5H10C4.7533 148.5 0.5 144.247 0.5 139L0.5 10C0.500002 4.7533 4.7533 0.5 10 0.5Z" fill="white"/>
<path d="M10 0.5L208 0.5C213.247 0.5 217.5 4.7533 217.5 10V139C217.5 144.247 213.247 148.5 208 148.5H10C4.7533 148.5 0.5 144.247 0.5 139L0.5 10C0.500002 4.7533 4.7533 0.5 10 0.5Z" stroke="#E4E4E4"/>
<path d="M21.4091 38V26.3636H25.3409C26.25 26.3636 26.9962 26.5189 27.5795 26.8295C28.1629 27.1364 28.5947 27.5587 28.875 28.0966C29.1553 28.6345 29.2955 29.2462 29.2955 29.9318C29.2955 30.6174 29.1553 31.2254 28.875 31.7557C28.5947 32.286 28.1648 32.7027 27.5852 33.0057C27.0057 33.3049 26.2652 33.4545 25.3636 33.4545H22.1818V32.1818H25.3182C25.9394 32.1818 26.4394 32.0909 26.8182 31.9091C27.2008 31.7273 27.4773 31.4697 27.6477 31.1364C27.822 30.7992 27.9091 30.3977 27.9091 29.9318C27.9091 29.4659 27.822 29.0587 27.6477 28.7102C27.4735 28.3617 27.1951 28.0928 26.8125 27.9034C26.4299 27.7102 25.9242 27.6136 25.2955 27.6136H22.8182V38H21.4091ZM26.8864 32.7727L29.75 38H28.1136L25.2955 32.7727H26.8864ZM34.0298 38.2045C33.4768 38.2045 32.9749 38.1004 32.5242 37.892C32.0734 37.6799 31.7154 37.375 31.4503 36.9773C31.1851 36.5758 31.0526 36.0909 31.0526 35.5227C31.0526 35.0227 31.151 34.6174 31.348 34.3068C31.545 33.9924 31.8082 33.7462 32.1378 33.5682C32.4673 33.3902 32.831 33.2576 33.2287 33.1705C33.6302 33.0795 34.0336 33.0076 34.4389 32.9545C34.9692 32.8864 35.3992 32.8352 35.7287 32.8011C36.062 32.7633 36.3045 32.7008 36.456 32.6136C36.6113 32.5265 36.6889 32.375 36.6889 32.1591V32.1136C36.6889 31.553 36.5355 31.1174 36.2287 30.8068C35.9257 30.4962 35.4654 30.3409 34.848 30.3409C34.2079 30.3409 33.706 30.4811 33.3423 30.7614C32.9787 31.0417 32.723 31.3409 32.5753 31.6591L31.3026 31.2045C31.5298 30.6742 31.8329 30.2614 32.2117 29.9659C32.5942 29.6667 33.0109 29.4583 33.4617 29.3409C33.9162 29.2197 34.3632 29.1591 34.8026 29.1591C35.0829 29.1591 35.4048 29.1932 35.7685 29.2614C36.1359 29.3258 36.4901 29.4602 36.831 29.6648C37.1757 29.8693 37.4617 30.178 37.6889 30.5909C37.9162 31.0038 38.0298 31.5568 38.0298 32.25V38H36.6889V36.8182H36.6207C36.5298 37.0076 36.3783 37.2102 36.1662 37.4261C35.9541 37.642 35.6719 37.8258 35.3196 37.9773C34.9673 38.1288 34.5374 38.2045 34.0298 38.2045ZM34.2344 37C34.7647 37 35.2117 36.8958 35.5753 36.6875C35.9427 36.4792 36.2192 36.2102 36.4048 35.8807C36.5942 35.5511 36.6889 35.2045 36.6889 34.8409V33.6136C36.6321 33.6818 36.5071 33.7443 36.3139 33.8011C36.1245 33.8542 35.9048 33.9015 35.6548 33.9432C35.4086 33.9811 35.1681 34.0152 34.9332 34.0455C34.7022 34.072 34.5147 34.0947 34.3707 34.1136C34.0223 34.1591 33.6965 34.233 33.3935 34.3352C33.0942 34.4337 32.8518 34.5833 32.6662 34.7841C32.4844 34.9811 32.3935 35.25 32.3935 35.5909C32.3935 36.0568 32.5658 36.4091 32.9105 36.6477C33.259 36.8826 33.7003 37 34.2344 37ZM46.6591 31.2273L45.4546 31.5682C45.3788 31.3674 45.2671 31.1724 45.1193 30.983C44.9754 30.7898 44.7784 30.6307 44.5284 30.5057C44.2784 30.3807 43.9583 30.3182 43.5682 30.3182C43.0341 30.3182 42.589 30.4413 42.233 30.6875C41.8807 30.9299 41.7045 31.2386 41.7045 31.6136C41.7045 31.947 41.8258 32.2102 42.0682 32.4034C42.3106 32.5966 42.6894 32.7576 43.2046 32.8864L44.5 33.2045C45.2803 33.3939 45.8617 33.6837 46.2443 34.0739C46.6269 34.4602 46.8182 34.9583 46.8182 35.5682C46.8182 36.0682 46.6742 36.5152 46.3864 36.9091C46.1023 37.303 45.7046 37.6136 45.1932 37.8409C44.6818 38.0682 44.0871 38.1818 43.4091 38.1818C42.5189 38.1818 41.7822 37.9886 41.1989 37.6023C40.6155 37.2159 40.2462 36.6515 40.0909 35.9091L41.3636 35.5909C41.4849 36.0606 41.714 36.4129 42.0511 36.6477C42.3921 36.8826 42.8371 37 43.3864 37C44.0114 37 44.5076 36.8674 44.875 36.6023C45.2462 36.3333 45.4318 36.0114 45.4318 35.6364C45.4318 35.3333 45.3258 35.0795 45.1136 34.875C44.9015 34.6667 44.5758 34.5114 44.1364 34.4091L42.6818 34.0682C41.8826 33.8788 41.2955 33.5852 40.9205 33.1875C40.5492 32.786 40.3636 32.2841 40.3636 31.6818C40.3636 31.1894 40.5019 30.7538 40.7784 30.375C41.0587 29.9962 41.4394 29.6989 41.9205 29.483C42.4053 29.267 42.9546 29.1591 43.5682 29.1591C44.4318 29.1591 45.1099 29.3485 45.6023 29.7273C46.0985 30.1061 46.4508 30.6061 46.6591 31.2273ZM52.6321 29.2727V30.4091H48.1094V29.2727H52.6321ZM49.4276 27.1818H50.7685V35.5C50.7685 35.8788 50.8234 36.1629 50.9332 36.3523C51.0469 36.5379 51.1908 36.6629 51.3651 36.7273C51.5431 36.7879 51.7306 36.8182 51.9276 36.8182C52.0753 36.8182 52.1965 36.8106 52.2912 36.7955C52.3859 36.7765 52.4617 36.7614 52.5185 36.75L52.7912 37.9545C52.7003 37.9886 52.5734 38.0227 52.4105 38.0568C52.2476 38.0947 52.0412 38.1136 51.7912 38.1136C51.4124 38.1136 51.0412 38.0322 50.6776 37.8693C50.3177 37.7064 50.0185 37.4583 49.7798 37.125C49.545 36.7917 49.4276 36.3712 49.4276 35.8636V27.1818ZM62.6946 38.1818C61.9067 38.1818 61.2154 37.9943 60.6207 37.6193C60.0298 37.2443 59.5677 36.7197 59.2344 36.0455C58.9048 35.3712 58.7401 34.5833 58.7401 33.6818C58.7401 32.7727 58.9048 31.9792 59.2344 31.3011C59.5677 30.6231 60.0298 30.0966 60.6207 29.7216C61.2154 29.3466 61.9067 29.1591 62.6946 29.1591C63.4825 29.1591 64.1719 29.3466 64.7628 29.7216C65.3575 30.0966 65.8196 30.6231 66.1492 31.3011C66.4825 31.9792 66.6492 32.7727 66.6492 33.6818C66.6492 34.5833 66.4825 35.3712 66.1492 36.0455C65.8196 36.7197 65.3575 37.2443 64.7628 37.6193C64.1719 37.9943 63.4825 38.1818 62.6946 38.1818ZM62.6946 36.9773C63.2931 36.9773 63.7855 36.8239 64.1719 36.517C64.5582 36.2102 64.8442 35.8068 65.0298 35.3068C65.2154 34.8068 65.3082 34.2652 65.3082 33.6818C65.3082 33.0985 65.2154 32.5549 65.0298 32.0511C64.8442 31.5474 64.5582 31.1402 64.1719 30.8295C63.7855 30.5189 63.2931 30.3636 62.6946 30.3636C62.0961 30.3636 61.6037 30.5189 61.2173 30.8295C60.831 31.1402 60.545 31.5474 60.3594 32.0511C60.1738 32.5549 60.081 33.0985 60.081 33.6818C60.081 34.2652 60.1738 34.8068 60.3594 35.3068C60.545 35.8068 60.831 36.2102 61.2173 36.517C61.6037 36.8239 62.0961 36.9773 62.6946 36.9773ZM70.0369 32.75V38H68.696V29.2727H69.9915V30.6364H70.1051C70.3097 30.1932 70.6203 29.8371 71.0369 29.5682C71.4536 29.2955 71.9915 29.1591 72.6506 29.1591C73.2415 29.1591 73.7585 29.2803 74.2017 29.5227C74.6449 29.7614 74.9896 30.125 75.2358 30.6136C75.482 31.0985 75.6051 31.7121 75.6051 32.4545V38H74.2642V32.5455C74.2642 31.8599 74.0862 31.3258 73.7301 30.9432C73.3741 30.5568 72.8854 30.3636 72.2642 30.3636C71.8362 30.3636 71.4536 30.4564 71.1165 30.642C70.7832 30.8277 70.5199 31.0985 70.3267 31.4545C70.1335 31.8106 70.0369 32.2424 70.0369 32.75ZM79.3963 26.3636V38H78.0554V26.3636H79.3963ZM81.8523 38V29.2727H83.1932V38H81.8523ZM82.5341 27.8182C82.2727 27.8182 82.0474 27.7292 81.858 27.5511C81.6724 27.3731 81.5796 27.1591 81.5796 26.9091C81.5796 26.6591 81.6724 26.4451 81.858 26.267C82.0474 26.089 82.2727 26 82.5341 26C82.7955 26 83.0189 26.089 83.2046 26.267C83.3939 26.4451 83.4886 26.6591 83.4886 26.9091C83.4886 27.1591 83.3939 27.3731 83.2046 27.5511C83.0189 27.7292 82.7955 27.8182 82.5341 27.8182ZM86.9901 32.75V38H85.6492V29.2727H86.9446V30.6364H87.0582C87.2628 30.1932 87.5734 29.8371 87.9901 29.5682C88.4067 29.2955 88.9446 29.1591 89.6037 29.1591C90.1946 29.1591 90.7117 29.2803 91.1548 29.5227C91.598 29.7614 91.9427 30.125 92.1889 30.6136C92.4351 31.0985 92.5582 31.7121 92.5582 32.4545V38H91.2173V32.5455C91.2173 31.8599 91.0393 31.3258 90.6832 30.9432C90.3272 30.5568 89.8386 30.3636 89.2173 30.3636C88.7893 30.3636 88.4067 30.4564 88.0696 30.642C87.7363 30.8277 87.473 31.0985 87.2798 31.4545C87.0867 31.8106 86.9901 32.2424 86.9901 32.75ZM98.6676 38.1818C97.8267 38.1818 97.1013 37.9962 96.4915 37.625C95.8854 37.25 95.4176 36.7273 95.0881 36.0568C94.7623 35.3826 94.5994 34.5985 94.5994 33.7045C94.5994 32.8106 94.7623 32.0227 95.0881 31.3409C95.4176 30.6553 95.876 30.1212 96.4631 29.7386C97.054 29.3523 97.7434 29.1591 98.5313 29.1591C98.9858 29.1591 99.4347 29.2349 99.8779 29.3864C100.321 29.5379 100.724 29.7841 101.088 30.125C101.452 30.4621 101.741 30.9091 101.957 31.4659C102.173 32.0227 102.281 32.7083 102.281 33.5227V34.0909H95.554V32.9318H100.918C100.918 32.4394 100.819 32 100.622 31.6136C100.429 31.2273 100.152 30.9224 99.7926 30.6989C99.4366 30.4754 99.0161 30.3636 98.5313 30.3636C97.9972 30.3636 97.535 30.4962 97.1449 30.7614C96.7585 31.0227 96.4612 31.3636 96.2529 31.7841C96.0445 32.2045 95.9404 32.6553 95.9404 33.1364V33.9091C95.9404 34.5682 96.054 35.1269 96.2813 35.5852C96.5123 36.0398 96.8324 36.3864 97.2415 36.625C97.6506 36.8599 98.126 36.9773 98.6676 36.9773C99.0199 36.9773 99.3381 36.928 99.6222 36.8295C99.91 36.7273 100.158 36.5758 100.366 36.375C100.575 36.1705 100.736 35.9167 100.849 35.6136L102.145 35.9773C102.009 36.4167 101.779 36.803 101.457 37.1364C101.135 37.4659 100.738 37.7235 100.264 37.9091C99.7907 38.0909 99.2585 38.1818 98.6676 38.1818Z" fill="#242A36"/>
<path d="M33.1374 59.5455V85H27.7557V64.6538H27.6065L21.7773 68.3079V63.5352L28.0788 59.5455H33.1374ZM48.1677 85.5593C46.0299 85.551 44.1904 85.0249 42.6492 83.9808C41.1163 82.9368 39.9356 81.4246 39.107 79.4443C38.2867 77.4639 37.8807 75.0817 37.8889 72.2976C37.8889 69.5218 38.2991 67.1561 39.1194 65.2006C39.948 63.2452 41.1288 61.7578 42.6617 60.7386C44.2029 59.7112 46.0382 59.1975 48.1677 59.1975C50.2972 59.1975 52.1284 59.7112 53.6613 60.7386C55.2025 61.7661 56.3874 63.2576 57.216 65.2131C58.0446 67.1603 58.4548 69.5218 58.4465 72.2976C58.4465 75.09 58.0322 77.4763 57.2036 79.4567C56.3833 81.437 55.2067 82.9492 53.6737 83.9933C52.1408 85.0373 50.3055 85.5593 48.1677 85.5593ZM48.1677 81.0973C49.626 81.0973 50.7902 80.364 51.6603 78.8974C52.5303 77.4308 52.9612 75.2308 52.9529 72.2976C52.9529 70.367 52.754 68.7595 52.3563 67.4752C51.9668 66.1908 51.4117 65.2255 50.6908 64.5792C49.9782 63.9329 49.1372 63.6097 48.1677 63.6097C46.7177 63.6097 45.5576 64.3348 44.6876 65.7848C43.8176 67.2349 43.3784 69.4058 43.3701 72.2976C43.3701 74.2531 43.5648 75.8854 43.9543 77.1946C44.352 78.4955 44.9113 79.4733 45.6322 80.1279C46.3531 80.7742 47.1982 81.0973 48.1677 81.0973ZM71.2644 85.5593C69.1266 85.551 67.2871 85.0249 65.7459 83.9808C64.213 82.9368 63.0323 81.4246 62.2037 79.4443C61.3834 77.4639 60.9773 75.0817 60.9856 72.2976C60.9856 69.5218 61.3958 67.1561 62.2161 65.2006C63.0447 63.2452 64.2254 61.7578 65.7584 60.7386C67.2995 59.7112 69.1349 59.1975 71.2644 59.1975C73.3939 59.1975 75.2251 59.7112 76.758 60.7386C78.2992 61.7661 79.4841 63.2576 80.3127 65.2131C81.1413 67.1603 81.5514 69.5218 81.5432 72.2976C81.5432 75.09 81.1289 77.4763 80.3003 79.4567C79.4799 81.437 78.3033 82.9492 76.7704 83.9933C75.2375 85.0373 73.4022 85.5593 71.2644 85.5593ZM71.2644 81.0973C72.7227 81.0973 73.8869 80.364 74.7569 78.8974C75.627 77.4308 76.0578 75.2308 76.0495 72.2976C76.0495 70.367 75.8507 68.7595 75.453 67.4752C75.0635 66.1908 74.5084 65.2255 73.7875 64.5792C73.0749 63.9329 72.2339 63.6097 71.2644 63.6097C69.8143 63.6097 68.6543 64.3348 67.7843 65.7848C66.9142 67.2349 66.4751 69.4058 66.4668 72.2976C66.4668 74.2531 66.6615 75.8854 67.051 77.1946C67.4487 78.4955 68.008 79.4733 68.7289 80.1279C69.4498 80.7742 70.2949 81.0973 71.2644 81.0973ZM98.3135 80.2273V78.885C98.3135 77.8658 98.5289 76.9295 98.9598 76.076C99.399 75.2143 100.033 74.5265 100.861 74.0128C101.698 73.4908 102.717 73.2298 103.919 73.2298C105.137 73.2298 106.16 73.4866 106.989 74.0004C107.826 74.5141 108.456 75.2018 108.878 76.0636C109.309 76.917 109.524 77.8575 109.524 78.885V80.2273C109.524 81.2465 109.309 82.1869 108.878 83.0487C108.447 83.9021 107.813 84.5857 106.976 85.0994C106.14 85.6215 105.12 85.8825 103.919 85.8825C102.701 85.8825 101.678 85.6215 100.849 85.0994C100.02 84.5857 99.3907 83.9021 98.9598 83.0487C98.5289 82.1869 98.3135 81.2465 98.3135 80.2273ZM101.93 78.885V80.2273C101.93 80.8156 102.071 81.3707 102.353 81.8928C102.643 82.4148 103.165 82.6758 103.919 82.6758C104.673 82.6758 105.187 82.4189 105.46 81.9052C105.742 81.3915 105.883 80.8322 105.883 80.2273V78.885C105.883 78.2801 105.75 77.7166 105.485 77.1946C105.22 76.6726 104.698 76.4116 103.919 76.4116C103.173 76.4116 102.655 76.6726 102.365 77.1946C102.075 77.7166 101.93 78.2801 101.93 78.885ZM85.2506 65.6605V64.3182C85.2506 63.2907 85.4702 62.3503 85.9094 61.4968C86.3485 60.6351 86.9824 59.9473 87.811 59.4336C88.6479 58.9199 89.6588 58.663 90.8437 58.663C92.07 58.663 93.0975 58.9199 93.9261 59.4336C94.7547 59.9473 95.3844 60.6351 95.8153 61.4968C96.2461 62.3503 96.4616 63.2907 96.4616 64.3182V65.6605C96.4616 66.688 96.242 67.6284 95.8028 68.4819C95.372 69.3354 94.7381 70.0189 93.9012 70.5327C93.0726 71.0381 92.0534 71.2908 90.8437 71.2908C89.6339 71.2908 88.6106 71.034 87.7737 70.5203C86.9451 69.9982 86.3154 69.3146 85.8845 68.4695C85.4619 67.616 85.2506 66.6797 85.2506 65.6605ZM88.8923 64.3182V65.6605C88.8923 66.2654 89.0332 66.8247 89.3149 67.3384C89.6049 67.8522 90.1145 68.109 90.8437 68.109C91.606 68.109 92.1239 67.8522 92.3973 67.3384C92.679 66.8247 92.8199 66.2654 92.8199 65.6605V64.3182C92.8199 63.7133 92.6873 63.1499 92.4222 62.6278C92.157 62.1058 91.6308 61.8448 90.8437 61.8448C90.1062 61.8448 89.5966 62.11 89.3149 62.6403C89.0332 63.1706 88.8923 63.7299 88.8923 64.3182ZM86.8913 85L104.391 59.5455H107.648L90.1476 85H86.8913Z" fill="#242A36"/>
<path d="M25.6761 121H21.4382L21.4382 107.909H25.8104C27.093 107.909 28.1946 108.171 29.1151 108.695C30.0355 109.215 30.7408 109.963 31.2308 110.939C31.7251 111.911 31.9723 113.076 31.9723 114.435C31.9723 115.799 31.723 116.971 31.2244 117.951C30.7301 118.931 30.0142 119.685 29.0767 120.214C28.1392 120.738 27.0057 121 25.6761 121ZM23.4134 119.274H25.5675C26.5646 119.274 27.3935 119.087 28.054 118.712C28.7145 118.332 29.2088 117.785 29.5369 117.069C29.8651 116.349 30.0291 115.471 30.0291 114.435C30.0291 113.408 29.8651 112.537 29.5369 111.821C29.2131 111.105 28.7294 110.562 28.0859 110.191C27.4425 109.82 26.6435 109.635 25.6889 109.635H23.4134V119.274ZM33.275 121V111.182H35.1863V121H33.275ZM34.2402 109.667C33.9079 109.667 33.6223 109.556 33.3837 109.335C33.1493 109.109 33.0321 108.84 33.0321 108.529C33.0321 108.214 33.1493 107.945 33.3837 107.724C33.6223 107.498 33.9079 107.385 34.2402 107.385C34.5726 107.385 34.856 107.498 35.0904 107.724C35.329 107.945 35.4483 108.214 35.4483 108.529C35.4483 108.84 35.329 109.109 35.0904 109.335C34.856 109.556 34.5726 109.667 34.2402 109.667ZM40.8739 124.886C40.0941 124.886 39.4229 124.784 38.8604 124.58C38.3022 124.375 37.8462 124.104 37.4925 123.768C37.1389 123.431 36.8746 123.063 36.6999 122.662L38.3427 121.984C38.4577 122.172 38.6112 122.37 38.8029 122.579C38.9989 122.792 39.2631 122.973 39.5955 123.122C39.9322 123.271 40.3647 123.346 40.8931 123.346C41.6175 123.346 42.2163 123.169 42.6893 122.815C43.1623 122.466 43.3988 121.908 43.3988 121.141V119.21H43.2773C43.1623 119.419 42.9961 119.651 42.7788 119.907C42.5657 120.163 42.2717 120.384 41.8967 120.572C41.5217 120.759 41.0337 120.853 40.4329 120.853C39.6573 120.853 38.9585 120.672 38.3363 120.31C37.7184 119.943 37.2283 119.404 36.8661 118.692C36.5082 117.977 36.3292 117.097 36.3292 116.053C36.3292 115.009 36.506 114.114 36.8597 113.368C37.2177 112.622 37.7077 112.051 38.3299 111.655C38.9521 111.254 39.6573 111.054 40.4457 111.054C41.055 111.054 41.5472 111.156 41.9222 111.361C42.2972 111.561 42.5891 111.795 42.7979 112.064C43.011 112.332 43.1751 112.569 43.2901 112.773H43.4308V111.182H45.3036V121.217C45.3036 122.061 45.1076 122.754 44.7156 123.295C44.3235 123.836 43.793 124.237 43.1239 124.496C42.4592 124.756 41.7092 124.886 40.8739 124.886ZM40.8548 119.268C41.4045 119.268 41.869 119.14 42.2482 118.884C42.6318 118.624 42.9215 118.254 43.1175 117.772C43.3178 117.286 43.418 116.705 43.418 116.027C43.418 115.366 43.32 114.785 43.1239 114.282C42.9279 113.779 42.6403 113.387 42.261 113.106C41.8818 112.82 41.413 112.678 40.8548 112.678C40.2795 112.678 39.8001 112.827 39.4166 113.125C39.033 113.419 38.7433 113.82 38.5472 114.327C38.3555 114.834 38.2596 115.401 38.2596 116.027C38.2596 116.67 38.3576 117.235 38.5536 117.721C38.7496 118.207 39.0394 118.586 39.4229 118.859C39.8107 119.131 40.288 119.268 40.8548 119.268ZM46.8668 121V111.182H48.7781V121H46.8668ZM47.832 109.667C47.4997 109.667 47.2141 109.556 46.9755 109.335C46.7411 109.109 46.6239 108.84 46.6239 108.529C46.6239 108.214 46.7411 107.945 46.9755 107.724C47.2141 107.498 47.4997 107.385 47.832 107.385C48.1644 107.385 48.4478 107.498 48.6822 107.724C48.9208 107.945 49.0401 108.214 49.0401 108.529C49.0401 108.84 48.9208 109.109 48.6822 109.335C48.4478 109.556 48.1644 109.667 47.832 109.667ZM54.9324 111.182V112.716H49.5694V111.182H54.9324ZM51.0076 108.83H52.9189V118.117C52.9189 118.488 52.9743 118.767 53.0851 118.955C53.1959 119.138 53.3386 119.263 53.5133 119.332C53.6923 119.396 53.8862 119.428 54.095 119.428C54.2484 119.428 54.3826 119.417 54.4977 119.396C54.6128 119.374 54.7022 119.357 54.7662 119.344L55.1113 120.923C55.0005 120.966 54.8429 121.009 54.6383 121.051C54.4338 121.098 54.1781 121.124 53.8713 121.128C53.3684 121.136 52.8997 121.047 52.465 120.859C52.0304 120.672 51.6788 120.382 51.4103 119.99C51.1419 119.598 51.0076 119.106 51.0076 118.513V108.83ZM58.9038 121.217C58.2816 121.217 57.7191 121.102 57.2163 120.872C56.7134 120.638 56.315 120.299 56.021 119.856C55.7312 119.413 55.5863 118.869 55.5863 118.226C55.5863 117.672 55.6928 117.216 55.9059 116.858C56.119 116.5 56.4066 116.217 56.7688 116.008C57.131 115.799 57.5359 115.641 57.9833 115.535C58.4308 115.428 58.8867 115.347 59.3512 115.292C59.9393 115.224 60.4166 115.168 60.783 115.126C61.1495 115.079 61.4158 115.004 61.582 114.902C61.7482 114.8 61.8313 114.634 61.8313 114.403V114.359C61.8313 113.8 61.6737 113.368 61.3583 113.061C61.0472 112.754 60.5827 112.601 59.9649 112.601C59.3214 112.601 58.8143 112.744 58.4435 113.029C58.0771 113.31 57.8235 113.624 57.6829 113.969L55.8867 113.56C56.0998 112.963 56.4109 112.482 56.82 112.115C57.2333 111.744 57.7085 111.476 58.2454 111.31C58.7823 111.139 59.347 111.054 59.9393 111.054C60.3313 111.054 60.7468 111.101 61.1857 111.195C61.6289 111.284 62.0423 111.45 62.4258 111.693C62.8136 111.936 63.131 112.283 63.3782 112.735C63.6254 113.183 63.7489 113.764 63.7489 114.48V121H61.8825V119.658H61.8058C61.6822 119.905 61.4968 120.148 61.2497 120.386C61.0025 120.625 60.685 120.823 60.2972 120.981C59.9095 121.138 59.445 121.217 58.9038 121.217ZM59.3193 119.683C59.8477 119.683 60.2994 119.579 60.6744 119.37C61.0536 119.161 61.3413 118.888 61.5373 118.552C61.7376 118.211 61.8377 117.847 61.8377 117.459V116.193C61.7695 116.261 61.6374 116.325 61.4414 116.385C61.2497 116.44 61.0302 116.489 60.783 116.532C60.5359 116.57 60.2951 116.607 60.0607 116.641C59.8264 116.67 59.6303 116.696 59.4727 116.717C59.1019 116.764 58.7631 116.843 58.4563 116.954C58.1538 117.065 57.9109 117.224 57.7276 117.433C57.5487 117.638 57.4592 117.911 57.4592 118.251C57.4592 118.724 57.6339 119.082 57.9833 119.325C58.3327 119.564 58.7781 119.683 59.3193 119.683ZM59.2489 109.871L60.7447 106.925H62.7582L60.7766 109.871H59.2489ZM67.2058 107.909V121H65.2946V107.909H67.2058ZM70.6882 115.17V121H68.777V111.182H70.6115V112.78H70.733C70.9588 112.26 71.3125 111.842 71.794 111.527C72.2798 111.212 72.8913 111.054 73.6286 111.054C74.2976 111.054 74.8835 111.195 75.3864 111.476C75.8892 111.753 76.2791 112.166 76.5561 112.716C76.8331 113.266 76.9716 113.945 76.9716 114.755V121H75.0604V114.985C75.0604 114.273 74.875 113.717 74.5043 113.317C74.1335 112.912 73.6243 112.71 72.9766 112.71C72.5334 112.71 72.1392 112.805 71.794 112.997C71.4531 113.189 71.1825 113.47 70.9823 113.841C70.7862 114.207 70.6882 114.651 70.6882 115.17ZM81.3921 121.217C80.7699 121.217 80.2074 121.102 79.7046 120.872C79.2017 120.638 78.8033 120.299 78.5092 119.856C78.2195 119.413 78.0746 118.869 78.0746 118.226C78.0746 117.672 78.1811 117.216 78.3942 116.858C78.6073 116.5 78.8949 116.217 79.2571 116.008C79.6193 115.799 80.0242 115.641 80.4716 115.535C80.919 115.428 81.375 115.347 81.8395 115.292C82.4276 115.224 82.9048 115.168 83.2713 115.126C83.6378 115.079 83.9041 115.004 84.0703 114.902C84.2365 114.8 84.3196 114.634 84.3196 114.403V114.359C84.3196 113.8 84.1619 113.368 83.8466 113.061C83.5355 112.754 83.071 112.601 82.4531 112.601C81.8097 112.601 81.3026 112.744 80.9318 113.029C80.5654 113.31 80.3118 113.624 80.1712 113.969L78.375 113.56C78.5881 112.963 78.8992 112.482 79.3082 112.115C79.7216 111.744 80.1967 111.476 80.7337 111.31C81.2706 111.139 81.8352 111.054 82.4276 111.054C82.8196 111.054 83.2351 111.101 83.674 111.195C84.1172 111.284 84.5305 111.45 84.9141 111.693C85.3019 111.936 85.6193 112.283 85.8665 112.735C86.1136 113.183 86.2372 113.764 86.2372 114.48V121H84.3707V119.658H84.294C84.1705 119.905 83.9851 120.148 83.7379 120.386C83.4908 120.625 83.1733 120.823 82.7855 120.981C82.3977 121.138 81.9332 121.217 81.3921 121.217ZM81.8075 119.683C82.3359 119.683 82.7877 119.579 83.1627 119.37C83.5419 119.161 83.8296 118.888 84.0256 118.552C84.2259 118.211 84.326 117.847 84.326 117.459V116.193C84.2578 116.261 84.1257 116.325 83.9297 116.385C83.7379 116.44 83.5185 116.489 83.2713 116.532C83.0242 116.57 82.7834 116.607 82.549 116.641C82.3146 116.67 82.1186 116.696 81.9609 116.717C81.5902 116.764 81.2514 116.843 80.9446 116.954C80.6421 117.065 80.3992 117.224 80.2159 117.433C80.0369 117.638 79.9475 117.911 79.9475 118.251C79.9475 118.724 80.1222 119.082 80.4716 119.325C80.821 119.564 81.2663 119.683 81.8075 119.683ZM96.1296 111.182V112.716H90.7667V111.182H96.1296ZM92.2049 108.83H94.1161V118.117C94.1161 118.488 94.1715 118.767 94.2823 118.955C94.3931 119.138 94.5359 119.263 94.7106 119.332C94.8896 119.396 95.0835 119.428 95.2923 119.428C95.4457 119.428 95.5799 119.417 95.695 119.396C95.81 119.374 95.8995 119.357 95.9634 119.344L96.3086 120.923C96.1978 120.966 96.0401 121.009 95.8356 121.051C95.631 121.098 95.3754 121.124 95.0685 121.128C94.5657 121.136 94.097 121.047 93.6623 120.859C93.2276 120.672 92.8761 120.382 92.6076 119.99C92.3391 119.598 92.2049 119.106 92.2049 118.513V108.83ZM97.2438 121V111.182H99.0911V112.741H99.1934C99.3723 112.213 99.6877 111.798 100.139 111.495C100.595 111.188 101.111 111.035 101.686 111.035C101.806 111.035 101.946 111.039 102.108 111.048C102.274 111.056 102.404 111.067 102.498 111.08V112.908C102.421 112.886 102.285 112.863 102.089 112.837C101.893 112.808 101.697 112.793 101.501 112.793C101.049 112.793 100.646 112.888 100.293 113.08C99.9434 113.268 99.6664 113.53 99.4618 113.866C99.2573 114.199 99.155 114.578 99.155 115.004V121H97.2438ZM105.921 121.217C105.299 121.217 104.737 121.102 104.234 120.872C103.731 120.638 103.333 120.299 103.039 119.856C102.749 119.413 102.604 118.869 102.604 118.226C102.604 117.672 102.71 117.216 102.923 116.858C103.137 116.5 103.424 116.217 103.786 116.008C104.149 115.799 104.553 115.641 105.001 115.535C105.448 115.428 105.904 115.347 106.369 115.292C106.957 115.224 107.434 115.168 107.801 115.126C108.167 115.079 108.433 115.004 108.6 114.902C108.766 114.8 108.849 114.634 108.849 114.403V114.359C108.849 113.8 108.691 113.368 108.376 113.061C108.065 112.754 107.6 112.601 106.982 112.601C106.339 112.601 105.832 112.744 105.461 113.029C105.095 113.31 104.841 113.624 104.7 113.969L102.904 113.56C103.117 112.963 103.428 112.482 103.838 112.115C104.251 111.744 104.726 111.476 105.263 111.31C105.8 111.139 106.365 111.054 106.957 111.054C107.349 111.054 107.764 111.101 108.203 111.195C108.646 111.284 109.06 111.45 109.443 111.693C109.831 111.936 110.149 112.283 110.396 112.735C110.643 113.183 110.767 113.764 110.767 114.48V121H108.9V119.658H108.823C108.7 119.905 108.514 120.148 108.267 120.386C108.02 120.625 107.703 120.823 107.315 120.981C106.927 121.138 106.463 121.217 105.921 121.217ZM106.337 119.683C106.865 119.683 107.317 119.579 107.692 119.37C108.071 119.161 108.359 118.888 108.555 118.552C108.755 118.211 108.855 117.847 108.855 117.459V116.193C108.787 116.261 108.655 116.325 108.459 116.385C108.267 116.44 108.048 116.489 107.801 116.532C107.553 116.57 107.313 116.607 107.078 116.641C106.844 116.67 106.648 116.696 106.49 116.717C106.12 116.764 105.781 116.843 105.474 116.954C105.171 117.065 104.928 117.224 104.745 117.433C104.566 117.638 104.477 117.911 104.477 118.251C104.477 118.724 104.651 119.082 105.001 119.325C105.35 119.564 105.796 119.683 106.337 119.683ZM114.223 115.17V121H112.312V111.182H114.147V112.78H114.268C114.494 112.26 114.848 111.842 115.329 111.527C115.815 111.212 116.427 111.054 117.164 111.054C117.833 111.054 118.419 111.195 118.922 111.476C119.424 111.753 119.814 112.166 120.091 112.716C120.368 113.266 120.507 113.945 120.507 114.755V121H118.596V114.985C118.596 114.273 118.41 113.717 118.039 113.317C117.669 112.912 117.159 112.71 116.512 112.71C116.069 112.71 115.674 112.805 115.329 112.997C114.988 113.189 114.718 113.47 114.517 113.841C114.321 114.207 114.223 114.651 114.223 115.17ZM129.427 113.579L127.695 113.886C127.623 113.664 127.507 113.453 127.35 113.253C127.196 113.053 126.988 112.888 126.723 112.761C126.459 112.633 126.129 112.569 125.733 112.569C125.191 112.569 124.74 112.69 124.378 112.933C124.015 113.172 123.834 113.481 123.834 113.86C123.834 114.188 123.956 114.452 124.199 114.653C124.441 114.853 124.833 115.017 125.375 115.145L126.934 115.503C127.838 115.712 128.511 116.033 128.954 116.468C129.397 116.903 129.619 117.467 129.619 118.162C129.619 118.75 129.449 119.274 129.108 119.734C128.771 120.19 128.3 120.548 127.695 120.808C127.094 121.068 126.397 121.198 125.605 121.198C124.505 121.198 123.608 120.964 122.914 120.495C122.219 120.022 121.793 119.351 121.635 118.482L123.483 118.2C123.598 118.682 123.834 119.046 124.192 119.293C124.55 119.536 125.017 119.658 125.592 119.658C126.218 119.658 126.719 119.528 127.094 119.268C127.469 119.004 127.657 118.682 127.657 118.303C127.657 117.996 127.542 117.738 127.311 117.529C127.086 117.32 126.738 117.163 126.27 117.056L124.608 116.692C123.691 116.483 123.014 116.151 122.575 115.695C122.14 115.239 121.923 114.661 121.923 113.962C121.923 113.383 122.085 112.876 122.409 112.441C122.733 112.006 123.18 111.668 123.751 111.425C124.322 111.178 124.976 111.054 125.713 111.054C126.775 111.054 127.61 111.284 128.219 111.744C128.828 112.2 129.231 112.812 129.427 113.579ZM135.393 111.182V112.716H129.845V111.182H135.393ZM131.366 121V110.044C131.366 109.43 131.5 108.921 131.769 108.516C132.037 108.107 132.393 107.803 132.836 107.602C133.279 107.398 133.761 107.295 134.281 107.295C134.664 107.295 134.992 107.327 135.265 107.391C135.538 107.451 135.74 107.506 135.872 107.558L135.425 109.104C135.335 109.079 135.22 109.049 135.08 109.015C134.939 108.977 134.769 108.957 134.568 108.957C134.104 108.957 133.772 109.072 133.571 109.303C133.375 109.533 133.277 109.865 133.277 110.3V121H131.366ZM140.114 121.198C139.193 121.198 138.39 120.987 137.704 120.565C137.018 120.143 136.485 119.553 136.106 118.795C135.727 118.036 135.537 117.15 135.537 116.136C135.537 115.117 135.727 114.227 136.106 113.464C136.485 112.701 137.018 112.109 137.704 111.687C138.39 111.265 139.193 111.054 140.114 111.054C141.034 111.054 141.838 111.265 142.524 111.687C143.21 112.109 143.742 112.701 144.122 113.464C144.501 114.227 144.691 115.117 144.691 116.136C144.691 117.15 144.501 118.036 144.122 118.795C143.742 119.553 143.21 120.143 142.524 120.565C141.838 120.987 141.034 121.198 140.114 121.198ZM140.12 119.594C140.717 119.594 141.211 119.436 141.603 119.121C141.995 118.805 142.285 118.386 142.472 117.862C142.664 117.337 142.76 116.76 142.76 116.129C142.76 115.503 142.664 114.928 142.472 114.403C142.285 113.875 141.995 113.451 141.603 113.131C141.211 112.812 140.717 112.652 140.12 112.652C139.519 112.652 139.021 112.812 138.624 113.131C138.232 113.451 137.941 113.875 137.749 114.403C137.561 114.928 137.468 115.503 137.468 116.129C137.468 116.76 137.561 117.337 137.749 117.862C137.941 118.386 138.232 118.805 138.624 119.121C139.021 119.436 139.519 119.594 140.12 119.594ZM145.824 121V111.182H147.671V112.741H147.773C147.952 112.213 148.268 111.798 148.719 111.495C149.175 111.188 149.691 111.035 150.266 111.035C150.386 111.035 150.526 111.039 150.688 111.048C150.854 111.056 150.984 111.067 151.078 111.08V112.908C151.001 112.886 150.865 112.863 150.669 112.837C150.473 112.808 150.277 112.793 150.081 112.793C149.629 112.793 149.227 112.888 148.873 113.08C148.523 113.268 148.246 113.53 148.042 113.866C147.837 114.199 147.735 114.578 147.735 115.004V121H145.824ZM151.732 121V111.182H153.567V112.78H153.688C153.893 112.239 154.227 111.817 154.692 111.514C155.156 111.207 155.712 111.054 156.36 111.054C157.016 111.054 157.566 111.207 158.009 111.514C158.457 111.821 158.787 112.243 159 112.78H159.102C159.336 112.256 159.709 111.838 160.221 111.527C160.732 111.212 161.341 111.054 162.049 111.054C162.939 111.054 163.666 111.333 164.229 111.891C164.795 112.45 165.079 113.291 165.079 114.416V121H163.167V114.595C163.167 113.93 162.986 113.449 162.624 113.151C162.262 112.852 161.829 112.703 161.327 112.703C160.704 112.703 160.221 112.895 159.876 113.278C159.53 113.658 159.358 114.146 159.358 114.742V121H157.453V114.474C157.453 113.941 157.287 113.513 156.954 113.189C156.622 112.865 156.189 112.703 155.657 112.703C155.295 112.703 154.96 112.799 154.653 112.991C154.351 113.178 154.106 113.44 153.918 113.777C153.735 114.114 153.643 114.504 153.643 114.947V121H151.732ZM169.498 121.217C168.875 121.217 168.313 121.102 167.81 120.872C167.307 120.638 166.909 120.299 166.615 119.856C166.325 119.413 166.18 118.869 166.18 118.226C166.18 117.672 166.287 117.216 166.5 116.858C166.713 116.5 167 116.217 167.363 116.008C167.725 115.799 168.13 115.641 168.577 115.535C169.025 115.428 169.48 115.347 169.945 115.292C170.533 115.224 171.01 115.168 171.377 115.126C171.743 115.079 172.01 115.004 172.176 114.902C172.342 114.8 172.425 114.634 172.425 114.403V114.359C172.425 113.8 172.267 113.368 171.952 113.061C171.641 112.754 171.177 112.601 170.559 112.601C169.915 112.601 169.408 112.744 169.037 113.029C168.671 113.31 168.417 113.624 168.277 113.969L166.48 113.56C166.694 112.963 167.005 112.482 167.414 112.115C167.827 111.744 168.302 111.476 168.839 111.31C169.376 111.139 169.941 111.054 170.533 111.054C170.925 111.054 171.341 111.101 171.779 111.195C172.223 111.284 172.636 111.45 173.02 111.693C173.407 111.936 173.725 112.283 173.972 112.735C174.219 113.183 174.343 113.764 174.343 114.48V121H172.476V119.658H172.4C172.276 119.905 172.091 120.148 171.843 120.386C171.596 120.625 171.279 120.823 170.891 120.981C170.503 121.138 170.039 121.217 169.498 121.217ZM169.913 119.683C170.441 119.683 170.893 119.579 171.268 119.37C171.647 119.161 171.935 118.888 172.131 118.552C172.331 118.211 172.431 117.847 172.431 117.459V116.193C172.363 116.261 172.231 116.325 172.035 116.385C171.843 116.44 171.624 116.489 171.377 116.532C171.13 116.57 170.889 116.607 170.654 116.641C170.42 116.67 170.224 116.696 170.066 116.717C169.696 116.764 169.357 116.843 169.05 116.954C168.748 117.065 168.505 117.224 168.321 117.433C168.142 117.638 168.053 117.911 168.053 118.251C168.053 118.724 168.228 119.082 168.577 119.325C168.927 119.564 169.372 119.683 169.913 119.683ZM169.843 109.871L171.338 106.925H173.352L171.37 109.871H169.843ZM180.024 121.198C179.074 121.198 178.256 120.983 177.569 120.553C176.888 120.118 176.363 119.519 175.997 118.756C175.631 117.994 175.447 117.12 175.447 116.136C175.447 115.138 175.635 114.259 176.01 113.496C176.385 112.729 176.913 112.13 177.595 111.7C178.277 111.269 179.08 111.054 180.005 111.054C180.751 111.054 181.415 111.192 181.999 111.469C182.583 111.742 183.054 112.126 183.412 112.62C183.774 113.114 183.989 113.692 184.057 114.352H182.197C182.095 113.892 181.861 113.496 181.494 113.163C181.132 112.831 180.646 112.665 180.037 112.665C179.504 112.665 179.037 112.805 178.637 113.087C178.241 113.364 177.932 113.76 177.71 114.276C177.488 114.787 177.378 115.392 177.378 116.091C177.378 116.807 177.486 117.425 177.704 117.945C177.921 118.464 178.228 118.867 178.624 119.153C179.025 119.438 179.496 119.581 180.037 119.581C180.399 119.581 180.727 119.515 181.021 119.383C181.319 119.246 181.569 119.053 181.769 118.801C181.974 118.55 182.116 118.247 182.197 117.893H184.057C183.989 118.528 183.783 119.095 183.437 119.594C183.092 120.092 182.63 120.484 182.05 120.77C181.475 121.055 180.8 121.198 180.024 121.198ZM185.101 121V111.182H187.012V121H185.101ZM186.066 109.667C185.734 109.667 185.449 109.556 185.21 109.335C184.976 109.109 184.858 108.84 184.858 108.529C184.858 108.214 184.976 107.945 185.21 107.724C185.449 107.498 185.734 107.385 186.066 107.385C186.399 107.385 186.682 107.498 186.917 107.724C187.155 107.945 187.275 108.214 187.275 108.529C187.275 108.84 187.155 109.109 186.917 109.335C186.682 109.556 186.399 109.667 186.066 109.667ZM191.441 121.217C190.819 121.217 190.256 121.102 189.753 120.872C189.251 120.638 188.852 120.299 188.558 119.856C188.268 119.413 188.123 118.869 188.123 118.226C188.123 117.672 188.23 117.216 188.443 116.858C188.656 116.5 188.944 116.217 189.306 116.008C189.668 115.799 190.073 115.641 190.52 115.535C190.968 115.428 191.424 115.347 191.888 115.292C192.476 115.224 192.954 115.168 193.32 115.126C193.687 115.079 193.953 115.004 194.119 114.902C194.285 114.8 194.368 114.634 194.368 114.403V114.359C194.368 113.8 194.211 113.368 193.895 113.061C193.584 112.754 193.12 112.601 192.502 112.601C191.859 112.601 191.351 112.744 190.981 113.029C190.614 113.31 190.361 113.624 190.22 113.969L188.424 113.56C188.637 112.963 188.948 112.482 189.357 112.115C189.77 111.744 190.246 111.476 190.783 111.31C191.319 111.139 191.884 111.054 192.476 111.054C192.868 111.054 193.284 111.101 193.723 111.195C194.166 111.284 194.579 111.45 194.963 111.693C195.351 111.936 195.668 112.283 195.915 112.735C196.162 113.183 196.286 113.764 196.286 114.48V121H194.42V119.658H194.343C194.219 119.905 194.034 120.148 193.787 120.386C193.54 120.625 193.222 120.823 192.834 120.981C192.447 121.138 191.982 121.217 191.441 121.217ZM191.856 119.683C192.385 119.683 192.836 119.579 193.211 119.37C193.591 119.161 193.878 118.888 194.074 118.552C194.275 118.211 194.375 117.847 194.375 117.459V116.193C194.307 116.261 194.175 116.325 193.979 116.385C193.787 116.44 193.567 116.489 193.32 116.532C193.073 116.57 192.832 116.607 192.598 116.641C192.363 116.67 192.167 116.696 192.01 116.717C191.639 116.764 191.3 116.843 190.993 116.954C190.691 117.065 190.448 117.224 190.265 117.433C190.086 117.638 189.996 117.911 189.996 118.251C189.996 118.724 190.171 119.082 190.52 119.325C190.87 119.564 191.315 119.683 191.856 119.683Z" fill="#4FBE79"/>
</svg>
