<svg width="311" height="50" viewBox="0 0 311 50" fill="none" xmlns="http://www.w3.org/2000/svg">
<path d="M0 8C0 3.58172 3.58172 0 8 0H303C307.418 0 311 3.58172 311 8V42C311 46.4183 307.418 50 303 50H8C3.58172 50 0 46.4183 0 42V8Z" fill="#FFC721"/>
<path d="M29 35C29.36 35 30.69 34.393 32.05 33.178M32.05 33.178C33.208 32.142 34.386 30.664 35 28.745C36.333 24.575 28.333 28.745 31 32.22C31.328 32.648 31.681 32.96 32.05 33.178ZM32.05 33.178C33.652 34.126 35.531 33.274 36.804 32.294C37.194 31.995 37.388 31.845 37.504 31.892C37.62 31.939 37.688 32.206 37.824 32.742C38.258 34.457 39.541 35.841 41 33.61" stroke="#242A36" stroke-width="1.5" stroke-linecap="round" stroke-linejoin="round"/>
<path d="M40 26V20.89C40 19.176 40 18.32 39.732 17.635C39.302 16.534 38.39 15.665 37.235 15.255C36.517 15 35.617 15 33.818 15C30.67 15 29.096 15 27.838 15.447C25.818 16.165 24.223 17.684 23.468 19.611C23 20.809 23 22.309 23 25.309V27.886C23 30.994 23 32.547 23.848 33.626C24.092 33.9373 24.377 34.2093 24.703 34.442C25.07 34.703 25.49 34.88 26 35" stroke="#242A36" stroke-width="1.5" stroke-linecap="round" stroke-linejoin="round"/>
<path d="M23 25C23 24.116 23.3512 23.2683 23.9762 22.6432C24.6013 22.0182 25.449 21.667 26.333 21.667C26.999 21.667 27.784 21.783 28.431 21.61C28.7137 21.5339 28.9714 21.3849 29.1784 21.1777C29.3853 20.9706 29.5342 20.7128 29.61 20.43C29.783 19.783 29.667 18.998 29.667 18.332C29.6673 17.4482 30.0185 16.6007 30.6436 15.9759C31.2686 15.351 32.1162 15 33 15" stroke="#242A36" stroke-width="1.5" stroke-linecap="round" stroke-linejoin="round"/>
<path d="M57.4382 31.5V18.4091H62.2322C63.1612 18.4091 63.9304 18.5625 64.5398 18.8693C65.1491 19.1719 65.6051 19.5831 65.9077 20.103C66.2102 20.6186 66.3615 21.2003 66.3615 21.848C66.3615 22.3935 66.2614 22.8537 66.0611 23.2287C65.8608 23.5994 65.5923 23.8977 65.2557 24.1236C64.9233 24.3452 64.5568 24.5071 64.1562 24.6094V24.7372C64.5909 24.7585 65.0149 24.8991 65.4283 25.1591C65.8459 25.4148 66.1911 25.7791 66.4638 26.2521C66.7365 26.7251 66.8729 27.3004 66.8729 27.978C66.8729 28.647 66.7152 29.2479 66.3999 29.7805C66.0888 30.3089 65.6072 30.7287 64.9553 31.0398C64.3033 31.3466 63.4702 31.5 62.456 31.5H57.4382ZM59.4134 29.8061H62.2642C63.2102 29.8061 63.8878 29.6229 64.2969 29.2564C64.706 28.8899 64.9105 28.4318 64.9105 27.8821C64.9105 27.4687 64.8061 27.0895 64.5973 26.7443C64.3885 26.3991 64.0902 26.1243 63.7024 25.9197C63.3189 25.7152 62.8629 25.6129 62.3345 25.6129H59.4134V29.8061ZM59.4134 24.0724H62.0597C62.5028 24.0724 62.9013 23.9872 63.255 23.8168C63.6129 23.6463 63.8963 23.4077 64.1051 23.1009C64.3182 22.7898 64.4247 22.4233 64.4247 22.0014C64.4247 21.4602 64.2351 21.0064 63.8558 20.6399C63.4766 20.2734 62.8949 20.0902 62.1108 20.0902H59.4134V24.0724ZM72.2937 31.6982C71.3263 31.6982 70.4933 31.4915 69.7944 31.0781C69.0998 30.6605 68.5629 30.0746 68.1836 29.3203C67.8086 28.5618 67.6211 27.6733 67.6211 26.6548C67.6211 25.6491 67.8086 24.7628 68.1836 23.9957C68.5629 23.2287 69.0913 22.63 69.7688 22.1996C70.4506 21.7692 71.2475 21.554 72.1594 21.554C72.7134 21.554 73.2504 21.6456 73.7702 21.8288C74.2901 22.0121 74.7567 22.2997 75.1701 22.6918C75.5835 23.0838 75.9094 23.593 76.1481 24.2195C76.3867 24.8416 76.506 25.598 76.506 26.4886V27.1662H68.7013V25.7344H74.6332C74.6332 25.2315 74.5309 24.7862 74.3263 24.3984C74.1218 24.0064 73.8342 23.6974 73.4634 23.4716C73.0969 23.2457 72.6665 23.1328 72.1722 23.1328C71.6353 23.1328 71.1665 23.2649 70.766 23.5291C70.3697 23.7891 70.0629 24.13 69.8455 24.5518C69.6325 24.9695 69.5259 25.4233 69.5259 25.9134V27.032C69.5259 27.6882 69.641 28.2464 69.8711 28.7067C70.1055 29.1669 70.4315 29.5185 70.8491 29.7614C71.2667 30 71.7546 30.1193 72.3129 30.1193C72.6751 30.1193 73.0053 30.0682 73.3036 29.9659C73.6019 29.8594 73.8597 29.7017 74.0771 29.4929C74.2944 29.2841 74.4606 29.0263 74.5756 28.7195L76.3846 29.0455C76.2397 29.5781 75.9798 30.0447 75.6048 30.4453C75.234 30.8416 74.7674 31.1506 74.2049 31.3722C73.6467 31.5895 73.0096 31.6982 72.2937 31.6982ZM77.4221 31.5V30.1896L82.7402 23.4332V23.3438H77.5946V21.6818H85.1245V23.0753L80.0108 29.7486V29.8381H85.3034V31.5H77.4221ZM86.5582 35.1818V21.6818H88.4247V23.2734H88.5845C88.6953 23.0689 88.8551 22.8324 89.0639 22.5639C89.2727 22.2955 89.5625 22.0611 89.9332 21.8608C90.304 21.6562 90.794 21.554 91.4034 21.554C92.196 21.554 92.9034 21.7543 93.5256 22.1548C94.1477 22.5554 94.6357 23.1328 94.9893 23.8871C95.3473 24.6413 95.5263 25.549 95.5263 26.6101C95.5263 27.6712 95.3494 28.581 94.9957 29.3395C94.642 30.0937 94.1563 30.6754 93.5384 31.0845C92.9205 31.4893 92.2152 31.6918 91.4226 31.6918C90.826 31.6918 90.3381 31.5916 89.9588 31.3913C89.5838 31.1911 89.2898 30.9567 89.0767 30.6882C88.8636 30.4197 88.6996 30.1811 88.5845 29.9723H88.4695V35.1818H86.5582ZM88.4311 26.5909C88.4311 27.2812 88.5313 27.8864 88.7315 28.4062C88.9318 28.9261 89.2216 29.3331 89.6009 29.6271C89.9801 29.9169 90.4446 30.0618 90.9943 30.0618C91.5653 30.0618 92.0426 29.9105 92.4261 29.608C92.8097 29.3011 93.0994 28.8857 93.2955 28.3615C93.4957 27.8374 93.5959 27.2472 93.5959 26.5909C93.5959 25.9432 93.4979 25.3615 93.3018 24.8459C93.1101 24.3303 92.8203 23.9233 92.4325 23.625C92.049 23.3267 91.5696 23.1776 90.9943 23.1776C90.4403 23.1776 89.9716 23.3203 89.5881 23.6058C89.2088 23.8913 88.9212 24.2898 88.7251 24.8011C88.5291 25.3125 88.4311 25.9091 88.4311 26.5909ZM98.5788 18.4091V31.5H96.6676V18.4091H98.5788ZM103.007 31.7173C102.385 31.7173 101.823 31.6023 101.32 31.3722C100.817 31.1378 100.419 30.799 100.124 30.3558C99.8347 29.9126 99.6898 29.3693 99.6898 28.7259C99.6898 28.1719 99.7963 27.7159 100.009 27.358C100.222 27 100.51 26.7166 100.872 26.5078C101.235 26.299 101.639 26.1413 102.087 26.0348C102.534 25.9283 102.99 25.8473 103.455 25.7919C104.043 25.7237 104.52 25.6683 104.887 25.6257C105.253 25.5788 105.519 25.5043 105.686 25.402C105.852 25.2997 105.935 25.1335 105.935 24.9034V24.8587C105.935 24.3004 105.777 23.8679 105.462 23.5611C105.151 23.2543 104.686 23.1009 104.068 23.1009C103.425 23.1009 102.918 23.2436 102.547 23.5291C102.181 23.8104 101.927 24.1236 101.786 24.4688L99.9902 24.0597C100.203 23.4631 100.514 22.9815 100.923 22.6151C101.337 22.2443 101.812 21.9759 102.349 21.8097C102.886 21.6392 103.45 21.554 104.043 21.554C104.435 21.554 104.85 21.6009 105.289 21.6946C105.732 21.7841 106.146 21.9503 106.529 22.1932C106.917 22.4361 107.235 22.7834 107.482 23.2351C107.729 23.6825 107.852 24.2642 107.852 24.9801V31.5H105.986V30.1577H105.909C105.786 30.4048 105.6 30.6477 105.353 30.8864C105.106 31.125 104.789 31.3232 104.401 31.4808C104.013 31.6385 103.548 31.7173 103.007 31.7173ZM103.423 30.1832C103.951 30.1832 104.403 30.0788 104.778 29.87C105.157 29.6612 105.445 29.3885 105.641 29.0518C105.841 28.7109 105.941 28.3466 105.941 27.9588V26.6932C105.873 26.7614 105.741 26.8253 105.545 26.8849C105.353 26.9403 105.134 26.9893 104.887 27.032C104.639 27.0703 104.399 27.1065 104.164 27.1406C103.93 27.1705 103.734 27.196 103.576 27.2173C103.205 27.2642 102.867 27.343 102.56 27.4538C102.257 27.5646 102.014 27.7244 101.831 27.9332C101.652 28.1378 101.563 28.4105 101.563 28.7514C101.563 29.2244 101.737 29.5824 102.087 29.8253C102.436 30.0639 102.882 30.1832 103.423 30.1832ZM113.981 21.6818V23.2159H108.618V21.6818H113.981ZM110.056 19.3295H111.968V28.6172C111.968 28.9879 112.023 29.267 112.134 29.4545C112.245 29.6378 112.387 29.7635 112.562 29.8317C112.741 29.8956 112.935 29.9276 113.144 29.9276C113.297 29.9276 113.431 29.9169 113.547 29.8956C113.662 29.8743 113.751 29.8572 113.815 29.8445L114.16 31.4233C114.049 31.4659 113.892 31.5085 113.687 31.5511C113.483 31.598 113.227 31.6236 112.92 31.6278C112.417 31.6364 111.949 31.5469 111.514 31.3594C111.079 31.1719 110.728 30.8821 110.459 30.4901C110.191 30.098 110.056 29.6058 110.056 29.0135V19.3295ZM117.007 25.6705V31.5H115.095V21.6818H116.93V23.2798H117.051C117.277 22.7599 117.631 22.3423 118.112 22.027C118.598 21.7116 119.21 21.554 119.947 21.554C120.616 21.554 121.202 21.6946 121.705 21.9759C122.208 22.2528 122.597 22.6662 122.874 23.2159C123.151 23.7656 123.29 24.4453 123.29 25.255V31.5H121.379V25.4851C121.379 24.7734 121.193 24.2173 120.823 23.8168C120.452 23.4119 119.943 23.2095 119.295 23.2095C118.852 23.2095 118.458 23.3054 118.112 23.4972C117.771 23.6889 117.501 23.9702 117.301 24.3409C117.105 24.7074 117.007 25.1506 117.007 25.6705ZM127.71 31.7173C127.088 31.7173 126.526 31.6023 126.023 31.3722C125.52 31.1378 125.122 30.799 124.828 30.3558C124.538 29.9126 124.393 29.3693 124.393 28.7259C124.393 28.1719 124.499 27.7159 124.713 27.358C124.926 27 125.213 26.7166 125.575 26.5078C125.938 26.299 126.343 26.1413 126.79 26.0348C127.237 25.9283 127.693 25.8473 128.158 25.7919C128.746 25.7237 129.223 25.6683 129.59 25.6257C129.956 25.5788 130.222 25.5043 130.389 25.402C130.555 25.2997 130.638 25.1335 130.638 24.9034V24.8587C130.638 24.3004 130.48 23.8679 130.165 23.5611C129.854 23.2543 129.389 23.1009 128.771 23.1009C128.128 23.1009 127.621 23.2436 127.25 23.5291C126.884 23.8104 126.63 24.1236 126.49 24.4688L124.693 24.0597C124.906 23.4631 125.218 22.9815 125.627 22.6151C126.04 22.2443 126.515 21.9759 127.052 21.8097C127.589 21.6392 128.154 21.554 128.746 21.554C129.138 21.554 129.553 21.6009 129.992 21.6946C130.436 21.7841 130.849 21.9503 131.232 22.1932C131.62 22.4361 131.938 22.7834 132.185 23.2351C132.432 23.6825 132.556 24.2642 132.556 24.9801V31.5H130.689V30.1577H130.612C130.489 30.4048 130.303 30.6477 130.056 30.8864C129.809 31.125 129.492 31.3232 129.104 31.4808C128.716 31.6385 128.252 31.7173 127.71 31.7173ZM128.126 30.1832C128.654 30.1832 129.106 30.0788 129.481 29.87C129.86 29.6612 130.148 29.3885 130.344 29.0518C130.544 28.7109 130.644 28.3466 130.644 27.9588V26.6932C130.576 26.7614 130.444 26.8253 130.248 26.8849C130.056 26.9403 129.837 26.9893 129.59 27.032C129.343 27.0703 129.102 27.1065 128.867 27.1406C128.633 27.1705 128.437 27.196 128.279 27.2173C127.909 27.2642 127.57 27.343 127.263 27.4538C126.96 27.5646 126.718 27.7244 126.534 27.9332C126.355 28.1378 126.266 28.4105 126.266 28.7514C126.266 29.2244 126.441 29.5824 126.79 29.8253C127.139 30.0639 127.585 30.1832 128.126 30.1832ZM128.056 20.3714L129.551 17.4247H131.565L129.583 20.3714H128.056ZM137.865 35.1818V21.6818H139.731V23.2734H139.891C140.002 23.0689 140.162 22.8324 140.371 22.5639C140.579 22.2955 140.869 22.0611 141.24 21.8608C141.611 21.6562 142.101 21.554 142.71 21.554C143.503 21.554 144.21 21.7543 144.832 22.1548C145.454 22.5554 145.942 23.1328 146.296 23.8871C146.654 24.6413 146.833 25.549 146.833 26.6101C146.833 27.6712 146.656 28.581 146.302 29.3395C145.949 30.0937 145.463 30.6754 144.845 31.0845C144.227 31.4893 143.522 31.6918 142.729 31.6918C142.133 31.6918 141.645 31.5916 141.265 31.3913C140.89 31.1911 140.596 30.9567 140.383 30.6882C140.17 30.4197 140.006 30.1811 139.891 29.9723H139.776V35.1818H137.865ZM139.738 26.5909C139.738 27.2812 139.838 27.8864 140.038 28.4062C140.238 28.9261 140.528 29.3331 140.907 29.6271C141.287 29.9169 141.751 30.0618 142.301 30.0618C142.872 30.0618 143.349 29.9105 143.733 29.608C144.116 29.3011 144.406 28.8857 144.602 28.3615C144.802 27.8374 144.903 27.2472 144.903 26.5909C144.903 25.9432 144.805 25.3615 144.608 24.8459C144.417 24.3303 144.127 23.9233 143.739 23.625C143.356 23.3267 142.876 23.1776 142.301 23.1776C141.747 23.1776 141.278 23.3203 140.895 23.6058C140.515 23.8913 140.228 24.2898 140.032 24.8011C139.836 25.3125 139.738 25.9091 139.738 26.5909ZM152.11 31.6982C151.189 31.6982 150.386 31.4872 149.7 31.0653C149.014 30.6435 148.481 30.0533 148.102 29.2947C147.723 28.5362 147.533 27.6499 147.533 26.6357C147.533 25.6172 147.723 24.7266 148.102 23.9638C148.481 23.201 149.014 22.6087 149.7 22.1868C150.386 21.7649 151.189 21.554 152.11 21.554C153.03 21.554 153.834 21.7649 154.52 22.1868C155.206 22.6087 155.738 23.201 156.118 23.9638C156.497 24.7266 156.687 25.6172 156.687 26.6357C156.687 27.6499 156.497 28.5362 156.118 29.2947C155.738 30.0533 155.206 30.6435 154.52 31.0653C153.834 31.4872 153.03 31.6982 152.11 31.6982ZM152.116 30.0938C152.713 30.0938 153.207 29.9361 153.599 29.6207C153.991 29.3054 154.281 28.8857 154.469 28.3615C154.66 27.8374 154.756 27.2599 154.756 26.6293C154.756 26.0028 154.66 25.4276 154.469 24.9034C154.281 24.375 153.991 23.951 153.599 23.6314C153.207 23.3118 152.713 23.152 152.116 23.152C151.515 23.152 151.017 23.3118 150.621 23.6314C150.229 23.951 149.937 24.375 149.745 24.9034C149.557 25.4276 149.464 26.0028 149.464 26.6293C149.464 27.2599 149.557 27.8374 149.745 28.3615C149.937 28.8857 150.229 29.3054 150.621 29.6207C151.017 29.9361 151.515 30.0938 152.116 30.0938ZM161.495 31.6918C160.703 31.6918 159.995 31.4893 159.373 31.0845C158.755 30.6754 158.27 30.0937 157.916 29.3395C157.566 28.581 157.392 27.6712 157.392 26.6101C157.392 25.549 157.569 24.6413 157.922 23.8871C158.28 23.1328 158.77 22.5554 159.392 22.1548C160.015 21.7543 160.72 21.554 161.508 21.554C162.118 21.554 162.608 21.6562 162.978 21.8608C163.353 22.0611 163.643 22.2955 163.848 22.5639C164.056 22.8324 164.218 23.0689 164.333 23.2734H164.449V18.4091H166.36V31.5H164.493V29.9723H164.333C164.218 30.1811 164.052 30.4197 163.835 30.6882C163.622 30.9567 163.328 31.1911 162.953 31.3913C162.578 31.5916 162.092 31.6918 161.495 31.6918ZM161.917 30.0618C162.467 30.0618 162.931 29.9169 163.311 29.6271C163.694 29.3331 163.984 28.9261 164.18 28.4062C164.38 27.8864 164.48 27.2812 164.48 26.5909C164.48 25.9091 164.382 25.3125 164.186 24.8011C163.99 24.2898 163.703 23.8913 163.324 23.6058C162.944 23.3203 162.475 23.1776 161.917 23.1776C161.342 23.1776 160.863 23.3267 160.479 23.625C160.096 23.9233 159.806 24.3303 159.61 24.8459C159.418 25.3615 159.322 25.9432 159.322 26.5909C159.322 27.2472 159.42 27.8374 159.616 28.3615C159.812 28.8857 160.102 29.3011 160.485 29.608C160.873 29.9105 161.35 30.0618 161.917 30.0618ZM168.088 35.1818V21.6818H169.954V23.2734H170.114C170.225 23.0689 170.384 22.8324 170.593 22.5639C170.802 22.2955 171.092 22.0611 171.463 21.8608C171.833 21.6562 172.323 21.554 172.933 21.554C173.725 21.554 174.433 21.7543 175.055 22.1548C175.677 22.5554 176.165 23.1328 176.519 23.8871C176.877 24.6413 177.056 25.549 177.056 26.6101C177.056 27.6712 176.879 28.581 176.525 29.3395C176.171 30.0937 175.686 30.6754 175.068 31.0845C174.45 31.4893 173.744 31.6918 172.952 31.6918C172.355 31.6918 171.867 31.5916 171.488 31.3913C171.113 31.1911 170.819 30.9567 170.606 30.6882C170.393 30.4197 170.229 30.1811 170.114 29.9723H169.999V35.1818H168.088ZM169.96 26.5909C169.96 27.2812 170.061 27.8864 170.261 28.4062C170.461 28.9261 170.751 29.3331 171.13 29.6271C171.509 29.9169 171.974 30.0618 172.524 30.0618C173.095 30.0618 173.572 29.9105 173.955 29.608C174.339 29.3011 174.629 28.8857 174.825 28.3615C175.025 27.8374 175.125 27.2472 175.125 26.5909C175.125 25.9432 175.027 25.3615 174.831 24.8459C174.639 24.3303 174.35 23.9233 173.962 23.625C173.578 23.3267 173.099 23.1776 172.524 23.1776C171.97 23.1776 171.501 23.3203 171.117 23.6058C170.738 23.8913 170.45 24.2898 170.254 24.8011C170.058 25.3125 169.96 25.9091 169.96 26.5909ZM182.333 31.6982C181.412 31.6982 180.609 31.4872 179.923 31.0653C179.237 30.6435 178.704 30.0533 178.325 29.2947C177.945 28.5362 177.756 27.6499 177.756 26.6357C177.756 25.6172 177.945 24.7266 178.325 23.9638C178.704 23.201 179.237 22.6087 179.923 22.1868C180.609 21.7649 181.412 21.554 182.333 21.554C183.253 21.554 184.056 21.7649 184.742 22.1868C185.428 22.6087 185.961 23.201 186.34 23.9638C186.72 24.7266 186.909 25.6172 186.909 26.6357C186.909 27.6499 186.72 28.5362 186.34 29.2947C185.961 30.0533 185.428 30.6435 184.742 31.0653C184.056 31.4872 183.253 31.6982 182.333 31.6982ZM182.339 30.0938C182.936 30.0938 183.43 29.9361 183.822 29.6207C184.214 29.3054 184.504 28.8857 184.691 28.3615C184.883 27.8374 184.979 27.2599 184.979 26.6293C184.979 26.0028 184.883 25.4276 184.691 24.9034C184.504 24.375 184.214 23.951 183.822 23.6314C183.43 23.3118 182.936 23.152 182.339 23.152C181.738 23.152 181.24 23.3118 180.843 23.6314C180.451 23.951 180.159 24.375 179.968 24.9034C179.78 25.4276 179.686 26.0028 179.686 26.6293C179.686 27.2599 179.78 27.8374 179.968 28.3615C180.159 28.8857 180.451 29.3054 180.843 29.6207C181.24 29.9361 181.738 30.0938 182.339 30.0938ZM188.043 31.5V21.6818H189.89V23.2415H189.992C190.171 22.7131 190.487 22.2976 190.938 21.995C191.394 21.6882 191.91 21.5348 192.485 21.5348C192.604 21.5348 192.745 21.5391 192.907 21.5476C193.073 21.5561 193.203 21.5668 193.297 21.5795V23.4077C193.22 23.3864 193.084 23.3629 192.888 23.3374C192.692 23.3075 192.496 23.2926 192.3 23.2926C191.848 23.2926 191.445 23.3885 191.092 23.5803C190.742 23.7678 190.465 24.0298 190.261 24.3665C190.056 24.6989 189.954 25.0781 189.954 25.5043V31.5H188.043ZM196.72 31.7173C196.098 31.7173 195.536 31.6023 195.033 31.3722C194.53 31.1378 194.131 30.799 193.837 30.3558C193.548 29.9126 193.403 29.3693 193.403 28.7259C193.403 28.1719 193.509 27.7159 193.722 27.358C193.935 27 194.223 26.7166 194.585 26.5078C194.947 26.299 195.352 26.1413 195.8 26.0348C196.247 25.9283 196.703 25.8473 197.168 25.7919C197.756 25.7237 198.233 25.6683 198.599 25.6257C198.966 25.5788 199.232 25.5043 199.398 25.402C199.565 25.2997 199.648 25.1335 199.648 24.9034V24.8587C199.648 24.3004 199.49 23.8679 199.175 23.5611C198.864 23.2543 198.399 23.1009 197.781 23.1009C197.138 23.1009 196.631 23.2436 196.26 23.5291C195.893 23.8104 195.64 24.1236 195.499 24.4688L193.703 24.0597C193.916 23.4631 194.227 22.9815 194.636 22.6151C195.05 22.2443 195.525 21.9759 196.062 21.8097C196.599 21.6392 197.163 21.554 197.756 21.554C198.148 21.554 198.563 21.6009 199.002 21.6946C199.445 21.7841 199.859 21.9503 200.242 22.1932C200.63 22.4361 200.947 22.7834 201.195 23.2351C201.442 23.6825 201.565 24.2642 201.565 24.9801V31.5H199.699V30.1577H199.622C199.499 30.4048 199.313 30.6477 199.066 30.8864C198.819 31.125 198.501 31.3232 198.114 31.4808C197.726 31.6385 197.261 31.7173 196.72 31.7173ZM197.136 30.1832C197.664 30.1832 198.116 30.0788 198.491 29.87C198.87 29.6612 199.158 29.3885 199.354 29.0518C199.554 28.7109 199.654 28.3466 199.654 27.9588V26.6932C199.586 26.7614 199.454 26.8253 199.258 26.8849C199.066 26.9403 198.847 26.9893 198.599 27.032C198.352 27.0703 198.112 27.1065 197.877 27.1406C197.643 27.1705 197.447 27.196 197.289 27.2173C196.918 27.2642 196.58 27.343 196.273 27.4538C195.97 27.5646 195.727 27.7244 195.544 27.9332C195.365 28.1378 195.276 28.4105 195.276 28.7514C195.276 29.2244 195.45 29.5824 195.8 29.8253C196.149 30.0639 196.594 30.1832 197.136 30.1832ZM206.875 35.1818V21.6818H208.741V23.2734H208.901C209.012 23.0689 209.172 22.8324 209.38 22.5639C209.589 22.2955 209.879 22.0611 210.25 21.8608C210.62 21.6562 211.11 21.554 211.72 21.554C212.512 21.554 213.22 21.7543 213.842 22.1548C214.464 22.5554 214.952 23.1328 215.306 23.8871C215.664 24.6413 215.843 25.549 215.843 26.6101C215.843 27.6712 215.666 28.581 215.312 29.3395C214.958 30.0937 214.473 30.6754 213.855 31.0845C213.237 31.4893 212.532 31.6918 211.739 31.6918C211.142 31.6918 210.654 31.5916 210.275 31.3913C209.9 31.1911 209.606 30.9567 209.393 30.6882C209.18 30.4197 209.016 30.1811 208.901 29.9723H208.786V35.1818H206.875ZM208.748 26.5909C208.748 27.2812 208.848 27.8864 209.048 28.4062C209.248 28.9261 209.538 29.3331 209.917 29.6271C210.297 29.9169 210.761 30.0618 211.311 30.0618C211.882 30.0618 212.359 29.9105 212.743 29.608C213.126 29.3011 213.416 28.8857 213.612 28.3615C213.812 27.8374 213.912 27.2472 213.912 26.5909C213.912 25.9432 213.814 25.3615 213.618 24.8459C213.426 24.3303 213.137 23.9233 212.749 23.625C212.365 23.3267 211.886 23.1776 211.311 23.1776C210.757 23.1776 210.288 23.3203 209.904 23.6058C209.525 23.8913 209.238 24.2898 209.042 24.8011C208.846 25.3125 208.748 25.9091 208.748 26.5909ZM221.12 31.6982C220.199 31.6982 219.396 31.4872 218.71 31.0653C218.024 30.6435 217.491 30.0533 217.112 29.2947C216.733 28.5362 216.543 27.6499 216.543 26.6357C216.543 25.6172 216.733 24.7266 217.112 23.9638C217.491 23.201 218.024 22.6087 218.71 22.1868C219.396 21.7649 220.199 21.554 221.12 21.554C222.04 21.554 222.843 21.7649 223.529 22.1868C224.216 22.6087 224.748 23.201 225.127 23.9638C225.507 24.7266 225.696 25.6172 225.696 26.6357C225.696 27.6499 225.507 28.5362 225.127 29.2947C224.748 30.0533 224.216 30.6435 223.529 31.0653C222.843 31.4872 222.04 31.6982 221.12 31.6982ZM221.126 30.0938C221.723 30.0938 222.217 29.9361 222.609 29.6207C223.001 29.3054 223.291 28.8857 223.478 28.3615C223.67 27.8374 223.766 27.2599 223.766 26.6293C223.766 26.0028 223.67 25.4276 223.478 24.9034C223.291 24.375 223.001 23.951 222.609 23.6314C222.217 23.3118 221.723 23.152 221.126 23.152C220.525 23.152 220.027 23.3118 219.63 23.6314C219.238 23.951 218.946 24.375 218.755 24.9034C218.567 25.4276 218.473 26.0028 218.473 26.6293C218.473 27.2599 218.567 27.8374 218.755 28.3615C218.946 28.8857 219.238 29.3054 219.63 29.6207C220.027 29.9361 220.525 30.0938 221.126 30.0938ZM230.505 31.6918C229.713 31.6918 229.005 31.4893 228.383 31.0845C227.765 30.6754 227.279 30.0937 226.926 29.3395C226.576 28.581 226.401 27.6712 226.401 26.6101C226.401 25.549 226.578 24.6413 226.932 23.8871C227.29 23.1328 227.78 22.5554 228.402 22.1548C229.024 21.7543 229.73 21.554 230.518 21.554C231.127 21.554 231.617 21.6562 231.988 21.8608C232.363 22.0611 232.653 22.2955 232.857 22.5639C233.066 22.8324 233.228 23.0689 233.343 23.2734H233.458V18.4091H235.369V31.5H233.503V29.9723H233.343C233.228 30.1811 233.062 30.4197 232.845 30.6882C232.632 30.9567 232.338 31.1911 231.963 31.3913C231.588 31.5916 231.102 31.6918 230.505 31.6918ZM230.927 30.0618C231.477 30.0618 231.941 29.9169 232.32 29.6271C232.704 29.3331 232.994 28.9261 233.19 28.4062C233.39 27.8864 233.49 27.2812 233.49 26.5909C233.49 25.9091 233.392 25.3125 233.196 24.8011C233 24.2898 232.713 23.8913 232.333 23.6058C231.954 23.3203 231.485 23.1776 230.927 23.1776C230.352 23.1776 229.872 23.3267 229.489 23.625C229.105 23.9233 228.816 24.3303 228.619 24.8459C228.428 25.3615 228.332 25.9432 228.332 26.5909C228.332 27.2472 228.43 27.8374 228.626 28.3615C228.822 28.8857 229.112 29.3011 229.495 29.608C229.883 29.9105 230.36 30.0618 230.927 30.0618ZM239.009 25.6705V31.5H237.097V21.6818H238.932V23.2798H239.053C239.279 22.7599 239.633 22.3423 240.114 22.027C240.6 21.7116 241.212 21.554 241.949 21.554C242.618 21.554 243.204 21.6946 243.707 21.9759C244.21 22.2528 244.599 22.6662 244.876 23.2159C245.153 23.7656 245.292 24.4453 245.292 25.255V31.5H243.381V25.4851C243.381 24.7734 243.195 24.2173 242.825 23.8168C242.454 23.4119 241.945 23.2095 241.297 23.2095C240.854 23.2095 240.46 23.3054 240.114 23.4972C239.773 23.6889 239.503 23.9702 239.303 24.3409C239.107 24.7074 239.009 25.1506 239.009 25.6705ZM246.855 31.5V21.6818H248.766V31.5H246.855ZM247.82 20.1669C247.488 20.1669 247.202 20.0561 246.964 19.8345C246.729 19.6087 246.612 19.3402 246.612 19.0291C246.612 18.7138 246.729 18.4453 246.964 18.2237C247.202 17.9979 247.488 17.8849 247.82 17.8849C248.153 17.8849 248.436 17.9979 248.67 18.2237C248.909 18.4453 249.028 18.7138 249.028 19.0291C249.028 19.3402 248.909 19.6087 248.67 19.8345C248.436 20.0561 248.153 20.1669 247.82 20.1669ZM252.095 28.1697L252.083 25.8366H252.415L256.327 21.6818H258.615L254.154 26.4119H253.853L252.095 28.1697ZM250.338 31.5V18.4091H252.249V31.5H250.338ZM256.538 31.5L253.022 26.8338L254.339 25.4979L258.884 31.5H256.538ZM262.214 31.7173C261.592 31.7173 261.03 31.6023 260.527 31.3722C260.024 31.1378 259.626 30.799 259.331 30.3558C259.042 29.9126 258.897 29.3693 258.897 28.7259C258.897 28.1719 259.003 27.7159 259.216 27.358C259.43 27 259.717 26.7166 260.079 26.5078C260.442 26.299 260.846 26.1413 261.294 26.0348C261.741 25.9283 262.197 25.8473 262.662 25.7919C263.25 25.7237 263.727 25.6683 264.094 25.6257C264.46 25.5788 264.726 25.5043 264.893 25.402C265.059 25.2997 265.142 25.1335 265.142 24.9034V24.8587C265.142 24.3004 264.984 23.8679 264.669 23.5611C264.358 23.2543 263.893 23.1009 263.275 23.1009C262.632 23.1009 262.125 23.2436 261.754 23.5291C261.388 23.8104 261.134 24.1236 260.993 24.4688L259.197 24.0597C259.41 23.4631 259.721 22.9815 260.131 22.6151C260.544 22.2443 261.019 21.9759 261.556 21.8097C262.093 21.6392 262.657 21.554 263.25 21.554C263.642 21.554 264.057 21.6009 264.496 21.6946C264.939 21.7841 265.353 21.9503 265.736 22.1932C266.124 22.4361 266.442 22.7834 266.689 23.2351C266.936 23.6825 267.059 24.2642 267.059 24.9801V31.5H265.193V30.1577H265.116C264.993 30.4048 264.807 30.6477 264.56 30.8864C264.313 31.125 263.996 31.3232 263.608 31.4808C263.22 31.6385 262.756 31.7173 262.214 31.7173ZM262.63 30.1832C263.158 30.1832 263.61 30.0788 263.985 29.87C264.364 29.6612 264.652 29.3885 264.848 29.0518C265.048 28.7109 265.148 28.3466 265.148 27.9588V26.6932C265.08 26.7614 264.948 26.8253 264.752 26.8849C264.56 26.9403 264.341 26.9893 264.094 27.032C263.846 27.0703 263.606 27.1065 263.371 27.1406C263.137 27.1705 262.941 27.196 262.783 27.2173C262.412 27.2642 262.074 27.343 261.767 27.4538C261.464 27.5646 261.221 27.7244 261.038 27.9332C260.859 28.1378 260.77 28.4105 260.77 28.7514C260.77 29.2244 260.944 29.5824 261.294 29.8253C261.643 30.0639 262.089 30.1832 262.63 30.1832ZM270.516 25.6705V31.5H268.605V21.6818H270.44V23.2798H270.561C270.787 22.7599 271.141 22.3423 271.622 22.027C272.108 21.7116 272.719 21.554 273.457 21.554C274.126 21.554 274.712 21.6946 275.214 21.9759C275.717 22.2528 276.107 22.6662 276.384 23.2159C276.661 23.7656 276.8 24.4453 276.8 25.255V31.5H274.888V25.4851C274.888 24.7734 274.703 24.2173 274.332 23.8168C273.962 23.4119 273.452 23.2095 272.805 23.2095C272.362 23.2095 271.967 23.3054 271.622 23.4972C271.281 23.6889 271.011 23.9702 270.81 24.3409C270.614 24.7074 270.516 25.1506 270.516 25.6705ZM278.363 31.5V21.6818H280.274V31.5H278.363ZM279.328 20.1669C278.996 20.1669 278.71 20.0561 278.472 19.8345C278.237 19.6087 278.12 19.3402 278.12 19.0291C278.12 18.7138 278.237 18.4453 278.472 18.2237C278.71 17.9979 278.996 17.8849 279.328 17.8849C279.661 17.8849 279.944 17.9979 280.178 18.2237C280.417 18.4453 280.536 18.7138 280.536 19.0291C280.536 19.3402 280.417 19.6087 280.178 19.8345C279.944 20.0561 279.661 20.1669 279.328 20.1669ZM284.703 31.7173C284.08 31.7173 283.518 31.6023 283.015 31.3722C282.512 31.1378 282.114 30.799 281.82 30.3558C281.53 29.9126 281.385 29.3693 281.385 28.7259C281.385 28.1719 281.492 27.7159 281.705 27.358C281.918 27 282.205 26.7166 282.568 26.5078C282.93 26.299 283.335 26.1413 283.782 26.0348C284.23 25.9283 284.686 25.8473 285.15 25.7919C285.738 25.7237 286.215 25.6683 286.582 25.6257C286.948 25.5788 287.215 25.5043 287.381 25.402C287.547 25.2997 287.63 25.1335 287.63 24.9034V24.8587C287.63 24.3004 287.472 23.8679 287.157 23.5611C286.846 23.2543 286.382 23.1009 285.764 23.1009C285.12 23.1009 284.613 23.2436 284.242 23.5291C283.876 23.8104 283.622 24.1236 283.482 24.4688L281.686 24.0597C281.899 23.4631 282.21 22.9815 282.619 22.6151C283.032 22.2443 283.507 21.9759 284.044 21.8097C284.581 21.6392 285.146 21.554 285.738 21.554C286.13 21.554 286.546 21.6009 286.985 21.6946C287.428 21.7841 287.841 21.9503 288.225 22.1932C288.612 22.4361 288.93 22.7834 289.177 23.2351C289.424 23.6825 289.548 24.2642 289.548 24.9801V31.5H287.681V30.1577H287.605C287.481 30.4048 287.296 30.6477 287.048 30.8864C286.801 31.125 286.484 31.3232 286.096 31.4808C285.708 31.6385 285.244 31.7173 284.703 31.7173ZM285.118 30.1832C285.646 30.1832 286.098 30.0788 286.473 29.87C286.852 29.6612 287.14 29.3885 287.336 29.0518C287.536 28.7109 287.637 28.3466 287.637 27.9588V26.6932C287.568 26.7614 287.436 26.8253 287.24 26.8849C287.048 26.9403 286.829 26.9893 286.582 27.032C286.335 27.0703 286.094 27.1065 285.86 27.1406C285.625 27.1705 285.429 27.196 285.271 27.2173C284.901 27.2642 284.562 27.343 284.255 27.4538C283.953 27.5646 283.71 27.7244 283.526 27.9332C283.347 28.1378 283.258 28.4105 283.258 28.7514C283.258 29.2244 283.433 29.5824 283.782 29.8253C284.132 30.0639 284.577 30.1832 285.118 30.1832Z" fill="#242A36"/>
</svg>
