<svg width="220" height="149" viewBox="0 0 220 149" fill="none" xmlns="http://www.w3.org/2000/svg">
<path d="M10 0.5L210 0.5C215.247 0.500002 219.5 4.7533 219.5 10V139C219.5 144.247 215.247 148.5 210 148.5H10C4.7533 148.5 0.5 144.247 0.5 139L0.5 10C0.500002 4.7533 4.7533 0.5 10 0.5Z" fill="white"/>
<path d="M10 0.5L210 0.5C215.247 0.500002 219.5 4.7533 219.5 10V139C219.5 144.247 215.247 148.5 210 148.5H10C4.7533 148.5 0.5 144.247 0.5 139L0.5 10C0.500002 4.7533 4.7533 0.5 10 0.5Z" stroke="#E4E4E4"/>
<path d="M21.0227 38V36.9773L27.2955 27.6136H20.9545V26.3636H28.9773V27.3864L22.7045 36.75H29.0455V38H21.0227ZM33.7955 38.2045C33.2424 38.2045 32.7405 38.1004 32.2898 37.892C31.839 37.6799 31.4811 37.375 31.2159 36.9773C30.9508 36.5758 30.8182 36.0909 30.8182 35.5227C30.8182 35.0227 30.9167 34.6174 31.1136 34.3068C31.3106 33.9924 31.5739 33.7462 31.9034 33.5682C32.233 33.3902 32.5966 33.2576 32.9943 33.1705C33.3958 33.0795 33.7992 33.0076 34.2045 32.9545C34.7349 32.8864 35.1648 32.8352 35.4943 32.8011C35.8277 32.7633 36.0701 32.7008 36.2216 32.6136C36.3769 32.5265 36.4545 32.375 36.4545 32.1591V32.1136C36.4545 31.553 36.3011 31.1174 35.9943 30.8068C35.6913 30.4962 35.2311 30.3409 34.6136 30.3409C33.9735 30.3409 33.4716 30.4811 33.108 30.7614C32.7443 31.0417 32.4886 31.3409 32.3409 31.6591L31.0682 31.2045C31.2955 30.6742 31.5985 30.2614 31.9773 29.9659C32.3599 29.6667 32.7765 29.4583 33.2273 29.3409C33.6818 29.2197 34.1288 29.1591 34.5682 29.1591C34.8485 29.1591 35.1705 29.1932 35.5341 29.2614C35.9015 29.3258 36.2557 29.4602 36.5966 29.6648C36.9413 29.8693 37.2273 30.178 37.4545 30.5909C37.6818 31.0038 37.7955 31.5568 37.7955 32.25V38H36.4545V36.8182H36.3864C36.2955 37.0076 36.1439 37.2102 35.9318 37.4261C35.7197 37.642 35.4375 37.8258 35.0852 37.9773C34.733 38.1288 34.303 38.2045 33.7955 38.2045ZM34 37C34.5303 37 34.9773 36.8958 35.3409 36.6875C35.7083 36.4792 35.9849 36.2102 36.1705 35.8807C36.3599 35.5511 36.4545 35.2045 36.4545 34.8409V33.6136C36.3977 33.6818 36.2727 33.7443 36.0795 33.8011C35.8902 33.8542 35.6705 33.9015 35.4205 33.9432C35.1742 33.9811 34.9337 34.0152 34.6989 34.0455C34.4678 34.072 34.2803 34.0947 34.1364 34.1136C33.7879 34.1591 33.4621 34.233 33.1591 34.3352C32.8599 34.4337 32.6174 34.5833 32.4318 34.7841C32.25 34.9811 32.1591 35.25 32.1591 35.5909C32.1591 36.0568 32.3314 36.4091 32.6761 36.6477C33.0246 36.8826 33.4659 37 34 37ZM43.7884 38.1818C42.9702 38.1818 42.2656 37.9886 41.6747 37.6023C41.0838 37.2159 40.6293 36.6837 40.3111 36.0057C39.9929 35.3277 39.8338 34.553 39.8338 33.6818C39.8338 32.7955 39.9967 32.0133 40.3224 31.3352C40.652 30.6534 41.1103 30.1212 41.6974 29.7386C42.2884 29.3523 42.9778 29.1591 43.7656 29.1591C44.3793 29.1591 44.9323 29.2727 45.4247 29.5C45.9171 29.7273 46.3206 30.0455 46.6349 30.4545C46.9493 30.8636 47.1444 31.3409 47.2202 31.8864H45.8793C45.777 31.4886 45.5497 31.1364 45.1974 30.8295C44.849 30.5189 44.3793 30.3636 43.7884 30.3636C43.2656 30.3636 42.8073 30.5 42.4134 30.7727C42.0232 31.0417 41.7183 31.4224 41.4986 31.9148C41.2827 32.4034 41.1747 32.9773 41.1747 33.6364C41.1747 34.3106 41.2808 34.8977 41.4929 35.3977C41.7088 35.8977 42.0118 36.286 42.402 36.5625C42.7959 36.839 43.2581 36.9773 43.7884 36.9773C44.1368 36.9773 44.4531 36.9167 44.7372 36.7955C45.0213 36.6742 45.2618 36.5 45.4588 36.2727C45.6558 36.0455 45.7959 35.7727 45.8793 35.4545H47.2202C47.1444 35.9697 46.9569 36.4337 46.6577 36.8466C46.3622 37.2557 45.9702 37.5814 45.4815 37.8239C44.9967 38.0625 44.4323 38.1818 43.7884 38.1818ZM42.5611 25.7727L43.7429 27.3636L44.9247 25.7727H46.1974V25.8636L44.3565 28.2273H43.1293L41.2884 25.8636V25.7727H42.5611ZM49.1804 38V29.2727H50.5213V38H49.1804ZM49.8622 27.8182C49.6009 27.8182 49.3755 27.7292 49.1861 27.5511C49.0005 27.3731 48.9077 27.1591 48.9077 26.9091C48.9077 26.6591 49.0005 26.4451 49.1861 26.267C49.3755 26.089 49.6009 26 49.8622 26C50.1236 26 50.3471 26.089 50.5327 26.267C50.7221 26.4451 50.8168 26.6591 50.8168 26.9091C50.8168 27.1591 50.7221 27.3731 50.5327 27.5511C50.3471 27.7292 50.1236 27.8182 49.8622 27.8182ZM55.5455 38.2045C54.9924 38.2045 54.4905 38.1004 54.0398 37.892C53.589 37.6799 53.2311 37.375 52.9659 36.9773C52.7008 36.5758 52.5682 36.0909 52.5682 35.5227C52.5682 35.0227 52.6667 34.6174 52.8636 34.3068C53.0606 33.9924 53.3239 33.7462 53.6534 33.5682C53.983 33.3902 54.3466 33.2576 54.7443 33.1705C55.1458 33.0795 55.5492 33.0076 55.9546 32.9545C56.4849 32.8864 56.9148 32.8352 57.2443 32.8011C57.5777 32.7633 57.8201 32.7008 57.9716 32.6136C58.1269 32.5265 58.2046 32.375 58.2046 32.1591V32.1136C58.2046 31.553 58.0511 31.1174 57.7443 30.8068C57.4413 30.4962 56.9811 30.3409 56.3636 30.3409C55.7235 30.3409 55.2216 30.4811 54.858 30.7614C54.4943 31.0417 54.2386 31.3409 54.0909 31.6591L52.8182 31.2045C53.0455 30.6742 53.3485 30.2614 53.7273 29.9659C54.1099 29.6667 54.5265 29.4583 54.9773 29.3409C55.4318 29.2197 55.8788 29.1591 56.3182 29.1591C56.5985 29.1591 56.9205 29.1932 57.2841 29.2614C57.6515 29.3258 58.0057 29.4602 58.3466 29.6648C58.6913 29.8693 58.9773 30.178 59.2046 30.5909C59.4318 31.0038 59.5455 31.5568 59.5455 32.25V38H58.2046V36.8182H58.1364C58.0455 37.0076 57.8939 37.2102 57.6818 37.4261C57.4697 37.642 57.1875 37.8258 56.8352 37.9773C56.483 38.1288 56.053 38.2045 55.5455 38.2045ZM55.75 37C56.2803 37 56.7273 36.8958 57.0909 36.6875C57.4583 36.4792 57.7349 36.2102 57.9205 35.8807C58.1099 35.5511 58.2046 35.2045 58.2046 34.8409V33.6136C58.1477 33.6818 58.0227 33.7443 57.8296 33.8011C57.6402 33.8542 57.4205 33.9015 57.1705 33.9432C56.9242 33.9811 56.6837 34.0152 56.4489 34.0455C56.2178 34.072 56.0303 34.0947 55.8864 34.1136C55.5379 34.1591 55.2121 34.233 54.9091 34.3352C54.6099 34.4337 54.3674 34.5833 54.1818 34.7841C54 34.9811 53.9091 35.25 53.9091 35.5909C53.9091 36.0568 54.0814 36.4091 54.4261 36.6477C54.7746 36.8826 55.2159 37 55.75 37ZM65.7884 29.2727V30.4091H61.2656V29.2727H65.7884ZM62.5838 27.1818H63.9247V35.5C63.9247 35.8788 63.9796 36.1629 64.0895 36.3523C64.2031 36.5379 64.3471 36.6629 64.5213 36.7273C64.6993 36.7879 64.8868 36.8182 65.0838 36.8182C65.2315 36.8182 65.3528 36.8106 65.4475 36.7955C65.5421 36.7765 65.6179 36.7614 65.6747 36.75L65.9475 37.9545C65.8565 37.9886 65.7296 38.0227 65.5668 38.0568C65.4039 38.0947 65.1975 38.1136 64.9475 38.1136C64.5687 38.1136 64.1975 38.0322 63.8338 37.8693C63.474 37.7064 63.1747 37.4583 62.9361 37.125C62.7012 36.7917 62.5838 36.3712 62.5838 35.8636V27.1818ZM71.2571 38.1818C70.4692 38.1818 69.7779 37.9943 69.1832 37.6193C68.5923 37.2443 68.1302 36.7197 67.7969 36.0455C67.4673 35.3712 67.3026 34.5833 67.3026 33.6818C67.3026 32.7727 67.4673 31.9792 67.7969 31.3011C68.1302 30.6231 68.5923 30.0966 69.1832 29.7216C69.7779 29.3466 70.4692 29.1591 71.2571 29.1591C72.045 29.1591 72.7344 29.3466 73.3253 29.7216C73.92 30.0966 74.3821 30.6231 74.7117 31.3011C75.045 31.9792 75.2117 32.7727 75.2117 33.6818C75.2117 34.5833 75.045 35.3712 74.7117 36.0455C74.3821 36.7197 73.92 37.2443 73.3253 37.6193C72.7344 37.9943 72.045 38.1818 71.2571 38.1818ZM71.2571 36.9773C71.8556 36.9773 72.348 36.8239 72.7344 36.517C73.1207 36.2102 73.4067 35.8068 73.5923 35.3068C73.7779 34.8068 73.8707 34.2652 73.8707 33.6818C73.8707 33.0985 73.7779 32.5549 73.5923 32.0511C73.4067 31.5474 73.1207 31.1402 72.7344 30.8295C72.348 30.5189 71.8556 30.3636 71.2571 30.3636C70.6586 30.3636 70.1662 30.5189 69.7798 30.8295C69.3935 31.1402 69.1075 31.5474 68.9219 32.0511C68.7363 32.5549 68.6435 33.0985 68.6435 33.6818C68.6435 34.2652 68.7363 34.8068 68.9219 35.3068C69.1075 35.8068 69.3935 36.2102 69.7798 36.517C70.1662 36.8239 70.6586 36.9773 71.2571 36.9773ZM80.804 38.1818C79.9858 38.1818 79.2813 37.9886 78.6903 37.6023C78.0994 37.2159 77.6449 36.6837 77.3267 36.0057C77.0085 35.3277 76.8494 34.553 76.8494 33.6818C76.8494 32.7955 77.0123 32.0133 77.3381 31.3352C77.6676 30.6534 78.126 30.1212 78.7131 29.7386C79.304 29.3523 79.9934 29.1591 80.7813 29.1591C81.3949 29.1591 81.9479 29.2727 82.4404 29.5C82.9328 29.7273 83.3362 30.0455 83.6506 30.4545C83.965 30.8636 84.16 31.3409 84.2358 31.8864H82.8949C82.7926 31.4886 82.5654 31.1364 82.2131 30.8295C81.8646 30.5189 81.3949 30.3636 80.804 30.3636C80.2813 30.3636 79.8229 30.5 79.429 30.7727C79.0388 31.0417 78.7339 31.4224 78.5142 31.9148C78.2983 32.4034 78.1903 32.9773 78.1903 33.6364C78.1903 34.3106 78.2964 34.8977 78.5085 35.3977C78.7244 35.8977 79.0275 36.286 79.4176 36.5625C79.8116 36.839 80.2737 36.9773 80.804 36.9773C81.1525 36.9773 81.4688 36.9167 81.7529 36.7955C82.0369 36.6742 82.2775 36.5 82.4744 36.2727C82.6714 36.0455 82.8116 35.7727 82.8949 35.4545H84.2358C84.16 35.9697 83.9725 36.4337 83.6733 36.8466C83.3779 37.2557 82.9858 37.5814 82.4972 37.8239C82.0123 38.0625 81.4479 38.1818 80.804 38.1818ZM79.5767 25.7727L80.7585 27.3636L81.9404 25.7727H83.2131V25.8636L81.3722 28.2273H80.1449L78.304 25.8636V25.7727H79.5767ZM87.5369 32.75V38H86.196V29.2727H87.4915V30.6364H87.6051C87.8097 30.1932 88.1203 29.8371 88.5369 29.5682C88.9536 29.2955 89.4915 29.1591 90.1506 29.1591C90.7415 29.1591 91.2585 29.2803 91.7017 29.5227C92.1449 29.7614 92.4896 30.125 92.7358 30.6136C92.982 31.0985 93.1051 31.7121 93.1051 32.4545V38H91.7642V32.5455C91.7642 31.8599 91.5862 31.3258 91.2301 30.9432C90.8741 30.5568 90.3854 30.3636 89.7642 30.3636C89.3362 30.3636 88.9536 30.4564 88.6165 30.642C88.2832 30.8277 88.0199 31.0985 87.8267 31.4545C87.6335 31.8106 87.5369 32.2424 87.5369 32.75ZM99.2145 38.1818C98.3736 38.1818 97.6482 37.9962 97.0384 37.625C96.4323 37.25 95.9645 36.7273 95.635 36.0568C95.3092 35.3826 95.1463 34.5985 95.1463 33.7045C95.1463 32.8106 95.3092 32.0227 95.635 31.3409C95.9645 30.6553 96.4228 30.1212 97.01 29.7386C97.6009 29.3523 98.2903 29.1591 99.0781 29.1591C99.5327 29.1591 99.9815 29.2349 100.425 29.3864C100.868 29.5379 101.271 29.7841 101.635 30.125C101.999 30.4621 102.288 30.9091 102.504 31.4659C102.72 32.0227 102.828 32.7083 102.828 33.5227V34.0909H96.1009V32.9318H101.465C101.465 32.4394 101.366 32 101.169 31.6136C100.976 31.2273 100.699 30.9224 100.34 30.6989C99.9834 30.4754 99.563 30.3636 99.0781 30.3636C98.544 30.3636 98.0819 30.4962 97.6918 30.7614C97.3054 31.0227 97.0081 31.3636 96.7997 31.7841C96.5914 32.2045 96.4872 32.6553 96.4872 33.1364V33.9091C96.4872 34.5682 96.6009 35.1269 96.8281 35.5852C97.0592 36.0398 97.3793 36.3864 97.7884 36.625C98.1975 36.8599 98.6728 36.9773 99.2145 36.9773C99.5668 36.9773 99.885 36.928 100.169 36.8295C100.457 36.7273 100.705 36.5758 100.913 36.375C101.122 36.1705 101.283 35.9167 101.396 35.6136L102.692 35.9773C102.555 36.4167 102.326 36.803 102.004 37.1364C101.682 37.4659 101.285 37.7235 100.811 37.9091C100.338 38.0909 99.8054 38.1818 99.2145 38.1818ZM98.3963 28.0909L99.7827 25.4545H101.351L99.5781 28.0909H98.3963ZM110.709 32.75V38H109.368V29.2727H110.663V30.6364H110.777C110.982 30.1932 111.292 29.8371 111.709 29.5682C112.125 29.2955 112.663 29.1591 113.322 29.1591C113.913 29.1591 114.43 29.2803 114.874 29.5227C115.317 29.7614 115.661 30.125 115.908 30.6136C116.154 31.0985 116.277 31.7121 116.277 32.4545V38H114.936V32.5455C114.936 31.8599 114.758 31.3258 114.402 30.9432C114.046 30.5568 113.557 30.3636 112.936 30.3636C112.508 30.3636 112.125 30.4564 111.788 30.642C111.455 30.8277 111.192 31.0985 110.999 31.4545C110.805 31.8106 110.709 32.2424 110.709 32.75ZM121.295 38.2045C120.742 38.2045 120.241 38.1004 119.79 37.892C119.339 37.6799 118.981 37.375 118.716 36.9773C118.451 36.5758 118.318 36.0909 118.318 35.5227C118.318 35.0227 118.417 34.6174 118.614 34.3068C118.811 33.9924 119.074 33.7462 119.403 33.5682C119.733 33.3902 120.097 33.2576 120.494 33.1705C120.896 33.0795 121.299 33.0076 121.705 32.9545C122.235 32.8864 122.665 32.8352 122.994 32.8011C123.328 32.7633 123.57 32.7008 123.722 32.6136C123.877 32.5265 123.955 32.375 123.955 32.1591V32.1136C123.955 31.553 123.801 31.1174 123.494 30.8068C123.191 30.4962 122.731 30.3409 122.114 30.3409C121.473 30.3409 120.972 30.4811 120.608 30.7614C120.244 31.0417 119.989 31.3409 119.841 31.6591L118.568 31.2045C118.795 30.6742 119.098 30.2614 119.477 29.9659C119.86 29.6667 120.277 29.4583 120.727 29.3409C121.182 29.2197 121.629 29.1591 122.068 29.1591C122.348 29.1591 122.67 29.1932 123.034 29.2614C123.402 29.3258 123.756 29.4602 124.097 29.6648C124.441 29.8693 124.727 30.178 124.955 30.5909C125.182 31.0038 125.295 31.5568 125.295 32.25V38H123.955V36.8182H123.886C123.795 37.0076 123.644 37.2102 123.432 37.4261C123.22 37.642 122.938 37.8258 122.585 37.9773C122.233 38.1288 121.803 38.2045 121.295 38.2045ZM121.5 37C122.03 37 122.477 36.8958 122.841 36.6875C123.208 36.4792 123.485 36.2102 123.67 35.8807C123.86 35.5511 123.955 35.2045 123.955 34.8409V33.6136C123.898 33.6818 123.773 33.7443 123.58 33.8011C123.39 33.8542 123.17 33.9015 122.92 33.9432C122.674 33.9811 122.434 34.0152 122.199 34.0455C121.968 34.072 121.78 34.0947 121.636 34.1136C121.288 34.1591 120.962 34.233 120.659 34.3352C120.36 34.4337 120.117 34.5833 119.932 34.7841C119.75 34.9811 119.659 35.25 119.659 35.5909C119.659 36.0568 119.831 36.4091 120.176 36.6477C120.525 36.8826 120.966 37 121.5 37ZM121.545 28.0909L122.932 25.4545H124.5L122.727 28.0909H121.545ZM128.993 34.8182L128.97 33.1591H129.243L133.061 29.2727H134.72L130.652 33.3864H130.538L128.993 34.8182ZM127.743 38V26.3636H129.084V38H127.743ZM133.288 38L129.879 33.6818L130.834 32.75L134.993 38H133.288ZM137.787 26.3636V38H136.446V26.3636H137.787ZM142.811 38.2045C142.258 38.2045 141.756 38.1004 141.305 37.892C140.855 37.6799 140.497 37.375 140.232 36.9773C139.966 36.5758 139.834 36.0909 139.834 35.5227C139.834 35.0227 139.932 34.6174 140.129 34.3068C140.326 33.9924 140.59 33.7462 140.919 33.5682C141.249 33.3902 141.612 33.2576 142.01 33.1705C142.411 33.0795 142.815 33.0076 143.22 32.9545C143.75 32.8864 144.18 32.8352 144.51 32.8011C144.843 32.7633 145.086 32.7008 145.237 32.6136C145.393 32.5265 145.47 32.375 145.47 32.1591V32.1136C145.47 31.553 145.317 31.1174 145.01 30.8068C144.707 30.4962 144.247 30.3409 143.629 30.3409C142.989 30.3409 142.487 30.4811 142.124 30.7614C141.76 31.0417 141.504 31.3409 141.357 31.6591L140.084 31.2045C140.311 30.6742 140.614 30.2614 140.993 29.9659C141.375 29.6667 141.792 29.4583 142.243 29.3409C142.697 29.2197 143.144 29.1591 143.584 29.1591C143.864 29.1591 144.186 29.1932 144.55 29.2614C144.917 29.3258 145.271 29.4602 145.612 29.6648C145.957 29.8693 146.243 30.178 146.47 30.5909C146.697 31.0038 146.811 31.5568 146.811 32.25V38H145.47V36.8182H145.402C145.311 37.0076 145.16 37.2102 144.947 37.4261C144.735 37.642 144.453 37.8258 144.101 37.9773C143.749 38.1288 143.319 38.2045 142.811 38.2045ZM143.016 37C143.546 37 143.993 36.8958 144.357 36.6875C144.724 36.4792 145 36.2102 145.186 35.8807C145.375 35.5511 145.47 35.2045 145.47 34.8409V33.6136C145.413 33.6818 145.288 33.7443 145.095 33.8011C144.906 33.8542 144.686 33.9015 144.436 33.9432C144.19 33.9811 143.949 34.0152 143.715 34.0455C143.483 34.072 143.296 34.0947 143.152 34.1136C142.804 34.1591 142.478 34.233 142.175 34.3352C141.875 34.4337 141.633 34.5833 141.447 34.7841C141.266 34.9811 141.175 35.25 141.175 35.5909C141.175 36.0568 141.347 36.4091 141.692 36.6477C142.04 36.8826 142.482 37 143.016 37ZM152.554 38.1818C151.827 38.1818 151.185 37.9981 150.628 37.6307C150.071 37.2595 149.635 36.7367 149.321 36.0625C149.007 35.3845 148.849 34.5833 148.849 33.6591C148.849 32.7424 149.007 31.947 149.321 31.2727C149.635 30.5985 150.073 30.0777 150.634 29.7102C151.194 29.3428 151.842 29.1591 152.577 29.1591C153.145 29.1591 153.594 29.2538 153.923 29.4432C154.257 29.6288 154.51 29.8409 154.685 30.0795C154.863 30.3144 155.001 30.5076 155.099 30.6591H155.213V26.3636H156.554V38H155.259V36.6591H155.099C155.001 36.8182 154.861 37.0189 154.679 37.2614C154.497 37.5 154.238 37.714 153.901 37.9034C153.563 38.089 153.115 38.1818 152.554 38.1818ZM152.736 36.9773C153.274 36.9773 153.728 36.8371 154.099 36.5568C154.471 36.2727 154.753 35.8807 154.946 35.3807C155.139 34.8769 155.236 34.2955 155.236 33.6364C155.236 32.9849 155.141 32.4148 154.952 31.9261C154.762 31.4337 154.482 31.0511 154.111 30.7784C153.74 30.5019 153.281 30.3636 152.736 30.3636C152.168 30.3636 151.694 30.5095 151.315 30.8011C150.94 31.089 150.658 31.4811 150.469 31.9773C150.283 32.4697 150.19 33.0227 150.19 33.6364C150.19 34.2576 150.285 34.822 150.474 35.3295C150.668 35.8333 150.952 36.2349 151.327 36.5341C151.706 36.8295 152.175 36.9773 152.736 36.9773ZM160.06 41.2727C159.832 41.2727 159.63 41.2538 159.452 41.2159C159.274 41.1818 159.151 41.1477 159.082 41.1136L159.423 39.9318C159.749 40.0152 160.037 40.0455 160.287 40.0227C160.537 40 160.759 39.8883 160.952 39.6875C161.149 39.4905 161.329 39.1705 161.491 38.7273L161.741 38.0455L158.514 29.2727H159.969L162.378 36.2273H162.469L164.878 29.2727H166.332L162.628 39.2727C162.461 39.7235 162.255 40.0966 162.009 40.392C161.762 40.6913 161.476 40.9129 161.151 41.0568C160.829 41.2008 160.465 41.2727 160.06 41.2727Z" fill="#242A36"/>
<path d="M32.0437 85.5593C29.9059 85.551 28.0664 85.0249 26.5252 83.9808C24.9923 82.9368 23.8116 81.4246 22.983 79.4443C22.1626 77.4639 21.7566 75.0817 21.7649 72.2976C21.7649 69.5218 22.1751 67.1561 22.9954 65.2006C23.824 63.2452 25.0047 61.7578 26.5376 60.7386C28.0788 59.7112 29.9142 59.1975 32.0437 59.1975C34.1732 59.1975 36.0044 59.7112 37.5373 60.7386C39.0785 61.7661 40.2634 63.2576 41.092 65.2131C41.9206 67.1603 42.3307 69.5218 42.3224 72.2976C42.3224 75.09 41.9081 77.4763 41.0796 79.4567C40.2592 81.437 39.0826 82.9492 37.5497 83.9933C36.0168 85.0373 34.1815 85.5593 32.0437 85.5593ZM32.0437 81.0973C33.502 81.0973 34.6662 80.364 35.5362 78.8974C36.4063 77.4308 36.8371 75.2308 36.8288 72.2976C36.8288 70.367 36.63 68.7595 36.2322 67.4752C35.8428 66.1908 35.2876 65.2255 34.5668 64.5792C33.8542 63.9329 33.0131 63.6097 32.0437 63.6097C30.5936 63.6097 29.4336 64.3348 28.5636 65.7848C27.6935 67.2349 27.2544 69.4058 27.2461 72.2976C27.2461 74.2531 27.4408 75.8854 27.8303 77.1946C28.228 78.4955 28.7873 79.4733 29.5082 80.1279C30.2291 80.7742 31.0742 81.0973 32.0437 81.0973ZM69.0645 68.3079L67.834 71.0298H51.2164L52.2232 68.3079H69.0645ZM66.6905 73.5156L65.3358 76.2997H51.2164L52.2232 73.5156H66.6905ZM72.296 61.5092L70.3074 65.76C69.9759 65.5279 69.574 65.2752 69.1017 65.0018C68.6377 64.7201 68.1033 64.4839 67.4984 64.2933C66.9018 64.0945 66.2389 63.995 65.5098 63.995C64.358 63.995 63.3554 64.285 62.502 64.8651C61.6485 65.4451 60.9856 66.3483 60.5133 67.5746C60.0493 68.8009 59.8173 70.3752 59.8173 72.2976C59.8173 74.2365 60.0493 75.815 60.5133 77.033C60.9856 78.2428 61.6485 79.1335 62.502 79.7053C63.3554 80.2687 64.358 80.5504 65.5098 80.5504C66.2389 80.5504 66.9018 80.4551 67.4984 80.2646C68.095 80.074 68.617 79.8461 69.0645 79.581C69.5202 79.3158 69.9013 79.0714 70.2079 78.8477L72.2214 83.0984C71.3182 83.8441 70.2949 84.4076 69.1515 84.7887C68.008 85.1616 66.7941 85.348 65.5098 85.348C63.3388 85.348 61.4165 84.8343 59.7427 83.8068C58.0772 82.7711 56.7722 81.2837 55.8276 79.3448C54.883 77.3976 54.4107 75.0485 54.4107 72.2976C54.4107 69.5549 54.883 67.2059 55.8276 65.2504C56.7722 63.2949 58.0772 61.7992 59.7427 60.7635C61.4165 59.7195 63.3388 59.1975 65.5098 59.1975C66.8438 59.1975 68.0784 59.3963 69.2136 59.794C70.3488 60.1918 71.3763 60.7635 72.296 61.5092Z" fill="#242A36"/>
<path d="M21.4382 121L21.4382 107.909H23.3494V112.773H23.4645C23.5753 112.569 23.7351 112.332 23.9439 112.064C24.1527 111.795 24.4425 111.561 24.8132 111.361C25.184 111.156 25.674 111.054 26.2834 111.054C27.076 111.054 27.7834 111.254 28.4055 111.655C29.0277 112.055 29.5156 112.633 29.8693 113.387C30.2273 114.141 30.4063 115.049 30.4063 116.11C30.4063 117.171 30.2294 118.081 29.8757 118.84C29.522 119.594 29.0362 120.175 28.4183 120.585C27.8004 120.989 27.0952 121.192 26.3026 121.192C25.706 121.192 25.218 121.092 24.8388 120.891C24.4638 120.691 24.1697 120.457 23.9567 120.188C23.7436 119.92 23.5795 119.681 23.4645 119.472H23.3047V121H21.4382ZM23.3111 116.091C23.3111 116.781 23.4112 117.386 23.6115 117.906C23.8118 118.426 24.1016 118.833 24.4808 119.127C24.8601 119.417 25.3246 119.562 25.8743 119.562C26.4453 119.562 26.9226 119.411 27.3061 119.108C27.6896 118.801 27.9794 118.386 28.1754 117.862C28.3757 117.337 28.4759 116.747 28.4759 116.091C28.4759 115.443 28.3778 114.862 28.1818 114.346C27.9901 113.83 27.7003 113.423 27.3125 113.125C26.929 112.827 26.4496 112.678 25.8743 112.678C25.3203 112.678 24.8516 112.82 24.468 113.106C24.0888 113.391 23.8011 113.79 23.6051 114.301C23.4091 114.813 23.3111 115.409 23.3111 116.091ZM35.7839 121.198C34.8166 121.198 33.9835 120.991 33.2846 120.578C32.59 120.161 32.0531 119.575 31.6738 118.82C31.2988 118.062 31.1113 117.173 31.1113 116.155C31.1113 115.149 31.2988 114.263 31.6738 113.496C32.0531 112.729 32.5815 112.13 33.2591 111.7C33.9409 111.269 34.7378 111.054 35.6497 111.054C36.2037 111.054 36.7406 111.146 37.2605 111.329C37.7804 111.512 38.247 111.8 38.6603 112.192C39.0737 112.584 39.3997 113.093 39.6383 113.719C39.877 114.342 39.9963 115.098 39.9963 115.989V116.666H32.1916V115.234H38.1234C38.1234 114.732 38.0211 114.286 37.8166 113.898C37.612 113.506 37.3244 113.197 36.9537 112.972C36.5872 112.746 36.1568 112.633 35.6625 112.633C35.1255 112.633 34.6568 112.765 34.2562 113.029C33.8599 113.289 33.5531 113.63 33.3358 114.052C33.1227 114.469 33.0162 114.923 33.0162 115.413V116.532C33.0162 117.188 33.1312 117.746 33.3613 118.207C33.5957 118.667 33.9217 119.018 34.3393 119.261C34.7569 119.5 35.2449 119.619 35.8031 119.619C36.1653 119.619 36.4956 119.568 36.7939 119.466C37.0922 119.359 37.35 119.202 37.5673 118.993C37.7846 118.784 37.9508 118.526 38.0659 118.219L39.8748 118.545C39.7299 119.078 39.47 119.545 39.095 119.945C38.7243 120.342 38.2576 120.651 37.6951 120.872C37.1369 121.09 36.4998 121.198 35.7839 121.198ZM40.9123 121V119.69L46.2305 112.933V112.844H41.0849V111.182H48.6147V112.575L43.5011 119.249V119.338H48.7937V121H40.9123ZM61.1694 113.579L59.4372 113.886C59.3647 113.664 59.2497 113.453 59.092 113.253C58.9386 113.053 58.7298 112.889 58.4656 112.761C58.2014 112.633 57.8711 112.569 57.4748 112.569C56.9336 112.569 56.4819 112.69 56.1197 112.933C55.7575 113.172 55.5764 113.481 55.5764 113.86C55.5764 114.188 55.6978 114.452 55.9407 114.653C56.1836 114.853 56.5756 115.017 57.1168 115.145L58.6765 115.503C59.5799 115.712 60.2532 116.033 60.6964 116.468C61.1396 116.903 61.3612 117.467 61.3612 118.162C61.3612 118.75 61.1907 119.274 60.8498 119.734C60.5131 120.19 60.0423 120.548 59.4372 120.808C58.8363 121.068 58.1396 121.198 57.347 121.198C56.2475 121.198 55.3505 120.964 54.6559 120.495C53.9613 120.022 53.5352 119.351 53.3775 118.482L55.2248 118.2C55.3398 118.682 55.5764 119.046 55.9343 119.293C56.2923 119.536 56.7589 119.658 57.3342 119.658C57.9606 119.658 58.4613 119.528 58.8363 119.268C59.2113 119.004 59.3988 118.682 59.3988 118.303C59.3988 117.996 59.2837 117.738 59.0536 117.529C58.8278 117.32 58.4805 117.163 58.0117 117.056L56.3498 116.692C55.4336 116.483 54.756 116.151 54.3171 115.695C53.8825 115.239 53.6651 114.661 53.6651 113.962C53.6651 113.383 53.8271 112.876 54.1509 112.441C54.4748 112.006 54.9222 111.668 55.4933 111.425C56.0643 111.178 56.7184 111.054 57.4556 111.054C58.5167 111.054 59.3519 111.284 59.9613 111.744C60.5707 112.2 60.9734 112.812 61.1694 113.579ZM64.2204 117.67L64.2076 115.337H64.54L68.4519 111.182H70.7402L66.2786 115.912H65.9782L64.2204 117.67ZM62.4625 121V107.909H64.3738V121H62.4625ZM68.6628 121L65.1472 116.334L66.464 114.998L71.0087 121H68.6628ZM71.4821 121V111.182H73.3294V112.741H73.4316C73.6106 112.213 73.926 111.798 74.3777 111.495C74.8336 111.188 75.3493 111.035 75.9245 111.035C76.0439 111.035 76.1845 111.039 76.3464 111.048C76.5126 111.056 76.6426 111.067 76.7363 111.08V112.908C76.6596 112.886 76.5233 112.863 76.3272 112.837C76.1312 112.808 75.9352 112.793 75.7392 112.793C75.2875 112.793 74.8848 112.889 74.5311 113.08C74.1816 113.268 73.9047 113.53 73.7001 113.866C73.4956 114.199 73.3933 114.578 73.3933 115.004V121H71.4821ZM78.8972 124.682C78.6117 124.682 78.3517 124.658 78.1174 124.612C77.883 124.569 77.7083 124.522 77.5932 124.471L78.0535 122.905C78.4029 122.999 78.714 123.039 78.9867 123.026C79.2594 123.014 79.5002 122.911 79.709 122.719C79.9221 122.528 80.1096 122.215 80.2715 121.78L80.508 121.128L76.9157 111.182H78.9611L81.4476 118.801H81.5499L84.0364 111.182H86.0883L82.0421 122.31C81.8546 122.822 81.616 123.254 81.3262 123.608C81.0364 123.966 80.6912 124.234 80.2907 124.413C79.8901 124.592 79.4256 124.682 78.8972 124.682ZM91.4675 111.182V112.716H86.1046V111.182H91.4675ZM87.5428 108.83H89.454V118.117C89.454 118.488 89.5094 118.767 89.6202 118.955C89.731 119.138 89.8738 119.264 90.0485 119.332C90.2275 119.396 90.4214 119.428 90.6302 119.428C90.7836 119.428 90.9178 119.417 91.0329 119.396C91.1479 119.374 91.2374 119.357 91.3013 119.344L91.6465 120.923C91.5357 120.966 91.378 121.009 91.1735 121.051C90.9689 121.098 90.7133 121.124 90.4064 121.128C89.9036 121.136 89.4348 121.047 89.0002 120.859C88.5655 120.672 88.214 120.382 87.9455 119.99C87.677 119.598 87.5428 119.106 87.5428 118.514V108.83ZM93.7898 124.682C93.5043 124.682 93.2443 124.658 93.01 124.612C92.7756 124.569 92.6009 124.522 92.4858 124.471L92.946 122.905C93.2955 122.999 93.6065 123.039 93.8793 123.026C94.152 123.014 94.3928 122.911 94.6016 122.719C94.8146 122.528 95.0021 122.215 95.1641 121.78L95.4006 121.128L91.8082 111.182H93.8537L96.3402 118.801H96.4425L98.929 111.182H100.981L96.9347 122.31C96.7472 122.822 96.5085 123.254 96.2188 123.608C95.929 123.966 95.5838 124.234 95.1832 124.413C94.7827 124.592 94.3182 124.682 93.7898 124.682ZM95.5987 109.871L97.0945 106.925H99.108L97.1264 109.871H95.5987ZM105.579 121.198C104.628 121.198 103.81 120.983 103.124 120.553C102.442 120.118 101.918 119.519 101.552 118.756C101.185 117.994 101.002 117.12 101.002 116.136C101.002 115.139 101.189 114.259 101.564 113.496C101.939 112.729 102.468 112.13 103.15 111.7C103.832 111.269 104.635 111.054 105.559 111.054C106.305 111.054 106.97 111.192 107.554 111.469C108.138 111.742 108.608 112.126 108.966 112.62C109.329 113.114 109.544 113.692 109.612 114.352H107.752C107.65 113.892 107.415 113.496 107.049 113.163C106.687 112.831 106.201 112.665 105.591 112.665C105.059 112.665 104.592 112.805 104.192 113.087C103.795 113.364 103.486 113.76 103.265 114.276C103.043 114.787 102.932 115.392 102.932 116.091C102.932 116.807 103.041 117.425 103.258 117.945C103.476 118.465 103.783 118.867 104.179 119.153C104.579 119.438 105.05 119.581 105.591 119.581C105.954 119.581 106.282 119.515 106.576 119.383C106.874 119.246 107.123 119.053 107.324 118.801C107.528 118.55 107.671 118.247 107.752 117.893H109.612C109.544 118.528 109.337 119.095 108.992 119.594C108.647 120.092 108.184 120.484 107.605 120.77C107.03 121.055 106.354 121.198 105.579 121.198ZM112.567 115.17V121H110.656V107.909H112.542V112.78H112.663C112.893 112.251 113.245 111.832 113.718 111.521C114.191 111.21 114.809 111.054 115.571 111.054C116.245 111.054 116.833 111.192 117.336 111.469C117.843 111.746 118.235 112.16 118.512 112.71C118.793 113.255 118.934 113.937 118.934 114.755V121H117.022V114.985C117.022 114.265 116.837 113.707 116.466 113.31C116.096 112.91 115.58 112.71 114.919 112.71C114.468 112.71 114.063 112.805 113.705 112.997C113.351 113.189 113.072 113.47 112.868 113.841C112.667 114.207 112.567 114.651 112.567 115.17ZM124.248 124.682V111.182H126.114V112.773H126.274C126.385 112.569 126.545 112.332 126.753 112.064C126.962 111.795 127.252 111.561 127.623 111.361C127.993 111.156 128.484 111.054 129.093 111.054C129.885 111.054 130.593 111.254 131.215 111.655C131.837 112.055 132.325 112.633 132.679 113.387C133.037 114.141 133.216 115.049 133.216 116.11C133.216 117.171 133.039 118.081 132.685 118.84C132.332 119.594 131.846 120.175 131.228 120.585C130.61 120.989 129.905 121.192 129.112 121.192C128.515 121.192 128.028 121.092 127.648 120.891C127.273 120.691 126.979 120.457 126.766 120.188C126.553 119.92 126.389 119.681 126.274 119.472H126.159V124.682H124.248ZM126.121 116.091C126.121 116.781 126.221 117.386 126.421 117.906C126.621 118.426 126.911 118.833 127.29 119.127C127.67 119.417 128.134 119.562 128.684 119.562C129.255 119.562 129.732 119.411 130.116 119.108C130.499 118.801 130.789 118.386 130.985 117.862C131.185 117.337 131.285 116.747 131.285 116.091C131.285 115.443 131.187 114.862 130.991 114.346C130.8 113.83 130.51 113.423 130.122 113.125C129.738 112.827 129.259 112.678 128.684 112.678C128.13 112.678 127.661 112.82 127.278 113.106C126.898 113.391 126.611 113.79 126.415 114.301C126.219 114.813 126.121 115.409 126.121 116.091ZM138.493 121.198C137.572 121.198 136.769 120.987 136.083 120.565C135.397 120.143 134.864 119.553 134.485 118.795C134.106 118.036 133.916 117.15 133.916 116.136C133.916 115.117 134.106 114.227 134.485 113.464C134.864 112.701 135.397 112.109 136.083 111.687C136.769 111.265 137.572 111.054 138.493 111.054C139.413 111.054 140.216 111.265 140.903 111.687C141.589 112.109 142.121 112.701 142.501 113.464C142.88 114.227 143.069 115.117 143.069 116.136C143.069 117.15 142.88 118.036 142.501 118.795C142.121 119.553 141.589 120.143 140.903 120.565C140.216 120.987 139.413 121.198 138.493 121.198ZM138.499 119.594C139.096 119.594 139.59 119.436 139.982 119.121C140.374 118.805 140.664 118.386 140.851 117.862C141.043 117.337 141.139 116.76 141.139 116.129C141.139 115.503 141.043 114.928 140.851 114.403C140.664 113.875 140.374 113.451 139.982 113.131C139.59 112.812 139.096 112.652 138.499 112.652C137.898 112.652 137.4 112.812 137.003 113.131C136.611 113.451 136.319 113.875 136.128 114.403C135.94 114.928 135.846 115.503 135.846 116.129C135.846 116.76 135.94 117.337 136.128 117.862C136.319 118.386 136.611 118.805 137.003 119.121C137.4 119.436 137.898 119.594 138.499 119.594ZM144.203 124.682V111.182H146.069V112.773H146.229C146.34 112.569 146.5 112.332 146.708 112.064C146.917 111.795 147.207 111.561 147.578 111.361C147.949 111.156 148.439 111.054 149.048 111.054C149.841 111.054 150.548 111.254 151.17 111.655C151.792 112.055 152.28 112.633 152.634 113.387C152.992 114.141 153.171 115.049 153.171 116.11C153.171 117.171 152.994 118.081 152.64 118.84C152.287 119.594 151.801 120.175 151.183 120.585C150.565 120.989 149.86 121.192 149.067 121.192C148.471 121.192 147.983 121.092 147.603 120.891C147.228 120.691 146.934 120.457 146.721 120.188C146.508 119.92 146.344 119.681 146.229 119.472H146.114V124.682H144.203ZM146.076 116.091C146.076 116.781 146.176 117.386 146.376 117.906C146.576 118.426 146.866 118.833 147.245 119.127C147.625 119.417 148.089 119.562 148.639 119.562C149.21 119.562 149.687 119.411 150.071 119.108C150.454 118.801 150.744 118.386 150.94 117.862C151.14 117.337 151.24 116.747 151.24 116.091C151.24 115.443 151.142 114.862 150.946 114.346C150.755 113.83 150.465 113.423 150.077 113.125C149.694 112.827 149.214 112.678 148.639 112.678C148.085 112.678 147.616 112.82 147.233 113.106C146.853 113.391 146.566 113.79 146.37 114.301C146.174 114.813 146.076 115.409 146.076 116.091ZM156.223 107.909V121H154.312V107.909H156.223ZM160.652 121.217C160.03 121.217 159.467 121.102 158.964 120.872C158.461 120.638 158.063 120.299 157.769 119.856C157.479 119.413 157.334 118.869 157.334 118.226C157.334 117.672 157.441 117.216 157.654 116.858C157.867 116.5 158.155 116.217 158.517 116.008C158.879 115.799 159.284 115.641 159.731 115.535C160.179 115.428 160.635 115.347 161.099 115.292C161.687 115.224 162.165 115.168 162.531 115.126C162.898 115.079 163.164 115.004 163.33 114.902C163.496 114.8 163.579 114.634 163.579 114.403V114.359C163.579 113.8 163.422 113.368 163.106 113.061C162.795 112.754 162.331 112.601 161.713 112.601C161.069 112.601 160.562 112.744 160.192 113.029C159.825 113.31 159.572 113.624 159.431 113.969L157.635 113.56C157.848 112.963 158.159 112.482 158.568 112.115C158.981 111.744 159.457 111.476 159.993 111.31C160.53 111.139 161.095 111.054 161.687 111.054C162.079 111.054 162.495 111.101 162.934 111.195C163.377 111.284 163.79 111.45 164.174 111.693C164.562 111.936 164.879 112.283 165.126 112.735C165.373 113.183 165.497 113.764 165.497 114.48V121H163.631V119.658H163.554C163.43 119.905 163.245 120.148 162.998 120.386C162.751 120.625 162.433 120.823 162.045 120.981C161.658 121.139 161.193 121.217 160.652 121.217ZM161.067 119.683C161.596 119.683 162.047 119.579 162.422 119.37C162.802 119.161 163.089 118.889 163.285 118.552C163.486 118.211 163.586 117.847 163.586 117.459V116.193C163.518 116.261 163.385 116.325 163.189 116.385C162.998 116.44 162.778 116.489 162.531 116.532C162.284 116.57 162.043 116.607 161.809 116.641C161.574 116.67 161.378 116.696 161.221 116.717C160.85 116.764 160.511 116.843 160.204 116.954C159.902 117.065 159.659 117.224 159.476 117.433C159.297 117.638 159.207 117.911 159.207 118.251C159.207 118.724 159.382 119.082 159.731 119.325C160.081 119.564 160.526 119.683 161.067 119.683ZM171.626 111.182V112.716H166.263V111.182H171.626ZM167.701 108.83H169.612V118.117C169.612 118.488 169.668 118.767 169.778 118.955C169.889 119.138 170.032 119.264 170.207 119.332C170.386 119.396 170.58 119.428 170.788 119.428C170.942 119.428 171.076 119.417 171.191 119.396C171.306 119.374 171.396 119.357 171.46 119.344L171.805 120.923C171.694 120.966 171.536 121.009 171.332 121.051C171.127 121.098 170.871 121.124 170.565 121.128C170.062 121.136 169.593 121.047 169.158 120.859C168.724 120.672 168.372 120.382 168.104 119.99C167.835 119.598 167.701 119.106 167.701 118.514V108.83ZM174.709 117.67L174.696 115.337H175.028L178.94 111.182H181.229L176.767 115.912H176.466L174.709 117.67ZM172.951 121V107.909H174.862V121H172.951ZM179.151 121L175.635 116.334L176.952 114.998L181.497 121H179.151ZM185.702 121.198C184.781 121.198 183.978 120.987 183.292 120.565C182.606 120.143 182.073 119.553 181.694 118.795C181.315 118.036 181.125 117.15 181.125 116.136C181.125 115.117 181.315 114.227 181.694 113.464C182.073 112.701 182.606 112.109 183.292 111.687C183.978 111.265 184.781 111.054 185.702 111.054C186.622 111.054 187.425 111.265 188.112 111.687C188.798 112.109 189.33 112.701 189.71 113.464C190.089 114.227 190.278 115.117 190.278 116.136C190.278 117.15 190.089 118.036 189.71 118.795C189.33 119.553 188.798 120.143 188.112 120.565C187.425 120.987 186.622 121.198 185.702 121.198ZM185.708 119.594C186.305 119.594 186.799 119.436 187.191 119.121C187.583 118.805 187.873 118.386 188.06 117.862C188.252 117.337 188.348 116.76 188.348 116.129C188.348 115.503 188.252 114.928 188.06 114.403C187.873 113.875 187.583 113.451 187.191 113.131C186.799 112.812 186.305 112.652 185.708 112.652C185.107 112.652 184.609 112.812 184.212 113.131C183.82 113.451 183.528 113.875 183.337 114.403C183.149 114.928 183.055 115.503 183.055 116.129C183.055 116.76 183.149 117.337 183.337 117.862C183.528 118.386 183.82 118.805 184.212 119.121C184.609 119.436 185.107 119.594 185.708 119.594ZM199.477 111.182L195.917 121H193.871L190.304 111.182H192.356L194.843 118.737H194.945L197.425 111.182H199.477Z" fill="#4FBE79"/>
</svg>
