<svg width="257" height="149" viewBox="0 0 257 149" fill="none" xmlns="http://www.w3.org/2000/svg">
<path d="M10 0.5L247 0.5C252.247 0.5 256.5 4.7533 256.5 10V139C256.5 144.247 252.247 148.5 247 148.5H10C4.7533 148.5 0.5 144.247 0.5 139L0.5 10C0.500002 4.7533 4.7533 0.5 10 0.5Z" fill="white"/>
<path d="M10 0.5L247 0.5C252.247 0.5 256.5 4.7533 256.5 10V139C256.5 144.247 252.247 148.5 247 148.5H10C4.7533 148.5 0.5 144.247 0.5 139L0.5 10C0.500002 4.7533 4.7533 0.5 10 0.5Z" stroke="#E4E4E4"/>
<path d="M69.6797 38H66.0888V26.3636H69.8388C70.9676 26.3636 71.9335 26.5966 72.7365 27.0625C73.5395 27.5246 74.1551 28.1894 74.5831 29.0568C75.0111 29.9205 75.2252 30.9545 75.2252 32.1591C75.2252 33.3712 75.0092 34.4148 74.5774 35.2898C74.1456 36.161 73.5168 36.8314 72.6911 37.3011C71.8653 37.767 70.8615 38 69.6797 38ZM67.4979 36.75H69.5888C70.5509 36.75 71.3483 36.5644 71.9808 36.1932C72.6134 35.822 73.085 35.2936 73.3956 34.608C73.7062 33.9224 73.8615 33.1061 73.8615 32.1591C73.8615 31.2197 73.7081 30.411 73.4013 29.733C73.0945 29.0511 72.6361 28.5284 72.0263 28.1648C71.4164 27.7974 70.657 27.6136 69.7479 27.6136H67.4979V36.75ZM80.9524 38.1818C80.1645 38.1818 79.4733 37.9943 78.8786 37.6193C78.2877 37.2443 77.8255 36.7197 77.4922 36.0455C77.1627 35.3712 76.9979 34.5833 76.9979 33.6818C76.9979 32.7727 77.1627 31.9792 77.4922 31.3011C77.8255 30.6231 78.2877 30.0966 78.8786 29.7216C79.4733 29.3466 80.1645 29.1591 80.9524 29.1591C81.7403 29.1591 82.4297 29.3466 83.0206 29.7216C83.6153 30.0966 84.0774 30.6231 84.407 31.3011C84.7403 31.9792 84.907 32.7727 84.907 33.6818C84.907 34.5833 84.7403 35.3712 84.407 36.0455C84.0774 36.7197 83.6153 37.2443 83.0206 37.6193C82.4297 37.9943 81.7403 38.1818 80.9524 38.1818ZM80.9524 36.9773C81.5509 36.9773 82.0433 36.8239 82.4297 36.517C82.8161 36.2102 83.102 35.8068 83.2877 35.3068C83.4733 34.8068 83.5661 34.2652 83.5661 33.6818C83.5661 33.0985 83.4733 32.5549 83.2877 32.0511C83.102 31.5474 82.8161 31.1402 82.4297 30.8295C82.0433 30.5189 81.5509 30.3636 80.9524 30.3636C80.3539 30.3636 79.8615 30.5189 79.4752 30.8295C79.0888 31.1402 78.8028 31.5474 78.6172 32.0511C78.4316 32.5549 78.3388 33.0985 78.3388 33.6818C78.3388 34.2652 78.4316 34.8068 78.6172 35.3068C78.8028 35.8068 79.0888 36.2102 79.4752 36.517C79.8615 36.8239 80.3539 36.9773 80.9524 36.9773ZM93.1357 31.2273L91.9311 31.5682C91.8554 31.3674 91.7436 31.1724 91.5959 30.983C91.452 30.7898 91.255 30.6307 91.005 30.5057C90.755 30.3807 90.4349 30.3182 90.0448 30.3182C89.5107 30.3182 89.0656 30.4413 88.7095 30.6875C88.3573 30.9299 88.1811 31.2386 88.1811 31.6136C88.1811 31.947 88.3023 32.2102 88.5448 32.4034C88.7872 32.5966 89.166 32.7576 89.6811 32.8864L90.9766 33.2045C91.7569 33.3939 92.3383 33.6837 92.7209 34.0739C93.1035 34.4602 93.2948 34.9583 93.2948 35.5682C93.2948 36.0682 93.1508 36.5152 92.8629 36.9091C92.5788 37.303 92.1811 37.6136 91.6698 37.8409C91.1584 38.0682 90.5637 38.1818 89.8857 38.1818C88.9955 38.1818 88.2588 37.9886 87.6754 37.6023C87.0921 37.2159 86.7228 36.6515 86.5675 35.9091L87.8402 35.5909C87.9614 36.0606 88.1906 36.4129 88.5277 36.6477C88.8686 36.8826 89.3137 37 89.8629 37C90.4879 37 90.9841 36.8674 91.3516 36.6023C91.7228 36.3333 91.9084 36.0114 91.9084 35.6364C91.9084 35.3333 91.8023 35.0795 91.5902 34.875C91.3781 34.6667 91.0523 34.5114 90.6129 34.4091L89.1584 34.0682C88.3591 33.8788 87.772 33.5852 87.397 33.1875C87.0258 32.786 86.8402 32.2841 86.8402 31.6818C86.8402 31.1894 86.9785 30.7538 87.255 30.375C87.5353 29.9962 87.916 29.6989 88.397 29.483C88.8819 29.267 89.4311 29.1591 90.0448 29.1591C90.9084 29.1591 91.5864 29.3485 92.0788 29.7273C92.5751 30.1061 92.9273 30.6061 93.1357 31.2273ZM99.1087 29.2727V30.4091H94.5859V29.2727H99.1087ZM95.9041 27.1818H97.245V35.5C97.245 35.8788 97.3 36.1629 97.4098 36.3523C97.5234 36.5379 97.6674 36.6629 97.8416 36.7273C98.0197 36.7879 98.2072 36.8182 98.4041 36.8182C98.5519 36.8182 98.6731 36.8106 98.7678 36.7955C98.8625 36.7765 98.9382 36.7614 98.995 36.75L99.2678 37.9545C99.1769 37.9886 99.05 38.0227 98.8871 38.0568C98.7242 38.0947 98.5178 38.1136 98.2678 38.1136C97.889 38.1136 97.5178 38.0322 97.1541 37.8693C96.7943 37.7064 96.495 37.4583 96.2564 37.125C96.0216 36.7917 95.9041 36.3712 95.9041 35.8636V27.1818ZM106.626 34.4318V29.2727H107.967V38H106.626V36.5227H106.535C106.33 36.9659 106.012 37.3428 105.58 37.6534C105.148 37.9602 104.603 38.1136 103.944 38.1136C103.398 38.1136 102.914 37.9943 102.489 37.7557C102.065 37.5133 101.732 37.1496 101.489 36.6648C101.247 36.1761 101.126 35.5606 101.126 34.8182V29.2727H102.467V34.7273C102.467 35.3636 102.645 35.8712 103.001 36.25C103.361 36.6288 103.819 36.8182 104.376 36.8182C104.709 36.8182 105.048 36.733 105.393 36.5625C105.741 36.392 106.033 36.1307 106.268 35.7784C106.506 35.4261 106.626 34.9773 106.626 34.4318ZM110.423 41.2727V29.2727H111.718V30.6591H111.877C111.976 30.5076 112.112 30.3144 112.286 30.0795C112.464 29.8409 112.718 29.6288 113.048 29.4432C113.381 29.2538 113.832 29.1591 114.4 29.1591C115.135 29.1591 115.782 29.3428 116.343 29.7102C116.904 30.0777 117.341 30.5985 117.656 31.2727C117.97 31.947 118.127 32.7424 118.127 33.6591C118.127 34.5833 117.97 35.3845 117.656 36.0625C117.341 36.7367 116.906 37.2595 116.349 37.6307C115.792 37.9981 115.15 38.1818 114.423 38.1818C113.862 38.1818 113.413 38.089 113.076 37.9034C112.739 37.714 112.479 37.5 112.298 37.2614C112.116 37.0189 111.976 36.8182 111.877 36.6591H111.764V41.2727H110.423ZM111.741 33.6364C111.741 34.2955 111.837 34.8769 112.031 35.3807C112.224 35.8807 112.506 36.2727 112.877 36.5568C113.248 36.8371 113.703 36.9773 114.241 36.9773C114.801 36.9773 115.269 36.8295 115.644 36.5341C116.023 36.2349 116.307 35.8333 116.496 35.3295C116.69 34.822 116.786 34.2576 116.786 33.6364C116.786 33.0227 116.692 32.4697 116.502 31.9773C116.317 31.4811 116.034 31.089 115.656 30.8011C115.281 30.5095 114.809 30.3636 114.241 30.3636C113.695 30.3636 113.237 30.5019 112.866 30.7784C112.495 31.0511 112.214 31.4337 112.025 31.9261C111.835 32.4148 111.741 32.9849 111.741 33.6364ZM121.514 32.75V38H120.173V29.2727H121.468V30.6364H121.582C121.786 30.1932 122.097 29.8371 122.514 29.5682C122.93 29.2955 123.468 29.1591 124.127 29.1591C124.718 29.1591 125.235 29.2803 125.678 29.5227C126.121 29.7614 126.466 30.125 126.712 30.6136C126.959 31.0985 127.082 31.7121 127.082 32.4545V38H125.741V32.5455C125.741 31.8599 125.563 31.3258 125.207 30.9432C124.851 30.5568 124.362 30.3636 123.741 30.3636C123.313 30.3636 122.93 30.4564 122.593 30.642C122.26 30.8277 121.996 31.0985 121.803 31.4545C121.61 31.8106 121.514 32.2424 121.514 32.75ZM133.191 38.1818C132.35 38.1818 131.625 37.9962 131.015 37.625C130.409 37.25 129.941 36.7273 129.612 36.0568C129.286 35.3826 129.123 34.5985 129.123 33.7045C129.123 32.8106 129.286 32.0227 129.612 31.3409C129.941 30.6553 130.399 30.1212 130.987 29.7386C131.577 29.3523 132.267 29.1591 133.055 29.1591C133.509 29.1591 133.958 29.2349 134.401 29.3864C134.844 29.5379 135.248 29.7841 135.612 30.125C135.975 30.4621 136.265 30.9091 136.481 31.4659C136.697 32.0227 136.805 32.7083 136.805 33.5227V34.0909H130.077V32.9318H135.441C135.441 32.4394 135.343 32 135.146 31.6136C134.952 31.2273 134.676 30.9224 134.316 30.6989C133.96 30.4754 133.54 30.3636 133.055 30.3636C132.521 30.3636 132.058 30.4962 131.668 30.7614C131.282 31.0227 130.985 31.3636 130.776 31.7841C130.568 32.2045 130.464 32.6553 130.464 33.1364V33.9091C130.464 34.5682 130.577 35.1269 130.805 35.5852C131.036 36.0398 131.356 36.3864 131.765 36.625C132.174 36.8599 132.649 36.9773 133.191 36.9773C133.543 36.9773 133.862 36.928 134.146 36.8295C134.433 36.7273 134.682 36.5758 134.89 36.375C135.098 36.1705 135.259 35.9167 135.373 35.6136L136.668 35.9773C136.532 36.4167 136.303 36.803 135.981 37.1364C135.659 37.4659 135.261 37.7235 134.788 37.9091C134.314 38.0909 133.782 38.1818 133.191 38.1818ZM132.373 28.0909L133.759 25.4545H135.327L133.555 28.0909H132.373ZM143.344 38V29.2727H144.64V30.6364H144.754C144.935 30.1705 145.229 29.8087 145.634 29.5511C146.04 29.2898 146.526 29.1591 147.094 29.1591C147.67 29.1591 148.149 29.2898 148.532 29.5511C148.918 29.8087 149.219 30.1705 149.435 30.6364H149.526C149.75 30.1856 150.085 29.8277 150.532 29.5625C150.979 29.2936 151.515 29.1591 152.14 29.1591C152.92 29.1591 153.558 29.4034 154.055 29.892C154.551 30.3769 154.799 31.1326 154.799 32.1591V38H153.458V32.1591C153.458 31.5152 153.282 31.0549 152.93 30.7784C152.577 30.5019 152.163 30.3636 151.685 30.3636C151.072 30.3636 150.596 30.5492 150.259 30.9205C149.922 31.2879 149.754 31.7538 149.754 32.3182V38H148.39V32.0227C148.39 31.5265 148.229 31.1269 147.907 30.8239C147.585 30.517 147.17 30.3636 146.663 30.3636C146.314 30.3636 145.988 30.4564 145.685 30.642C145.386 30.8277 145.144 31.0852 144.958 31.4148C144.776 31.7405 144.685 32.1174 144.685 32.5455V38H143.344ZM157.251 38V29.2727H158.592V38H157.251ZM157.933 27.8182C157.671 27.8182 157.446 27.7292 157.256 27.5511C157.071 27.3731 156.978 27.1591 156.978 26.9091C156.978 26.6591 157.071 26.4451 157.256 26.267C157.446 26.089 157.671 26 157.933 26C158.194 26 158.417 26.089 158.603 26.267C158.792 26.4451 158.887 26.6591 158.887 26.9091C158.887 27.1591 158.792 27.3731 158.603 27.5511C158.417 27.7292 158.194 27.8182 157.933 27.8182ZM164.707 38.1818C163.866 38.1818 163.14 37.9962 162.531 37.625C161.924 37.25 161.457 36.7273 161.127 36.0568C160.801 35.3826 160.639 34.5985 160.639 33.7045C160.639 32.8106 160.801 32.0227 161.127 31.3409C161.457 30.6553 161.915 30.1212 162.502 29.7386C163.093 29.3523 163.782 29.1591 164.57 29.1591C165.025 29.1591 165.474 29.2349 165.917 29.3864C166.36 29.5379 166.764 29.7841 167.127 30.125C167.491 30.4621 167.781 30.9091 167.996 31.4659C168.212 32.0227 168.32 32.7083 168.32 33.5227V34.0909H161.593V32.9318H166.957C166.957 32.4394 166.858 32 166.661 31.6136C166.468 31.2273 166.192 30.9224 165.832 30.6989C165.476 30.4754 165.055 30.3636 164.57 30.3636C164.036 30.3636 163.574 30.4962 163.184 30.7614C162.798 31.0227 162.5 31.3636 162.292 31.7841C162.084 32.2045 161.979 32.6553 161.979 33.1364V33.9091C161.979 34.5682 162.093 35.1269 162.32 35.5852C162.551 36.0398 162.871 36.3864 163.281 36.625C163.69 36.8599 164.165 36.9773 164.707 36.9773C165.059 36.9773 165.377 36.928 165.661 36.8295C165.949 36.7273 166.197 36.5758 166.406 36.375C166.614 36.1705 166.775 35.9167 166.889 35.6136L168.184 35.9773C168.048 36.4167 167.818 36.803 167.496 37.1364C167.174 37.4659 166.777 37.7235 166.303 37.9091C165.83 38.0909 165.298 38.1818 164.707 38.1818ZM176.542 31.2273L175.337 31.5682C175.262 31.3674 175.15 31.1724 175.002 30.983C174.858 30.7898 174.661 30.6307 174.411 30.5057C174.161 30.3807 173.841 30.3182 173.451 30.3182C172.917 30.3182 172.472 30.4413 172.116 30.6875C171.764 30.9299 171.587 31.2386 171.587 31.6136C171.587 31.947 171.709 32.2102 171.951 32.4034C172.193 32.5966 172.572 32.7576 173.087 32.8864L174.383 33.2045C175.163 33.3939 175.745 33.6837 176.127 34.0739C176.51 34.4602 176.701 34.9583 176.701 35.5682C176.701 36.0682 176.557 36.5152 176.269 36.9091C175.985 37.303 175.587 37.6136 175.076 37.8409C174.565 38.0682 173.97 38.1818 173.292 38.1818C172.402 38.1818 171.665 37.9886 171.082 37.6023C170.498 37.2159 170.129 36.6515 169.974 35.9091L171.246 35.5909C171.368 36.0606 171.597 36.4129 171.934 36.6477C172.275 36.8826 172.72 37 173.269 37C173.894 37 174.39 36.8674 174.758 36.6023C175.129 36.3333 175.315 36.0114 175.315 35.6364C175.315 35.3333 175.209 35.0795 174.996 34.875C174.784 34.6667 174.459 34.5114 174.019 34.4091L172.565 34.0682C171.765 33.8788 171.178 33.5852 170.803 33.1875C170.432 32.786 170.246 32.2841 170.246 31.6818C170.246 31.1894 170.385 30.7538 170.661 30.375C170.942 29.9962 171.322 29.6989 171.803 29.483C172.288 29.267 172.837 29.1591 173.451 29.1591C174.315 29.1591 174.993 29.3485 175.485 29.7273C175.981 30.1061 176.334 30.6061 176.542 31.2273ZM182.515 29.2727V30.4091H177.992V29.2727H182.515ZM179.31 27.1818H180.651V35.5C180.651 35.8788 180.706 36.1629 180.816 36.3523C180.93 36.5379 181.074 36.6629 181.248 36.7273C181.426 36.7879 181.613 36.8182 181.81 36.8182C181.958 36.8182 182.079 36.8106 182.174 36.7955C182.269 36.7765 182.344 36.7614 182.401 36.75L182.674 37.9545C182.583 37.9886 182.456 38.0227 182.293 38.0568C182.13 38.0947 181.924 38.1136 181.674 38.1136C181.295 38.1136 180.924 38.0322 180.56 37.8693C180.201 37.7064 179.901 37.4583 179.663 37.125C179.428 36.7917 179.31 36.3712 179.31 35.8636V27.1818ZM187.1 38.2045C186.547 38.2045 186.045 38.1004 185.594 37.892C185.144 37.6799 184.786 37.375 184.521 36.9773C184.255 36.5758 184.123 36.0909 184.123 35.5227C184.123 35.0227 184.221 34.6174 184.418 34.3068C184.615 33.9924 184.879 33.7462 185.208 33.5682C185.538 33.3902 185.901 33.2576 186.299 33.1705C186.701 33.0795 187.104 33.0076 187.509 32.9545C188.04 32.8864 188.469 32.8352 188.799 32.8011C189.132 32.7633 189.375 32.7008 189.526 32.6136C189.682 32.5265 189.759 32.375 189.759 32.1591V32.1136C189.759 31.553 189.606 31.1174 189.299 30.8068C188.996 30.4962 188.536 30.3409 187.918 30.3409C187.278 30.3409 186.776 30.4811 186.413 30.7614C186.049 31.0417 185.793 31.3409 185.646 31.6591L184.373 31.2045C184.6 30.6742 184.903 30.2614 185.282 29.9659C185.665 29.6667 186.081 29.4583 186.532 29.3409C186.987 29.2197 187.433 29.1591 187.873 29.1591C188.153 29.1591 188.475 29.1932 188.839 29.2614C189.206 29.3258 189.56 29.4602 189.901 29.6648C190.246 29.8693 190.532 30.178 190.759 30.5909C190.987 31.0038 191.1 31.5568 191.1 32.25V38H189.759V36.8182H189.691C189.6 37.0076 189.449 37.2102 189.237 37.4261C189.024 37.642 188.742 37.8258 188.39 37.9773C188.038 38.1288 187.608 38.2045 187.1 38.2045ZM187.305 37C187.835 37 188.282 36.8958 188.646 36.6875C189.013 36.4792 189.29 36.2102 189.475 35.8807C189.665 35.5511 189.759 35.2045 189.759 34.8409V33.6136C189.702 33.6818 189.577 33.7443 189.384 33.8011C189.195 33.8542 188.975 33.9015 188.725 33.9432C188.479 33.9811 188.238 34.0152 188.004 34.0455C187.773 34.072 187.585 34.0947 187.441 34.1136C187.093 34.1591 186.767 34.233 186.464 34.3352C186.165 34.4337 185.922 34.5833 185.737 34.7841C185.555 34.9811 185.464 35.25 185.464 35.5909C185.464 36.0568 185.636 36.4091 185.981 36.6477C186.329 36.8826 186.771 37 187.305 37Z" fill="#242A36"/>
<path d="M22.1892 85V81.1222L31.2499 72.7326C32.0205 71.9869 32.6668 71.3157 33.1888 70.7191C33.7191 70.1225 34.121 69.5384 34.3944 68.9666C34.6679 68.3866 34.8046 67.761 34.8046 67.0899C34.8046 66.3441 34.6347 65.7019 34.295 65.1634C33.9553 64.6165 33.4913 64.198 32.903 63.908C32.3147 63.6097 31.6476 63.4606 30.9019 63.4606C30.123 63.4606 29.4436 63.618 28.8636 63.9329C28.2835 64.2478 27.8361 64.6993 27.5212 65.2877C27.2064 65.876 27.0489 66.5761 27.0489 67.3881H21.9406C21.9406 65.7227 22.3176 64.2768 23.0716 63.0504C23.8257 61.8241 24.8821 60.8754 26.241 60.2042C27.5999 59.533 29.166 59.1975 30.9392 59.1975C32.7621 59.1975 34.3489 59.5206 35.6995 60.1669C37.0584 60.8049 38.1149 61.6915 38.8689 62.8267C39.6229 63.9619 39.9999 65.2628 39.9999 66.7294C39.9999 67.6906 39.8093 68.6393 39.4282 69.5756C39.0553 70.512 38.3883 71.5519 37.4271 72.6953C36.4659 73.8305 35.1112 75.1935 33.3628 76.7845L29.6466 80.4261V80.6002H40.3355V85H22.1892ZM58.6719 70.1722V74.3732H41.1719V70.1722H58.6719ZM69.1438 85.348C67.2878 85.348 65.6347 85.029 64.1847 84.391C62.7429 83.7447 61.6036 82.8581 60.7667 81.7312C59.9381 80.596 59.5114 79.2868 59.4865 77.8036H64.9055C64.9387 78.4251 65.1417 78.972 65.5146 79.4443C65.8957 79.9083 66.4012 80.2687 67.0309 80.5256C67.6606 80.7824 68.3691 80.9109 69.1563 80.9109C69.9766 80.9109 70.7016 80.7659 71.3313 80.4759C71.9611 80.1859 72.4541 79.784 72.8104 79.2703C73.1667 78.7565 73.3448 78.1641 73.3448 77.4929C73.3448 76.8135 73.1542 76.2127 72.7731 75.6907C72.4002 75.1604 71.8616 74.7461 71.1573 74.4478C70.4613 74.1495 69.6327 74.0004 68.6715 74.0004H66.2976V70.0479H68.6715C69.4836 70.0479 70.2003 69.9071 70.8217 69.6254C71.4515 69.3436 71.9403 68.9542 72.2884 68.457C72.6364 67.9516 72.8104 67.3633 72.8104 66.6921C72.8104 66.0541 72.6571 65.4948 72.3505 65.0142C72.0522 64.5253 71.6296 64.1442 71.0827 63.8707C70.5442 63.5973 69.9144 63.4606 69.1935 63.4606C68.4644 63.4606 67.7974 63.5932 67.1925 63.8583C66.5876 64.1152 66.1029 64.4839 65.7383 64.9645C65.3737 65.4451 65.179 66.0085 65.1541 66.6548H59.9961C60.021 65.1882 60.4394 63.8956 61.2514 62.777C62.0635 61.6584 63.1572 60.7842 64.5327 60.1545C65.9164 59.5165 67.4783 59.1975 69.2184 59.1975C70.975 59.1975 72.5121 59.5165 73.8296 60.1545C75.147 60.7925 76.1703 61.6542 76.8995 62.7397C77.637 63.8169 78.0015 65.0266 77.9933 66.369C78.0015 67.7942 77.5582 68.9832 76.6634 69.9361C75.7768 70.889 74.6209 71.4939 73.1957 71.7507V71.9496C75.0683 72.1899 76.4935 72.8403 77.4712 73.9009C78.4573 74.9533 78.9462 76.2707 78.9379 77.8533C78.9462 79.3034 78.5277 80.5919 77.6825 81.7188C76.8457 82.8457 75.6898 83.7323 74.2149 84.3786C72.7399 85.0249 71.0496 85.348 69.1438 85.348ZM88.9567 85V65.9091H94.0029V69.2774H94.2266C94.6243 68.1587 95.2872 67.2763 96.2152 66.63C97.1432 65.9837 98.2536 65.6605 99.5462 65.6605C100.855 65.6605 101.97 65.9878 102.89 66.6424C103.809 67.2887 104.422 68.167 104.729 69.2774H104.928C105.317 68.1836 106.022 67.3094 107.041 66.6548C108.068 65.992 109.282 65.6605 110.683 65.6605C112.464 65.6605 113.91 66.2281 115.02 67.3633C116.139 68.4902 116.698 70.0894 116.698 72.1609V85H111.416V73.2049C111.416 72.1443 111.134 71.3488 110.571 70.8185C110.007 70.2882 109.303 70.0231 108.458 70.0231C107.497 70.0231 106.747 70.3297 106.208 70.9428C105.67 71.5477 105.4 72.3473 105.4 73.3416V85H100.267V73.093C100.267 72.1567 99.9978 71.411 99.4592 70.8558C98.9289 70.3007 98.2287 70.0231 97.3587 70.0231C96.7704 70.0231 96.2401 70.1722 95.7678 70.4705C95.3038 70.7605 94.935 71.1707 94.6616 71.701C94.3882 72.223 94.2514 72.8362 94.2514 73.5405V85H88.9567ZM128.581 85.3729C126.617 85.3729 124.927 84.9752 123.51 84.1797C122.101 83.376 121.016 82.2408 120.253 80.7742C119.491 79.2993 119.11 77.5551 119.11 75.5416C119.11 73.5778 119.491 71.8543 120.253 70.3711C121.016 68.8879 122.089 67.732 123.472 66.9034C124.865 66.0748 126.497 65.6605 128.37 65.6605C129.629 65.6605 130.801 65.8635 131.887 66.2695C132.981 66.6673 133.934 67.268 134.746 68.0717C135.566 68.8755 136.204 69.8864 136.66 71.1044C137.115 72.3142 137.343 73.7311 137.343 75.3551V76.8093H121.223V73.5281H132.359C132.359 72.7658 132.193 72.0904 131.862 71.5021C131.531 70.9138 131.071 70.454 130.482 70.1225C129.902 69.7828 129.227 69.6129 128.457 69.6129C127.653 69.6129 126.94 69.7994 126.319 70.1722C125.706 70.5368 125.225 71.0298 124.877 71.6513C124.529 72.2645 124.351 72.948 124.343 73.7021V76.8217C124.343 77.7663 124.517 78.5825 124.865 79.2703C125.221 79.958 125.722 80.4883 126.368 80.8612C127.015 81.234 127.781 81.4205 128.668 81.4205C129.256 81.4205 129.795 81.3376 130.284 81.1719C130.772 81.0062 131.191 80.7576 131.539 80.4261C131.887 80.0947 132.152 79.6887 132.334 79.2081L137.231 79.5313C136.983 80.7079 136.473 81.7353 135.703 82.6136C134.94 83.4837 133.954 84.1631 132.745 84.652C131.543 85.1326 130.155 85.3729 128.581 85.3729ZM155.683 71.353L150.835 71.6513C150.753 71.237 150.574 70.8641 150.301 70.5327C150.028 70.193 149.667 69.9237 149.22 69.7248C148.78 69.5176 148.254 69.4141 147.641 69.4141C146.821 69.4141 146.129 69.5881 145.566 69.9361C145.002 70.2758 144.72 70.7315 144.72 71.3033C144.72 71.759 144.903 72.1443 145.267 72.4592C145.632 72.774 146.257 73.0268 147.144 73.2173L150.599 73.9134C152.455 74.2945 153.839 74.9077 154.751 75.7529C155.662 76.598 156.118 77.7083 156.118 79.0838C156.118 80.335 155.749 81.4329 155.012 82.3775C154.282 83.3221 153.28 84.0596 152.004 84.5899C150.736 85.1119 149.274 85.3729 147.616 85.3729C145.089 85.3729 143.076 84.8467 141.576 83.7944C140.084 82.7338 139.21 81.292 138.953 79.4691L144.161 79.1957C144.318 79.9663 144.7 80.5546 145.305 80.9606C145.909 81.3583 146.684 81.5572 147.629 81.5572C148.557 81.5572 149.303 81.379 149.866 81.0227C150.438 80.6582 150.728 80.19 150.736 79.6183C150.728 79.1377 150.525 78.7441 150.127 78.4375C149.729 78.1226 149.116 77.8823 148.287 77.7166L144.981 77.0579C143.117 76.685 141.729 76.0387 140.818 75.119C139.914 74.1992 139.463 73.0268 139.463 71.6016C139.463 70.3752 139.794 69.3188 140.457 68.4322C141.128 67.5456 142.069 66.862 143.279 66.3814C144.497 65.9008 145.922 65.6605 147.554 65.6605C149.965 65.6605 151.863 66.1701 153.247 67.1893C154.639 68.2085 155.451 69.5964 155.683 71.353ZM163.896 85.3605C162.678 85.3605 161.592 85.1492 160.639 84.7266C159.686 84.2957 158.932 83.6618 158.377 82.8249C157.83 81.9798 157.557 80.9274 157.557 79.668C157.557 78.6074 157.752 77.7166 158.141 76.9957C158.531 76.2749 159.061 75.6948 159.732 75.2557C160.403 74.8165 161.165 74.4851 162.019 74.2614C162.881 74.0377 163.784 73.8802 164.728 73.7891C165.839 73.6731 166.734 73.5654 167.413 73.4659C168.093 73.3582 168.586 73.2008 168.892 72.9936C169.199 72.7865 169.352 72.4799 169.352 72.0739V71.9993C169.352 71.2121 169.103 70.6031 168.606 70.1722C168.117 69.7414 167.421 69.5259 166.518 69.5259C165.565 69.5259 164.807 69.7372 164.244 70.1598C163.68 70.5741 163.307 71.0961 163.125 71.7259L158.228 71.3281C158.477 70.1681 158.966 69.1655 159.695 68.3203C160.424 67.4669 161.364 66.8123 162.516 66.3565C163.676 65.8925 165.018 65.6605 166.543 65.6605C167.604 65.6605 168.619 65.7848 169.588 66.0334C170.566 66.282 171.432 66.6673 172.186 67.1893C172.948 67.7113 173.549 68.3825 173.988 69.2028C174.427 70.0148 174.647 70.9884 174.647 72.1236V85H169.625V82.3526H169.476C169.17 82.9492 168.76 83.4754 168.246 83.9311C167.732 84.3786 167.115 84.7307 166.394 84.9876C165.673 85.2362 164.84 85.3605 163.896 85.3605ZM165.412 81.7063C166.191 81.7063 166.879 81.553 167.475 81.2465C168.072 80.9316 168.54 80.509 168.88 79.9787C169.219 79.4484 169.389 78.8477 169.389 78.1765V76.1506C169.224 76.2583 168.996 76.3577 168.706 76.4489C168.424 76.5317 168.105 76.6105 167.749 76.685C167.392 76.7513 167.036 76.8135 166.68 76.8715C166.323 76.9212 166 76.9667 165.71 77.0082C165.089 77.0993 164.546 77.2443 164.082 77.4432C163.618 77.6421 163.258 77.9114 163.001 78.2511C162.744 78.5825 162.616 78.9968 162.616 79.494C162.616 80.2149 162.877 80.7659 163.399 81.147C163.929 81.5199 164.6 81.7063 165.412 81.7063ZM186.38 85.3729C184.425 85.3729 182.743 84.9586 181.334 84.13C179.934 83.2931 178.857 82.1331 178.103 80.6499C177.357 79.1667 176.984 77.4598 176.984 75.5291C176.984 73.5736 177.361 71.8584 178.115 70.3835C178.877 68.9003 179.959 67.7444 181.359 66.9158C182.759 66.079 184.425 65.6605 186.355 65.6605C188.021 65.6605 189.479 65.963 190.73 66.5678C191.982 67.1727 192.972 68.022 193.701 69.1158C194.43 70.2095 194.832 71.4939 194.907 72.9688H189.91C189.769 72.0159 189.396 71.2494 188.791 70.6694C188.195 70.0811 187.412 69.7869 186.442 69.7869C185.622 69.7869 184.905 70.0107 184.292 70.4581C183.687 70.8973 183.215 71.5394 182.875 72.3846C182.536 73.2298 182.366 74.2531 182.366 75.4546C182.366 76.6726 182.531 77.7083 182.863 78.5618C183.203 79.4153 183.679 80.0657 184.292 80.5131C184.905 80.9606 185.622 81.1843 186.442 81.1843C187.047 81.1843 187.59 81.06 188.071 80.8114C188.559 80.5629 188.961 80.2024 189.276 79.7301C189.599 79.2495 189.811 78.6737 189.91 78.0025H194.907C194.824 79.4608 194.426 80.7452 193.713 81.8555C193.009 82.9575 192.035 83.8193 190.793 84.4407C189.55 85.0622 188.079 85.3729 186.38 85.3729ZM183.87 57.9794L186.368 61.0121L188.866 57.9794H193.378V58.1534L188.332 63.6222H184.392L179.358 58.1534V57.9794H183.87ZM202.591 73.9631V85H197.297V65.9091H202.343V69.2774H202.566C202.989 68.167 203.697 67.2887 204.692 66.6424C205.686 65.9878 206.892 65.6605 208.309 65.6605C209.634 65.6605 210.79 65.9505 211.776 66.5305C212.762 67.1106 213.529 67.9392 214.076 69.0163C214.623 70.0852 214.896 71.3613 214.896 72.8445V85H209.601V73.7891C209.61 72.6207 209.311 71.7093 208.706 71.0547C208.101 70.3918 207.269 70.0604 206.208 70.0604C205.496 70.0604 204.866 70.2137 204.319 70.5203C203.78 70.8268 203.358 71.2743 203.051 71.8626C202.753 72.4426 202.6 73.1428 202.591 73.9631ZM226.769 85.3729C224.806 85.3729 223.115 84.9752 221.698 84.1797C220.29 83.376 219.204 82.2408 218.442 80.7742C217.68 79.2993 217.298 77.5551 217.298 75.5416C217.298 73.5778 217.68 71.8543 218.442 70.3711C219.204 68.8879 220.277 67.732 221.661 66.9034C223.053 66.0748 224.685 65.6605 226.558 65.6605C227.817 65.6605 228.99 65.8635 230.075 66.2695C231.169 66.6673 232.122 67.268 232.934 68.0717C233.754 68.8755 234.392 69.8864 234.848 71.1044C235.304 72.3142 235.532 73.7311 235.532 75.3551V76.8093H219.411V73.5281H230.548C230.548 72.7658 230.382 72.0904 230.051 71.5021C229.719 70.9138 229.259 70.454 228.671 70.1225C228.091 69.7828 227.416 69.6129 226.645 69.6129C225.841 69.6129 225.129 69.7994 224.507 70.1722C223.894 70.5368 223.413 71.0298 223.065 71.6513C222.717 72.2645 222.539 72.948 222.531 73.7021V76.8217C222.531 77.7663 222.705 78.5825 223.053 79.2703C223.409 79.958 223.911 80.4883 224.557 80.8612C225.203 81.234 225.97 81.4205 226.856 81.4205C227.445 81.4205 227.983 81.3376 228.472 81.1719C228.961 81.0062 229.379 80.7576 229.727 80.4261C230.075 80.0947 230.341 79.6887 230.523 79.2081L235.42 79.5313C235.171 80.7079 234.662 81.7353 233.891 82.6136C233.129 83.4837 232.143 84.1631 230.933 84.652C229.732 85.1326 228.344 85.3729 226.769 85.3729Z" fill="#242A36"/>
<path d="M49.1452 124.682V111.182H51.0116V112.773H51.1714C51.2822 112.569 51.442 112.332 51.6508 112.064C51.8596 111.795 52.1494 111.561 52.5202 111.361C52.8909 111.156 53.381 111.054 53.9903 111.054C54.7829 111.054 55.4903 111.254 56.1125 111.655C56.7346 112.055 57.2226 112.633 57.5763 113.387C57.9342 114.141 58.1132 115.049 58.1132 116.11C58.1132 117.171 57.9364 118.081 57.5827 118.84C57.229 119.594 56.7432 120.175 56.1253 120.585C55.5074 120.989 54.8021 121.192 54.0095 121.192C53.4129 121.192 52.925 121.092 52.5457 120.891C52.1707 120.691 51.8767 120.457 51.6636 120.188C51.4506 119.92 51.2865 119.681 51.1714 119.472H51.0564V124.682H49.1452ZM51.018 116.091C51.018 116.781 51.1182 117.386 51.3185 117.906C51.5187 118.426 51.8085 118.833 52.1878 119.127C52.567 119.417 53.0315 119.562 53.5812 119.562C54.1523 119.562 54.6295 119.411 55.0131 119.108C55.3966 118.801 55.6864 118.386 55.8824 117.862C56.0827 117.337 56.1828 116.747 56.1828 116.091C56.1828 115.443 56.0848 114.862 55.8888 114.346C55.697 113.83 55.4072 113.423 55.0194 113.125C54.6359 112.827 54.1565 112.678 53.5812 112.678C53.0273 112.678 52.5585 112.82 52.175 113.106C51.7957 113.391 51.5081 113.79 51.3121 114.301C51.116 114.813 51.018 115.409 51.018 116.091ZM59.2545 121V111.182H61.1018V112.741H61.2041C61.3831 112.213 61.6984 111.798 62.1501 111.495C62.6061 111.188 63.1217 111.035 63.697 111.035C63.8163 111.035 63.9569 111.039 64.1189 111.048C64.2851 111.056 64.415 111.067 64.5088 111.08V112.908C64.4321 112.886 64.2957 112.863 64.0997 112.837C63.9037 112.808 63.7077 112.793 63.5116 112.793C63.0599 112.793 62.6572 112.889 62.3035 113.08C61.9541 113.268 61.6771 113.53 61.4726 113.866C61.268 114.199 61.1658 114.578 61.1658 115.004V121H59.2545ZM69.0427 121.198C68.0754 121.198 67.2423 120.991 66.5434 120.578C65.8488 120.161 65.3119 119.575 64.9326 118.82C64.5576 118.062 64.3701 117.173 64.3701 116.155C64.3701 115.149 64.5576 114.263 64.9326 113.496C65.3119 112.729 65.8403 112.13 66.5179 111.7C67.1997 111.269 67.9965 111.054 68.9085 111.054C69.4625 111.054 69.9994 111.146 70.5193 111.329C71.0392 111.512 71.5058 111.8 71.9191 112.192C72.3325 112.584 72.6585 113.093 72.8971 113.719C73.1357 114.342 73.2551 115.098 73.2551 115.989V116.666H65.4504V115.234H71.3822C71.3822 114.732 71.2799 114.286 71.0754 113.898C70.8708 113.506 70.5832 113.197 70.2125 112.972C69.846 112.746 69.4156 112.633 68.9213 112.633C68.3843 112.633 67.9156 112.765 67.515 113.029C67.1187 113.289 66.8119 113.63 66.5946 114.052C66.3815 114.469 66.275 114.923 66.275 115.413V116.532C66.275 117.188 66.39 117.746 66.6201 118.207C66.8545 118.667 67.1805 119.018 67.5981 119.261C68.0157 119.5 68.5036 119.619 69.0619 119.619C69.4241 119.619 69.7544 119.568 70.0527 119.466C70.3509 119.359 70.6088 119.202 70.8261 118.993C71.0434 118.784 71.2096 118.526 71.3247 118.219L73.1336 118.545C72.9887 119.078 72.7288 119.545 72.3538 119.945C71.9831 120.342 71.5164 120.651 70.9539 120.872C70.3957 121.09 69.7586 121.198 69.0427 121.198ZM78.1393 121V111.182H79.9738V112.78H80.0953C80.2998 112.239 80.6343 111.817 81.0988 111.514C81.5633 111.207 82.1194 111.054 82.7671 111.054C83.4234 111.054 83.9731 111.207 84.4163 111.514C84.8637 111.821 85.194 112.243 85.4071 112.78H85.5093C85.7437 112.256 86.1166 111.838 86.6279 111.527C87.1393 111.212 87.7487 111.054 88.4561 111.054C89.3467 111.054 90.0733 111.333 90.6358 111.891C91.2025 112.45 91.4859 113.291 91.4859 114.416V121H89.5747V114.595C89.5747 113.93 89.3936 113.449 89.0313 113.151C88.6691 112.852 88.2366 112.703 87.7338 112.703C87.1116 112.703 86.6279 112.895 86.2828 113.278C85.9376 113.658 85.765 114.146 85.765 114.742V121H83.8602V114.474C83.8602 113.941 83.694 113.513 83.3616 113.189C83.0292 112.865 82.5967 112.703 82.064 112.703C81.7018 112.703 81.3673 112.799 81.0605 112.991C80.7579 113.178 80.5129 113.44 80.3254 113.777C80.1421 114.114 80.0505 114.504 80.0505 114.947V121H78.1393ZM95.9048 121.217C95.2826 121.217 94.7201 121.102 94.2173 120.872C93.7144 120.638 93.316 120.299 93.0219 119.856C92.7322 119.413 92.5873 118.869 92.5873 118.226C92.5873 117.672 92.6938 117.216 92.9069 116.858C93.1199 116.5 93.4076 116.217 93.7698 116.008C94.132 115.799 94.5369 115.641 94.9843 115.535C95.4317 115.428 95.8877 115.347 96.3522 115.292C96.9403 115.224 97.4175 115.168 97.784 115.126C98.1505 115.079 98.4168 115.004 98.583 114.902C98.7492 114.8 98.8323 114.634 98.8323 114.403V114.359C98.8323 113.8 98.6746 113.368 98.3593 113.061C98.0482 112.754 97.5837 112.601 96.9658 112.601C96.3224 112.601 95.8153 112.744 95.4445 113.029C95.078 113.31 94.8245 113.624 94.6839 113.969L92.8877 113.56C93.1008 112.963 93.4119 112.482 93.8209 112.115C94.2343 111.744 94.7094 111.476 95.2464 111.31C95.7833 111.139 96.3479 111.054 96.9403 111.054C97.3323 111.054 97.7478 111.101 98.1867 111.195C98.6299 111.284 99.0432 111.45 99.4268 111.693C99.8146 111.936 100.132 112.283 100.379 112.735C100.626 113.183 100.75 113.764 100.75 114.48V121H98.8834V119.658H98.8067C98.6832 119.905 98.4978 120.148 98.2506 120.386C98.0035 120.625 97.686 120.823 97.2982 120.981C96.9104 121.139 96.4459 121.217 95.9048 121.217ZM96.3202 119.683C96.8486 119.683 97.3003 119.579 97.6753 119.37C98.0546 119.161 98.3423 118.889 98.5383 118.552C98.7386 118.211 98.8387 117.847 98.8387 117.459V116.193C98.7705 116.261 98.6384 116.325 98.4424 116.385C98.2506 116.44 98.0312 116.489 97.784 116.532C97.5369 116.57 97.2961 116.607 97.0617 116.641C96.8273 116.67 96.6313 116.696 96.4736 116.717C96.1029 116.764 95.7641 116.843 95.4573 116.954C95.1548 117.065 94.9119 117.224 94.7286 117.433C94.5496 117.638 94.4601 117.911 94.4601 118.251C94.4601 118.724 94.6349 119.082 94.9843 119.325C95.3337 119.564 95.779 119.683 96.3202 119.683ZM104.207 107.909V121H102.296V107.909H104.207ZM106.986 124.682C106.701 124.682 106.441 124.658 106.206 124.612C105.972 124.569 105.797 124.522 105.682 124.471L106.142 122.905C106.492 122.999 106.803 123.039 107.076 123.026C107.348 123.014 107.589 122.911 107.798 122.719C108.011 122.528 108.198 122.215 108.36 121.78L108.597 121.128L105.005 111.182H107.05L109.536 118.801H109.639L112.125 111.182H114.177L110.131 122.31C109.943 122.822 109.705 123.254 109.415 123.608C109.125 123.966 108.78 124.234 108.38 124.413C107.979 124.592 107.514 124.682 106.986 124.682ZM108.795 109.871L110.291 106.925H112.304L110.323 109.871H108.795ZM118.775 121.198C117.825 121.198 117.006 120.983 116.32 120.553C115.639 120.118 115.114 119.519 114.748 118.756C114.381 117.994 114.198 117.12 114.198 116.136C114.198 115.139 114.386 114.259 114.761 113.496C115.136 112.729 115.664 112.13 116.346 111.7C117.028 111.269 117.831 111.054 118.756 111.054C119.502 111.054 120.166 111.192 120.75 111.469C121.334 111.742 121.805 112.126 122.163 112.62C122.525 113.114 122.74 113.692 122.808 114.352H120.948C120.846 113.892 120.612 113.496 120.245 113.163C119.883 112.831 119.397 112.665 118.788 112.665C118.255 112.665 117.788 112.805 117.388 113.087C116.992 113.364 116.683 113.76 116.461 114.276C116.239 114.787 116.129 115.392 116.129 116.091C116.129 116.807 116.237 117.425 116.455 117.945C116.672 118.465 116.979 118.867 117.375 119.153C117.776 119.438 118.247 119.581 118.788 119.581C119.15 119.581 119.478 119.515 119.772 119.383C120.07 119.246 120.32 119.053 120.52 118.801C120.725 118.55 120.867 118.247 120.948 117.893H122.808C122.74 118.528 122.533 119.095 122.188 119.594C121.843 120.092 121.381 120.484 120.801 120.77C120.226 121.055 119.551 121.198 118.775 121.198ZM125.763 115.17V121H123.852V107.909H125.738V112.78H125.859C126.089 112.251 126.441 111.832 126.914 111.521C127.387 111.21 128.005 111.054 128.768 111.054C129.441 111.054 130.029 111.192 130.532 111.469C131.039 111.746 131.431 112.16 131.708 112.71C131.989 113.255 132.13 113.937 132.13 114.755V121H130.219V114.985C130.219 114.265 130.033 113.707 129.663 113.31C129.292 112.91 128.776 112.71 128.116 112.71C127.664 112.71 127.259 112.805 126.901 112.997C126.548 113.189 126.268 113.47 126.064 113.841C125.864 114.207 125.763 114.651 125.763 115.17ZM145.843 111.182L142.283 121H140.237L136.671 111.182H138.722L141.209 118.737H141.311L143.791 111.182H145.843ZM147.847 124.682C147.562 124.682 147.302 124.658 147.068 124.612C146.833 124.569 146.658 124.522 146.543 124.471L147.004 122.905C147.353 122.999 147.664 123.039 147.937 123.026C148.21 123.014 148.45 122.911 148.659 122.719C148.872 122.528 149.06 122.215 149.222 121.78L149.458 121.128L145.866 111.182H147.911L150.398 118.801H150.5L152.987 111.182H155.038L150.992 122.31C150.805 122.822 150.566 123.254 150.276 123.608C149.987 123.966 149.641 124.234 149.241 124.413C148.84 124.592 148.376 124.682 147.847 124.682ZM149.656 109.871L151.152 106.925H153.166L151.184 109.871H149.656ZM155.835 121V111.182H157.682V112.741H157.784C157.963 112.213 158.279 111.798 158.73 111.495C159.186 111.188 159.702 111.035 160.277 111.035C160.396 111.035 160.537 111.039 160.699 111.048C160.865 111.056 160.995 111.067 161.089 111.08V112.908C161.012 112.886 160.876 112.863 160.68 112.837C160.484 112.808 160.288 112.793 160.092 112.793C159.64 112.793 159.237 112.889 158.884 113.08C158.534 113.268 158.257 113.53 158.053 113.866C157.848 114.199 157.746 114.578 157.746 115.004V121H155.835ZM165.527 121.198C164.606 121.198 163.803 120.987 163.117 120.565C162.431 120.143 161.898 119.553 161.519 118.795C161.14 118.036 160.95 117.15 160.95 116.136C160.95 115.117 161.14 114.227 161.519 113.464C161.898 112.701 162.431 112.109 163.117 111.687C163.803 111.265 164.606 111.054 165.527 111.054C166.447 111.054 167.251 111.265 167.937 111.687C168.623 112.109 169.155 112.701 169.535 113.464C169.914 114.227 170.104 115.117 170.104 116.136C170.104 117.15 169.914 118.036 169.535 118.795C169.155 119.553 168.623 120.143 167.937 120.565C167.251 120.987 166.447 121.198 165.527 121.198ZM165.533 119.594C166.13 119.594 166.624 119.436 167.016 119.121C167.408 118.805 167.698 118.386 167.886 117.862C168.077 117.337 168.173 116.76 168.173 116.129C168.173 115.503 168.077 114.928 167.886 114.403C167.698 113.875 167.408 113.451 167.016 113.131C166.624 112.812 166.13 112.652 165.533 112.652C164.932 112.652 164.434 112.812 164.038 113.131C163.646 113.451 163.354 113.875 163.162 114.403C162.974 114.928 162.881 115.503 162.881 116.129C162.881 116.76 162.974 117.337 163.162 117.862C163.354 118.386 163.646 118.805 164.038 119.121C164.434 119.436 164.932 119.594 165.533 119.594ZM171.39 121V107.909H173.302V112.773H173.417C173.527 112.569 173.687 112.332 173.896 112.064C174.105 111.795 174.395 111.561 174.765 111.361C175.136 111.156 175.626 111.054 176.236 111.054C177.028 111.054 177.736 111.254 178.358 111.655C178.98 112.055 179.468 112.633 179.821 113.387C180.179 114.141 180.358 115.049 180.358 116.11C180.358 117.171 180.182 118.081 179.828 118.84C179.474 119.594 178.988 120.175 178.37 120.585C177.753 120.989 177.047 121.192 176.255 121.192C175.658 121.192 175.17 121.092 174.791 120.891C174.416 120.691 174.122 120.457 173.909 120.188C173.696 119.92 173.532 119.681 173.417 119.472H173.257V121H171.39ZM173.263 116.091C173.263 116.781 173.363 117.386 173.564 117.906C173.764 118.426 174.054 118.833 174.433 119.127C174.812 119.417 175.277 119.562 175.826 119.562C176.397 119.562 176.875 119.411 177.258 119.108C177.642 118.801 177.932 118.386 178.128 117.862C178.328 117.337 178.428 116.747 178.428 116.091C178.428 115.443 178.33 114.862 178.134 114.346C177.942 113.83 177.652 113.423 177.265 113.125C176.881 112.827 176.402 112.678 175.826 112.678C175.272 112.678 174.804 112.82 174.42 113.106C174.041 113.391 173.753 113.79 173.557 114.301C173.361 114.813 173.263 115.409 173.263 116.091ZM185.64 121.198C184.69 121.198 183.872 120.983 183.186 120.553C182.504 120.118 181.98 119.519 181.613 118.756C181.247 117.994 181.063 117.12 181.063 116.136C181.063 115.139 181.251 114.259 181.626 113.496C182.001 112.729 182.529 112.13 183.211 111.7C183.893 111.269 184.696 111.054 185.621 111.054C186.367 111.054 187.032 111.192 187.615 111.469C188.199 111.742 188.67 112.126 189.028 112.62C189.39 113.114 189.605 113.692 189.674 114.352H187.813C187.711 113.892 187.477 113.496 187.11 113.163C186.748 112.831 186.262 112.665 185.653 112.665C185.12 112.665 184.654 112.805 184.253 113.087C183.857 113.364 183.548 113.76 183.326 114.276C183.105 114.787 182.994 115.392 182.994 116.091C182.994 116.807 183.103 117.425 183.32 117.945C183.537 118.465 183.844 118.867 184.24 119.153C184.641 119.438 185.112 119.581 185.653 119.581C186.015 119.581 186.343 119.515 186.637 119.383C186.936 119.246 187.185 119.053 187.385 118.801C187.59 118.55 187.733 118.247 187.813 117.893H189.674C189.605 118.528 189.399 119.095 189.054 119.594C188.708 120.092 188.246 120.484 187.666 120.77C187.091 121.055 186.416 121.198 185.64 121.198ZM194.853 121.198C193.933 121.198 193.129 120.987 192.443 120.565C191.757 120.143 191.225 119.553 190.845 118.795C190.466 118.036 190.276 117.15 190.276 116.136C190.276 115.117 190.466 114.227 190.845 113.464C191.225 112.701 191.757 112.109 192.443 111.687C193.129 111.265 193.933 111.054 194.853 111.054C195.774 111.054 196.577 111.265 197.263 111.687C197.949 112.109 198.482 112.701 198.861 113.464C199.24 114.227 199.43 115.117 199.43 116.136C199.43 117.15 199.24 118.036 198.861 118.795C198.482 119.553 197.949 120.143 197.263 120.565C196.577 120.987 195.774 121.198 194.853 121.198ZM194.859 119.594C195.456 119.594 195.95 119.436 196.342 119.121C196.734 118.805 197.024 118.386 197.212 117.862C197.404 117.337 197.499 116.76 197.499 116.129C197.499 115.503 197.404 114.928 197.212 114.403C197.024 113.875 196.734 113.451 196.342 113.131C195.95 112.812 195.456 112.652 194.859 112.652C194.259 112.652 193.76 112.812 193.364 113.131C192.972 113.451 192.68 113.875 192.488 114.403C192.301 114.928 192.207 115.503 192.207 116.129C192.207 116.76 192.301 117.337 192.488 117.862C192.68 118.386 192.972 118.805 193.364 119.121C193.76 119.436 194.259 119.594 194.859 119.594ZM208.628 111.182L205.068 121H203.022L199.456 111.182H201.508L203.994 118.737H204.096L206.576 111.182H208.628Z" fill="#4FBE79"/>
</svg>
