<svg width="14" height="11" viewBox="0 0 14 11" fill="none" xmlns="http://www.w3.org/2000/svg">
<path d="M7.52867 0.195155C7.77273 -0.0489184 8.15873 -0.063985 8.4206 0.149582L8.47133 0.195155L13.138 4.86181C13.1688 4.89261 13.1964 4.92641 13.2207 4.96275C13.2391 4.99008 13.2544 5.01882 13.2682 5.04802C13.282 5.07701 13.2945 5.10675 13.3041 5.13788C13.3075 5.14901 13.3097 5.16041 13.3125 5.17175C13.3254 5.22348 13.3333 5.27748 13.3333 5.33315C13.3333 5.38848 13.3252 5.44195 13.3125 5.49335C13.3097 5.50462 13.3074 5.51602 13.3041 5.52722C13.2947 5.55775 13.2829 5.58715 13.2695 5.61575C13.2555 5.64555 13.2393 5.67442 13.2207 5.70235C13.2123 5.71488 13.2032 5.72681 13.194 5.73875C13.1767 5.76128 13.1587 5.78388 13.138 5.80455L8.47133 10.4712C8.211 10.7314 7.789 10.7314 7.52867 10.4712C7.26833 10.2109 7.2684 9.78881 7.52867 9.52848L11.0573 5.99981H0.666667C0.298533 5.99981 8.66667e-05 5.70128 0 5.33315C0 4.96501 0.29848 4.66648 0.666667 4.66648H11.0573L7.52867 1.13787L7.48307 1.08708C7.26953 0.825262 7.28467 0.439242 7.52867 0.195155Z" fill="#242A36"/>
</svg>
