<svg width="271" height="143" viewBox="0 0 271 143" fill="none" xmlns="http://www.w3.org/2000/svg">
<path d="M10 0.5L261 0.5C266.247 0.5 270.5 4.7533 270.5 10V133C270.5 138.247 266.247 142.5 261 142.5H10C4.7533 142.5 0.5 138.247 0.5 133L0.5 10C0.500001 4.91739 4.49142 0.767338 9.51074 0.512695L10 0.5Z" fill="white"/>
<path d="M10 0.5L261 0.5C266.247 0.5 270.5 4.7533 270.5 10V133C270.5 138.247 266.247 142.5 261 142.5H10C4.7533 142.5 0.5 138.247 0.5 133L0.5 10C0.500001 4.91739 4.49142 0.767338 9.51074 0.512695L10 0.5Z" stroke="#E4E4E4"/>
<path d="M87.9411 26.3636V38H86.5774L80.2365 28.8636H80.1229V38H78.7138V26.3636H80.0774L86.4411 35.5227H86.5547V26.3636H87.9411ZM93.147 38.2045C92.594 38.2045 92.0921 38.1004 91.6413 37.892C91.1906 37.6799 90.8326 37.375 90.5675 36.9773C90.3023 36.5758 90.1698 36.0909 90.1698 35.5227C90.1698 35.0227 90.2682 34.6174 90.4652 34.3068C90.6622 33.9924 90.9254 33.7462 91.255 33.5682C91.5845 33.3902 91.9482 33.2576 92.3459 33.1705C92.7474 33.0795 93.1508 33.0076 93.5561 32.9545C94.0864 32.8864 94.5163 32.8352 94.8459 32.8011C95.1792 32.7633 95.4216 32.7008 95.5732 32.6136C95.7285 32.5265 95.8061 32.375 95.8061 32.1591V32.1136C95.8061 31.553 95.6527 31.1174 95.3459 30.8068C95.0429 30.4962 94.5826 30.3409 93.9652 30.3409C93.3251 30.3409 92.8232 30.4811 92.4595 30.7614C92.0959 31.0417 91.8402 31.3409 91.6925 31.6591L90.4198 31.2045C90.647 30.6742 90.9501 30.2614 91.3288 29.9659C91.7114 29.6667 92.1281 29.4583 92.5788 29.3409C93.0334 29.2197 93.4804 29.1591 93.9198 29.1591C94.2001 29.1591 94.522 29.1932 94.8857 29.2614C95.2531 29.3258 95.6073 29.4602 95.9482 29.6648C96.2929 29.8693 96.5788 30.178 96.8061 30.5909C97.0334 31.0038 97.147 31.5568 97.147 32.25V38H95.8061V36.8182H95.7379C95.647 37.0076 95.4955 37.2102 95.2834 37.4261C95.0713 37.642 94.7891 37.8258 94.4368 37.9773C94.0845 38.1288 93.6546 38.2045 93.147 38.2045ZM93.3516 37C93.8819 37 94.3288 36.8958 94.6925 36.6875C95.0599 36.4792 95.3364 36.2102 95.522 35.8807C95.7114 35.5511 95.8061 35.2045 95.8061 34.8409V33.6136C95.7493 33.6818 95.6243 33.7443 95.4311 33.8011C95.2417 33.8542 95.022 33.9015 94.772 33.9432C94.5258 33.9811 94.2853 34.0152 94.0504 34.0455C93.8194 34.072 93.6319 34.0947 93.4879 34.1136C93.1395 34.1591 92.8137 34.233 92.5107 34.3352C92.2114 34.4337 91.969 34.5833 91.7834 34.7841C91.6016 34.9811 91.5107 35.25 91.5107 35.5909C91.5107 36.0568 91.683 36.4091 92.0277 36.6477C92.3762 36.8826 92.8175 37 93.3516 37ZM93.397 28.0909L94.7834 25.4545H96.3516L94.5788 28.0909H93.397ZM99.5945 38V29.2727H100.89V30.5909H100.981C101.14 30.1591 101.428 29.8087 101.844 29.5398C102.261 29.2708 102.731 29.1364 103.254 29.1364C103.352 29.1364 103.475 29.1383 103.623 29.142C103.771 29.1458 103.882 29.1515 103.958 29.1591V30.5227C103.913 30.5114 103.808 30.4943 103.646 30.4716C103.487 30.4451 103.318 30.4318 103.14 30.4318C102.716 30.4318 102.337 30.5208 102.004 30.6989C101.674 30.8731 101.413 31.1155 101.219 31.4261C101.03 31.733 100.935 32.0833 100.935 32.4773V38H99.5945ZM108.116 38.2045C107.563 38.2045 107.061 38.1004 106.61 37.892C106.159 37.6799 105.801 37.375 105.536 36.9773C105.271 36.5758 105.139 36.0909 105.139 35.5227C105.139 35.0227 105.237 34.6174 105.434 34.3068C105.631 33.9924 105.894 33.7462 106.224 33.5682C106.553 33.3902 106.917 33.2576 107.315 33.1705C107.716 33.0795 108.12 33.0076 108.525 32.9545C109.055 32.8864 109.485 32.8352 109.815 32.8011C110.148 32.7633 110.39 32.7008 110.542 32.6136C110.697 32.5265 110.775 32.375 110.775 32.1591V32.1136C110.775 31.553 110.621 31.1174 110.315 30.8068C110.012 30.4962 109.551 30.3409 108.934 30.3409C108.294 30.3409 107.792 30.4811 107.428 30.7614C107.065 31.0417 106.809 31.3409 106.661 31.6591L105.389 31.2045C105.616 30.6742 105.919 30.2614 106.298 29.9659C106.68 29.6667 107.097 29.4583 107.548 29.3409C108.002 29.2197 108.449 29.1591 108.889 29.1591C109.169 29.1591 109.491 29.1932 109.854 29.2614C110.222 29.3258 110.576 29.4602 110.917 29.6648C111.262 29.8693 111.548 30.178 111.775 30.5909C112.002 31.0038 112.116 31.5568 112.116 32.25V38H110.775V36.8182H110.707C110.616 37.0076 110.464 37.2102 110.252 37.4261C110.04 37.642 109.758 37.8258 109.406 37.9773C109.053 38.1288 108.623 38.2045 108.116 38.2045ZM108.32 37C108.851 37 109.298 36.8958 109.661 36.6875C110.029 36.4792 110.305 36.2102 110.491 35.8807C110.68 35.5511 110.775 35.2045 110.775 34.8409V33.6136C110.718 33.6818 110.593 33.7443 110.4 33.8011C110.21 33.8542 109.991 33.9015 109.741 33.9432C109.495 33.9811 109.254 34.0152 109.019 34.0455C108.788 34.072 108.601 34.0947 108.457 34.1136C108.108 34.1591 107.782 34.233 107.479 34.3352C107.18 34.4337 106.938 34.5833 106.752 34.7841C106.57 34.9811 106.479 35.25 106.479 35.5909C106.479 36.0568 106.652 36.4091 106.996 36.6477C107.345 36.8826 107.786 37 108.32 37ZM120.745 31.2273L119.54 31.5682C119.465 31.3674 119.353 31.1724 119.205 30.983C119.061 30.7898 118.864 30.6307 118.614 30.5057C118.364 30.3807 118.044 30.3182 117.654 30.3182C117.12 30.3182 116.675 30.4413 116.319 30.6875C115.967 30.9299 115.79 31.2386 115.79 31.6136C115.79 31.947 115.912 32.2102 116.154 32.4034C116.397 32.5966 116.775 32.7576 117.29 32.8864L118.586 33.2045C119.366 33.3939 119.948 33.6837 120.33 34.0739C120.713 34.4602 120.904 34.9583 120.904 35.5682C120.904 36.0682 120.76 36.5152 120.472 36.9091C120.188 37.303 119.79 37.6136 119.279 37.8409C118.768 38.0682 118.173 38.1818 117.495 38.1818C116.605 38.1818 115.868 37.9886 115.285 37.6023C114.701 37.2159 114.332 36.6515 114.177 35.9091L115.45 35.5909C115.571 36.0606 115.8 36.4129 116.137 36.6477C116.478 36.8826 116.923 37 117.472 37C118.097 37 118.594 36.8674 118.961 36.6023C119.332 36.3333 119.518 36.0114 119.518 35.6364C119.518 35.3333 119.412 35.0795 119.2 34.875C118.987 34.6667 118.662 34.5114 118.222 34.4091L116.768 34.0682C115.969 33.8788 115.381 33.5852 115.006 33.1875C114.635 32.786 114.45 32.2841 114.45 31.6818C114.45 31.1894 114.588 30.7538 114.864 30.375C115.145 29.9962 115.525 29.6989 116.006 29.483C116.491 29.267 117.04 29.1591 117.654 29.1591C118.518 29.1591 119.196 29.3485 119.688 29.7273C120.184 30.1061 120.537 30.6061 120.745 31.2273ZM126.718 29.2727V30.4091H122.195V29.2727H126.718ZM123.514 27.1818H124.854V35.5C124.854 35.8788 124.909 36.1629 125.019 36.3523C125.133 36.5379 125.277 36.6629 125.451 36.7273C125.629 36.7879 125.817 36.8182 126.014 36.8182C126.161 36.8182 126.282 36.8106 126.377 36.7955C126.472 36.7765 126.548 36.7614 126.604 36.75L126.877 37.9545C126.786 37.9886 126.659 38.0227 126.496 38.0568C126.334 38.0947 126.127 38.1136 125.877 38.1136C125.498 38.1136 125.127 38.0322 124.764 37.8693C124.404 37.7064 124.104 37.4583 123.866 37.125C123.631 36.7917 123.514 36.3712 123.514 35.8636V27.1818ZM136.531 38.1818C135.803 38.1818 135.161 37.9981 134.604 37.6307C134.048 37.2595 133.612 36.7367 133.298 36.0625C132.983 35.3845 132.826 34.5833 132.826 33.6591C132.826 32.7424 132.983 31.947 133.298 31.2727C133.612 30.5985 134.049 30.0777 134.61 29.7102C135.171 29.3428 135.818 29.1591 136.553 29.1591C137.121 29.1591 137.57 29.2538 137.9 29.4432C138.233 29.6288 138.487 29.8409 138.661 30.0795C138.839 30.3144 138.978 30.5076 139.076 30.6591H139.19V26.3636H140.531V38H139.235V36.6591H139.076C138.978 36.8182 138.837 37.0189 138.656 37.2614C138.474 37.5 138.214 37.714 137.877 37.9034C137.54 38.089 137.091 38.1818 136.531 38.1818ZM136.712 36.9773C137.25 36.9773 137.705 36.8371 138.076 36.5568C138.447 36.2727 138.729 35.8807 138.923 35.3807C139.116 34.8769 139.212 34.2955 139.212 33.6364C139.212 32.9849 139.118 32.4148 138.928 31.9261C138.739 31.4337 138.459 31.0511 138.087 30.7784C137.716 30.5019 137.258 30.3636 136.712 30.3636C136.144 30.3636 135.671 30.5095 135.292 30.8011C134.917 31.089 134.635 31.4811 134.445 31.9773C134.26 32.4697 134.167 33.0227 134.167 33.6364C134.167 34.2576 134.262 34.822 134.451 35.3295C134.644 35.8333 134.928 36.2349 135.303 36.5341C135.682 36.8295 136.152 36.9773 136.712 36.9773ZM146.718 38.1818C145.93 38.1818 145.239 37.9943 144.644 37.6193C144.053 37.2443 143.591 36.7197 143.258 36.0455C142.928 35.3712 142.764 34.5833 142.764 33.6818C142.764 32.7727 142.928 31.9792 143.258 31.3011C143.591 30.6231 144.053 30.0966 144.644 29.7216C145.239 29.3466 145.93 29.1591 146.718 29.1591C147.506 29.1591 148.195 29.3466 148.786 29.7216C149.381 30.0966 149.843 30.6231 150.173 31.3011C150.506 31.9792 150.673 32.7727 150.673 33.6818C150.673 34.5833 150.506 35.3712 150.173 36.0455C149.843 36.7197 149.381 37.2443 148.786 37.6193C148.195 37.9943 147.506 38.1818 146.718 38.1818ZM146.718 36.9773C147.317 36.9773 147.809 36.8239 148.195 36.517C148.582 36.2102 148.868 35.8068 149.053 35.3068C149.239 34.8068 149.332 34.2652 149.332 33.6818C149.332 33.0985 149.239 32.5549 149.053 32.0511C148.868 31.5474 148.582 31.1402 148.195 30.8295C147.809 30.5189 147.317 30.3636 146.718 30.3636C146.12 30.3636 145.627 30.5189 145.241 30.8295C144.854 31.1402 144.568 31.5474 144.383 32.0511C144.197 32.5549 144.104 33.0985 144.104 33.6818C144.104 34.2652 144.197 34.8068 144.383 35.3068C144.568 35.8068 144.854 36.2102 145.241 36.517C145.627 36.8239 146.12 36.9773 146.718 36.9773ZM152.719 41.2727V29.2727H154.015V30.6591H154.174C154.273 30.5076 154.409 30.3144 154.583 30.0795C154.761 29.8409 155.015 29.6288 155.344 29.4432C155.678 29.2538 156.129 29.1591 156.697 29.1591C157.432 29.1591 158.079 29.3428 158.64 29.7102C159.201 30.0777 159.638 30.5985 159.952 31.2727C160.267 31.947 160.424 32.7424 160.424 33.6591C160.424 34.5833 160.267 35.3845 159.952 36.0625C159.638 36.7367 159.202 37.2595 158.646 37.6307C158.089 37.9981 157.447 38.1818 156.719 38.1818C156.159 38.1818 155.71 38.089 155.373 37.9034C155.036 37.714 154.776 37.5 154.594 37.2614C154.413 37.0189 154.273 36.8182 154.174 36.6591H154.06V41.2727H152.719ZM154.038 33.6364C154.038 34.2955 154.134 34.8769 154.327 35.3807C154.521 35.8807 154.803 36.2727 155.174 36.5568C155.545 36.8371 156 36.9773 156.538 36.9773C157.098 36.9773 157.566 36.8295 157.941 36.5341C158.32 36.2349 158.604 35.8333 158.793 35.3295C158.987 34.822 159.083 34.2576 159.083 33.6364C159.083 33.0227 158.988 32.4697 158.799 31.9773C158.613 31.4811 158.331 31.089 157.952 30.8011C157.577 30.5095 157.106 30.3636 156.538 30.3636C155.992 30.3636 155.534 30.5019 155.163 30.7784C154.791 31.0511 154.511 31.4337 154.322 31.9261C154.132 32.4148 154.038 32.9849 154.038 33.6364ZM163.021 41.2727C162.793 41.2727 162.591 41.2538 162.413 41.2159C162.235 41.1818 162.112 41.1477 162.043 41.1136L162.384 39.9318C162.71 40.0152 162.998 40.0455 163.248 40.0227C163.498 40 163.719 39.8883 163.913 39.6875C164.11 39.4905 164.29 39.1705 164.452 38.7273L164.702 38.0455L161.475 29.2727H162.93L165.339 36.2273H165.43L167.839 29.2727H169.293L165.589 39.2727C165.422 39.7235 165.216 40.0966 164.969 40.392C164.723 40.6913 164.437 40.9129 164.112 41.0568C163.79 41.2008 163.426 41.2727 163.021 41.2727ZM174.859 29.2727V30.4091H170.336V29.2727H174.859ZM171.654 27.1818H172.995V35.5C172.995 35.8788 173.05 36.1629 173.16 36.3523C173.273 36.5379 173.417 36.6629 173.592 36.7273C173.77 36.7879 173.957 36.8182 174.154 36.8182C174.302 36.8182 174.423 36.8106 174.518 36.7955C174.612 36.7765 174.688 36.7614 174.745 36.75L175.018 37.9545C174.927 37.9886 174.8 38.0227 174.637 38.0568C174.474 38.0947 174.268 38.1136 174.018 38.1136C173.639 38.1136 173.268 38.0322 172.904 37.8693C172.544 37.7064 172.245 37.4583 172.006 37.125C171.772 36.7917 171.654 36.3712 171.654 35.8636V27.1818ZM180.327 38.1818C179.54 38.1818 178.848 37.9943 178.254 37.6193C177.663 37.2443 177.201 36.7197 176.867 36.0455C176.538 35.3712 176.373 34.5833 176.373 33.6818C176.373 32.7727 176.538 31.9792 176.867 31.3011C177.201 30.6231 177.663 30.0966 178.254 29.7216C178.848 29.3466 179.54 29.1591 180.327 29.1591C181.115 29.1591 181.805 29.3466 182.396 29.7216C182.99 30.0966 183.452 30.6231 183.782 31.3011C184.115 31.9792 184.282 32.7727 184.282 33.6818C184.282 34.5833 184.115 35.3712 183.782 36.0455C183.452 36.7197 182.99 37.2443 182.396 37.6193C181.805 37.9943 181.115 38.1818 180.327 38.1818ZM180.327 36.9773C180.926 36.9773 181.418 36.8239 181.805 36.517C182.191 36.2102 182.477 35.8068 182.663 35.3068C182.848 34.8068 182.941 34.2652 182.941 33.6818C182.941 33.0985 182.848 32.5549 182.663 32.0511C182.477 31.5474 182.191 31.1402 181.805 30.8295C181.418 30.5189 180.926 30.3636 180.327 30.3636C179.729 30.3636 179.237 30.5189 178.85 30.8295C178.464 31.1402 178.178 31.5474 177.992 32.0511C177.807 32.5549 177.714 33.0985 177.714 33.6818C177.714 34.2652 177.807 34.8068 177.992 35.3068C178.178 35.8068 178.464 36.2102 178.85 36.517C179.237 36.8239 179.729 36.9773 180.327 36.9773ZM193.153 29.2727L189.925 38H188.562L185.335 29.2727H186.789L189.198 36.2273H189.289L191.698 29.2727H193.153Z" fill="#242A36"/>
<path d="M96.5965 81.1222V63.5227H101.046V81.1222H96.5965ZM90.0216 74.5472V70.0977H107.621V74.5472H90.0216ZM111.394 80.5256V76.2873L122.021 59.5455H125.675V65.4119H123.512L116.813 76.0139V76.2127H131.914V80.5256H111.394ZM123.611 85V79.233L123.711 77.3562V59.5455H128.757V85H123.611ZM143.797 85.348C142.04 85.348 140.474 85.0249 139.098 84.3786C137.731 83.7323 136.646 82.8415 135.842 81.7063C135.038 80.5712 134.62 79.2703 134.587 77.8036H139.807C139.865 78.7897 140.279 79.5893 141.05 80.2024C141.82 80.8156 142.736 81.1222 143.797 81.1222C144.642 81.1222 145.388 80.9357 146.034 80.5629C146.688 80.1817 147.198 79.6556 147.563 78.9844C147.935 78.3049 148.122 77.5261 148.122 76.6477C148.122 75.7529 147.931 74.9657 147.55 74.2862C147.177 73.6068 146.659 73.0765 145.997 72.6953C145.334 72.3142 144.576 72.1194 143.722 72.1112C142.976 72.1112 142.251 72.2645 141.547 72.571C140.851 72.8776 140.308 73.2961 139.919 73.8264L135.134 72.9688L136.339 59.5455H151.9V63.9453H140.776L140.118 70.3214H140.267C140.714 69.6917 141.39 69.1696 142.293 68.7553C143.196 68.341 144.207 68.1339 145.325 68.1339C146.858 68.1339 148.225 68.4943 149.427 69.2152C150.628 69.9361 151.577 70.9263 152.273 72.1857C152.969 73.4369 153.313 74.8787 153.305 76.511C153.313 78.2262 152.915 79.7508 152.112 81.0849C151.316 82.4106 150.202 83.4547 148.768 84.217C147.343 84.971 145.686 85.348 143.797 85.348ZM169.991 80.2273V78.885C169.991 77.8658 170.207 76.9295 170.638 76.076C171.077 75.2143 171.711 74.5265 172.539 74.0128C173.376 73.4908 174.395 73.2298 175.597 73.2298C176.815 73.2298 177.838 73.4866 178.667 74.0004C179.504 74.5141 180.133 75.2018 180.556 76.0636C180.987 76.917 181.202 77.8575 181.202 78.885V80.2273C181.202 81.2465 180.987 82.1869 180.556 83.0487C180.125 83.9021 179.491 84.5857 178.654 85.0994C177.817 85.6215 176.798 85.8825 175.597 85.8825C174.379 85.8825 173.355 85.6215 172.527 85.0994C171.698 84.5857 171.068 83.9021 170.638 83.0487C170.207 82.1869 169.991 81.2465 169.991 80.2273ZM173.608 78.885V80.2273C173.608 80.8156 173.749 81.3707 174.031 81.8928C174.321 82.4148 174.843 82.6758 175.597 82.6758C176.351 82.6758 176.864 82.4189 177.138 81.9052C177.42 81.3915 177.56 80.8322 177.56 80.2273V78.885C177.56 78.2801 177.428 77.7166 177.163 77.1946C176.898 76.6726 176.376 76.4116 175.597 76.4116C174.851 76.4116 174.333 76.6726 174.043 77.1946C173.753 77.7166 173.608 78.2801 173.608 78.885ZM156.928 65.6605V64.3182C156.928 63.2907 157.148 62.3503 157.587 61.4968C158.026 60.6351 158.66 59.9473 159.489 59.4336C160.326 58.9199 161.337 58.663 162.521 58.663C163.748 58.663 164.775 58.9199 165.604 59.4336C166.432 59.9473 167.062 60.6351 167.493 61.4968C167.924 62.3503 168.139 63.2907 168.139 64.3182V65.6605C168.139 66.688 167.92 67.6284 167.481 68.4819C167.05 69.3354 166.416 70.0189 165.579 70.5327C164.75 71.0381 163.731 71.2908 162.521 71.2908C161.312 71.2908 160.288 71.034 159.451 70.5203C158.623 69.9982 157.993 69.3146 157.562 68.4695C157.14 67.616 156.928 66.6797 156.928 65.6605ZM160.57 64.3182V65.6605C160.57 66.2654 160.711 66.8247 160.993 67.3384C161.283 67.8522 161.792 68.109 162.521 68.109C163.284 68.109 163.802 67.8522 164.075 67.3384C164.357 66.8247 164.498 66.2654 164.498 65.6605V64.3182C164.498 63.7133 164.365 63.1499 164.1 62.6278C163.835 62.1058 163.309 61.8448 162.521 61.8448C161.784 61.8448 161.274 62.11 160.993 62.6403C160.711 63.1706 160.57 63.7299 160.57 64.3182ZM158.569 85L176.069 59.5455H179.325L161.825 85H158.569Z" fill="#242A36"/>
<path d="M21.6333 123.539V106.895H24.4389V108.897H24.6044C24.7515 108.602 24.9591 108.29 25.227 107.959C25.495 107.622 25.8575 107.336 26.3146 107.1C26.7717 106.858 27.3549 106.737 28.0642 106.737C28.9994 106.737 29.8427 106.976 30.594 107.454C31.3506 107.927 31.9496 108.629 32.3909 109.559C32.8375 110.483 33.0608 111.618 33.0608 112.963C33.0608 114.292 32.8427 115.422 32.4067 116.352C31.9706 117.282 31.3769 117.991 30.6255 118.48C29.8742 118.968 29.0231 119.213 28.0721 119.213C27.3786 119.213 26.8032 119.097 26.3461 118.866C25.889 118.635 25.5213 118.356 25.2428 118.031C24.9696 117.7 24.7568 117.387 24.6044 117.093H24.4862V123.539H21.6333ZM24.4311 112.947C24.4311 113.73 24.5414 114.416 24.7621 115.004C24.988 115.593 25.3111 116.053 25.7314 116.384C26.157 116.709 26.6719 116.872 27.2761 116.872C27.9066 116.872 28.4346 116.704 28.8602 116.368C29.2858 116.026 29.6063 115.561 29.8217 114.973C30.0423 114.379 30.1527 113.704 30.1527 112.947C30.1527 112.196 30.045 111.529 29.8296 110.946C29.6141 110.362 29.2936 109.905 28.8681 109.574C28.4425 109.243 27.9118 109.078 27.2761 109.078C26.6666 109.078 26.1491 109.238 25.7235 109.559C25.298 109.879 24.9748 110.328 24.7542 110.906C24.5388 111.484 24.4311 112.165 24.4311 112.947ZM34.2934 119V106.895H37.0596V108.912H37.1857C37.4064 108.214 37.7847 107.675 38.3206 107.297C38.8617 106.913 39.4791 106.721 40.1726 106.721C40.3302 106.721 40.5063 106.729 40.7007 106.745C40.9003 106.756 41.0658 106.774 41.1972 106.8V109.425C41.0763 109.383 40.8845 109.346 40.6218 109.314C40.3644 109.277 40.1148 109.259 39.8731 109.259C39.353 109.259 38.8854 109.372 38.4703 109.598C38.0605 109.819 37.7374 110.126 37.501 110.52C37.2645 110.914 37.1463 111.369 37.1463 111.883V119H34.2934ZM41.882 119V106.895H44.735V119H41.882ZM43.3164 105.177C42.8645 105.177 42.4757 105.027 42.15 104.727C41.8242 104.423 41.6614 104.058 41.6614 103.632C41.6614 103.201 41.8242 102.836 42.15 102.537C42.4757 102.232 42.8645 102.079 43.3164 102.079C43.7735 102.079 44.1623 102.232 44.4828 102.537C44.8085 102.836 44.9714 103.201 44.9714 103.632C44.9714 104.058 44.8085 104.423 44.4828 104.727C44.1623 105.027 43.7735 105.177 43.3164 105.177ZM51.8172 119.236C50.6036 119.236 49.5554 118.984 48.6727 118.48C47.7953 117.97 47.1201 117.25 46.6473 116.32C46.1744 115.385 45.938 114.285 45.938 113.018C45.938 111.773 46.1744 110.68 46.6473 109.74C47.1254 108.794 47.7927 108.059 48.6491 107.533C49.5055 107.002 50.5116 106.737 51.6675 106.737C52.4136 106.737 53.1176 106.858 53.7796 107.1C54.4469 107.336 55.0353 107.704 55.545 108.203C56.0599 108.702 56.4644 109.338 56.7587 110.11C57.0529 110.877 57.2 111.792 57.2 112.853V113.728H47.2778V111.805H54.4653C54.46 111.258 54.3418 110.772 54.1106 110.347C53.8794 109.916 53.5563 109.577 53.1413 109.33C52.7314 109.083 52.2533 108.96 51.7069 108.96C51.1237 108.96 50.6114 109.101 50.1701 109.385C49.7288 109.664 49.3846 110.031 49.1377 110.489C48.896 110.94 48.7725 111.437 48.7673 111.978V113.657C48.7673 114.361 48.896 114.965 49.1535 115.469C49.4109 115.968 49.7708 116.352 50.2332 116.62C50.6955 116.883 51.2367 117.014 51.8566 117.014C52.2717 117.014 52.6474 116.956 52.9836 116.841C53.3199 116.72 53.6115 116.544 53.8584 116.313C54.1054 116.081 54.2919 115.795 54.418 115.454L57.0818 115.753C56.9136 116.457 56.5932 117.072 56.1203 117.597C55.6527 118.117 55.0537 118.522 54.3234 118.811C53.5931 119.095 52.7577 119.236 51.8172 119.236ZM58.403 119V106.895H61.1299V108.952H61.2717C61.5239 108.258 61.9416 107.717 62.5248 107.328C63.108 106.934 63.8042 106.737 64.6133 106.737C65.4329 106.737 66.1238 106.937 66.686 107.336C67.2534 107.73 67.6527 108.269 67.8839 108.952H68.01C68.278 108.279 68.7298 107.743 69.3655 107.344C70.0065 106.939 70.7657 106.737 71.6432 106.737C72.757 106.737 73.666 107.089 74.37 107.793C75.074 108.497 75.4261 109.524 75.4261 110.875V119H72.5652V111.316C72.5652 110.565 72.3656 110.016 71.9663 109.669C71.567 109.317 71.0784 109.141 70.5004 109.141C69.8121 109.141 69.2736 109.356 68.8848 109.787C68.5013 110.213 68.3095 110.767 68.3095 111.45V119H65.5117V111.198C65.5117 110.573 65.3226 110.073 64.9443 109.7C64.5712 109.327 64.0826 109.141 63.4784 109.141C63.0686 109.141 62.6956 109.246 62.3593 109.456C62.023 109.661 61.7551 109.953 61.5554 110.331C61.3558 110.704 61.256 111.14 61.256 111.639V119H58.403ZM82.4689 119.236C81.2553 119.236 80.2071 118.984 79.3244 118.48C78.447 117.97 77.7718 117.25 77.299 116.32C76.8261 115.385 76.5897 114.285 76.5897 113.018C76.5897 111.773 76.8261 110.68 77.299 109.74C77.7771 108.794 78.4444 108.059 79.3008 107.533C80.1572 107.002 81.1633 106.737 82.3192 106.737C83.0653 106.737 83.7693 106.858 84.4313 107.1C85.0986 107.336 85.687 107.704 86.1967 108.203C86.7116 108.702 87.1161 109.338 87.4103 110.11C87.7046 110.877 87.8517 111.792 87.8517 112.853V113.728H77.9295V111.805H85.117C85.1117 111.258 84.9935 110.772 84.7623 110.347C84.5311 109.916 84.208 109.577 83.793 109.33C83.3831 109.083 82.905 108.96 82.3586 108.96C81.7754 108.96 81.2631 109.101 80.8218 109.385C80.3805 109.664 80.0363 110.031 79.7894 110.489C79.5477 110.94 79.4242 111.437 79.419 111.978V113.657C79.419 114.361 79.5477 114.965 79.8052 115.469C80.0626 115.968 80.4225 116.352 80.8849 116.62C81.3472 116.883 81.8884 117.014 82.5083 117.014C82.9234 117.014 83.2991 116.956 83.6353 116.841C83.9716 116.72 84.2632 116.544 84.5101 116.313C84.7571 116.081 84.9436 115.795 85.0697 115.454L87.7335 115.753C87.5653 116.457 87.2448 117.072 86.772 117.597C86.3044 118.117 85.7054 118.522 84.9751 118.811C84.2448 119.095 83.4094 119.236 82.4689 119.236ZM89.0547 119V106.895H91.821V108.912H91.9471C92.1677 108.214 92.546 107.675 93.0819 107.297C93.6231 106.913 94.2404 106.721 94.934 106.721C95.0916 106.721 95.2676 106.729 95.462 106.745C95.6617 106.756 95.8272 106.774 95.9585 106.8V109.425C95.8377 109.383 95.6459 109.346 95.3832 109.314C95.1257 109.277 94.8762 109.259 94.6345 109.259C94.1143 109.259 93.6467 109.372 93.2317 109.598C92.8219 109.819 92.4987 110.126 92.2623 110.52C92.0259 110.914 91.9077 111.369 91.9077 111.883V119H89.0547ZM99.4963 111.907V119H96.6434V106.895H99.3702V108.952H99.5121C99.7905 108.274 100.234 107.735 100.844 107.336C101.459 106.937 102.218 106.737 103.122 106.737C103.957 106.737 104.685 106.916 105.305 107.273C105.93 107.63 106.413 108.148 106.755 108.826C107.102 109.503 107.272 110.326 107.267 111.292V119H104.414V111.734C104.414 110.925 104.204 110.291 103.784 109.834C103.369 109.377 102.793 109.149 102.058 109.149C101.559 109.149 101.115 109.259 100.726 109.48C100.342 109.695 100.04 110.008 99.8194 110.418C99.604 110.827 99.4963 111.324 99.4963 111.907ZM114.316 119.236C113.102 119.236 112.054 118.984 111.171 118.48C110.294 117.97 109.619 117.25 109.146 116.32C108.673 115.385 108.437 114.285 108.437 113.018C108.437 111.773 108.673 110.68 109.146 109.74C109.624 108.794 110.291 108.059 111.148 107.533C112.004 107.002 113.01 106.737 114.166 106.737C114.912 106.737 115.616 106.858 116.278 107.1C116.945 107.336 117.534 107.704 118.044 108.203C118.558 108.702 118.963 109.338 119.257 110.11C119.551 110.877 119.699 111.792 119.699 112.853V113.728H109.776V111.805H116.964C116.959 111.258 116.84 110.772 116.609 110.347C116.378 109.916 116.055 109.577 115.64 109.33C115.23 109.083 114.752 108.96 114.205 108.96C113.622 108.96 113.11 109.101 112.669 109.385C112.227 109.664 111.883 110.031 111.636 110.489C111.395 110.94 111.271 111.437 111.266 111.978V113.657C111.266 114.361 111.395 114.965 111.652 115.469C111.909 115.968 112.269 116.352 112.732 116.62C113.194 116.883 113.735 117.014 114.355 117.014C114.77 117.014 115.146 116.956 115.482 116.841C115.818 116.72 116.11 116.544 116.357 116.313C116.604 116.081 116.79 115.795 116.917 115.454L119.58 115.753C119.412 116.457 119.092 117.072 118.619 117.597C118.151 118.117 117.552 118.522 116.822 118.811C116.092 119.095 115.256 119.236 114.316 119.236ZM125.038 119V117.187L131.28 109.362V109.259H125.243V106.895H134.771V108.841L128.829 116.533V116.636H134.976V119H125.038ZM139.931 119.244C139.164 119.244 138.473 119.108 137.858 118.835C137.249 118.556 136.765 118.146 136.408 117.605C136.056 117.064 135.88 116.397 135.88 115.603C135.88 114.92 136.006 114.355 136.258 113.909C136.51 113.462 136.854 113.105 137.291 112.837C137.727 112.569 138.218 112.367 138.764 112.23C139.316 112.088 139.886 111.986 140.475 111.923C141.184 111.849 141.759 111.784 142.2 111.726C142.642 111.663 142.962 111.568 143.162 111.442C143.367 111.311 143.469 111.108 143.469 110.835V110.788C143.469 110.194 143.293 109.735 142.941 109.409C142.589 109.083 142.082 108.92 141.42 108.92C140.721 108.92 140.167 109.073 139.757 109.377C139.353 109.682 139.08 110.042 138.938 110.457L136.274 110.079C136.484 109.343 136.831 108.728 137.314 108.235C137.798 107.735 138.389 107.362 139.087 107.115C139.786 106.863 140.559 106.737 141.404 106.737C141.988 106.737 142.568 106.805 143.146 106.942C143.724 107.079 144.252 107.305 144.73 107.62C145.208 107.93 145.592 108.353 145.881 108.889C146.175 109.425 146.322 110.094 146.322 110.898V119H143.58V117.337H143.485C143.312 117.673 143.067 117.989 142.752 118.283C142.442 118.572 142.051 118.806 141.578 118.984C141.11 119.158 140.561 119.244 139.931 119.244ZM140.672 117.148C141.244 117.148 141.741 117.035 142.161 116.809C142.581 116.578 142.905 116.273 143.13 115.895C143.362 115.517 143.477 115.104 143.477 114.658V113.231C143.388 113.305 143.236 113.373 143.02 113.436C142.81 113.499 142.573 113.554 142.311 113.602C142.048 113.649 141.788 113.691 141.531 113.728C141.273 113.764 141.05 113.796 140.861 113.822C140.435 113.88 140.054 113.975 139.718 114.106C139.382 114.237 139.116 114.421 138.922 114.658C138.728 114.889 138.63 115.188 138.63 115.556C138.63 116.081 138.822 116.478 139.206 116.746C139.589 117.014 140.078 117.148 140.672 117.148ZM158.036 119.221C156.901 119.221 155.892 119.026 155.01 118.637C154.132 118.249 153.439 117.708 152.929 117.014C152.419 116.32 152.149 115.519 152.117 114.61H155.08C155.107 115.046 155.251 115.427 155.514 115.753C155.777 116.074 156.126 116.323 156.562 116.502C156.998 116.68 157.487 116.77 158.028 116.77C158.606 116.77 159.118 116.67 159.565 116.47C160.011 116.265 160.361 115.982 160.613 115.619C160.865 115.257 160.989 114.839 160.983 114.366C160.989 113.877 160.862 113.447 160.605 113.073C160.348 112.7 159.975 112.409 159.486 112.199C159.003 111.989 158.419 111.883 157.736 111.883H156.31V109.629H157.736C158.299 109.629 158.79 109.532 159.21 109.338C159.636 109.143 159.969 108.87 160.211 108.518C160.453 108.161 160.571 107.749 160.566 107.281C160.571 106.824 160.468 106.427 160.258 106.091C160.053 105.749 159.762 105.484 159.383 105.295C159.01 105.106 158.572 105.011 158.067 105.011C157.573 105.011 157.116 105.101 156.696 105.279C156.276 105.458 155.937 105.713 155.679 106.044C155.422 106.369 155.285 106.758 155.27 107.21H152.456C152.477 106.306 152.737 105.513 153.236 104.83C153.741 104.142 154.413 103.606 155.254 103.222C156.094 102.833 157.038 102.639 158.083 102.639C159.16 102.639 160.095 102.841 160.889 103.246C161.687 103.645 162.305 104.184 162.741 104.861C163.177 105.539 163.395 106.288 163.395 107.108C163.4 108.016 163.132 108.778 162.591 109.393C162.055 110.008 161.351 110.41 160.479 110.599V110.725C161.614 110.883 162.483 111.303 163.088 111.986C163.697 112.664 163.999 113.507 163.994 114.516C163.994 115.419 163.736 116.229 163.222 116.943C162.712 117.652 162.008 118.209 161.109 118.614C160.216 119.018 159.192 119.221 158.036 119.221ZM169.814 119V106.895H172.541V108.952H172.683C172.935 108.258 173.353 107.717 173.936 107.328C174.519 106.934 175.216 106.737 176.025 106.737C176.844 106.737 177.535 106.937 178.097 107.336C178.665 107.73 179.064 108.269 179.295 108.952H179.421C179.689 108.279 180.141 107.743 180.777 107.344C181.418 106.939 182.177 106.737 183.055 106.737C184.168 106.737 185.077 107.089 185.781 107.793C186.485 108.497 186.837 109.524 186.837 110.875V119H183.977V111.316C183.977 110.565 183.777 110.016 183.378 109.669C182.978 109.317 182.49 109.141 181.912 109.141C181.224 109.141 180.685 109.356 180.296 109.787C179.913 110.213 179.721 110.767 179.721 111.45V119H176.923V111.198C176.923 110.573 176.734 110.073 176.356 109.7C175.983 109.327 175.494 109.141 174.89 109.141C174.48 109.141 174.107 109.246 173.771 109.456C173.434 109.661 173.166 109.953 172.967 110.331C172.767 110.704 172.667 111.14 172.667 111.639V119H169.814ZM193.88 119.236C192.667 119.236 191.618 118.984 190.736 118.48C189.858 117.97 189.183 117.25 188.71 116.32C188.238 115.385 188.001 114.285 188.001 113.018C188.001 111.773 188.238 110.68 188.71 109.74C189.188 108.794 189.856 108.059 190.712 107.533C191.569 107.002 192.575 106.737 193.731 106.737C194.477 106.737 195.181 106.858 195.843 107.1C196.51 107.336 197.098 107.704 197.608 108.203C198.123 108.702 198.528 109.338 198.822 110.11C199.116 110.877 199.263 111.792 199.263 112.853V113.728H189.341V111.805H196.528C196.523 111.258 196.405 110.772 196.174 110.347C195.943 109.916 195.619 109.577 195.204 109.33C194.795 109.083 194.316 108.96 193.77 108.96C193.187 108.96 192.675 109.101 192.233 109.385C191.792 109.664 191.448 110.031 191.201 110.489C190.959 110.94 190.836 111.437 190.83 111.978V113.657C190.83 114.361 190.959 114.965 191.217 115.469C191.474 115.968 191.834 116.352 192.296 116.62C192.759 116.883 193.3 117.014 193.92 117.014C194.335 117.014 194.71 116.956 195.047 116.841C195.383 116.72 195.675 116.544 195.922 116.313C196.168 116.081 196.355 115.795 196.481 115.454L199.145 115.753C198.977 116.457 198.656 117.072 198.183 117.597C197.716 118.117 197.117 118.522 196.386 118.811C195.656 119.095 194.821 119.236 193.88 119.236ZM210.034 110.094L207.433 110.378C207.359 110.115 207.231 109.869 207.047 109.637C206.868 109.406 206.626 109.22 206.322 109.078C206.017 108.936 205.644 108.865 205.203 108.865C204.609 108.865 204.11 108.994 203.705 109.251C203.306 109.509 203.109 109.842 203.114 110.252C203.109 110.604 203.238 110.89 203.5 111.111C203.768 111.332 204.21 111.513 204.824 111.655L206.889 112.096C208.035 112.343 208.886 112.735 209.443 113.271C210.005 113.806 210.289 114.508 210.294 115.375C210.289 116.137 210.065 116.809 209.624 117.392C209.188 117.97 208.581 118.422 207.803 118.748C207.026 119.074 206.133 119.236 205.124 119.236C203.642 119.236 202.45 118.926 201.546 118.306C200.642 117.681 200.104 116.812 199.93 115.698L202.712 115.43C202.838 115.976 203.106 116.389 203.516 116.667C203.926 116.946 204.459 117.085 205.116 117.085C205.794 117.085 206.337 116.946 206.747 116.667C207.162 116.389 207.37 116.045 207.37 115.635C207.37 115.288 207.236 115.002 206.968 114.776C206.705 114.55 206.295 114.376 205.739 114.256L203.674 113.822C202.513 113.58 201.654 113.173 201.097 112.601C200.54 112.023 200.264 111.292 200.269 110.41C200.264 109.664 200.466 109.017 200.876 108.471C201.291 107.919 201.866 107.494 202.602 107.194C203.343 106.889 204.196 106.737 205.163 106.737C206.582 106.737 207.698 107.039 208.513 107.643C209.332 108.248 209.839 109.065 210.034 110.094ZM211.436 119V106.895H214.289V119H211.436ZM212.87 105.177C212.418 105.177 212.029 105.027 211.704 104.727C211.378 104.423 211.215 104.058 211.215 103.632C211.215 103.201 211.378 102.836 211.704 102.537C212.029 102.232 212.418 102.079 212.87 102.079C213.327 102.079 213.716 102.232 214.036 102.537C214.362 102.836 214.525 103.201 214.525 103.632C214.525 104.058 214.362 104.423 214.036 104.727C213.716 105.027 213.327 105.177 212.87 105.177ZM219.495 119.244C218.728 119.244 218.037 119.108 217.423 118.835C216.813 118.556 216.33 118.146 215.972 117.605C215.62 117.064 215.444 116.397 215.444 115.603C215.444 114.92 215.571 114.355 215.823 113.909C216.075 113.462 216.419 113.105 216.855 112.837C217.291 112.569 217.782 112.367 218.329 112.23C218.881 112.088 219.451 111.986 220.039 111.923C220.748 111.849 221.324 111.784 221.765 111.726C222.206 111.663 222.527 111.568 222.726 111.442C222.931 111.311 223.034 111.108 223.034 110.835V110.788C223.034 110.194 222.858 109.735 222.506 109.409C222.154 109.083 221.647 108.92 220.985 108.92C220.286 108.92 219.732 109.073 219.322 109.377C218.917 109.682 218.644 110.042 218.502 110.457L215.838 110.079C216.049 109.343 216.395 108.728 216.879 108.235C217.362 107.735 217.953 107.362 218.652 107.115C219.351 106.863 220.123 106.737 220.969 106.737C221.552 106.737 222.133 106.805 222.711 106.942C223.289 107.079 223.817 107.305 224.295 107.62C224.773 107.93 225.156 108.353 225.445 108.889C225.74 109.425 225.887 110.094 225.887 110.898V119H223.144V117.337H223.05C222.876 117.673 222.632 117.989 222.317 118.283C222.007 118.572 221.615 118.806 221.142 118.984C220.675 119.158 220.126 119.244 219.495 119.244ZM220.236 117.148C220.809 117.148 221.305 117.035 221.726 116.809C222.146 116.578 222.469 116.273 222.695 115.895C222.926 115.517 223.042 115.104 223.042 114.658V113.231C222.952 113.305 222.8 113.373 222.585 113.436C222.374 113.499 222.138 113.554 221.875 113.602C221.613 113.649 221.353 113.691 221.095 113.728C220.838 113.764 220.614 113.796 220.425 113.822C220 113.88 219.619 113.975 219.282 114.106C218.946 114.237 218.681 114.421 218.487 114.658C218.292 114.889 218.195 115.188 218.195 115.556C218.195 116.081 218.387 116.478 218.77 116.746C219.154 117.014 219.642 117.148 220.236 117.148ZM232.825 119.236C231.617 119.236 230.579 118.971 229.712 118.44C228.851 117.91 228.186 117.177 227.718 116.242C227.256 115.301 227.025 114.219 227.025 112.995C227.025 111.765 227.261 110.68 227.734 109.74C228.207 108.794 228.874 108.059 229.736 107.533C230.603 107.002 231.627 106.737 232.809 106.737C233.792 106.737 234.662 106.918 235.418 107.281C236.18 107.638 236.787 108.145 237.239 108.802C237.69 109.453 237.948 110.215 238.011 111.087H235.284C235.174 110.504 234.911 110.018 234.496 109.629C234.086 109.235 233.537 109.038 232.849 109.038C232.266 109.038 231.753 109.196 231.312 109.511C230.871 109.821 230.527 110.268 230.28 110.851C230.038 111.434 229.917 112.133 229.917 112.947C229.917 113.772 230.038 114.482 230.28 115.075C230.521 115.664 230.86 116.118 231.296 116.439C231.738 116.754 232.255 116.912 232.849 116.912C233.269 116.912 233.645 116.833 233.976 116.675C234.312 116.512 234.593 116.278 234.819 115.974C235.045 115.669 235.2 115.299 235.284 114.862H238.011C237.943 115.719 237.69 116.478 237.254 117.14C236.818 117.797 236.225 118.312 235.473 118.685C234.722 119.053 233.839 119.236 232.825 119.236ZM244.502 119.236C243.289 119.236 242.24 118.984 241.358 118.48C240.48 117.97 239.805 117.25 239.332 116.32C238.859 115.385 238.623 114.285 238.623 113.018C238.623 111.773 238.859 110.68 239.332 109.74C239.81 108.794 240.478 108.059 241.334 107.533C242.19 107.002 243.197 106.737 244.352 106.737C245.099 106.737 245.803 106.858 246.465 107.1C247.132 107.336 247.72 107.704 248.23 108.203C248.745 108.702 249.149 109.338 249.444 110.11C249.738 110.877 249.885 111.792 249.885 112.853V113.728H239.963V111.805H247.15C247.145 111.258 247.027 110.772 246.796 110.347C246.564 109.916 246.241 109.577 245.826 109.33C245.416 109.083 244.938 108.96 244.392 108.96C243.809 108.96 243.296 109.101 242.855 109.385C242.414 109.664 242.07 110.031 241.823 110.489C241.581 110.94 241.457 111.437 241.452 111.978V113.657C241.452 114.361 241.581 114.965 241.838 115.469C242.096 115.968 242.456 116.352 242.918 116.62C243.38 116.883 243.922 117.014 244.542 117.014C244.957 117.014 245.332 116.956 245.669 116.841C246.005 116.72 246.296 116.544 246.543 116.313C246.79 116.081 246.977 115.795 247.103 115.454L249.767 115.753C249.599 116.457 249.278 117.072 248.805 117.597C248.338 118.117 247.739 118.522 247.008 118.811C246.278 119.095 245.443 119.236 244.502 119.236Z" fill="#4FBE79"/>
</svg>
