<svg width="165" height="262" viewBox="0 0 165 262" fill="none" xmlns="http://www.w3.org/2000/svg">
<path d="M10 0.5L155 0.5C160.247 0.500008 164.5 4.7533 164.5 10V251.999C164.5 257.246 160.247 261.499 155 261.499H10C4.7533 261.499 0.5 257.246 0.5 251.999L0.5 10C0.5 4.7533 4.75329 0.5 10 0.5Z" fill="white"/>
<path d="M10 0.5L155 0.5C160.247 0.500008 164.5 4.7533 164.5 10V251.999C164.5 257.246 160.247 261.499 155 261.499H10C4.7533 261.499 0.5 257.246 0.5 251.999L0.5 10C0.5 4.7533 4.75329 0.5 10 0.5Z" stroke="#E4E4E4"/>
<path d="M47.2685 38V26.3636H51.2003C52.1094 26.3636 52.8556 26.5189 53.4389 26.8295C54.0223 27.1364 54.4541 27.5587 54.7344 28.0966C55.0147 28.6345 55.1548 29.2462 55.1548 29.9318C55.1548 30.6174 55.0147 31.2254 54.7344 31.7557C54.4541 32.286 54.0241 32.7027 53.4446 33.0057C52.8651 33.3049 52.1245 33.4545 51.223 33.4545H48.0412V32.1818H51.1776C51.7988 32.1818 52.2988 32.0909 52.6776 31.9091C53.0601 31.7273 53.3366 31.4697 53.5071 31.1364C53.6813 30.7992 53.7685 30.3977 53.7685 29.9318C53.7685 29.4659 53.6813 29.0587 53.5071 28.7102C53.3329 28.3617 53.0544 28.0928 52.6719 27.9034C52.2893 27.7102 51.7836 27.6136 51.1548 27.6136H48.6776V38H47.2685ZM52.7457 32.7727L55.6094 38H53.973L51.1548 32.7727H52.7457ZM60.8864 38.1818C60.0455 38.1818 59.3201 37.9962 58.7102 37.625C58.1042 37.25 57.6364 36.7273 57.3068 36.0568C56.9811 35.3826 56.8182 34.5985 56.8182 33.7045C56.8182 32.8106 56.9811 32.0227 57.3068 31.3409C57.6364 30.6553 58.0947 30.1212 58.6818 29.7386C59.2727 29.3523 59.9621 29.1591 60.75 29.1591C61.2045 29.1591 61.6534 29.2349 62.0966 29.3864C62.5398 29.5379 62.9432 29.7841 63.3068 30.125C63.6705 30.4621 63.9602 30.9091 64.1761 31.4659C64.392 32.0227 64.5 32.7083 64.5 33.5227V34.0909H57.7727V32.9318H63.1364C63.1364 32.4394 63.0379 32 62.8409 31.6136C62.6477 31.2273 62.3712 30.9224 62.0114 30.6989C61.6553 30.4754 61.2348 30.3636 60.75 30.3636C60.2159 30.3636 59.7538 30.4962 59.3636 30.7614C58.9773 31.0227 58.6799 31.3636 58.4716 31.7841C58.2633 32.2045 58.1591 32.6553 58.1591 33.1364V33.9091C58.1591 34.5682 58.2727 35.1269 58.5 35.5852C58.7311 36.0398 59.0511 36.3864 59.4602 36.625C59.8693 36.8599 60.3447 36.9773 60.8864 36.9773C61.2386 36.9773 61.5568 36.928 61.8409 36.8295C62.1288 36.7273 62.3769 36.5758 62.5852 36.375C62.7936 36.1705 62.9545 35.9167 63.0682 35.6136L64.3636 35.9773C64.2273 36.4167 63.9981 36.803 63.6761 37.1364C63.3542 37.4659 62.9564 37.7235 62.483 37.9091C62.0095 38.0909 61.4773 38.1818 60.8864 38.1818ZM70.3352 29.2727V30.4091H65.8125V29.2727H70.3352ZM67.1307 27.1818H68.4716V35.5C68.4716 35.8788 68.5265 36.1629 68.6364 36.3523C68.75 36.5379 68.8939 36.6629 69.0682 36.7273C69.2462 36.7879 69.4337 36.8182 69.6307 36.8182C69.7784 36.8182 69.8996 36.8106 69.9943 36.7955C70.089 36.7765 70.1648 36.7614 70.2216 36.75L70.4943 37.9545C70.4034 37.9886 70.2765 38.0227 70.1136 38.0568C69.9508 38.0947 69.7443 38.1136 69.4943 38.1136C69.1155 38.1136 68.7443 38.0322 68.3807 37.8693C68.0208 37.7064 67.7216 37.4583 67.483 37.125C67.2481 36.7917 67.1307 36.3712 67.1307 35.8636V27.1818ZM77.8523 34.4318V29.2727H79.1932V38H77.8523V36.5227H77.7614C77.5568 36.9659 77.2386 37.3428 76.8068 37.6534C76.375 37.9602 75.8295 38.1136 75.1705 38.1136C74.625 38.1136 74.1402 37.9943 73.7159 37.7557C73.2917 37.5133 72.9583 37.1496 72.7159 36.6648C72.4735 36.1761 72.3523 35.5606 72.3523 34.8182V29.2727H73.6932V34.7273C73.6932 35.3636 73.8712 35.8712 74.2273 36.25C74.5871 36.6288 75.0455 36.8182 75.6023 36.8182C75.9356 36.8182 76.2746 36.733 76.6193 36.5625C76.9678 36.392 77.2595 36.1307 77.4943 35.7784C77.733 35.4261 77.8523 34.9773 77.8523 34.4318ZM81.6491 38V29.2727H82.9446V30.5909H83.0355C83.1946 30.1591 83.4825 29.8087 83.8992 29.5398C84.3158 29.2708 84.7855 29.1364 85.3082 29.1364C85.4067 29.1364 85.5298 29.1383 85.6776 29.142C85.8253 29.1458 85.937 29.1515 86.0128 29.1591V30.5227C85.9673 30.5114 85.8632 30.4943 85.7003 30.4716C85.5412 30.4451 85.3726 30.4318 85.1946 30.4318C84.7704 30.4318 84.3916 30.5208 84.0582 30.6989C83.7287 30.8731 83.4673 31.1155 83.2742 31.4261C83.0848 31.733 82.9901 32.0833 82.9901 32.4773V38H81.6491ZM88.9432 32.75V38H87.6023V29.2727H88.8977V30.6364H89.0114C89.2159 30.1932 89.5265 29.8371 89.9432 29.5682C90.3599 29.2955 90.8977 29.1591 91.5568 29.1591C92.1477 29.1591 92.6648 29.2803 93.108 29.5227C93.5511 29.7614 93.8958 30.125 94.142 30.6136C94.3883 31.0985 94.5114 31.7121 94.5114 32.4545V38H93.1705V32.5455C93.1705 31.8599 92.9924 31.3258 92.6364 30.9432C92.2803 30.5568 91.7917 30.3636 91.1705 30.3636C90.7424 30.3636 90.3599 30.4564 90.0227 30.642C89.6894 30.8277 89.4261 31.0985 89.233 31.4545C89.0398 31.8106 88.9432 32.2424 88.9432 32.75ZM105.007 38.1818C104.219 38.1818 103.528 37.9943 102.933 37.6193C102.342 37.2443 101.88 36.7197 101.547 36.0455C101.217 35.3712 101.053 34.5833 101.053 33.6818C101.053 32.7727 101.217 31.9792 101.547 31.3011C101.88 30.6231 102.342 30.0966 102.933 29.7216C103.528 29.3466 104.219 29.1591 105.007 29.1591C105.795 29.1591 106.484 29.3466 107.075 29.7216C107.67 30.0966 108.132 30.6231 108.462 31.3011C108.795 31.9792 108.962 32.7727 108.962 33.6818C108.962 34.5833 108.795 35.3712 108.462 36.0455C108.132 36.7197 107.67 37.2443 107.075 37.6193C106.484 37.9943 105.795 38.1818 105.007 38.1818ZM105.007 36.9773C105.606 36.9773 106.098 36.8239 106.484 36.517C106.871 36.2102 107.157 35.8068 107.342 35.3068C107.528 34.8068 107.621 34.2652 107.621 33.6818C107.621 33.0985 107.528 32.5549 107.342 32.0511C107.157 31.5474 106.871 31.1402 106.484 30.8295C106.098 30.5189 105.606 30.3636 105.007 30.3636C104.409 30.3636 103.916 30.5189 103.53 30.8295C103.143 31.1402 102.857 31.5474 102.672 32.0511C102.486 32.5549 102.393 33.0985 102.393 33.6818C102.393 34.2652 102.486 34.8068 102.672 35.3068C102.857 35.8068 103.143 36.2102 103.53 36.517C103.916 36.8239 104.409 36.9773 105.007 36.9773ZM112.349 32.75V38H111.009V29.2727H112.304V30.6364H112.418C112.622 30.1932 112.933 29.8371 113.349 29.5682C113.766 29.2955 114.304 29.1591 114.963 29.1591C115.554 29.1591 116.071 29.2803 116.514 29.5227C116.957 29.7614 117.302 30.125 117.548 30.6136C117.795 31.0985 117.918 31.7121 117.918 32.4545V38H116.577V32.5455C116.577 31.8599 116.399 31.3258 116.043 30.9432C115.687 30.5568 115.198 30.3636 114.577 30.3636C114.149 30.3636 113.766 30.4564 113.429 30.642C113.096 30.8277 112.832 31.0985 112.639 31.4545C112.446 31.8106 112.349 32.2424 112.349 32.75ZM43.4432 51.3636V63H42.0341V51.3636H43.4432ZM47.4276 57.75V63H46.0866V54.2727H47.3821V55.6364H47.4957C47.7003 55.1932 48.0109 54.8371 48.4276 54.5682C48.8442 54.2955 49.3821 54.1591 50.0412 54.1591C50.6321 54.1591 51.1491 54.2803 51.5923 54.5227C52.0355 54.7614 52.3802 55.125 52.6264 55.6136C52.8726 56.0985 52.9957 56.7121 52.9957 57.4546V63H51.6548V57.5455C51.6548 56.8599 51.4768 56.3258 51.1207 55.9432C50.7647 55.5568 50.276 55.3636 49.6548 55.3636C49.2268 55.3636 48.8442 55.4564 48.5071 55.6421C48.1738 55.8277 47.9105 56.0985 47.7173 56.4546C47.5241 56.8106 47.4276 57.2424 47.4276 57.75ZM62.2699 54.2727L59.0426 63H57.679L54.4517 54.2727H55.9062L58.3153 61.2273H58.4062L60.8153 54.2727H62.2699ZM67.3864 63.1818C66.5455 63.1818 65.8201 62.9962 65.2102 62.625C64.6042 62.25 64.1364 61.7273 63.8068 61.0568C63.4811 60.3826 63.3182 59.5985 63.3182 58.7046C63.3182 57.8106 63.4811 57.0227 63.8068 56.3409C64.1364 55.6553 64.5947 55.1212 65.1818 54.7386C65.7727 54.3523 66.4621 54.1591 67.25 54.1591C67.7045 54.1591 68.1534 54.2349 68.5966 54.3864C69.0398 54.5379 69.4432 54.7841 69.8068 55.125C70.1705 55.4621 70.4602 55.9091 70.6761 56.4659C70.892 57.0227 71 57.7083 71 58.5227V59.0909H64.2727V57.9318H69.6364C69.6364 57.4394 69.5379 57 69.3409 56.6136C69.1477 56.2273 68.8712 55.9224 68.5114 55.6989C68.1553 55.4754 67.7348 55.3636 67.25 55.3636C66.7159 55.3636 66.2538 55.4962 65.8636 55.7614C65.4773 56.0227 65.1799 56.3636 64.9716 56.7841C64.7633 57.2046 64.6591 57.6553 64.6591 58.1364V58.9091C64.6591 59.5682 64.7727 60.1269 65 60.5852C65.2311 61.0398 65.5511 61.3864 65.9602 61.625C66.3693 61.8599 66.8447 61.9773 67.3864 61.9773C67.7386 61.9773 68.0568 61.928 68.3409 61.8296C68.6288 61.7273 68.8769 61.5758 69.0852 61.375C69.2936 61.1705 69.4545 60.9167 69.5682 60.6136L70.8636 60.9773C70.7273 61.4167 70.4981 61.803 70.1761 62.1364C69.8542 62.4659 69.4564 62.7235 68.983 62.9091C68.5095 63.0909 67.9773 63.1818 67.3864 63.1818ZM79.2216 56.2273L78.017 56.5682C77.9413 56.3674 77.8295 56.1724 77.6818 55.983C77.5379 55.7898 77.3409 55.6307 77.0909 55.5057C76.8409 55.3807 76.5208 55.3182 76.1307 55.3182C75.5966 55.3182 75.1515 55.4413 74.7955 55.6875C74.4432 55.9299 74.267 56.2386 74.267 56.6136C74.267 56.947 74.3883 57.2102 74.6307 57.4034C74.8731 57.5966 75.2519 57.7576 75.767 57.8864L77.0625 58.2046C77.8428 58.3939 78.4242 58.6837 78.8068 59.0739C79.1894 59.4602 79.3807 59.9583 79.3807 60.5682C79.3807 61.0682 79.2367 61.5152 78.9489 61.9091C78.6648 62.303 78.267 62.6136 77.7557 62.8409C77.2443 63.0682 76.6496 63.1818 75.9716 63.1818C75.0814 63.1818 74.3447 62.9886 73.7614 62.6023C73.178 62.2159 72.8087 61.6515 72.6534 60.9091L73.9261 60.5909C74.0473 61.0606 74.2765 61.4129 74.6136 61.6477C74.9545 61.8826 75.3996 62 75.9489 62C76.5739 62 77.0701 61.8674 77.4375 61.6023C77.8087 61.3333 77.9943 61.0114 77.9943 60.6364C77.9943 60.3333 77.8883 60.0796 77.6761 59.875C77.464 59.6667 77.1383 59.5114 76.6989 59.4091L75.2443 59.0682C74.4451 58.8788 73.858 58.5852 73.483 58.1875C73.1117 57.786 72.9261 57.2841 72.9261 56.6818C72.9261 56.1894 73.0644 55.7538 73.3409 55.375C73.6212 54.9962 74.0019 54.6989 74.483 54.483C74.9678 54.2671 75.517 54.1591 76.1307 54.1591C76.9943 54.1591 77.6724 54.3485 78.1648 54.7273C78.661 55.1061 79.0133 55.6061 79.2216 56.2273ZM85.1946 54.2727V55.4091H80.6719V54.2727H85.1946ZM81.9901 52.1818H83.331V60.5C83.331 60.8788 83.3859 61.1629 83.4957 61.3523C83.6094 61.5379 83.7533 61.6629 83.9276 61.7273C84.1056 61.7879 84.2931 61.8182 84.4901 61.8182C84.6378 61.8182 84.759 61.8106 84.8537 61.7955C84.9484 61.7765 85.0242 61.7614 85.081 61.75L85.3537 62.9546C85.2628 62.9886 85.1359 63.0227 84.973 63.0568C84.8101 63.0947 84.6037 63.1136 84.3537 63.1136C83.9749 63.1136 83.6037 63.0322 83.2401 62.8693C82.8802 62.7064 82.581 62.4583 82.3423 62.125C82.1075 61.7917 81.9901 61.3712 81.9901 60.8636V52.1818ZM87.2117 63V54.2727H88.5071V55.6364H88.6207C88.8026 55.1705 89.0961 54.8087 89.5014 54.5511C89.9067 54.2898 90.3935 54.1591 90.9617 54.1591C91.5374 54.1591 92.0166 54.2898 92.3992 54.5511C92.7855 54.8087 93.0867 55.1705 93.3026 55.6364H93.3935C93.617 55.1856 93.9522 54.8277 94.3992 54.5625C94.8461 54.2936 95.3821 54.1591 96.0071 54.1591C96.7874 54.1591 97.4257 54.4034 97.9219 54.8921C98.4181 55.3769 98.6662 56.1326 98.6662 57.1591V63H97.3253V57.1591C97.3253 56.5152 97.1492 56.0549 96.7969 55.7784C96.4446 55.5019 96.0298 55.3636 95.5526 55.3636C94.9389 55.3636 94.4635 55.5492 94.1264 55.9205C93.7893 56.2879 93.6207 56.7538 93.6207 57.3182V63H92.2571V57.0227C92.2571 56.5265 92.0961 56.1269 91.7742 55.8239C91.4522 55.5171 91.0374 55.3636 90.5298 55.3636C90.1813 55.3636 89.8556 55.4564 89.5526 55.6421C89.2533 55.8277 89.0109 56.0852 88.8253 56.4148C88.6435 56.7405 88.5526 57.1174 88.5526 57.5455V63H87.2117ZM104.777 63.1818C103.936 63.1818 103.211 62.9962 102.601 62.625C101.995 62.25 101.527 61.7273 101.197 61.0568C100.872 60.3826 100.709 59.5985 100.709 58.7046C100.709 57.8106 100.872 57.0227 101.197 56.3409C101.527 55.6553 101.985 55.1212 102.572 54.7386C103.163 54.3523 103.853 54.1591 104.641 54.1591C105.095 54.1591 105.544 54.2349 105.987 54.3864C106.43 54.5379 106.834 54.7841 107.197 55.125C107.561 55.4621 107.851 55.9091 108.067 56.4659C108.283 57.0227 108.391 57.7083 108.391 58.5227V59.0909H101.663V57.9318H107.027C107.027 57.4394 106.929 57 106.732 56.6136C106.538 56.2273 106.262 55.9224 105.902 55.6989C105.546 55.4754 105.125 55.3636 104.641 55.3636C104.107 55.3636 103.644 55.4962 103.254 55.7614C102.868 56.0227 102.571 56.3636 102.362 56.7841C102.154 57.2046 102.05 57.6553 102.05 58.1364V58.9091C102.05 59.5682 102.163 60.1269 102.391 60.5852C102.622 61.0398 102.942 61.3864 103.351 61.625C103.76 61.8599 104.235 61.9773 104.777 61.9773C105.129 61.9773 105.447 61.928 105.732 61.8296C106.019 61.7273 106.268 61.5758 106.476 61.375C106.684 61.1705 106.845 60.9167 106.959 60.6136L108.254 60.9773C108.118 61.4167 107.889 61.803 107.567 62.1364C107.245 62.4659 106.847 62.7235 106.374 62.9091C105.9 63.0909 105.368 63.1818 104.777 63.1818ZM111.771 57.75V63H110.43V54.2727H111.726V55.6364H111.839C112.044 55.1932 112.355 54.8371 112.771 54.5682C113.188 54.2955 113.726 54.1591 114.385 54.1591C114.976 54.1591 115.493 54.2803 115.936 54.5227C116.379 54.7614 116.724 55.125 116.97 55.6136C117.216 56.0985 117.339 56.7121 117.339 57.4546V63H115.999V57.5455C115.999 56.8599 115.821 56.3258 115.464 55.9432C115.108 55.5568 114.62 55.3636 113.999 55.3636C113.571 55.3636 113.188 55.4564 112.851 55.6421C112.518 55.8277 112.254 56.0985 112.061 56.4546C111.868 56.8106 111.771 57.2424 111.771 57.75ZM123.585 54.2727V55.4091H119.063V54.2727H123.585ZM120.381 52.1818H121.722V60.5C121.722 60.8788 121.777 61.1629 121.886 61.3523C122 61.5379 122.144 61.6629 122.318 61.7273C122.496 61.7879 122.684 61.8182 122.881 61.8182C123.028 61.8182 123.15 61.8106 123.244 61.7955C123.339 61.7765 123.415 61.7614 123.472 61.75L123.744 62.9546C123.653 62.9886 123.527 63.0227 123.364 63.0568C123.201 63.0947 122.994 63.1136 122.744 63.1136C122.366 63.1136 121.994 63.0322 121.631 62.8693C121.271 62.7064 120.972 62.4583 120.733 62.125C120.498 61.7917 120.381 61.3712 120.381 60.8636V52.1818Z" fill="#242A36"/>
<path d="M63.2889 139.869C62.3448 139.834 61.5116 139.641 60.7893 139.29C60.0714 138.939 59.5112 138.467 59.1087 137.875C58.7063 137.282 58.506 136.607 58.508 135.85L60.9732 135.942C60.9815 136.305 61.0899 136.627 61.2984 136.906C61.507 137.18 61.7899 137.399 62.1472 137.561C62.5044 137.723 62.9081 137.813 63.3583 137.829C63.8391 137.847 64.2684 137.78 64.6461 137.628C65.024 137.471 65.3235 137.246 65.5445 136.952C65.7656 136.659 65.8812 136.315 65.8915 135.921C65.9111 135.515 65.8195 135.153 65.6169 134.834C65.4143 134.516 65.113 134.262 64.713 134.072C64.3174 133.882 63.8355 133.777 63.2672 133.755L62.0805 133.711L62.1504 131.836L63.3371 131.88C63.8048 131.898 64.2165 131.832 64.5722 131.683C64.9323 131.535 65.2183 131.318 65.4303 131.032C65.6425 130.743 65.7536 130.403 65.7637 130.014C65.7823 129.634 65.7093 129.301 65.5449 129.015C65.385 128.724 65.1507 128.494 64.8418 128.325C64.5373 128.156 64.1753 128.064 63.7557 128.048C63.3448 128.033 62.9618 128.093 62.6066 128.229C62.2513 128.364 61.9615 128.566 61.7371 128.833C61.5128 129.096 61.3871 129.416 61.36 129.791L59.0193 129.704C59.0648 128.953 59.3058 128.301 59.7422 127.748C60.1832 127.191 60.7593 126.766 61.4705 126.473C62.1819 126.175 62.9725 126.043 63.8424 126.075C64.7384 126.109 65.5102 126.306 66.1576 126.667C66.8096 127.024 67.3065 127.491 67.6483 128.069C67.9901 128.646 68.1483 129.276 68.1229 129.958C68.099 130.714 67.8525 131.339 67.3832 131.834C66.9183 132.329 66.3202 132.641 65.5887 132.772L65.5848 132.877C66.5241 133.043 67.2344 133.42 67.7159 134.007C68.2019 134.589 68.4271 135.3 68.3915 136.139C68.3634 136.891 68.1242 137.556 67.6737 138.135C67.2277 138.709 66.6247 139.15 65.8647 139.459C65.1091 139.768 64.2505 139.905 63.2889 139.869ZM74.4495 140.357C73.3699 140.317 72.4535 140.009 71.7002 139.434C70.9514 138.854 70.3887 138.039 70.0121 136.987C69.64 135.932 69.4812 134.672 69.5358 133.208C69.5947 131.744 69.8488 130.506 70.2979 129.494C70.7516 128.478 71.3732 127.713 72.1627 127.2C72.9565 126.686 73.8911 126.45 74.9663 126.49C76.0416 126.53 76.956 126.836 77.7094 127.406C78.4629 127.977 79.0258 128.786 79.3983 129.833C79.775 130.88 79.9362 132.133 79.8818 133.593C79.8271 135.062 79.5727 136.309 79.1187 137.333C78.6692 138.354 78.0475 139.123 77.2535 139.641C76.4638 140.158 75.5292 140.397 74.4495 140.357ZM74.526 138.305C75.3653 138.336 76.0428 137.948 76.5588 137.14C77.0793 136.327 77.3696 135.115 77.4297 133.502C77.4695 132.435 77.3914 131.535 77.1955 130.801C76.9997 130.067 76.7053 129.509 76.3125 129.127C75.9198 128.74 75.446 128.537 74.8908 128.516C74.056 128.485 73.3805 128.875 72.8644 129.688C72.3484 130.496 72.0584 131.7 71.9944 133.299C71.9502 134.37 72.0237 135.274 72.215 136.013C72.4107 136.751 72.7049 137.313 73.0976 137.7C73.4904 138.082 73.9665 138.284 74.526 138.305ZM85.7571 140.778C84.6775 140.738 83.761 140.43 83.0077 139.855C82.259 139.276 81.6963 138.46 81.3196 137.409C80.9475 136.353 80.7888 135.093 80.8433 133.629C80.9023 132.165 81.1563 130.927 81.6055 129.915C82.0592 128.899 82.6808 128.134 83.4702 127.621C84.2641 127.108 85.1987 126.871 86.2739 126.911C87.3492 126.951 88.2635 127.257 89.017 127.828C89.7705 128.399 90.3334 129.207 90.7058 130.254C91.0826 131.301 91.2438 132.555 91.1894 134.015C91.1347 135.483 90.8803 136.73 90.4263 137.755C89.9768 138.775 89.3551 139.545 88.561 140.062C87.7714 140.58 86.8367 140.819 85.7571 140.778ZM85.8336 138.726C86.6728 138.757 87.3504 138.369 87.8664 137.561C88.3869 136.749 88.6772 135.536 88.7373 133.923C88.777 132.857 88.699 131.957 88.5031 131.223C88.3072 130.489 88.0129 129.931 87.6201 129.548C87.2274 129.162 86.7535 128.958 86.1984 128.937C85.3636 128.906 84.6881 129.297 84.1719 130.109C83.656 130.917 83.366 132.121 83.302 133.721C83.2577 134.791 83.3313 135.696 83.5226 136.434C83.7183 137.172 84.0125 137.735 84.4051 138.121C84.798 138.504 85.2741 138.705 85.8336 138.726ZM99.3841 138.509L99.4105 137.801C99.4299 137.281 99.557 136.806 99.7918 136.377C100.031 135.948 100.368 135.609 100.802 135.358C101.235 135.107 101.754 134.993 102.357 135.015C102.978 135.038 103.493 135.191 103.903 135.473C104.313 135.751 104.616 136.113 104.814 136.558C105.017 137.003 105.108 137.488 105.088 138.012L105.062 138.721C105.043 139.241 104.916 139.715 104.681 140.144C104.446 140.573 104.111 140.913 103.678 141.164C103.248 141.415 102.727 141.529 102.115 141.506C101.503 141.483 100.99 141.331 100.576 141.048C100.162 140.766 99.8541 140.402 99.6519 139.957C99.454 139.512 99.3647 139.029 99.3841 138.509ZM101.122 137.865L101.095 138.573C101.082 138.918 101.154 139.238 101.309 139.533C101.464 139.827 101.752 139.982 102.172 139.998C102.595 140.014 102.891 139.883 103.059 139.604C103.232 139.322 103.325 139.006 103.338 138.656L103.364 137.948C103.377 137.598 103.312 137.277 103.17 136.982C103.028 136.684 102.739 136.526 102.301 136.51C101.891 136.495 101.595 136.63 101.413 136.917C101.232 137.199 101.135 137.515 101.122 137.865ZM92.8452 130.57L92.8716 129.862C92.8912 129.338 93.0206 128.861 93.2598 128.432C93.499 128.004 93.8355 127.666 94.2692 127.419C94.7031 127.169 95.2217 127.054 95.8249 127.077C96.4412 127.1 96.9542 127.253 97.3639 127.535C97.7781 127.813 98.0841 128.174 98.282 128.62C98.4799 129.065 98.5691 129.549 98.5495 130.074L98.5231 130.782C98.5036 131.307 98.3764 131.783 98.1415 132.212C97.9112 132.637 97.5792 132.973 97.1454 133.219C96.7117 133.465 96.191 133.577 95.5835 133.555C94.9672 133.532 94.4519 133.381 94.0377 133.103C93.6279 132.825 93.3218 132.464 93.1196 132.018C92.9173 131.573 92.8259 131.091 92.8452 130.57ZM94.596 129.927L94.5696 130.635C94.5566 130.984 94.6255 131.306 94.7765 131.601C94.932 131.891 95.2196 132.044 95.6392 132.06C96.0588 132.075 96.3526 131.944 96.5205 131.666C96.693 131.383 96.7857 131.067 96.7988 130.718L96.8252 130.01C96.8382 129.66 96.7736 129.338 96.6314 129.044C96.4893 128.745 96.2019 128.588 95.7692 128.572C95.3539 128.556 95.0578 128.692 94.8808 128.979C94.7038 129.265 94.6088 129.581 94.596 129.927ZM93.2125 140.8L102.944 127.717L104.583 127.778L94.8516 140.861L93.2125 140.8Z" fill="#4FBE79"/>
<path d="M122.857 133.5C125.452 133.5 127.581 135.609 127.311 138.19C126.526 145.691 123.867 152.902 119.545 159.144C114.329 166.679 106.94 172.444 98.3627 175.67C89.7855 178.896 80.4285 179.43 71.5399 177.201C62.6513 174.972 54.6539 170.085 48.6145 163.193C42.5751 156.301 38.7809 147.731 37.7382 138.626C36.6954 129.522 38.4537 120.316 42.7784 112.237C47.1031 104.158 53.7886 97.5893 61.943 93.408C68.6987 89.9439 76.1966 88.2547 83.7359 88.4616C86.3297 88.5327 88.1411 90.9201 87.8003 93.4925V93.4925C87.4596 96.0648 85.0933 97.8411 82.4985 97.8412C76.8633 97.8415 71.2845 99.1779 66.2304 101.769C59.7767 105.079 54.4855 110.277 51.0628 116.671C47.64 123.066 46.2485 130.352 47.0737 137.557C47.899 144.763 50.9019 151.545 55.6817 157C60.4615 162.455 66.791 166.322 73.8258 168.087C80.8606 169.851 88.2662 169.429 95.0545 166.875C101.843 164.322 107.691 159.759 111.819 153.796C115.052 149.126 117.11 143.771 117.85 138.184C118.191 135.612 120.262 133.5 122.857 133.5V133.5Z" fill="#E4E4E4"/>
<path d="M43.1882 141.929C40.5693 142.49 37.9634 140.822 37.6865 138.158C36.912 130.708 38.0051 123.154 40.9022 116.192C44.4225 107.731 50.4391 100.545 58.1493 95.5919C65.8594 90.6391 74.8966 88.1552 84.055 88.4714C93.2134 88.7877 102.058 91.8891 109.408 97.362C116.758 102.835 122.264 110.419 125.193 119.102C128.121 127.786 128.332 137.156 125.797 145.962C123.262 154.768 118.103 162.592 111.006 168.39C105.166 173.162 98.2429 176.374 90.8833 177.768C88.2517 178.266 85.9064 176.248 85.6936 173.578V173.578C85.4809 170.908 87.4856 168.605 90.1013 168.029C95.4946 166.841 100.558 164.402 104.869 160.879C110.438 156.329 114.487 150.19 116.476 143.279C118.466 136.369 118.3 129.016 116.002 122.202C113.704 115.388 109.383 109.436 103.615 105.141C97.8474 100.847 90.9071 98.413 83.7202 98.1648C76.5334 97.9167 69.4417 99.8659 63.3914 103.752C57.341 107.639 52.6196 113.278 49.8571 119.917C47.7184 125.058 46.8325 130.608 47.2411 136.115C47.4392 138.786 45.807 141.367 43.1882 141.929V141.929Z" fill="#1FAE5F"/>
<path d="M43.6672 199.859V215.999H41.0665L33.4613 205.005H33.3273V215.999H30.4034V199.859H33.0199L40.6172 210.861H40.7591V199.859H43.6672ZM48.9999 216.244C48.2328 216.244 47.5419 216.107 46.9272 215.834C46.3177 215.555 45.8344 215.145 45.4771 214.604C45.1251 214.063 44.949 213.396 44.949 212.602C44.949 211.919 45.0751 211.355 45.3273 210.908C45.5795 210.461 45.9237 210.104 46.3598 209.836C46.7958 209.568 47.2871 209.366 47.8335 209.229C48.3852 209.088 48.9552 208.985 49.5437 208.922C50.253 208.849 50.8283 208.783 51.2696 208.725C51.711 208.662 52.0315 208.567 52.2311 208.441C52.436 208.31 52.5385 208.108 52.5385 207.834V207.787C52.5385 207.193 52.3625 206.734 52.0105 206.408C51.6584 206.082 51.1514 205.919 50.4894 205.919C49.7906 205.919 49.2363 206.072 48.8265 206.376C48.422 206.681 48.1487 207.041 48.0069 207.456L45.3431 207.078C45.5533 206.342 45.9 205.728 46.3834 205.234C46.8668 204.735 47.4578 204.362 48.1566 204.115C48.8554 203.862 49.6278 203.736 50.4737 203.736C51.0568 203.736 51.6374 203.805 52.2154 203.941C52.7933 204.078 53.3213 204.304 53.7994 204.619C54.2776 204.929 54.6611 205.352 54.9501 205.888C55.2443 206.424 55.3914 207.094 55.3914 207.898V215.999H52.6488V214.336H52.5542C52.3809 214.673 52.1366 214.988 51.8213 215.282C51.5113 215.571 51.1199 215.805 50.647 215.983C50.1794 216.157 49.6304 216.244 48.9999 216.244ZM49.7407 214.147C50.3134 214.147 50.8099 214.034 51.2302 213.808C51.6506 213.577 51.9737 213.272 52.1996 212.894C52.4308 212.516 52.5464 212.103 52.5464 211.657V210.23C52.457 210.304 52.3047 210.372 52.0893 210.435C51.8791 210.498 51.6427 210.553 51.38 210.601C51.1173 210.648 50.8572 210.69 50.5997 210.727C50.3423 210.764 50.119 210.795 49.9299 210.821C49.5043 210.879 49.1234 210.974 48.7871 211.105C48.4509 211.236 48.1855 211.42 47.9911 211.657C47.7967 211.888 47.6995 212.187 47.6995 212.555C47.6995 213.081 47.8913 213.477 48.2748 213.745C48.6584 214.013 49.147 214.147 49.7407 214.147ZM49.5043 202.302L51.2696 198.7H54.0595L51.64 202.302H49.5043ZM67.4289 203.894L63.118 215.999H59.9656L55.6546 203.894H58.6967L61.4787 212.886H61.6048L64.3947 203.894H67.4289ZM68.1926 215.999V203.894H70.9588V205.912H71.0849C71.3056 205.213 71.6839 204.674 72.2198 204.296C72.7609 203.912 73.3783 203.721 74.0718 203.721C74.2294 203.721 74.4055 203.728 74.5999 203.744C74.7995 203.755 74.965 203.773 75.0964 203.799V206.424C74.9755 206.382 74.7837 206.345 74.521 206.313C74.2636 206.277 74.014 206.258 73.7723 206.258C73.2522 206.258 72.7846 206.371 72.3695 206.597C71.9597 206.818 71.6366 207.125 71.4002 207.519C71.1637 207.913 71.0455 208.368 71.0455 208.883V215.999H68.1926ZM79.0479 216.244C78.2808 216.244 77.5899 216.107 76.9752 215.834C76.3657 215.555 75.8824 215.145 75.5251 214.604C75.1731 214.063 74.9971 213.396 74.9971 212.602C74.9971 211.919 75.1232 211.355 75.3753 210.908C75.6275 210.461 75.9717 210.104 76.4078 209.836C76.8438 209.568 77.3351 209.366 77.8815 209.229C78.4332 209.088 79.0033 208.985 79.5917 208.922C80.301 208.849 80.8763 208.783 81.3176 208.725C81.759 208.662 82.0795 208.567 82.2791 208.441C82.484 208.31 82.5865 208.108 82.5865 207.834V207.787C82.5865 207.193 82.4105 206.734 82.0585 206.408C81.7064 206.082 81.1994 205.919 80.5374 205.919C79.8386 205.919 79.2843 206.072 78.8745 206.376C78.47 206.681 78.1968 207.041 78.0549 207.456L75.3911 207.078C75.6013 206.342 75.948 205.728 76.4314 205.234C76.9148 204.735 77.5059 204.362 78.2046 204.115C78.9034 203.862 79.6758 203.736 80.5217 203.736C81.1049 203.736 81.6854 203.805 82.2634 203.941C82.8413 204.078 83.3693 204.304 83.8475 204.619C84.3256 204.929 84.7091 205.352 84.9981 205.888C85.2923 206.424 85.4394 207.094 85.4394 207.898V215.999H82.6968V214.336H82.6023C82.4289 214.673 82.1846 214.988 81.8693 215.282C81.5593 215.571 81.1679 215.805 80.695 215.983C80.2274 216.157 79.6784 216.244 79.0479 216.244ZM79.7887 214.147C80.3614 214.147 80.8579 214.034 81.2782 213.808C81.6986 213.577 82.0217 213.272 82.2476 212.894C82.4788 212.516 82.5944 212.103 82.5944 211.657V210.23C82.5051 210.304 82.3527 210.372 82.1373 210.435C81.9271 210.498 81.6907 210.553 81.428 210.601C81.1653 210.648 80.9052 210.69 80.6478 210.727C80.3903 210.764 80.167 210.795 79.9779 210.821C79.5523 210.879 79.1714 210.974 78.8351 211.105C78.4989 211.236 78.2335 211.42 78.0391 211.657C77.8447 211.888 77.7475 212.187 77.7475 212.555C77.7475 213.081 77.9393 213.477 78.3229 213.745C78.7064 214.013 79.195 214.147 79.7887 214.147ZM93.1423 203.894V206.101H86.1834V203.894H93.1423ZM87.9015 200.994H90.7544V212.358C90.7544 212.742 90.8122 213.036 90.9278 213.241C91.0486 213.441 91.2062 213.577 91.4006 213.651C91.595 213.724 91.8105 213.761 92.0469 213.761C92.2255 213.761 92.3884 213.748 92.5355 213.722C92.6879 213.695 92.8035 213.672 92.8823 213.651L93.363 215.881C93.2107 215.934 92.9926 215.991 92.7089 216.054C92.4304 216.117 92.0889 216.154 91.6844 216.165C90.9698 216.186 90.3262 216.078 89.7535 215.842C89.1808 215.6 88.7263 215.227 88.3901 214.722C88.0591 214.218 87.8962 213.588 87.9015 212.831V200.994ZM97.1707 208.906V215.999H94.3178V203.894H97.0446V205.951H97.1865C97.465 205.273 97.9089 204.735 98.5184 204.335C99.1331 203.936 99.8923 203.736 100.796 203.736C101.631 203.736 102.359 203.915 102.979 204.272C103.604 204.63 104.088 205.147 104.429 205.825C104.776 206.503 104.947 207.325 104.941 208.292V215.999H102.089V208.733C102.089 207.924 101.878 207.291 101.458 206.834C101.043 206.376 100.468 206.148 99.7321 206.148C99.2329 206.148 98.789 206.258 98.4002 206.479C98.0166 206.694 97.7145 207.007 97.4939 207.417C97.2785 207.827 97.1707 208.323 97.1707 208.906ZM111.911 216.236C110.729 216.236 109.705 215.976 108.838 215.455C107.971 214.935 107.298 214.208 106.82 213.272C106.347 212.337 106.111 211.244 106.111 209.994C106.111 208.743 106.347 207.648 106.82 206.707C107.298 205.767 107.971 205.037 108.838 204.517C109.705 203.996 110.729 203.736 111.911 203.736C113.094 203.736 114.118 203.996 114.985 204.517C115.852 205.037 116.522 205.767 116.995 206.707C117.473 207.648 117.712 208.743 117.712 209.994C117.712 211.244 117.473 212.337 116.995 213.272C116.522 214.208 115.852 214.935 114.985 215.455C114.118 215.976 113.094 216.236 111.911 216.236ZM111.927 213.95C112.568 213.95 113.104 213.774 113.535 213.422C113.966 213.065 114.286 212.587 114.496 211.988C114.712 211.389 114.82 210.722 114.82 209.986C114.82 209.245 114.712 208.575 114.496 207.976C114.286 207.372 113.966 206.891 113.535 206.534C113.104 206.177 112.568 205.998 111.927 205.998C111.27 205.998 110.724 206.177 110.288 206.534C109.857 206.891 109.534 207.372 109.319 207.976C109.108 208.575 109.003 209.245 109.003 209.986C109.003 210.722 109.108 211.389 109.319 211.988C109.534 212.587 109.857 213.065 110.288 213.422C110.724 213.774 111.27 213.95 111.927 213.95ZM128.49 207.094L125.89 207.377C125.816 207.115 125.687 206.868 125.503 206.637C125.325 206.405 125.083 206.219 124.778 206.077C124.474 205.935 124.101 205.864 123.659 205.864C123.066 205.864 122.566 205.993 122.162 206.25C121.763 206.508 121.566 206.841 121.571 207.251C121.566 207.603 121.694 207.89 121.957 208.11C122.225 208.331 122.666 208.512 123.281 208.654L125.346 209.095C126.491 209.342 127.342 209.734 127.899 210.27C128.461 210.806 128.745 211.507 128.75 212.374C128.745 213.136 128.522 213.808 128.081 214.391C127.644 214.969 127.038 215.421 126.26 215.747C125.482 216.073 124.589 216.236 123.58 216.236C122.099 216.236 120.906 215.926 120.002 215.306C119.099 214.68 118.56 213.811 118.387 212.697L121.169 212.429C121.295 212.976 121.563 213.388 121.973 213.666C122.383 213.945 122.916 214.084 123.573 214.084C124.25 214.084 124.794 213.945 125.204 213.666C125.619 213.388 125.827 213.044 125.827 212.634C125.827 212.287 125.693 212.001 125.425 211.775C125.162 211.549 124.752 211.376 124.195 211.255L122.13 210.821C120.969 210.58 120.11 210.173 119.553 209.6C118.996 209.022 118.721 208.292 118.726 207.409C118.721 206.663 118.923 206.017 119.333 205.47C119.748 204.918 120.323 204.493 121.059 204.193C121.799 203.889 122.653 203.736 123.62 203.736C125.038 203.736 126.155 204.038 126.969 204.643C127.789 205.247 128.296 206.064 128.49 207.094ZM135.937 203.894V206.101H128.978V203.894H135.937ZM130.696 200.994H133.549V212.358C133.549 212.742 133.607 213.036 133.723 213.241C133.843 213.441 134.001 213.577 134.195 213.651C134.39 213.724 134.605 213.761 134.842 213.761C135.02 213.761 135.183 213.748 135.33 213.722C135.483 213.695 135.598 213.672 135.677 213.651L136.158 215.881C136.005 215.934 135.787 215.991 135.504 216.054C135.225 216.117 134.884 216.154 134.479 216.165C133.765 216.186 133.121 216.078 132.548 215.842C131.976 215.6 131.521 215.227 131.185 214.722C130.854 214.218 130.691 213.588 130.696 212.831V200.994ZM134.92 202.397V198.267H137.238L136.67 202.397H134.92ZM41.8197 237.999V225.894H44.6726V237.999H41.8197ZM43.254 224.176C42.8022 224.176 42.4134 224.026 42.0876 223.727C41.7619 223.422 41.599 223.057 41.599 222.631C41.599 222.2 41.7619 221.835 42.0876 221.536C42.4134 221.231 42.8022 221.079 43.254 221.079C43.7111 221.079 44.0999 221.231 44.4204 221.536C44.7462 221.835 44.9091 222.2 44.9091 222.631C44.9091 223.057 44.7462 223.422 44.4204 223.727C44.0999 224.026 43.7111 224.176 43.254 224.176ZM49.2487 230.906V237.999H46.3958V225.894H49.1226V227.951H49.2645C49.543 227.273 49.9869 226.735 50.5964 226.335C51.2111 225.936 51.9703 225.736 52.874 225.736C53.7094 225.736 54.4371 225.915 55.0571 226.272C55.6823 226.63 56.1657 227.147 56.5072 227.825C56.8539 228.503 57.0247 229.325 57.0194 230.292V237.999H54.1665V230.733C54.1665 229.924 53.9563 229.291 53.536 228.834C53.121 228.376 52.5456 228.148 51.8101 228.148C51.3109 228.148 50.867 228.258 50.4782 228.479C50.0946 228.694 49.7925 229.007 49.5719 229.417C49.3565 229.827 49.2487 230.323 49.2487 230.906ZM69.0885 225.894L64.7775 237.999H61.6251L57.3142 225.894H60.3563L63.1383 234.886H63.2644L66.0543 225.894H69.0885ZM74.7994 238.236C73.5858 238.236 72.5376 237.983 71.6549 237.479C70.7775 236.969 70.1024 236.25 69.6295 235.32C69.1566 234.384 68.9202 233.284 68.9202 232.018C68.9202 230.772 69.1566 229.679 69.6295 228.739C70.1076 227.793 70.7749 227.058 71.6313 226.532C72.4877 226.002 73.4938 225.736 74.6497 225.736C75.3958 225.736 76.0998 225.857 76.7618 226.099C77.4291 226.335 78.0175 226.703 78.5272 227.202C79.0421 227.701 79.4466 228.337 79.7409 229.109C80.0351 229.877 80.1822 230.791 80.1822 231.852V232.727H70.26V230.804H77.4475C77.4422 230.257 77.324 229.771 77.0928 229.346C76.8617 228.915 76.5385 228.576 76.1235 228.329C75.7136 228.082 75.2355 227.959 74.6891 227.959C74.1059 227.959 73.5936 228.101 73.1523 228.384C72.711 228.663 72.3668 229.031 72.1199 229.488C71.8782 229.94 71.7547 230.436 71.7495 230.977V232.656C71.7495 233.36 71.8782 233.964 72.1357 234.469C72.3931 234.968 72.753 235.351 73.2154 235.619C73.6777 235.882 74.2189 236.013 74.8389 236.013C75.2539 236.013 75.6296 235.955 75.9658 235.84C76.3021 235.719 76.5937 235.543 76.8406 235.312C77.0876 235.081 77.2741 234.794 77.4002 234.453L80.064 234.752C79.8958 235.456 79.5754 236.071 79.1025 236.596C78.6349 237.117 78.0359 237.521 77.3056 237.81C76.5753 238.094 75.7399 238.236 74.7994 238.236ZM90.9528 229.094L88.3521 229.377C88.2785 229.115 88.1498 228.868 87.9659 228.637C87.7873 228.405 87.5456 228.219 87.2408 228.077C86.9361 227.935 86.5631 227.864 86.1217 227.864C85.528 227.864 85.0289 227.993 84.6243 228.25C84.225 228.508 84.028 228.841 84.0333 229.251C84.028 229.603 84.1567 229.89 84.4194 230.11C84.6874 230.331 85.1287 230.512 85.7434 230.654L87.8083 231.095C88.9536 231.342 89.8048 231.734 90.3617 232.27C90.9239 232.806 91.2076 233.507 91.2129 234.374C91.2076 235.136 90.9843 235.808 90.543 236.391C90.1069 236.969 89.5001 237.421 88.7225 237.747C87.9449 238.073 87.0517 238.236 86.0429 238.236C84.5613 238.236 83.3686 237.926 82.4649 237.306C81.5612 236.68 81.0227 235.811 80.8493 234.697L83.6313 234.429C83.7574 234.976 84.0254 235.388 84.4352 235.666C84.845 235.945 85.3783 236.084 86.035 236.084C86.7128 236.084 87.2566 235.945 87.6664 235.666C88.0815 235.388 88.289 235.044 88.289 234.634C88.289 234.287 88.155 234.001 87.8871 233.775C87.6244 233.549 87.2146 233.376 86.6576 233.255L84.5928 232.821C83.4317 232.58 82.5726 232.173 82.0157 231.6C81.4588 231.022 81.183 230.292 81.1882 229.409C81.183 228.663 81.3852 228.017 81.795 227.47C82.2101 226.918 82.7854 226.493 83.521 226.193C84.2618 225.889 85.1156 225.736 86.0823 225.736C87.5009 225.736 88.6174 226.038 89.4318 226.643C90.2514 227.247 90.7584 228.064 90.9528 229.094ZM98.3996 225.894V228.101H91.4406V225.894H98.3996ZM93.1587 222.994H96.0116V234.358C96.0116 234.742 96.0694 235.036 96.185 235.241C96.3059 235.441 96.4635 235.577 96.6579 235.651C96.8523 235.724 97.0677 235.761 97.3041 235.761C97.4828 235.761 97.6456 235.748 97.7927 235.722C97.9451 235.695 98.0607 235.672 98.1395 235.651L98.6203 237.881C98.4679 237.934 98.2498 237.991 97.9661 238.054C97.6877 238.117 97.3462 238.154 96.9416 238.165C96.2271 238.186 95.5834 238.078 95.0107 237.842C94.4381 237.6 93.9836 237.227 93.6473 236.722C93.3163 236.218 93.1534 235.588 93.1587 234.831V222.994ZM99.575 237.999V225.894H102.428V237.999H99.575ZM99.9139 224.302L101.679 220.7H104.469L102.05 224.302H99.9139ZM109.431 238.236C108.223 238.236 107.185 237.97 106.318 237.44C105.457 236.909 104.792 236.176 104.325 235.241C103.862 234.3 103.631 233.218 103.631 231.994C103.631 230.764 103.867 229.679 104.34 228.739C104.813 227.793 105.48 227.058 106.342 226.532C107.209 226.002 108.234 225.736 109.416 225.736C110.398 225.736 111.268 225.918 112.024 226.28C112.786 226.637 113.393 227.144 113.845 227.801C114.297 228.453 114.554 229.215 114.617 230.087H111.89C111.78 229.503 111.517 229.017 111.102 228.629C110.692 228.235 110.143 228.038 109.455 228.038C108.872 228.038 108.36 228.195 107.918 228.51C107.477 228.82 107.133 229.267 106.886 229.85C106.644 230.433 106.523 231.132 106.523 231.947C106.523 232.771 106.644 233.481 106.886 234.074C107.128 234.663 107.466 235.117 107.903 235.438C108.344 235.753 108.861 235.911 109.455 235.911C109.875 235.911 110.251 235.832 110.582 235.674C110.918 235.511 111.199 235.278 111.425 234.973C111.651 234.668 111.806 234.298 111.89 233.862H114.617C114.549 234.718 114.297 235.477 113.861 236.139C113.425 236.796 112.831 237.311 112.079 237.684C111.328 238.052 110.445 238.236 109.431 238.236ZM115.749 237.999V225.894H118.602V237.999H115.749ZM117.184 224.176C116.732 224.176 116.343 224.026 116.017 223.727C115.691 223.422 115.529 223.057 115.529 222.631C115.529 222.2 115.691 221.835 116.017 221.536C116.343 221.231 116.732 221.079 117.184 221.079C117.641 221.079 118.03 221.231 118.35 221.536C118.676 221.835 118.839 222.2 118.839 222.631C118.839 223.057 118.676 223.422 118.35 223.727C118.03 224.026 117.641 224.176 117.184 224.176ZM120.325 237.999V225.894H123.178V237.999H120.325ZM120.664 224.302L122.43 220.7H125.22L122.8 224.302H120.664Z" fill="#4FBE79"/>
</svg>
