<svg width="249" height="50" viewBox="0 0 249 50" fill="none" xmlns="http://www.w3.org/2000/svg">
<path d="M0 25C0 11.1929 11.1929 0 25 0H224C237.807 0 249 11.1929 249 25C249 38.8071 237.807 50 224 50H25C11.1929 50 0 38.8071 0 25Z" fill="#FFC721"/>
<path d="M34 34H36M34 34C33.6022 34 33.2206 33.842 32.9393 33.5607C32.658 33.2794 32.5 32.8978 32.5 32.5V30H32M34 34H30M32 30H31.5V32.5C31.5 32.8978 31.342 33.2794 31.0607 33.5607C30.7794 33.842 30.3978 34 30 34M32 30V34M30 34H28M36 16H28C25.172 16 23.757 16 22.879 16.879C22 17.757 22 19.172 22 22V24C22 26.828 22 28.243 22.879 29.121C23.757 30 25.172 30 28 30H36C38.828 30 40.243 30 41.121 29.121C42 28.243 42 26.828 42 24V22C42 19.172 42 17.757 41.121 16.879C40.243 16 38.828 16 36 16Z" stroke="#242A36" stroke-width="1.5" stroke-linecap="round" stroke-linejoin="round"/>
<path d="M36 21L33.5 23.5C33.227 23.773 33.091 23.909 32.944 23.982C32.806 24.0504 32.654 24.086 32.5 24.086C32.346 24.086 32.194 24.0504 32.056 23.982C31.909 23.909 31.773 23.772 31.5 23.5C31.227 23.227 31.091 23.091 30.944 23.018C30.806 22.9496 30.654 22.914 30.5 22.914C30.346 22.914 30.194 22.9496 30.056 23.018C29.909 23.091 29.773 23.228 29.5 23.5L27 26M34 20H35.714C36.32 20 36.624 20 36.812 20.188C37 20.377 37 20.68 37 21.286V23" stroke="#242A36" stroke-width="1.5" stroke-linecap="round" stroke-linejoin="round"/>
<path d="M66.2976 22.5447C66.174 22.157 66.0078 21.8097 65.799 21.5028C65.5945 21.1918 65.3494 20.9276 65.0639 20.7102C64.7784 20.4886 64.4524 20.3203 64.0859 20.2053C63.7237 20.0902 63.3253 20.0327 62.8906 20.0327C62.1534 20.0327 61.4886 20.2223 60.8963 20.6016C60.304 20.9808 59.8352 21.5369 59.4901 22.2699C59.1491 22.9986 58.9787 23.8913 58.9787 24.9482C58.9787 26.0092 59.1513 26.9062 59.4964 27.6392C59.8416 28.3722 60.3146 28.9283 60.9155 29.3075C61.5163 29.6868 62.2003 29.8764 62.9673 29.8764C63.679 29.8764 64.299 29.7315 64.8274 29.4418C65.3601 29.152 65.7713 28.7429 66.0611 28.2145C66.3551 27.6818 66.5021 27.0554 66.5021 26.3352L67.0135 26.4311H63.2678V24.8011H68.4134V26.2905C68.4134 27.3899 68.179 28.3445 67.7102 29.1541C67.2457 29.9595 66.6023 30.5817 65.7798 31.0206C64.9616 31.4595 64.0241 31.679 62.9673 31.679C61.7827 31.679 60.7429 31.4062 59.848 30.8608C58.9574 30.3153 58.2628 29.5419 57.7642 28.5405C57.2656 27.5348 57.0163 26.3416 57.0163 24.9609C57.0163 23.9169 57.1612 22.9794 57.451 22.1484C57.7408 21.3175 58.1477 20.6122 58.6719 20.0327C59.2003 19.4489 59.8203 19.0036 60.532 18.6967C61.2479 18.3857 62.0298 18.2301 62.8778 18.2301C63.5852 18.2301 64.2436 18.3345 64.853 18.5433C65.4666 18.7521 66.0121 19.0483 66.4893 19.4318C66.9709 19.8153 67.3693 20.2713 67.6847 20.7997C68 21.3239 68.2131 21.9055 68.3239 22.5447H66.2976ZM72.6245 31.7173C72.0023 31.7173 71.4398 31.6023 70.937 31.3722C70.4341 31.1378 70.0357 30.799 69.7417 30.3558C69.4519 29.9126 69.307 29.3693 69.307 28.7259C69.307 28.1719 69.4135 27.7159 69.6266 27.358C69.8397 27 70.1273 26.7166 70.4895 26.5078C70.8517 26.299 71.2566 26.1413 71.704 26.0348C72.1515 25.9283 72.6074 25.8473 73.0719 25.7919C73.66 25.7237 74.1373 25.6683 74.5037 25.6257C74.8702 25.5788 75.1365 25.5043 75.3027 25.402C75.4689 25.2997 75.552 25.1335 75.552 24.9034V24.8587C75.552 24.3004 75.3944 23.8679 75.079 23.5611C74.7679 23.2543 74.3034 23.1009 73.6855 23.1009C73.0421 23.1009 72.535 23.2436 72.1642 23.5291C71.7978 23.8104 71.5442 24.1236 71.4036 24.4688L69.6074 24.0597C69.8205 23.4631 70.1316 22.9815 70.5407 22.6151C70.954 22.2443 71.4292 21.9759 71.9661 21.8097C72.503 21.6392 73.0676 21.554 73.66 21.554C74.052 21.554 74.4675 21.6009 74.9064 21.6946C75.3496 21.7841 75.763 21.9503 76.1465 22.1932C76.5343 22.4361 76.8517 22.7834 77.0989 23.2351C77.3461 23.6825 77.4696 24.2642 77.4696 24.9801V31.5H75.6032V30.1577H75.5265C75.4029 30.4048 75.2175 30.6477 74.9703 30.8864C74.7232 31.125 74.4057 31.3232 74.0179 31.4808C73.6301 31.6385 73.1657 31.7173 72.6245 31.7173ZM73.04 30.1832C73.5684 30.1832 74.0201 30.0788 74.3951 29.87C74.7743 29.6612 75.062 29.3885 75.258 29.0518C75.4583 28.7109 75.5584 28.3466 75.5584 27.9588V26.6932C75.4902 26.7614 75.3581 26.8253 75.1621 26.8849C74.9703 26.9403 74.7509 26.9893 74.5037 27.032C74.2566 27.0703 74.0158 27.1065 73.7814 27.1406C73.5471 27.1705 73.351 27.196 73.1934 27.2173C72.8226 27.2642 72.4838 27.343 72.177 27.4538C71.8745 27.5646 71.6316 27.7244 71.4483 27.9332C71.2694 28.1378 71.1799 28.4105 71.1799 28.7514C71.1799 29.2244 71.3546 29.5824 71.704 29.8253C72.0534 30.0639 72.4988 30.1832 73.04 30.1832ZM79.0153 31.5V21.6818H80.8626V23.2415H80.9648C81.1438 22.7131 81.4592 22.2976 81.9109 21.995C82.3668 21.6882 82.8825 21.5348 83.4577 21.5348C83.5771 21.5348 83.7177 21.5391 83.8796 21.5476C84.0458 21.5561 84.1758 21.5668 84.2695 21.5795V23.4077C84.1928 23.3864 84.0565 23.3629 83.8604 23.3374C83.6644 23.3075 83.4684 23.2926 83.2724 23.2926C82.8207 23.2926 82.418 23.3885 82.0643 23.5803C81.7148 23.7678 81.4379 24.0298 81.2333 24.3665C81.0288 24.6989 80.9265 25.0781 80.9265 25.5043V31.5H79.0153ZM87.6928 31.7173C87.0707 31.7173 86.5082 31.6023 86.0053 31.3722C85.5025 31.1378 85.104 30.799 84.81 30.3558C84.5202 29.9126 84.3754 29.3693 84.3754 28.7259C84.3754 28.1719 84.4819 27.7159 84.695 27.358C84.908 27 85.1957 26.7166 85.5579 26.5078C85.9201 26.299 86.3249 26.1413 86.7724 26.0348C87.2198 25.9283 87.6758 25.8473 88.1403 25.7919C88.7283 25.7237 89.2056 25.6683 89.5721 25.6257C89.9386 25.5788 90.2049 25.5043 90.3711 25.402C90.5373 25.2997 90.6204 25.1335 90.6204 24.9034V24.8587C90.6204 24.3004 90.4627 23.8679 90.1474 23.5611C89.8363 23.2543 89.3718 23.1009 88.7539 23.1009C88.1104 23.1009 87.6033 23.2436 87.2326 23.5291C86.8661 23.8104 86.6126 24.1236 86.4719 24.4688L84.6758 24.0597C84.8888 23.4631 85.1999 22.9815 85.609 22.6151C86.0224 22.2443 86.4975 21.9759 87.0344 21.8097C87.5714 21.6392 88.136 21.554 88.7283 21.554C89.1204 21.554 89.5359 21.6009 89.9748 21.6946C90.418 21.7841 90.8313 21.9503 91.2148 22.1932C91.6026 22.4361 91.9201 22.7834 92.1673 23.2351C92.4144 23.6825 92.538 24.2642 92.538 24.9801V31.5H90.6715V30.1577H90.5948C90.4712 30.4048 90.2859 30.6477 90.0387 30.8864C89.7915 31.125 89.4741 31.3232 89.0863 31.4808C88.6985 31.6385 88.234 31.7173 87.6928 31.7173ZM88.1083 30.1832C88.6367 30.1832 89.0884 30.0788 89.4634 29.87C89.8427 29.6612 90.1303 29.3885 90.3263 29.0518C90.5266 28.7109 90.6268 28.3466 90.6268 27.9588V26.6932C90.5586 26.7614 90.4265 26.8253 90.2305 26.8849C90.0387 26.9403 89.8192 26.9893 89.5721 27.032C89.3249 27.0703 89.0842 27.1065 88.8498 27.1406C88.6154 27.1705 88.4194 27.196 88.2617 27.2173C87.891 27.2642 87.5522 27.343 87.2454 27.4538C86.9428 27.5646 86.6999 27.7244 86.5167 27.9332C86.3377 28.1378 86.2482 28.4105 86.2482 28.7514C86.2482 29.2244 86.4229 29.5824 86.7724 29.8253C87.1218 30.0639 87.5671 30.1832 88.1083 30.1832ZM95.9949 25.6705V31.5H94.0836V21.6818H95.9181V23.2798H96.0396C96.2654 22.7599 96.6191 22.3423 97.1007 22.027C97.5865 21.7116 98.198 21.554 98.9352 21.554C99.6042 21.554 100.19 21.6946 100.693 21.9759C101.196 22.2528 101.586 22.6662 101.863 23.2159C102.14 23.7656 102.278 24.4453 102.278 25.255V31.5H100.367V25.4851C100.367 24.7734 100.182 24.2173 99.8109 23.8168C99.4402 23.4119 98.9309 23.2095 98.2832 23.2095C97.84 23.2095 97.4458 23.3054 97.1007 23.4972C96.7598 23.6889 96.4892 23.9702 96.2889 24.3409C96.0929 24.7074 95.9949 25.1506 95.9949 25.6705ZM108.425 21.6818V23.2159H103.062V21.6818H108.425ZM104.5 19.3295H106.411V28.6172C106.411 28.9879 106.466 29.267 106.577 29.4545C106.688 29.6378 106.831 29.7635 107.006 29.8317C107.184 29.8956 107.378 29.9276 107.587 29.9276C107.741 29.9276 107.875 29.9169 107.99 29.8956C108.105 29.8743 108.194 29.8572 108.258 29.8445L108.604 31.4233C108.493 31.4659 108.335 31.5085 108.131 31.5511C107.926 31.598 107.67 31.6236 107.363 31.6278C106.861 31.6364 106.392 31.5469 105.957 31.3594C105.523 31.1719 105.171 30.8821 104.903 30.4901C104.634 30.098 104.5 29.6058 104.5 29.0135V19.3295ZM113.569 31.6982C112.648 31.6982 111.845 31.4872 111.159 31.0653C110.473 30.6435 109.94 30.0533 109.561 29.2947C109.182 28.5362 108.992 27.6499 108.992 26.6357C108.992 25.6172 109.182 24.7266 109.561 23.9638C109.94 23.201 110.473 22.6087 111.159 22.1868C111.845 21.7649 112.648 21.554 113.569 21.554C114.489 21.554 115.293 21.7649 115.979 22.1868C116.665 22.6087 117.197 23.201 117.577 23.9638C117.956 24.7266 118.146 25.6172 118.146 26.6357C118.146 27.6499 117.956 28.5362 117.577 29.2947C117.197 30.0533 116.665 30.6435 115.979 31.0653C115.293 31.4872 114.489 31.6982 113.569 31.6982ZM113.575 30.0938C114.172 30.0938 114.666 29.9361 115.058 29.6207C115.45 29.3054 115.74 28.8857 115.928 28.3615C116.119 27.8374 116.215 27.2599 116.215 26.6293C116.215 26.0028 116.119 25.4276 115.928 24.9034C115.74 24.375 115.45 23.951 115.058 23.6314C114.666 23.3118 114.172 23.152 113.575 23.152C112.974 23.152 112.476 23.3118 112.08 23.6314C111.688 23.951 111.396 24.375 111.204 24.9034C111.016 25.4276 110.923 26.0028 110.923 26.6293C110.923 27.2599 111.016 27.8374 111.204 28.3615C111.396 28.8857 111.688 29.3054 112.08 29.6207C112.476 29.9361 112.974 30.0938 113.575 30.0938ZM127.344 21.6818L123.784 31.5H121.738L118.172 21.6818H120.223L122.71 29.2372H122.812L125.292 21.6818H127.344ZM130.716 31.7173C130.094 31.7173 129.532 31.6023 129.029 31.3722C128.526 31.1378 128.127 30.799 127.833 30.3558C127.544 29.9126 127.399 29.3693 127.399 28.7259C127.399 28.1719 127.505 27.7159 127.718 27.358C127.931 27 128.219 26.7166 128.581 26.5078C128.944 26.299 129.348 26.1413 129.796 26.0348C130.243 25.9283 130.699 25.8473 131.164 25.7919C131.752 25.7237 132.229 25.6683 132.596 25.6257C132.962 25.5788 133.228 25.5043 133.395 25.402C133.561 25.2997 133.644 25.1335 133.644 24.9034V24.8587C133.644 24.3004 133.486 23.8679 133.171 23.5611C132.86 23.2543 132.395 23.1009 131.777 23.1009C131.134 23.1009 130.627 23.2436 130.256 23.5291C129.89 23.8104 129.636 24.1236 129.495 24.4688L127.699 24.0597C127.912 23.4631 128.223 22.9815 128.632 22.6151C129.046 22.2443 129.521 21.9759 130.058 21.8097C130.595 21.6392 131.159 21.554 131.752 21.554C132.144 21.554 132.559 21.6009 132.998 21.6946C133.441 21.7841 133.855 21.9503 134.238 22.1932C134.626 22.4361 134.944 22.7834 135.191 23.2351C135.438 23.6825 135.561 24.2642 135.561 24.9801V31.5H133.695V30.1577H133.618C133.495 30.4048 133.309 30.6477 133.062 30.8864C132.815 31.125 132.498 31.3232 132.11 31.4808C131.722 31.6385 131.257 31.7173 130.716 31.7173ZM131.132 30.1832C131.66 30.1832 132.112 30.0788 132.487 29.87C132.866 29.6612 133.154 29.3885 133.35 29.0518C133.55 28.7109 133.65 28.3466 133.65 27.9588V26.6932C133.582 26.7614 133.45 26.8253 133.254 26.8849C133.062 26.9403 132.843 26.9893 132.596 27.032C132.348 27.0703 132.108 27.1065 131.873 27.1406C131.639 27.1705 131.443 27.196 131.285 27.2173C130.914 27.2642 130.576 27.343 130.269 27.4538C129.966 27.5646 129.723 27.7244 129.54 27.9332C129.361 28.1378 129.272 28.4105 129.272 28.7514C129.272 29.2244 129.446 29.5824 129.796 29.8253C130.145 30.0639 130.591 30.1832 131.132 30.1832ZM139.018 25.6705V31.5H137.107V21.6818H138.942V23.2798H139.063C139.289 22.7599 139.643 22.3423 140.124 22.027C140.61 21.7116 141.221 21.554 141.959 21.554C142.628 21.554 143.214 21.6946 143.716 21.9759C144.219 22.2528 144.609 22.6662 144.886 23.2159C145.163 23.7656 145.302 24.4453 145.302 25.255V31.5H143.39V25.4851C143.39 24.7734 143.205 24.2173 142.834 23.8168C142.464 23.4119 141.954 23.2095 141.307 23.2095C140.863 23.2095 140.469 23.3054 140.124 23.4972C139.783 23.6889 139.513 23.9702 139.312 24.3409C139.116 24.7074 139.018 25.1506 139.018 25.6705ZM147.721 35.1818C147.436 35.1818 147.176 35.1584 146.942 35.1115C146.707 35.0689 146.532 35.022 146.417 34.9709L146.878 33.4048C147.227 33.4986 147.538 33.5391 147.811 33.5263C148.084 33.5135 148.324 33.4112 148.533 33.2195C148.746 33.0277 148.934 32.7145 149.096 32.2798L149.332 31.6278L145.74 21.6818H147.785L150.272 29.3011H150.374L152.861 21.6818H154.912L150.866 32.8104C150.679 33.3217 150.44 33.7543 150.15 34.108C149.861 34.4659 149.515 34.7344 149.115 34.9134C148.714 35.0923 148.25 35.1818 147.721 35.1818ZM149.53 20.3714L151.026 17.4247H153.04L151.058 20.3714H149.53ZM167.871 21.6818L164.311 31.5H162.266L158.699 21.6818H160.751L163.237 29.2372H163.339L165.82 21.6818H167.871ZM169.876 35.1818C169.59 35.1818 169.33 35.1584 169.096 35.1115C168.862 35.0689 168.687 35.022 168.572 34.9709L169.032 33.4048C169.381 33.4986 169.692 33.5391 169.965 33.5263C170.238 33.5135 170.479 33.4112 170.688 33.2195C170.901 33.0277 171.088 32.7145 171.25 32.2798L171.487 31.6278L167.894 21.6818H169.94L172.426 29.3011H172.528L175.015 21.6818H177.067L173.021 32.8104C172.833 33.3217 172.594 33.7543 172.305 34.108C172.015 34.4659 171.67 34.7344 171.269 34.9134C170.869 35.0923 170.404 35.1818 169.876 35.1818ZM171.685 20.3714L173.18 17.4247H175.194L173.212 20.3714H171.685ZM185.22 24.0788L183.488 24.3857C183.415 24.1641 183.3 23.9531 183.143 23.7528C182.989 23.5526 182.781 23.3885 182.516 23.2607C182.252 23.1328 181.922 23.0689 181.526 23.0689C180.984 23.0689 180.533 23.1903 180.17 23.4332C179.808 23.6719 179.627 23.9808 179.627 24.3601C179.627 24.6882 179.749 24.9524 179.991 25.1527C180.234 25.353 180.626 25.517 181.168 25.6449L182.727 26.0028C183.631 26.2116 184.304 26.5334 184.747 26.968C185.19 27.4027 185.412 27.9673 185.412 28.6619C185.412 29.25 185.241 29.7741 184.901 30.2344C184.564 30.6903 184.093 31.0483 183.488 31.3082C182.887 31.5682 182.19 31.6982 181.398 31.6982C180.298 31.6982 179.401 31.4638 178.707 30.995C178.012 30.522 177.586 29.8509 177.428 28.9815L179.276 28.7003C179.391 29.1818 179.627 29.5462 179.985 29.7933C180.343 30.0362 180.81 30.1577 181.385 30.1577C182.011 30.1577 182.512 30.0277 182.887 29.7678C183.262 29.5036 183.45 29.1818 183.45 28.8026C183.45 28.4957 183.335 28.2379 183.104 28.0291C182.879 27.8203 182.531 27.6626 182.062 27.5561L180.401 27.1918C179.484 26.983 178.807 26.6506 178.368 26.1946C177.933 25.7386 177.716 25.1612 177.716 24.4624C177.716 23.8828 177.878 23.3757 178.202 22.9411C178.526 22.5064 178.973 22.1676 179.544 21.9247C180.115 21.6776 180.769 21.554 181.506 21.554C182.567 21.554 183.403 21.7841 184.012 22.2443C184.621 22.7003 185.024 23.3118 185.22 24.0788ZM188.425 18.4091V31.5H186.513V18.4091H188.425ZM194.227 31.6982C193.26 31.6982 192.427 31.4915 191.728 31.0781C191.033 30.6605 190.496 30.0746 190.117 29.3203C189.742 28.5618 189.555 27.6733 189.555 26.6548C189.555 25.6491 189.742 24.7628 190.117 23.9957C190.496 23.2287 191.025 22.63 191.702 22.1996C192.384 21.7692 193.181 21.554 194.093 21.554C194.647 21.554 195.184 21.6456 195.704 21.8288C196.224 22.0121 196.69 22.2997 197.104 22.6918C197.517 23.0838 197.843 23.593 198.082 24.2195C198.32 24.8416 198.44 25.598 198.44 26.4886V27.1662H190.635V25.7344H196.567C196.567 25.2315 196.464 24.7862 196.26 24.3984C196.055 24.0064 195.768 23.6974 195.397 23.4716C195.031 23.2457 194.6 23.1328 194.106 23.1328C193.569 23.1328 193.1 23.2649 192.7 23.5291C192.303 23.7891 191.996 24.13 191.779 24.5518C191.566 24.9695 191.46 25.4233 191.46 25.9134V27.032C191.46 27.6882 191.575 28.2464 191.805 28.7067C192.039 29.1669 192.365 29.5185 192.783 29.7614C193.2 30 193.688 30.1193 194.246 30.1193C194.609 30.1193 194.939 30.0682 195.237 29.9659C195.536 29.8594 195.793 29.7017 196.011 29.4929C196.228 29.2841 196.394 29.0263 196.509 28.7195L198.318 29.0455C198.173 29.5781 197.913 30.0447 197.538 30.4453C197.168 30.8416 196.701 31.1506 196.138 31.3722C195.58 31.5895 194.943 31.6982 194.227 31.6982ZM203.236 31.6918C202.443 31.6918 201.736 31.4893 201.113 31.0845C200.496 30.6754 200.01 30.0937 199.656 29.3395C199.307 28.581 199.132 27.6712 199.132 26.6101C199.132 25.549 199.309 24.6413 199.662 23.8871C200.02 23.1328 200.51 22.5554 201.133 22.1548C201.755 21.7543 202.46 21.554 203.248 21.554C203.858 21.554 204.348 21.6562 204.719 21.8608C205.094 22.0611 205.383 22.2955 205.588 22.5639C205.797 22.8324 205.959 23.0689 206.074 23.2734H206.189V18.4091H208.1V31.5H206.233V29.9723H206.074C205.959 30.1811 205.792 30.4197 205.575 30.6882C205.362 30.9567 205.068 31.1911 204.693 31.3913C204.318 31.5916 203.832 31.6918 203.236 31.6918ZM203.657 30.0618C204.207 30.0618 204.672 29.9169 205.051 29.6271C205.434 29.3331 205.724 28.9261 205.92 28.4062C206.121 27.8864 206.221 27.2812 206.221 26.5909C206.221 25.9091 206.123 25.3125 205.927 24.8011C205.731 24.2898 205.443 23.8913 205.064 23.6058C204.684 23.3203 204.216 23.1776 203.657 23.1776C203.082 23.1776 202.603 23.3267 202.219 23.625C201.836 23.9233 201.546 24.3303 201.35 24.8459C201.158 25.3615 201.062 25.9432 201.062 26.5909C201.062 27.2472 201.16 27.8374 201.356 28.3615C201.552 28.8857 201.842 29.3011 202.226 29.608C202.613 29.9105 203.091 30.0618 203.657 30.0618ZM213.963 31.6982C213.043 31.6982 212.24 31.4872 211.554 31.0653C210.868 30.6435 210.335 30.0533 209.956 29.2947C209.576 28.5362 209.387 27.6499 209.387 26.6357C209.387 25.6172 209.576 24.7266 209.956 23.9638C210.335 23.201 210.868 22.6087 211.554 22.1868C212.24 21.7649 213.043 21.554 213.963 21.554C214.884 21.554 215.687 21.7649 216.373 22.1868C217.059 22.6087 217.592 23.201 217.971 23.9638C218.35 24.7266 218.54 25.6172 218.54 26.6357C218.54 27.6499 218.35 28.5362 217.971 29.2947C217.592 30.0533 217.059 30.6435 216.373 31.0653C215.687 31.4872 214.884 31.6982 213.963 31.6982ZM213.97 30.0938C214.566 30.0938 215.061 29.9361 215.453 29.6207C215.845 29.3054 216.135 28.8857 216.322 28.3615C216.514 27.8374 216.61 27.2599 216.61 26.6293C216.61 26.0028 216.514 25.4276 216.322 24.9034C216.135 24.375 215.845 23.951 215.453 23.6314C215.061 23.3118 214.566 23.152 213.97 23.152C213.369 23.152 212.87 23.3118 212.474 23.6314C212.082 23.951 211.79 24.375 211.598 24.9034C211.411 25.4276 211.317 26.0028 211.317 26.6293C211.317 27.2599 211.411 27.8374 211.598 28.3615C211.79 28.8857 212.082 29.3054 212.474 29.6207C212.87 29.9361 213.369 30.0938 213.97 30.0938ZM221.431 28.1697L221.419 25.8366H221.751L225.663 21.6818H227.951L223.49 26.4119H223.189L221.431 28.1697ZM219.673 31.5V18.4091H221.585V31.5H219.673ZM225.874 31.5L222.358 26.8338L223.675 25.4979L228.22 31.5H225.874Z" fill="#242A36"/>
</svg>
