<svg width="368" height="143" viewBox="0 0 368 143" fill="none" xmlns="http://www.w3.org/2000/svg">
<path d="M10 0.5L358 0.5C363.247 0.500005 367.5 4.7533 367.5 10V133C367.5 138.247 363.247 142.5 358 142.5H10C4.7533 142.5 0.5 138.247 0.5 133L0.5 10C0.500001 4.7533 4.7533 0.5 10 0.5Z" fill="white"/>
<path d="M10 0.5L358 0.5C363.247 0.500005 367.5 4.7533 367.5 10V133C367.5 138.247 363.247 142.5 358 142.5H10C4.7533 142.5 0.5 138.247 0.5 133L0.5 10C0.500001 4.7533 4.7533 0.5 10 0.5Z" stroke="#E4E4E4"/>
<path d="M29.0455 26.3636H30.4545V34.0682C30.4545 34.8636 30.267 35.5739 29.892 36.1989C29.5208 36.8201 28.9962 37.3106 28.3182 37.6705C27.6402 38.0265 26.8447 38.2045 25.9318 38.2045C25.0189 38.2045 24.2235 38.0265 23.5455 37.6705C22.8674 37.3106 22.3409 36.8201 21.9659 36.1989C21.5947 35.5739 21.4091 34.8636 21.4091 34.0682V26.3636H22.8182V33.9545C22.8182 34.5227 22.9432 35.0284 23.1932 35.4716C23.4432 35.911 23.7992 36.2576 24.2614 36.5114C24.7273 36.7614 25.2841 36.8864 25.9318 36.8864C26.5795 36.8864 27.1364 36.7614 27.6023 36.5114C28.0682 36.2576 28.4242 35.911 28.6705 35.4716C28.9205 35.0284 29.0455 34.5227 29.0455 33.9545V26.3636ZM39.2685 31.2273L38.0639 31.5682C37.9882 31.3674 37.8764 31.1724 37.7287 30.983C37.5848 30.7898 37.3878 30.6307 37.1378 30.5057C36.8878 30.3807 36.5677 30.3182 36.1776 30.3182C35.6435 30.3182 35.1984 30.4413 34.8423 30.6875C34.4901 30.9299 34.3139 31.2386 34.3139 31.6136C34.3139 31.947 34.4351 32.2102 34.6776 32.4034C34.92 32.5966 35.2988 32.7576 35.8139 32.8864L37.1094 33.2045C37.8897 33.3939 38.4711 33.6837 38.8537 34.0739C39.2363 34.4602 39.4276 34.9583 39.4276 35.5682C39.4276 36.0682 39.2836 36.5152 38.9957 36.9091C38.7117 37.303 38.3139 37.6136 37.8026 37.8409C37.2912 38.0682 36.6965 38.1818 36.0185 38.1818C35.1283 38.1818 34.3916 37.9886 33.8082 37.6023C33.2249 37.2159 32.8556 36.6515 32.7003 35.9091L33.973 35.5909C34.0942 36.0606 34.3234 36.4129 34.6605 36.6477C35.0014 36.8826 35.4465 37 35.9957 37C36.6207 37 37.117 36.8674 37.4844 36.6023C37.8556 36.3333 38.0412 36.0114 38.0412 35.6364C38.0412 35.3333 37.9351 35.0795 37.723 34.875C37.5109 34.6667 37.1851 34.5114 36.7457 34.4091L35.2912 34.0682C34.492 33.8788 33.9048 33.5852 33.5298 33.1875C33.1586 32.786 32.973 32.2841 32.973 31.6818C32.973 31.1894 33.1113 30.7538 33.3878 30.375C33.6681 29.9962 34.0488 29.6989 34.5298 29.483C35.0147 29.267 35.5639 29.1591 36.1776 29.1591C37.0412 29.1591 37.7192 29.3485 38.2117 29.7273C38.7079 30.1061 39.0601 30.6061 39.2685 31.2273ZM34.9957 25.7727L36.1776 27.3636L37.3594 25.7727H38.6321V25.8636L36.7912 28.2273H35.5639L33.723 25.8636V25.7727H34.9957ZM45.1051 38.1818C44.2642 38.1818 43.5388 37.9962 42.929 37.625C42.3229 37.25 41.8551 36.7273 41.5256 36.0568C41.1998 35.3826 41.0369 34.5985 41.0369 33.7045C41.0369 32.8106 41.1998 32.0227 41.5256 31.3409C41.8551 30.6553 42.3135 30.1212 42.9006 29.7386C43.4915 29.3523 44.1809 29.1591 44.9688 29.1591C45.4233 29.1591 45.8722 29.2349 46.3153 29.3864C46.7585 29.5379 47.1619 29.7841 47.5256 30.125C47.8892 30.4621 48.179 30.9091 48.3949 31.4659C48.6108 32.0227 48.7188 32.7083 48.7188 33.5227V34.0909H41.9915V32.9318H47.3551C47.3551 32.4394 47.2566 32 47.0597 31.6136C46.8665 31.2273 46.59 30.9224 46.2301 30.6989C45.8741 30.4754 45.4536 30.3636 44.9688 30.3636C44.4347 30.3636 43.9725 30.4962 43.5824 30.7614C43.196 31.0227 42.8987 31.3636 42.6903 31.7841C42.482 32.2045 42.3778 32.6553 42.3778 33.1364V33.9091C42.3778 34.5682 42.4915 35.1269 42.7188 35.5852C42.9498 36.0398 43.2699 36.3864 43.679 36.625C44.0881 36.8599 44.5635 36.9773 45.1051 36.9773C45.4574 36.9773 45.7756 36.928 46.0597 36.8295C46.3475 36.7273 46.5956 36.5758 46.804 36.375C47.0123 36.1705 47.1733 35.9167 47.2869 35.6136L48.5824 35.9773C48.446 36.4167 48.2169 36.803 47.8949 37.1364C47.5729 37.4659 47.1752 37.7235 46.7017 37.9091C46.2282 38.0909 45.696 38.1818 45.1051 38.1818ZM54.554 29.2727V30.4091H50.0313V29.2727H54.554ZM51.3494 27.1818H52.6903V35.5C52.6903 35.8788 52.7453 36.1629 52.8551 36.3523C52.9688 36.5379 53.1127 36.6629 53.2869 36.7273C53.465 36.7879 53.6525 36.8182 53.8494 36.8182C53.9972 36.8182 54.1184 36.8106 54.2131 36.7955C54.3078 36.7765 54.3835 36.7614 54.4403 36.75L54.7131 37.9545C54.6222 37.9886 54.4953 38.0227 54.3324 38.0568C54.1695 38.0947 53.9631 38.1136 53.7131 38.1136C53.3343 38.1136 52.9631 38.0322 52.5994 37.8693C52.2396 37.7064 51.9403 37.4583 51.7017 37.125C51.4669 36.7917 51.3494 36.3712 51.3494 35.8636V27.1818ZM56.571 38V29.2727H57.8665V30.5909H57.9574C58.1165 30.1591 58.4044 29.8087 58.821 29.5398C59.2377 29.2708 59.7074 29.1364 60.2301 29.1364C60.3286 29.1364 60.4517 29.1383 60.5994 29.142C60.7472 29.1458 60.8589 29.1515 60.9347 29.1591V30.5227C60.8892 30.5114 60.785 30.4943 60.6222 30.4716C60.4631 30.4451 60.2945 30.4318 60.1165 30.4318C59.6922 30.4318 59.3135 30.5208 58.9801 30.6989C58.6506 30.8731 58.3892 31.1155 58.196 31.4261C58.0066 31.733 57.9119 32.0833 57.9119 32.4773V38H56.571ZM65.9176 38.1818C65.0767 38.1818 64.3513 37.9962 63.7415 37.625C63.1354 37.25 62.6676 36.7273 62.3381 36.0568C62.0123 35.3826 61.8494 34.5985 61.8494 33.7045C61.8494 32.8106 62.0123 32.0227 62.3381 31.3409C62.6676 30.6553 63.126 30.1212 63.7131 29.7386C64.304 29.3523 64.9934 29.1591 65.7813 29.1591C66.2358 29.1591 66.6847 29.2349 67.1278 29.3864C67.571 29.5379 67.9744 29.7841 68.3381 30.125C68.7017 30.4621 68.9915 30.9091 69.2074 31.4659C69.4233 32.0227 69.5313 32.7083 69.5313 33.5227V34.0909H62.804V32.9318H68.1676C68.1676 32.4394 68.0691 32 67.8722 31.6136C67.679 31.2273 67.4025 30.9224 67.0426 30.6989C66.6866 30.4754 66.2661 30.3636 65.7813 30.3636C65.2472 30.3636 64.785 30.4962 64.3949 30.7614C64.0085 31.0227 63.7112 31.3636 63.5028 31.7841C63.2945 32.2045 63.1903 32.6553 63.1903 33.1364V33.9091C63.1903 34.5682 63.304 35.1269 63.5313 35.5852C63.7623 36.0398 64.0824 36.3864 64.4915 36.625C64.9006 36.8599 65.376 36.9773 65.9176 36.9773C66.2699 36.9773 66.5881 36.928 66.8722 36.8295C67.16 36.7273 67.4082 36.5758 67.6165 36.375C67.8248 36.1705 67.9858 35.9167 68.0994 35.6136L69.3949 35.9773C69.2585 36.4167 69.0294 36.803 68.7074 37.1364C68.3854 37.4659 67.9877 37.7235 67.5142 37.9091C67.0407 38.0909 66.5085 38.1818 65.9176 38.1818ZM72.9119 32.75V38H71.571V29.2727H72.8665V30.6364H72.9801C73.1847 30.1932 73.4953 29.8371 73.9119 29.5682C74.3286 29.2955 74.8665 29.1591 75.5256 29.1591C76.1165 29.1591 76.6335 29.2803 77.0767 29.5227C77.5199 29.7614 77.8646 30.125 78.1108 30.6136C78.357 31.0985 78.4801 31.7121 78.4801 32.4545V38H77.1392V32.5455C77.1392 31.8599 76.9612 31.3258 76.6051 30.9432C76.2491 30.5568 75.7604 30.3636 75.1392 30.3636C74.7112 30.3636 74.3286 30.4564 73.9915 30.642C73.6582 30.8277 73.3949 31.0985 73.2017 31.4545C73.0085 31.8106 72.9119 32.2424 72.9119 32.75ZM81.4815 41.2727C81.2543 41.2727 81.0516 41.2538 80.8736 41.2159C80.6956 41.1818 80.5725 41.1477 80.5043 41.1136L80.8452 39.9318C81.1709 40.0152 81.4588 40.0455 81.7088 40.0227C81.9588 40 82.1804 39.8883 82.3736 39.6875C82.5706 39.4905 82.7505 39.1705 82.9134 38.7273L83.1634 38.0455L79.9361 29.2727H81.3906L83.7997 36.2273H83.8906L86.2997 29.2727H87.7543L84.0497 39.2727C83.8831 39.7235 83.6766 40.0966 83.4304 40.392C83.1842 40.6913 82.8982 40.9129 82.5725 41.0568C82.2505 41.2008 81.8868 41.2727 81.4815 41.2727ZM83.2315 28.0909L84.6179 25.4545H86.1861L84.4134 28.0909H83.2315ZM94.0242 38V29.2727H95.3196V30.5909H95.4105C95.5696 30.1591 95.8575 29.8087 96.2742 29.5398C96.6908 29.2708 97.1605 29.1364 97.6833 29.1364C97.7817 29.1364 97.9048 29.1383 98.0526 29.142C98.2003 29.1458 98.312 29.1515 98.3878 29.1591V30.5227C98.3423 30.5114 98.2382 30.4943 98.0753 30.4716C97.9162 30.4451 97.7476 30.4318 97.5696 30.4318C97.1454 30.4318 96.7666 30.5208 96.4332 30.6989C96.1037 30.8731 95.8423 31.1155 95.6492 31.4261C95.4598 31.733 95.3651 32.0833 95.3651 32.4773V38H94.0242ZM103.257 38.1818C102.469 38.1818 101.778 37.9943 101.183 37.6193C100.592 37.2443 100.13 36.7197 99.7969 36.0455C99.4673 35.3712 99.3026 34.5833 99.3026 33.6818C99.3026 32.7727 99.4673 31.9792 99.7969 31.3011C100.13 30.6231 100.592 30.0966 101.183 29.7216C101.778 29.3466 102.469 29.1591 103.257 29.1591C104.045 29.1591 104.734 29.3466 105.325 29.7216C105.92 30.0966 106.382 30.6231 106.712 31.3011C107.045 31.9792 107.212 32.7727 107.212 33.6818C107.212 34.5833 107.045 35.3712 106.712 36.0455C106.382 36.7197 105.92 37.2443 105.325 37.6193C104.734 37.9943 104.045 38.1818 103.257 38.1818ZM103.257 36.9773C103.856 36.9773 104.348 36.8239 104.734 36.517C105.121 36.2102 105.407 35.8068 105.592 35.3068C105.778 34.8068 105.871 34.2652 105.871 33.6818C105.871 33.0985 105.778 32.5549 105.592 32.0511C105.407 31.5474 105.121 31.1402 104.734 30.8295C104.348 30.5189 103.856 30.3636 103.257 30.3636C102.659 30.3636 102.166 30.5189 101.78 30.8295C101.393 31.1402 101.107 31.5474 100.922 32.0511C100.736 32.5549 100.643 33.0985 100.643 33.6818C100.643 34.2652 100.736 34.8068 100.922 35.3068C101.107 35.8068 101.393 36.2102 101.78 36.517C102.166 36.8239 102.659 36.9773 103.257 36.9773ZM109.009 38V36.9773L113.963 30.6136V30.5227H109.168V29.2727H115.69V30.3409L110.872 36.6591V36.75H115.849V38H109.009ZM117.915 41.2727V29.2727H119.21V30.6591H119.369C119.468 30.5076 119.604 30.3144 119.778 30.0795C119.956 29.8409 120.21 29.6288 120.54 29.4432C120.873 29.2538 121.324 29.1591 121.892 29.1591C122.627 29.1591 123.275 29.3428 123.835 29.7102C124.396 30.0777 124.833 30.5985 125.148 31.2727C125.462 31.947 125.619 32.7424 125.619 33.6591C125.619 34.5833 125.462 35.3845 125.148 36.0625C124.833 36.7367 124.398 37.2595 123.841 37.6307C123.284 37.9981 122.642 38.1818 121.915 38.1818C121.354 38.1818 120.905 38.089 120.568 37.9034C120.231 37.714 119.972 37.5 119.79 37.2614C119.608 37.0189 119.468 36.8182 119.369 36.6591H119.256V41.2727H117.915ZM119.233 33.6364C119.233 34.2955 119.33 34.8769 119.523 35.3807C119.716 35.8807 119.998 36.2727 120.369 36.5568C120.741 36.8371 121.195 36.9773 121.733 36.9773C122.294 36.9773 122.761 36.8295 123.136 36.5341C123.515 36.2349 123.799 35.8333 123.989 35.3295C124.182 34.822 124.278 34.2576 124.278 33.6364C124.278 33.0227 124.184 32.4697 123.994 31.9773C123.809 31.4811 123.527 31.089 123.148 30.8011C122.773 30.5095 122.301 30.3636 121.733 30.3636C121.188 30.3636 120.729 30.5019 120.358 30.7784C119.987 31.0511 119.706 31.4337 119.517 31.9261C119.328 32.4148 119.233 32.9849 119.233 33.6364ZM131.21 38.1818C130.422 38.1818 129.731 37.9943 129.136 37.6193C128.545 37.2443 128.083 36.7197 127.75 36.0455C127.42 35.3712 127.256 34.5833 127.256 33.6818C127.256 32.7727 127.42 31.9792 127.75 31.3011C128.083 30.6231 128.545 30.0966 129.136 29.7216C129.731 29.3466 130.422 29.1591 131.21 29.1591C131.998 29.1591 132.688 29.3466 133.278 29.7216C133.873 30.0966 134.335 30.6231 134.665 31.3011C134.998 31.9792 135.165 32.7727 135.165 33.6818C135.165 34.5833 134.998 35.3712 134.665 36.0455C134.335 36.7197 133.873 37.2443 133.278 37.6193C132.688 37.9943 131.998 38.1818 131.21 38.1818ZM131.21 36.9773C131.809 36.9773 132.301 36.8239 132.688 36.517C133.074 36.2102 133.36 35.8068 133.545 35.3068C133.731 34.8068 133.824 34.2652 133.824 33.6818C133.824 33.0985 133.731 32.5549 133.545 32.0511C133.36 31.5474 133.074 31.1402 132.688 30.8295C132.301 30.5189 131.809 30.3636 131.21 30.3636C130.612 30.3636 130.119 30.5189 129.733 30.8295C129.347 31.1402 129.061 31.5474 128.875 32.0511C128.689 32.5549 128.597 33.0985 128.597 33.6818C128.597 34.2652 128.689 34.8068 128.875 35.3068C129.061 35.8068 129.347 36.2102 129.733 36.517C130.119 36.8239 130.612 36.9773 131.21 36.9773ZM140.757 38.1818C139.939 38.1818 139.234 37.9886 138.643 37.6023C138.053 37.2159 137.598 36.6837 137.28 36.0057C136.962 35.3277 136.803 34.553 136.803 33.6818C136.803 32.7955 136.965 32.0133 137.291 31.3352C137.621 30.6534 138.079 30.1212 138.666 29.7386C139.257 29.3523 139.947 29.1591 140.734 29.1591C141.348 29.1591 141.901 29.2727 142.393 29.5C142.886 29.7273 143.289 30.0455 143.604 30.4545C143.918 30.8636 144.113 31.3409 144.189 31.8864H142.848C142.746 31.4886 142.518 31.1364 142.166 30.8295C141.818 30.5189 141.348 30.3636 140.757 30.3636C140.234 30.3636 139.776 30.5 139.382 30.7727C138.992 31.0417 138.687 31.4224 138.467 31.9148C138.251 32.4034 138.143 32.9773 138.143 33.6364C138.143 34.3106 138.25 34.8977 138.462 35.3977C138.678 35.8977 138.981 36.286 139.371 36.5625C139.765 36.839 140.227 36.9773 140.757 36.9773C141.106 36.9773 141.422 36.9167 141.706 36.7955C141.99 36.6742 142.231 36.5 142.428 36.2727C142.625 36.0455 142.765 35.7727 142.848 35.4545H144.189C144.113 35.9697 143.926 36.4337 143.626 36.8466C143.331 37.2557 142.939 37.5814 142.45 37.8239C141.965 38.0625 141.401 38.1818 140.757 38.1818ZM139.53 25.7727L140.712 27.3636L141.893 25.7727H143.166V25.8636L141.325 28.2273H140.098L138.257 25.8636V25.7727H139.53ZM149.808 38.1818C148.967 38.1818 148.242 37.9962 147.632 37.625C147.026 37.25 146.558 36.7273 146.229 36.0568C145.903 35.3826 145.74 34.5985 145.74 33.7045C145.74 32.8106 145.903 32.0227 146.229 31.3409C146.558 30.6553 147.017 30.1212 147.604 29.7386C148.195 29.3523 148.884 29.1591 149.672 29.1591C150.126 29.1591 150.575 29.2349 151.018 29.3864C151.462 29.5379 151.865 29.7841 152.229 30.125C152.592 30.4621 152.882 30.9091 153.098 31.4659C153.314 32.0227 153.422 32.7083 153.422 33.5227V34.0909H146.695V32.9318H152.058C152.058 32.4394 151.96 32 151.763 31.6136C151.57 31.2273 151.293 30.9224 150.933 30.6989C150.577 30.4754 150.157 30.3636 149.672 30.3636C149.138 30.3636 148.676 30.4962 148.286 30.7614C147.899 31.0227 147.602 31.3636 147.393 31.7841C147.185 32.2045 147.081 32.6553 147.081 33.1364V33.9091C147.081 34.5682 147.195 35.1269 147.422 35.5852C147.653 36.0398 147.973 36.3864 148.382 36.625C148.791 36.8599 149.267 36.9773 149.808 36.9773C150.161 36.9773 150.479 36.928 150.763 36.8295C151.051 36.7273 151.299 36.5758 151.507 36.375C151.715 36.1705 151.876 35.9167 151.99 35.6136L153.286 35.9773C153.149 36.4167 152.92 36.803 152.598 37.1364C152.276 37.4659 151.878 37.7235 151.405 37.9091C150.931 38.0909 150.399 38.1818 149.808 38.1818ZM159.257 29.2727V30.4091H154.734V29.2727H159.257ZM156.053 27.1818H157.393V35.5C157.393 35.8788 157.448 36.1629 157.558 36.3523C157.672 36.5379 157.816 36.6629 157.99 36.7273C158.168 36.7879 158.356 36.8182 158.553 36.8182C158.7 36.8182 158.822 36.8106 158.916 36.7955C159.011 36.7765 159.087 36.7614 159.143 36.75L159.416 37.9545C159.325 37.9886 159.198 38.0227 159.036 38.0568C158.873 38.0947 158.666 38.1136 158.416 38.1136C158.037 38.1136 157.666 38.0322 157.303 37.8693C156.943 37.7064 156.643 37.4583 156.405 37.125C156.17 36.7917 156.053 36.3712 156.053 35.8636V27.1818Z" fill="#242A36"/>
<path d="M33.1374 59.5455V85H27.7557V64.6538H27.6065L21.7773 68.3079V63.5352L28.0788 59.5455H33.1374ZM47.4841 85.348C45.7275 85.348 44.1614 85.0249 42.786 84.3786C41.4188 83.7323 40.3333 82.8415 39.5296 81.7063C38.7258 80.5712 38.3074 79.2703 38.2742 77.8036H43.4944C43.5524 78.7897 43.9667 79.5893 44.7373 80.2024C45.5079 80.8156 46.4235 81.1222 47.4841 81.1222C48.3293 81.1222 49.075 80.9357 49.7213 80.5629C50.3759 80.1817 50.8855 79.6556 51.2501 78.9844C51.623 78.3049 51.8094 77.5261 51.8094 76.6477C51.8094 75.7529 51.6188 74.9657 51.2377 74.2862C50.8648 73.6068 50.3469 73.0765 49.684 72.6953C49.0212 72.3142 48.263 72.1194 47.4095 72.1112C46.6638 72.1112 45.9388 72.2645 45.2345 72.571C44.5384 72.8776 43.9957 73.2961 43.6063 73.8264L38.8211 72.9688L40.0267 59.5455H55.5878V63.9453H44.4639L43.8051 70.3214H43.9543C44.4017 69.6917 45.077 69.1696 45.9802 68.7553C46.8834 68.341 47.8943 68.1339 49.0129 68.1339C50.5458 68.1339 51.913 68.4943 53.1144 69.2152C54.3159 69.9361 55.2647 70.9263 55.9607 72.1857C56.6567 73.4369 57.0006 74.8787 56.9923 76.511C57.0006 78.2262 56.6028 79.7508 55.7991 81.0849C55.0036 82.4106 53.8892 83.4547 52.4557 84.217C51.0305 84.971 49.3733 85.348 47.4841 85.348ZM71.6901 70.1722V74.3732H60.0814V70.1722H71.6901ZM74.4343 85V81.1222L83.495 72.7326C84.2656 71.9869 84.9119 71.3157 85.434 70.7191C85.9643 70.1225 86.3661 69.5384 86.6396 68.9666C86.913 68.3866 87.0497 67.761 87.0497 67.0899C87.0497 66.3441 86.8799 65.7019 86.5401 65.1634C86.2004 64.6165 85.7364 64.198 85.1481 63.908C84.5598 63.6097 83.8928 63.4606 83.147 63.4606C82.3681 63.4606 81.6887 63.618 81.1087 63.9329C80.5287 64.2478 80.0812 64.6993 79.7663 65.2877C79.4515 65.876 79.294 66.5761 79.294 67.3881H74.1857C74.1857 65.7227 74.5627 64.2768 75.3168 63.0504C76.0708 61.8241 77.1273 60.8754 78.4862 60.2042C79.8451 59.533 81.4111 59.1975 83.1843 59.1975C85.0072 59.1975 86.594 59.5206 87.9446 60.1669C89.3035 60.8049 90.36 61.6915 91.114 62.8267C91.868 63.9619 92.245 65.2628 92.245 66.7294C92.245 67.6906 92.0545 68.6393 91.6733 69.5756C91.3004 70.512 90.6334 71.5519 89.6722 72.6953C88.7111 73.8305 87.3563 75.1935 85.608 76.7845L81.8917 80.4261V80.6002H92.5806V85H74.4343ZM105.461 85.5593C103.323 85.551 101.483 85.0249 99.9422 83.9808C98.4093 82.9368 97.2286 81.4246 96.4 79.4443C95.5796 77.4639 95.1736 75.0817 95.1819 72.2976C95.1819 69.5218 95.5921 67.1561 96.4124 65.2006C97.241 63.2452 98.4217 61.7578 99.9546 60.7386C101.496 59.7112 103.331 59.1975 105.461 59.1975C107.59 59.1975 109.421 59.7112 110.954 60.7386C112.495 61.7661 113.68 63.2576 114.509 65.2131C115.338 67.1603 115.748 69.5218 115.739 72.2976C115.739 75.09 115.325 77.4763 114.497 79.4567C113.676 81.437 112.5 82.9492 110.967 83.9933C109.434 85.0373 107.598 85.5593 105.461 85.5593ZM105.461 81.0973C106.919 81.0973 108.083 80.364 108.953 78.8974C109.823 77.4308 110.254 75.2308 110.246 72.2976C110.246 70.367 110.047 68.7595 109.649 67.4752C109.26 66.1908 108.705 65.2255 107.984 64.5792C107.271 63.9329 106.43 63.6097 105.461 63.6097C104.011 63.6097 102.851 64.3348 101.981 65.7848C101.111 67.2349 100.671 69.4058 100.663 72.2976C100.663 74.2531 100.858 75.8854 101.247 77.1946C101.645 78.4955 102.204 79.4733 102.925 80.1279C103.646 80.7742 104.491 81.0973 105.461 81.0973ZM132.51 80.2273V78.885C132.51 77.8658 132.725 76.9295 133.156 76.076C133.595 75.2143 134.229 74.5265 135.058 74.0128C135.895 73.4908 136.914 73.2298 138.115 73.2298C139.333 73.2298 140.357 73.4866 141.185 74.0004C142.022 74.5141 142.652 75.2018 143.074 76.0636C143.505 76.917 143.721 77.8575 143.721 78.885V80.2273C143.721 81.2465 143.505 82.1869 143.074 83.0487C142.644 83.9021 142.01 84.5857 141.173 85.0994C140.336 85.6215 139.317 85.8825 138.115 85.8825C136.897 85.8825 135.874 85.6215 135.045 85.0994C134.217 84.5857 133.587 83.9021 133.156 83.0487C132.725 82.1869 132.51 81.2465 132.51 80.2273ZM136.127 78.885V80.2273C136.127 80.8156 136.267 81.3707 136.549 81.8928C136.839 82.4148 137.361 82.6758 138.115 82.6758C138.869 82.6758 139.383 82.4189 139.656 81.9052C139.938 81.3915 140.079 80.8322 140.079 80.2273V78.885C140.079 78.2801 139.946 77.7166 139.681 77.1946C139.416 76.6726 138.894 76.4116 138.115 76.4116C137.37 76.4116 136.852 76.6726 136.562 77.1946C136.272 77.7166 136.127 78.2801 136.127 78.885ZM119.447 65.6605V64.3182C119.447 63.2907 119.667 62.3503 120.106 61.4968C120.545 60.6351 121.179 59.9473 122.007 59.4336C122.844 58.9199 123.855 58.663 125.04 58.663C126.266 58.663 127.294 58.9199 128.122 59.4336C128.951 59.9473 129.581 60.6351 130.012 61.4968C130.442 62.3503 130.658 63.2907 130.658 64.3182V65.6605C130.658 66.688 130.438 67.6284 129.999 68.4819C129.568 69.3354 128.934 70.0189 128.097 70.5327C127.269 71.0381 126.25 71.2908 125.04 71.2908C123.83 71.2908 122.807 71.034 121.97 70.5203C121.141 69.9982 120.512 69.3146 120.081 68.4695C119.658 67.616 119.447 66.6797 119.447 65.6605ZM123.089 64.3182V65.6605C123.089 66.2654 123.229 66.8247 123.511 67.3384C123.801 67.8522 124.311 68.109 125.04 68.109C125.802 68.109 126.32 67.8522 126.594 67.3384C126.875 66.8247 127.016 66.2654 127.016 65.6605V64.3182C127.016 63.7133 126.884 63.1499 126.618 62.6278C126.353 62.1058 125.827 61.8448 125.04 61.8448C124.303 61.8448 123.793 62.11 123.511 62.6403C123.229 63.1706 123.089 63.7299 123.089 64.3182ZM121.088 85L138.588 59.5455H141.844L124.344 85H121.088Z" fill="#242A36"/>
<path d="M36.573 106.895L32.2621 119H29.1097L24.7988 106.895H27.8408L30.6228 115.887H30.7489L33.5388 106.895H36.573ZM41.4171 119.213C40.4661 119.213 39.615 118.968 38.8636 118.48C38.1123 117.991 37.5186 117.282 37.0825 116.352C36.6464 115.422 36.4284 114.292 36.4284 112.963C36.4284 111.618 36.6491 110.483 37.0904 109.559C37.537 108.629 38.1386 107.927 38.8952 107.454C39.6517 106.976 40.495 106.737 41.425 106.737C42.1343 106.737 42.7175 106.858 43.1746 107.1C43.6317 107.336 43.9942 107.622 44.2622 107.959C44.5301 108.29 44.7376 108.602 44.8848 108.897H45.003V102.86H47.8638V119H45.0581V117.093H44.8848C44.7376 117.387 44.5249 117.7 44.2464 118.031C43.9679 118.356 43.6001 118.635 43.143 118.866C42.6859 119.097 42.1106 119.213 41.4171 119.213ZM42.2131 116.872C42.8173 116.872 43.3322 116.709 43.7578 116.384C44.1833 116.053 44.5065 115.593 44.7271 115.004C44.9478 114.416 45.0581 113.73 45.0581 112.947C45.0581 112.165 44.9478 111.484 44.7271 110.906C44.5117 110.328 44.1912 109.879 43.7656 109.559C43.3453 109.238 42.8278 109.078 42.2131 109.078C41.5773 109.078 41.0467 109.243 40.6211 109.574C40.1955 109.905 39.875 110.362 39.6596 110.946C39.4442 111.529 39.3365 112.196 39.3365 112.947C39.3365 113.704 39.4442 114.379 39.6596 114.973C39.8803 115.561 40.2034 116.026 40.629 116.368C41.0598 116.704 41.5879 116.872 42.2131 116.872ZM49.2903 106.185V102.056H51.6073L51.0398 106.185H49.2903ZM55.084 119.244C54.3169 119.244 53.626 119.108 53.0113 118.835C52.4018 118.556 51.9184 118.146 51.5612 117.605C51.2092 117.064 51.0331 116.397 51.0331 115.603C51.0331 114.92 51.1592 114.355 51.4114 113.909C51.6636 113.462 52.0078 113.105 52.4438 112.837C52.8799 112.569 53.3712 112.367 53.9176 112.23C54.4693 112.088 55.0393 111.986 55.6278 111.923C56.3371 111.849 56.9124 111.784 57.3537 111.726C57.7951 111.663 58.1156 111.568 58.3152 111.442C58.5201 111.311 58.6226 111.108 58.6226 110.835V110.788C58.6226 110.194 58.4466 109.735 58.0945 109.409C57.7425 109.083 57.2355 108.92 56.5735 108.92C55.8747 108.92 55.3204 109.073 54.9106 109.377C54.5061 109.682 54.2328 110.042 54.091 110.457L51.4272 110.079C51.6374 109.343 51.9841 108.728 52.4675 108.235C52.9509 107.735 53.5419 107.362 54.2407 107.115C54.9395 106.863 55.7118 106.737 56.5577 106.737C57.1409 106.737 57.7215 106.805 58.2995 106.942C58.8774 107.079 59.4054 107.305 59.8835 107.62C60.3617 107.93 60.7452 108.353 61.0342 108.889C61.3284 109.425 61.4755 110.094 61.4755 110.898V119H58.7329V117.337H58.6383C58.465 117.673 58.2206 117.989 57.9054 118.283C57.5954 118.572 57.204 118.806 56.7311 118.984C56.2635 119.158 55.7145 119.244 55.084 119.244ZM55.8248 117.148C56.3975 117.148 56.894 117.035 57.3143 116.809C57.7346 116.578 58.0578 116.273 58.2837 115.895C58.5149 115.517 58.6305 115.104 58.6305 114.658V113.231C58.5411 113.305 58.3888 113.373 58.1734 113.436C57.9632 113.499 57.7268 113.554 57.4641 113.602C57.2014 113.649 56.9413 113.691 56.6838 113.728C56.4264 113.764 56.2031 113.796 56.014 113.822C55.5884 113.88 55.2075 113.975 54.8712 114.106C54.5349 114.237 54.2696 114.421 54.0752 114.658C53.8808 114.889 53.7836 115.188 53.7836 115.556C53.7836 116.081 53.9754 116.478 54.3589 116.746C54.7425 117.014 55.2311 117.148 55.8248 117.148ZM65.7344 115.201L65.7265 111.757H66.1836L70.534 106.895H73.8676L68.5164 112.853H67.9253L65.7344 115.201ZM63.1337 119V102.86H65.9866V119H63.1337ZM70.731 119L66.7905 113.491L68.7135 111.482L74.1435 119H70.731ZM78.0418 119.244C77.2747 119.244 76.5838 119.108 75.9691 118.835C75.3597 118.556 74.8763 118.146 74.519 117.605C74.167 117.064 73.991 116.397 73.991 115.603C73.991 114.92 74.1171 114.355 74.3693 113.909C74.6215 113.462 74.9656 113.105 75.4017 112.837C75.8378 112.569 76.329 112.367 76.8754 112.23C77.4271 112.088 77.9972 111.986 78.5856 111.923C79.2949 111.849 79.8702 111.784 80.3116 111.726C80.7529 111.663 81.0734 111.568 81.2731 111.442C81.478 111.311 81.5804 111.108 81.5804 110.835V110.788C81.5804 110.194 81.4044 109.735 81.0524 109.409C80.7004 109.083 80.1934 108.92 79.5313 108.92C78.8326 108.92 78.2783 109.073 77.8685 109.377C77.4639 109.682 77.1907 110.042 77.0488 110.457L74.385 110.079C74.5952 109.343 74.942 108.728 75.4253 108.235C75.9087 107.735 76.4998 107.362 77.1986 107.115C77.8973 106.863 78.6697 106.737 79.5156 106.737C80.0988 106.737 80.6794 106.805 81.2573 106.942C81.8352 107.079 82.3633 107.305 82.8414 107.62C83.3195 107.93 83.703 108.353 83.992 108.889C84.2862 109.425 84.4334 110.094 84.4334 110.898V119H81.6908V117.337H81.5962C81.4228 117.673 81.1785 117.989 80.8632 118.283C80.5533 118.572 80.1618 118.806 79.689 118.984C79.2214 119.158 78.6723 119.244 78.0418 119.244ZM78.7827 117.148C79.3553 117.148 79.8518 117.035 80.2722 116.809C80.6925 116.578 81.0156 116.273 81.2415 115.895C81.4727 115.517 81.5883 115.104 81.5883 114.658V113.231C81.499 113.305 81.3466 113.373 81.1312 113.436C80.921 113.499 80.6846 113.554 80.4219 113.602C80.1592 113.649 79.8991 113.691 79.6417 113.728C79.3842 113.764 79.1609 113.796 78.9718 113.822C78.5462 113.88 78.1653 113.975 77.829 114.106C77.4928 114.237 77.2275 114.421 77.0331 114.658C76.8387 114.889 76.7415 115.188 76.7415 115.556C76.7415 116.081 76.9332 116.478 77.3168 116.746C77.7003 117.014 78.1889 117.148 78.7827 117.148ZM92.5847 119H89.4638L95.146 102.86H98.7556L104.446 119H101.325L97.0138 106.17H96.8877L92.5847 119ZM92.6872 112.672H101.199V115.02H92.6872V112.672ZM108.285 102.86V119H105.361V102.86H108.285ZM119.689 119.236C118.507 119.236 117.482 118.976 116.616 118.456C115.749 117.936 115.076 117.208 114.598 116.273C114.125 115.338 113.889 114.245 113.889 112.995C113.889 111.744 114.125 110.649 114.598 109.708C115.076 108.768 115.749 108.038 116.616 107.517C117.482 106.997 118.507 106.737 119.689 106.737C120.871 106.737 121.896 106.997 122.763 107.517C123.63 108.038 124.3 108.768 124.772 109.708C125.251 110.649 125.49 111.744 125.49 112.995C125.49 114.245 125.251 115.338 124.772 116.273C124.3 117.208 123.63 117.936 122.763 118.456C121.896 118.976 120.871 119.236 119.689 119.236ZM119.705 116.951C120.346 116.951 120.882 116.775 121.313 116.423C121.743 116.066 122.064 115.588 122.274 114.989C122.49 114.39 122.597 113.722 122.597 112.987C122.597 112.246 122.49 111.576 122.274 110.977C122.064 110.373 121.743 109.892 121.313 109.535C120.882 109.178 120.346 108.999 119.705 108.999C119.048 108.999 118.502 109.178 118.066 109.535C117.635 109.892 117.312 110.373 117.096 110.977C116.886 111.576 116.781 112.246 116.781 112.987C116.781 113.722 116.886 114.39 117.096 114.989C117.312 115.588 117.635 116.066 118.066 116.423C118.502 116.775 119.048 116.951 119.705 116.951ZM126.701 123.539V106.895H129.506V108.897H129.672C129.819 108.602 130.026 108.29 130.294 107.959C130.562 107.622 130.925 107.336 131.382 107.1C131.839 106.858 132.422 106.737 133.131 106.737C134.067 106.737 134.91 106.976 135.661 107.454C136.418 107.927 137.017 108.629 137.458 109.559C137.905 110.483 138.128 111.618 138.128 112.963C138.128 114.292 137.91 115.422 137.474 116.352C137.038 117.282 136.444 117.991 135.693 118.48C134.941 118.968 134.09 119.213 133.139 119.213C132.446 119.213 131.87 119.097 131.413 118.866C130.956 118.635 130.588 118.356 130.31 118.031C130.037 117.7 129.824 117.387 129.672 117.093H129.553V123.539H126.701ZM129.498 112.947C129.498 113.73 129.609 114.416 129.829 115.004C130.055 115.593 130.378 116.053 130.799 116.384C131.224 116.709 131.739 116.872 132.343 116.872C132.974 116.872 133.502 116.704 133.927 116.368C134.353 116.026 134.673 115.561 134.889 114.973C135.11 114.379 135.22 113.704 135.22 112.947C135.22 112.196 135.112 111.529 134.897 110.946C134.681 110.362 134.361 109.905 133.935 109.574C133.51 109.243 132.979 109.078 132.343 109.078C131.734 109.078 131.216 109.238 130.791 109.559C130.365 109.879 130.042 110.328 129.821 110.906C129.606 111.484 129.498 112.165 129.498 112.947ZM145.405 106.895V109.101H138.446V106.895H145.405ZM140.164 103.995H143.017V115.359C143.017 115.743 143.075 116.037 143.191 116.242C143.312 116.441 143.469 116.578 143.664 116.651C143.858 116.725 144.073 116.762 144.31 116.762C144.489 116.762 144.651 116.749 144.799 116.722C144.951 116.696 145.066 116.672 145.145 116.651L145.626 118.882C145.474 118.934 145.256 118.992 144.972 119.055C144.693 119.118 144.352 119.155 143.947 119.166C143.233 119.187 142.589 119.079 142.017 118.842C141.444 118.601 140.989 118.228 140.653 117.723C140.322 117.219 140.159 116.588 140.164 115.832V103.995ZM146.581 119V106.895H149.434V119H146.581ZM148.015 105.177C147.563 105.177 147.175 105.027 146.849 104.727C146.523 104.423 146.36 104.058 146.36 103.632C146.36 103.201 146.523 102.836 146.849 102.537C147.175 102.232 147.563 102.079 148.015 102.079C148.472 102.079 148.861 102.232 149.182 102.537C149.507 102.836 149.67 103.201 149.67 103.632C149.67 104.058 149.507 104.423 149.182 104.727C148.861 105.027 148.472 105.177 148.015 105.177ZM151.157 119V106.895H153.884V108.952H154.026C154.278 108.258 154.696 107.717 155.279 107.328C155.862 106.934 156.558 106.737 157.367 106.737C158.187 106.737 158.878 106.937 159.44 107.336C160.007 107.73 160.407 108.269 160.638 108.952H160.764C161.032 108.279 161.484 107.743 162.119 107.344C162.76 106.939 163.52 106.737 164.397 106.737C165.511 106.737 166.42 107.089 167.124 107.793C167.828 108.497 168.18 109.524 168.18 110.875V119H165.319V111.316C165.319 110.565 165.119 110.016 164.72 109.669C164.321 109.317 163.832 109.141 163.254 109.141C162.566 109.141 162.027 109.356 161.639 109.787C161.255 110.213 161.063 110.767 161.063 111.45V119H158.266V111.198C158.266 110.573 158.076 110.073 157.698 109.7C157.325 109.327 156.837 109.141 156.232 109.141C155.823 109.141 155.449 109.246 155.113 109.456C154.777 109.661 154.509 109.953 154.309 110.331C154.11 110.704 154.01 111.14 154.01 111.639V119H151.157ZM173.347 119.244C172.58 119.244 171.889 119.108 171.274 118.835C170.665 118.556 170.182 118.146 169.824 117.605C169.472 117.064 169.296 116.397 169.296 115.603C169.296 114.92 169.422 114.355 169.675 113.909C169.927 113.462 170.271 113.105 170.707 112.837C171.143 112.569 171.634 112.367 172.181 112.23C172.732 112.088 173.302 111.986 173.891 111.923C174.6 111.849 175.176 111.784 175.617 111.726C176.058 111.663 176.379 111.568 176.578 111.442C176.783 111.311 176.886 111.108 176.886 110.835V110.788C176.886 110.194 176.71 109.735 176.358 109.409C176.006 109.083 175.499 108.92 174.837 108.92C174.138 108.92 173.584 109.073 173.174 109.377C172.769 109.682 172.496 110.042 172.354 110.457L169.69 110.079C169.901 109.343 170.247 108.728 170.731 108.235C171.214 107.735 171.805 107.362 172.504 107.115C173.203 106.863 173.975 106.737 174.821 106.737C175.404 106.737 175.985 106.805 176.563 106.942C177.141 107.079 177.669 107.305 178.147 107.62C178.625 107.93 179.008 108.353 179.297 108.889C179.592 109.425 179.739 110.094 179.739 110.898V119H176.996V117.337H176.901C176.728 117.673 176.484 117.989 176.169 118.283C175.859 118.572 175.467 118.806 174.994 118.984C174.527 119.158 173.978 119.244 173.347 119.244ZM174.088 117.148C174.661 117.148 175.157 117.035 175.577 116.809C175.998 116.578 176.321 116.273 176.547 115.895C176.778 115.517 176.894 115.104 176.894 114.658V113.231C176.804 113.305 176.652 113.373 176.437 113.436C176.226 113.499 175.99 113.554 175.727 113.602C175.465 113.649 175.204 113.691 174.947 113.728C174.69 113.764 174.466 113.796 174.277 113.822C173.852 113.88 173.471 113.975 173.134 114.106C172.798 114.237 172.533 114.421 172.338 114.658C172.144 114.889 172.047 115.188 172.047 115.556C172.047 116.081 172.239 116.478 172.622 116.746C173.006 117.014 173.494 117.148 174.088 117.148ZM184.25 102.86V119H181.397V102.86H184.25ZM185.973 119V106.895H188.826V119H185.973ZM187.407 105.177C186.955 105.177 186.567 105.027 186.241 104.727C185.915 104.423 185.752 104.058 185.752 103.632C185.752 103.201 185.915 102.836 186.241 102.537C186.567 102.232 186.955 102.079 187.407 102.079C187.864 102.079 188.253 102.232 188.574 102.537C188.899 102.836 189.062 103.201 189.062 103.632C189.062 104.058 188.899 104.423 188.574 104.727C188.253 105.027 187.864 105.177 187.407 105.177ZM190.391 119V117.187L196.633 109.362V109.259H190.596V106.895H200.125V108.841L194.182 116.533V116.636H200.329V119H190.391ZM205.284 119.244C204.517 119.244 203.826 119.108 203.211 118.835C202.602 118.556 202.118 118.146 201.761 117.605C201.409 117.064 201.233 116.397 201.233 115.603C201.233 114.92 201.359 114.355 201.611 113.909C201.863 113.462 202.208 113.105 202.644 112.837C203.08 112.569 203.571 112.367 204.117 112.23C204.669 112.088 205.239 111.986 205.828 111.923C206.537 111.849 207.112 111.784 207.554 111.726C207.995 111.663 208.315 111.568 208.515 111.442C208.72 111.311 208.822 111.108 208.822 110.835V110.788C208.822 110.194 208.646 109.735 208.294 109.409C207.942 109.083 207.435 108.92 206.773 108.92C206.075 108.92 205.52 109.073 205.11 109.377C204.706 109.682 204.433 110.042 204.291 110.457L201.627 110.079C201.837 109.343 202.184 108.728 202.667 108.235C203.151 107.735 203.742 107.362 204.441 107.115C205.139 106.863 205.912 106.737 206.758 106.737C207.341 106.737 207.921 106.805 208.499 106.942C209.077 107.079 209.605 107.305 210.083 107.62C210.562 107.93 210.945 108.353 211.234 108.889C211.528 109.425 211.675 110.094 211.675 110.898V119H208.933V117.337H208.838C208.665 117.673 208.421 117.989 208.105 118.283C207.795 118.572 207.404 118.806 206.931 118.984C206.463 119.158 205.914 119.244 205.284 119.244ZM206.025 117.148C206.597 117.148 207.094 117.035 207.514 116.809C207.935 116.578 208.258 116.273 208.484 115.895C208.715 115.517 208.83 115.104 208.83 114.658V113.231C208.741 113.305 208.589 113.373 208.373 113.436C208.163 113.499 207.927 113.554 207.664 113.602C207.401 113.649 207.141 113.691 206.884 113.728C206.626 113.764 206.403 113.796 206.214 113.822C205.788 113.88 205.407 113.975 205.071 114.106C204.735 114.237 204.469 114.421 204.275 114.658C204.081 114.889 203.983 115.188 203.983 115.556C203.983 116.081 204.175 116.478 204.559 116.746C204.942 117.014 205.431 117.148 206.025 117.148ZM205.788 105.303L207.554 101.701H210.343L207.924 105.303H205.788ZM218.614 119.236C217.405 119.236 216.368 118.971 215.501 118.44C214.639 117.91 213.975 117.177 213.507 116.242C213.045 115.301 212.813 114.219 212.813 112.995C212.813 111.765 213.05 110.68 213.523 109.74C213.996 108.794 214.663 108.059 215.524 107.533C216.391 107.002 217.416 106.737 218.598 106.737C219.581 106.737 220.45 106.918 221.207 107.281C221.969 107.638 222.575 108.145 223.027 108.802C223.479 109.453 223.737 110.215 223.8 111.087H221.073C220.962 110.504 220.7 110.018 220.285 109.629C219.875 109.235 219.326 109.038 218.637 109.038C218.054 109.038 217.542 109.196 217.101 109.511C216.659 109.821 216.315 110.268 216.068 110.851C215.827 111.434 215.706 112.133 215.706 112.947C215.706 113.772 215.827 114.482 216.068 115.075C216.31 115.664 216.649 116.118 217.085 116.439C217.526 116.754 218.044 116.912 218.637 116.912C219.058 116.912 219.433 116.833 219.764 116.675C220.101 116.512 220.382 116.278 220.608 115.974C220.834 115.669 220.989 115.299 221.073 114.862H223.8C223.731 115.719 223.479 116.478 223.043 117.14C222.607 117.797 222.013 118.312 221.262 118.685C220.511 119.053 219.628 119.236 218.614 119.236ZM224.932 119V106.895H227.785V119H224.932ZM226.366 105.177C225.914 105.177 225.525 105.027 225.2 104.727C224.874 104.423 224.711 104.058 224.711 103.632C224.711 103.201 224.874 102.836 225.2 102.537C225.525 102.232 225.914 102.079 226.366 102.079C226.823 102.079 227.212 102.232 227.532 102.537C227.858 102.836 228.021 103.201 228.021 103.632C228.021 104.058 227.858 104.423 227.532 104.727C227.212 105.027 226.823 105.177 226.366 105.177ZM229.508 119V106.895H232.361V119H229.508ZM230.942 105.177C230.49 105.177 230.101 105.027 229.776 104.727C229.45 104.423 229.287 104.058 229.287 103.632C229.287 103.201 229.45 102.836 229.776 102.537C230.101 102.232 230.49 102.079 230.942 102.079C231.399 102.079 231.788 102.232 232.109 102.537C232.434 102.836 232.597 103.201 232.597 103.632C232.597 104.058 232.434 104.423 232.109 104.727C231.788 105.027 231.399 105.177 230.942 105.177Z" fill="#4FBE79"/>
<path d="M269.143 92.6742L258.089 89.8501V98.3222H365.378V62.3157L352.698 55.2556L349.447 60.5507L339.368 55.2556L327.664 68.3168L310.433 75.7299L299.704 92.6742H283.773L280.197 83.849L269.143 92.6742Z" fill="url(#paint0_linear_2_49)"/>
<path d="M258.089 90.5745L269.143 93.4577L280.197 84.4478L283.773 93.4577H299.704L310.433 76.1586L327.665 68.5903L339.369 55.2556L349.448 60.6615L352.699 55.2556L365.379 62.4635" stroke="#242A36" stroke-width="1.43402"/>
<defs>
<linearGradient id="paint0_linear_2_49" x1="314.569" y1="-58.8283" x2="311.904" y2="99.0286" gradientUnits="userSpaceOnUse">
<stop stop-color="#242A36"/>
<stop offset="1" stop-color="#242A36" stop-opacity="0"/>
</linearGradient>
</defs>
</svg>
