<svg width="24" height="24" viewBox="0 0 24 24" fill="none" xmlns="http://www.w3.org/2000/svg">
<path d="M9.426 3.063C10.684 2.354 11.312 2 12 2C12.688 2 13.316 2.354 14.574 3.063L16.324 4.049C17.629 4.784 18.282 5.152 18.641 5.767C19 6.382 19 7.132 19 8.632V10.368C19 11.868 19 12.618 18.64 13.233C18.282 13.848 17.63 14.216 16.324 14.951L14.574 15.937C13.316 16.646 12.688 17 12 17C11.312 17 10.684 16.646 9.426 15.937L7.676 14.951C6.371 14.216 5.718 13.848 5.359 13.233C5 12.618 5 11.868 5 10.368V8.632C5 7.132 5 6.382 5.36 5.767C5.718 5.152 6.37 4.784 7.676 4.049L9.426 3.063Z" stroke="#242A36" stroke-width="1.5" stroke-linejoin="round"/>
<path d="M9.00007 10.167C9.00007 10.167 9.75007 10.167 10.5001 11.5C10.5001 11.5 12.8821 8.167 15.0001 7.5M16.8831 15L17.5531 18.21C17.9831 20.272 18.1991 21.303 17.7561 21.792C17.3141 22.281 16.5461 21.861 15.0101 21.02L12.7361 19.775C12.3731 19.577 12.1921 19.477 12.0001 19.477C11.8081 19.477 11.6271 19.577 11.2641 19.775L8.99007 21.02C7.45407 21.86 6.68607 22.281 6.24407 21.792C5.80207 21.303 6.01707 20.272 6.44707 18.21L7.11707 15" stroke="#242A36" stroke-width="1.5" stroke-linecap="round" stroke-linejoin="round"/>
</svg>
