<svg width="24" height="24" viewBox="0 0 24 24" fill="none" xmlns="http://www.w3.org/2000/svg">
<path d="M12 7.5C12 8.42826 11.6313 9.3185 10.9749 9.97487C10.3185 10.6313 9.42826 11 8.5 11C7.57174 11 6.6815 10.6313 6.02513 9.97487C5.36875 9.3185 5 8.42826 5 7.5C5 6.57174 5.36875 5.6815 6.02513 5.02513C6.6815 4.36875 7.57174 4 8.5 4C9.42826 4 10.3185 4.36875 10.9749 5.02513C11.6313 5.6815 12 6.57174 12 7.5Z" stroke="#242A36" stroke-width="1.5"/>
<path d="M13.5 11C14.4283 11 15.3185 10.6313 15.9749 9.97487C16.6313 9.3185 17 8.42826 17 7.5C17 6.57174 16.6313 5.6815 15.9749 5.02513C15.3185 4.36875 14.4283 4 13.5 4" stroke="#242A36" stroke-width="1.5" stroke-linecap="round"/>
<path d="M13.143 20H3.857C2.831 20 2 19.233 2 18.286C2 15.919 4.079 14 6.643 14H10.357C11.3511 13.9965 12.3228 14.2954 13.143 14.857" stroke="#242A36" stroke-width="1.5" stroke-linecap="round" stroke-linejoin="round"/>
<path d="M19 14V20M22 17H16" stroke="#242A36" stroke-width="1.5" stroke-linecap="round"/>
</svg>
