<svg width="24" height="24" viewBox="0 0 24 24" fill="none" xmlns="http://www.w3.org/2000/svg">
<path d="M22 13C21.922 14.872 21.671 16.02 20.861 16.828C19.688 18 17.8 18 14.021 18H10.014C6.236 18 4.347 18 3.174 16.828C2.001 15.656 2 13.771 2 10C2 6.229 2 4.343 3.174 3.172C4.348 2.001 6.236 2 10.014 2H11" stroke="#242A36" stroke-width="1.5" stroke-linecap="round"/>
<path d="M12 18V22" stroke="#242A36" stroke-width="1.5"/>
<path d="M8 22H16" stroke="#242A36" stroke-width="1.5" stroke-linecap="round"/>
<path d="M11 15H13M22 5.5V3C20 3 18.5 2 18.5 2C18.5 2 17 3 15 3V5.5C15 9 18.5 10 18.5 10C18.5 10 22 9 22 5.5Z" stroke="#242A36" stroke-width="1.5" stroke-linecap="round" stroke-linejoin="round"/>
</svg>
