<svg width="24" height="24" viewBox="0 0 24 24" fill="none" xmlns="http://www.w3.org/2000/svg">
<path d="M12.5 22H10.727C7.467 22 5.835 22 4.703 21.202C4.38085 20.9761 4.0929 20.705 3.848 20.397C3 19.331 3 17.797 3 14.727V12.182C3 9.219 3 7.737 3.469 6.554C4.223 4.651 5.817 3.151 7.839 2.441C9.095 2 10.668 2 13.818 2C15.616 2 16.516 2 17.234 2.252C18.389 2.658 19.3 3.515 19.731 4.602C20 5.278 20 6.125 20 7.818V10.5" stroke="#242A36" stroke-width="1.5" stroke-linecap="round" stroke-linejoin="round"/>
<path d="M3 12C3 11.116 3.35115 10.2683 3.97621 9.64321C4.60127 9.01815 5.44903 8.667 6.333 8.667C6.999 8.667 7.784 8.783 8.431 8.61C8.71371 8.53392 8.97145 8.38485 9.17838 8.17774C9.38531 7.97064 9.53416 7.71277 9.61 7.43C9.783 6.783 9.667 5.998 9.667 5.332C9.66726 4.44821 10.0185 3.6007 10.6436 2.97586C11.2686 2.35102 12.1162 2 13 2" stroke="#242A36" stroke-width="1.5" stroke-linecap="round" stroke-linejoin="round"/>
<path d="M21 20.492C20.522 21.396 19.651 22 18.657 22C17.147 22 15.923 20.607 15.923 18.889V17.11C15.923 15.392 17.147 13.999 18.657 13.999C19.651 13.999 20.522 14.603 21 15.507M15 18H18.923" stroke="#242A36" stroke-width="1.5" stroke-linecap="round"/>
</svg>
