<svg width="24" height="24" viewBox="0 0 24 24" fill="none" xmlns="http://www.w3.org/2000/svg">
<path d="M20.5 10.5V19.5C20.5 19.966 20.5 20.199 20.424 20.383C20.3223 20.6275 20.1277 20.8217 19.883 20.923C19.699 21 19.466 21 19 21C18.534 21 18.301 21 18.117 20.924C17.8725 20.8223 17.6783 20.6277 17.577 20.383C17.5 20.199 17.5 19.966 17.5 19.5V10.5C17.5 10.034 17.5 9.801 17.576 9.617C17.6777 9.37246 17.8723 9.17826 18.117 9.077C18.301 9 18.534 9 19 9C19.466 9 19.699 9 19.883 9.076C20.1275 9.17771 20.3217 9.37227 20.423 9.617C20.5 9.801 20.5 10.034 20.5 10.5Z" stroke="#242A36" stroke-width="1.5" stroke-linejoin="round"/>
<path d="M16.5 3H19.5V6" stroke="#242A36" stroke-width="1.5" stroke-linecap="round" stroke-linejoin="round"/>
<path d="M19 3.5C19 3.5 15 8.5 4.5 12" stroke="#242A36" stroke-width="1.5" stroke-linecap="round" stroke-linejoin="round"/>
<path d="M13.5 14V19.5C13.5 19.966 13.5 20.199 13.424 20.383C13.3223 20.6275 13.1277 20.8217 12.883 20.923C12.699 21 12.466 21 12 21C11.534 21 11.301 21 11.117 20.924C10.8725 20.8223 10.6783 20.6277 10.577 20.383C10.5 20.199 10.5 19.966 10.5 19.5V14C10.5 13.534 10.5 13.301 10.576 13.117C10.6777 12.8725 10.8723 12.6783 11.117 12.577C11.301 12.5 11.534 12.5 12 12.5C12.466 12.5 12.699 12.5 12.883 12.576C13.1275 12.6777 13.3217 12.8723 13.423 13.117C13.5 13.301 13.5 13.534 13.5 14ZM6.5 16.5V19.5C6.5 19.966 6.5 20.199 6.424 20.383C6.32229 20.6275 6.12773 20.8217 5.883 20.923C5.699 21 5.466 21 5 21C4.534 21 4.301 21 4.117 20.924C3.87246 20.8223 3.67826 20.6277 3.577 20.383C3.5 20.199 3.5 19.966 3.5 19.5V16.5C3.5 16.034 3.5 15.801 3.576 15.617C3.67771 15.3725 3.87227 15.1783 4.117 15.077C4.301 15 4.534 15 5 15C5.466 15 5.699 15 5.883 15.076C6.12754 15.1777 6.32174 15.3723 6.423 15.617C6.5 15.801 6.5 16.034 6.5 16.5Z" stroke="#242A36" stroke-width="1.5" stroke-linejoin="round"/>
</svg>
