<svg width="24" height="24" viewBox="0 0 24 24" fill="none" xmlns="http://www.w3.org/2000/svg">
<path d="M14.535 11.087L18.558 12.661C20.878 13.568 22.038 14.022 21.999 14.742C21.961 15.462 20.75 15.792 18.329 16.452C17.608 16.649 17.247 16.748 16.998 16.998C16.748 17.248 16.649 17.608 16.453 18.328C15.793 20.75 15.463 21.961 14.743 21.999C14.023 22.038 13.568 20.878 12.661 18.558L11.086 14.535C10.136 12.106 9.66103 10.892 10.276 10.276C10.892 9.66103 12.106 10.136 14.536 11.086L14.535 11.087Z" stroke="#242A36" stroke-width="1.5" stroke-linejoin="round"/>
<path d="M10.858 7.083C10.9638 7.24655 11.1291 7.36251 11.3189 7.40636C11.5087 7.45021 11.7081 7.41849 11.8749 7.31793C12.0417 7.21737 12.1629 7.05585 12.2127 6.86755C12.2626 6.67924 12.2372 6.47893 12.142 6.309L10.858 7.083ZM6.309 12.143C6.39337 12.1938 6.48693 12.2275 6.58433 12.2422C6.68173 12.2569 6.78107 12.2522 6.87667 12.2285C6.97226 12.2047 7.06225 12.1624 7.14149 12.1039C7.22074 12.0454 7.28768 11.9719 7.3385 11.8875C7.38932 11.8031 7.42303 11.7096 7.43769 11.6122C7.45236 11.5148 7.44769 11.4154 7.42397 11.3198C7.40024 11.2242 7.35792 11.1342 7.29942 11.055C7.24091 10.9758 7.16737 10.9088 7.083 10.858L6.309 12.143ZM5.75 8.5C5.75 7.77065 6.03973 7.07118 6.55546 6.55546C7.07118 6.03973 7.77065 5.75 8.5 5.75V4.25C7.37283 4.25 6.29183 4.69777 5.4948 5.4948C4.69777 6.29183 4.25 7.37283 4.25 8.5H5.75ZM8.5 5.75C9.5 5.75 10.375 6.283 10.858 7.083L12.142 6.309C11.7641 5.68083 11.2301 5.1611 10.5919 4.80032C9.95374 4.43953 9.23309 4.24995 8.5 4.25V5.75ZM7.083 10.858C6.6762 10.6134 6.33964 10.2677 6.10605 9.8545C5.87246 9.4413 5.7498 8.97466 5.75 8.5H4.25C4.25 10.047 5.077 11.4 6.31 12.142L7.083 10.858Z" fill="#242A36"/>
<path d="M14.252 8.135C14.2713 8.32824 14.3649 8.50645 14.5129 8.63213C14.661 8.7578 14.852 8.82116 15.0458 8.80885C15.2396 8.79654 15.4211 8.70954 15.5521 8.56614C15.683 8.42274 15.7533 8.23413 15.748 8.04L14.252 8.135ZM8.042 15.749C8.24065 15.7615 8.43611 15.6945 8.58539 15.5629C8.73467 15.4312 8.82554 15.2456 8.838 15.047C8.85047 14.8484 8.78351 14.6529 8.65186 14.5036C8.52021 14.3543 8.33465 14.2635 8.136 14.251L8.042 15.749ZM2.75 8.506C2.75027 6.97932 3.35692 5.51526 4.43654 4.43583C5.51616 3.3564 6.98032 2.75 8.507 2.75V1.25C6.58232 1.25 4.73648 2.01457 3.37553 3.37553C2.01457 4.73648 1.25 6.58232 1.25 8.507L2.75 8.506ZM8.507 2.75C9.96946 2.74999 11.3771 3.30657 12.4441 4.30671C13.5111 5.30686 14.1575 6.6756 14.252 8.135L15.748 8.04C15.6294 6.20015 14.8149 4.47443 13.47 3.21332C12.1251 1.9522 10.3507 1.25024 8.507 1.25V2.75ZM8.137 14.252C6.67707 14.158 5.30769 13.5117 4.3071 12.4444C3.30651 11.3771 2.74977 9.96896 2.75 8.506H1.25C1.25 12.357 4.25 15.507 8.041 15.748L8.137 14.252Z" fill="#242A36"/>
</svg>
